<svg width="48" height="43" fill="none" xmlns="http://www.w3.org/2000/svg"><g clip-path="url('#clip0_172_927')" fill="#000"><path d="M47.866 16.064c-.533-3.343-1.761-6.388-3.897-9.024C40.31 2.528 35.613.109 29.819.054c-3.897-.027-7.795-.108-11.692 0C10.572.272 5.152 4.023 1.762 10.845 1.308 11.715.96 12.64.72 13.59c-.027.11-.054.19-.08.3-.027.108-.054.19-.08.298a18.58 18.58 0 0 0-.374 7.122v.054a20.85 20.85 0 0 0 .96 3.642c.401 1.142.935 2.23 1.576 3.262 3.23 5.246 7.849 8.263 13.935 8.888.961.109 1.95.163 2.937.109.614-.027.908.217 1.148.761.587 1.305 1.255 2.582 1.869 3.887.293.598.667 1.087 1.415 1.087.774 0 1.12-.49 1.415-1.087.64-1.305 1.281-2.555 1.868-3.887.24-.57.56-.761 1.148-.734 2.617.109 5.18-.19 7.609-1.196 6.327-2.61 10.198-7.311 11.586-14.134.027-.081.027-.163.053-.272.054-.271.08-.516.16-.788.214-1.44.134-3.234 0-4.838Zm-14.63 17.858c-1.975.462-4.084.407-6.113.489-.854.027-1.361.326-1.708 1.114-.4.897-.854 1.767-1.388 2.827-.534-1.06-.988-1.957-1.415-2.881-.347-.734-.855-1.087-1.682-1.033-2.697.082-5.393.027-7.956-1.033-5.766-2.419-9.21-6.713-9.984-13.074-.988-8.127 4.645-15.9 13.028-17.232 1.788-.3 3.657-.19 5.5-.19 2.669-.028 5.338 0 8.008 0 7.208.027 13.375 4.756 15.164 11.877 2.162 8.617-3.097 17.206-11.453 19.136Z"/><path d="M19.782 18.7c0-2.826 0-5.626-.027-8.453 0-.353-.08-.76-.267-1.06-.507-.815-1.468-.815-2.216-.081-1.521 1.603-3.043 3.152-4.565 4.756-.347.38-.694.544-1.201.517a108.048 108.048 0 0 0-4.191 0c-1.015 0-1.522.516-1.522 1.576v5.382c0 1.142.48 1.604 1.628 1.604 1.389 0 2.777-.028 4.192.027.347 0 .747.19.988.435 1.575 1.549 3.096 3.125 4.618 4.702.507.516 1.068.761 1.709.49.667-.273.854-.843.854-1.577-.027-2.773 0-5.545 0-8.318Zm-8.463 1.36H8.623v-2.773h2.696v2.772Zm5.58 3.669c-.935-.979-1.762-1.821-2.563-2.691-.134-.163-.16-.462-.16-.68a76.752 76.752 0 0 1 0-3.506c0-.217.08-.516.213-.652.774-.843 1.602-1.685 2.51-2.61V23.73ZM28.245 18.646v-5.6c0-.923.507-1.521 1.334-1.549.775-.027 1.469.626 1.469 1.523.026 3.75.026 7.529 0 11.28 0 .95-.641 1.522-1.469 1.494-.827-.027-1.334-.598-1.334-1.522v-5.626ZM33.85 18.592v-5.463c0-1.006.561-1.686 1.389-1.686s1.415.68 1.415 1.658v11.063c0 1.006-.56 1.604-1.442 1.604-.854 0-1.361-.571-1.361-1.577v-5.6ZM25.442 18.619v2.61c-.027 1.06-.588 1.712-1.442 1.684-.828 0-1.415-.652-1.415-1.657v-5.3c0-1.034.56-1.604 1.442-1.604.854 0 1.388.598 1.415 1.63v2.637ZM42.233 18.7v2.773c0 .87-.533 1.44-1.334 1.468-.801.027-1.442-.544-1.469-1.413a201.455 201.455 0 0 1 0-5.681c0-.897.614-1.468 1.415-1.468.828 0 1.362.598 1.362 1.495.026.924.026 1.875.026 2.827Z"/></g><defs><clipPath id="clip0_172_927"><path fill="#fff" d="M0 0h48v43H0z"/></clipPath></defs></svg>