<svg width="104" height="104" fill="none" xmlns="http://www.w3.org/2000/svg"><g clip-path="url('#clip0_172_942')" fill="#0EB2D3"><path d="M31.453 92.796C35.4 94.79 39.3 96.135 43.38 96.874c10.985 2.017 21.365.336 31.14-5.087 1.883-1.053 3.743-.627 4.663 1.031.896 1.636.269 3.406-1.637 4.482-8.833 4.885-18.271 7.372-28.36 6.566-21.634-1.726-37.125-12.617-45.33-32.628C-6.994 44.751 5.829 14.88 32.26 4.056c15.47-6.32 30.692-5.154 45.376 2.824 1.838.986 2.42 2.778 1.524 4.414-.874 1.614-2.757 2.084-4.573 1.053-5.493-3.114-11.389-4.997-17.644-5.714-5.65-.627-11.231-.18-16.746 1.3 1.165 1.927 2.376 3.765 3.407 5.692a40.263 40.263 0 0 1 4.305 12.414c.986 5.894 3.497 11.026 6.994 15.776 1.121 1.524 2.242 3.07 3.296 4.661 1.502 2.286 1.098 3.698-1.278 5.02-.426.224-.852.47-1.323.627-2.51.874-3.273 2.913-3.43 5.244-.045.74.359 1.569.785 2.24.627.965.627 1.413-.381 1.973-1.884 1.03-3.79 2.04-5.919 3.182 2.085 0 3.923.022 5.762 0 1.614-.022 1.748.381 1.636 1.927-.134 1.793.112 3.608.381 5.4.202 1.345.74 2.645 1.054 3.99.292 1.3-.09 2.442-.986 3.383-1.794 1.905-4.103 2.644-6.614 2.869-1.995.179-4.013.291-6.03.403-3.834.247-6.592 2.196-8.407 5.49-.763 1.412-1.278 2.958-1.996 4.572ZM104 53.4c-.291 12.819-5.179 24.964-14.953 35.093-1.457 1.524-3.318 1.614-4.663.336-1.368-1.322-1.323-3.226.179-4.75 5.919-6.028 10.021-13.11 11.837-21.334 3.587-16.179-.381-30.386-11.68-42.577-.56-.605-1.054-1.389-1.255-2.15-.314-1.345.47-2.668 1.636-3.25 1.233-.628 2.623-.381 3.7.672 3.72 3.675 6.747 7.866 9.19 12.482 4.014 7.574 5.987 15.686 6.009 25.479Z"/><path d="M91.423 53.065c-.157 9.613-3.856 18.711-11.075 26.375-1.008 1.053-2.152 1.636-3.587 1.21-1.21-.359-1.928-1.233-2.174-2.465-.225-1.21.314-2.151 1.143-3.003 4.484-4.616 7.488-10.017 8.698-16.336 2.175-11.316-.672-21.244-8.541-29.714-.874-.941-1.57-1.905-1.278-3.272.247-1.188.964-2.04 2.13-2.375 1.278-.359 2.399-.045 3.363.94 3.362 3.452 6.053 7.373 7.98 11.788 2.22 5.064 3.319 10.375 3.341 16.852Z"/><path d="M78.846 51.496c-.112 7.798-2.645 14.117-7.734 19.361-1.099 1.12-2.645 1.367-3.879.65-1.188-.672-1.838-2.04-1.457-3.45.157-.606.56-1.211 1.01-1.682 6.926-7.282 7.733-18.084 1.905-26.285-.606-.852-1.3-1.636-2.018-2.398-1.323-1.457-1.368-3.361-.067-4.594 1.345-1.277 3.16-1.21 4.573.224 3.968 4.079 6.412 8.941 7.309 14.544.224 1.367.291 2.733.358 3.63Z"/></g><defs><clipPath id="clip0_172_942"><path fill="#fff" d="M0 0h104v104H0z"/></clipPath></defs></svg>