<svg width="246" height="72" fill="none" xmlns="http://www.w3.org/2000/svg"><g clip-path="url('#clip0_172_1049')" fill="#000"><path d="M7.9 26.552c-.552-.496-.961-1.18-1.248-2.048L.184 3.374C.061 2.917 0 2.545 0 2.255 0 1.573.205 1.035.614.62 1.024.207 1.556 0 2.231 0c1.208 0 2.006.683 2.395 2.049l5.178 17.57h.368l5.179-17.57C15.76.683 16.579 0 17.745 0c.696 0 1.229.207 1.638.62.389.415.593.953.593 1.636 0 .29-.061.683-.184 1.117l-6.468 21.13c-.573 1.863-1.678 2.815-3.336 2.815-.839-.02-1.535-.269-2.088-.766ZM32.36 8.423c1.125.62 2.026 1.47 2.66 2.525a6.612 6.612 0 0 1 .962 3.456v2.463c0 .641-.225 1.138-.675 1.49-.45.352-1.003.517-1.658.517H25.44v1.304c0 .952.287 1.718.88 2.297.594.58 1.372.87 2.334.87.634 0 1.187-.104 1.657-.29.471-.187.942-.497 1.413-.952.368-.352.696-.6 1.003-.725.286-.145.634-.207 1.044-.207.49 0 .9.166 1.207.476a1.7 1.7 0 0 1 .47 1.2c0 .435-.142.87-.408 1.325-.267.456-.635.89-1.106 1.283-.614.497-1.371.89-2.272 1.18-.9.29-1.883.435-2.968.435-1.412 0-2.68-.31-3.827-.932-1.146-.62-2.047-1.47-2.681-2.525a6.613 6.613 0 0 1-.962-3.456v-5.794c0-1.242.327-2.401.962-3.457.634-1.055 1.535-1.904 2.66-2.524 1.126-.621 2.395-.932 3.767-.932 1.35.02 2.62.352 3.745.973Zm-6.018 3.684c-.594.58-.88 1.345-.88 2.256v.972h6.283v-.973c0-.93-.286-1.676-.86-2.255-.573-.58-1.33-.87-2.271-.87-.942-.02-1.679.27-2.272.87ZM51.067 8.3c.88.558 1.576 1.324 2.087 2.317.512.994.778 2.132.778 3.394V24.67a1.92 1.92 0 0 1-.614 1.448c-.41.394-.921.6-1.535.6a2.074 2.074 0 0 1-1.494-.6 1.952 1.952 0 0 1-.614-1.448V14.032c0-.848-.266-1.531-.778-2.028-.512-.517-1.228-.766-2.108-.766-.86 0-1.556.249-2.067.766-.512.517-.778 1.2-.778 2.028V24.69a1.92 1.92 0 0 1-.614 1.45c-.41.392-.921.6-1.535.6a2.074 2.074 0 0 1-1.494-.6 1.952 1.952 0 0 1-.614-1.45V9.914c0-.58.204-1.056.614-1.449.409-.393.9-.6 1.494-.6.634 0 1.125.165 1.432.476.328.331.512.683.553 1.076h.41c.348-.538.88-1.014 1.617-1.387a5.171 5.171 0 0 1 2.394-.558c1.023 0 1.986.29 2.866.827ZM67.052 22.807c.573 0 1.044.166 1.412.517.368.352.553.807.553 1.345 0 .56-.184.994-.553 1.346-.368.352-.84.517-1.412.517h-2.784a5.784 5.784 0 0 1-2.865-.724c-.86-.476-1.515-1.16-2.006-2.028a5.705 5.705 0 0 1-.737-2.856v-9.148h-.47c-.574 0-1.044-.165-1.433-.517a1.753 1.753 0 0 1-.594-1.345c0-.539.205-.994.594-1.346.389-.351.88-.517 1.432-.517h.471V5.236c0-.58.205-1.055.614-1.448.41-.394.9-.6 1.494-.6.614 0 1.126.206 1.535.6.41.393.614.89.614 1.448v2.815h3.214c.573 0 1.044.166 1.433.517.388.352.593.807.593 1.346 0 .558-.205.993-.593 1.345-.39.352-.88.517-1.433.517h-3.214v9.168c0 .6.144 1.056.43 1.387.287.331.655.476 1.126.476h2.579ZM81.318 8.361a6.568 6.568 0 0 1 2.517 2.4 6.2 6.2 0 0 1 .9 3.27V24.69a1.92 1.92 0 0 1-.613 1.449c-.41.393-.9.6-1.494.6-.512 0-.962-.166-1.31-.476a2.303 2.303 0 0 1-.717-1.139h-.368c-.45.58-1.044 1.056-1.801 1.428a5.489 5.489 0 0 1-2.456.56 5.399 5.399 0 0 1-2.784-.746c-.84-.497-1.494-1.2-1.985-2.07-.471-.89-.717-1.883-.717-2.98 0-1.78.614-3.207 1.822-4.325 1.228-1.117 2.886-1.655 5.014-1.655h3.153v-1.304c0-.849-.246-1.532-.758-2.028-.511-.518-1.187-.766-2.006-.766-.47 0-.86.082-1.207.227-.328.145-.716.435-1.167.87-.389.372-.737.62-1.064.765-.307.145-.676.207-1.085.207-.491 0-.921-.165-1.248-.476a1.576 1.576 0 0 1-.512-1.2c0-.497.184-.993.532-1.47.348-.475.84-.93 1.433-1.324 1.29-.87 2.722-1.304 4.318-1.304a6.774 6.774 0 0 1 3.603.828Zm-.84 10.348h-3.151c-.758 0-1.392.227-1.863.683-.47.455-.716 1.076-.716 1.821 0 .724.225 1.304.655 1.718.43.434 1.023.641 1.76.641.573 0 1.166-.145 1.78-.455a4.882 4.882 0 0 0 1.556-1.159v-3.25h-.02ZM86.414 34.603c-.573 0-1.044-.165-1.412-.517-.368-.352-.553-.807-.553-1.345 0-.56.184-.994.553-1.346.368-.351.84-.517 1.412-.517h1.105c.471 0 .86-.166 1.147-.476.286-.331.45-.786.45-1.387V9.913c0-.58.205-1.055.614-1.448.41-.394.9-.6 1.494-.6.614 0 1.126.206 1.535.6.41.393.614.89.614 1.448v19.082c0 1.055-.245 2.007-.737 2.856a5.328 5.328 0 0 1-2.026 2.028c-.86.476-1.822.724-2.886.724h-1.31ZM89.587 3.85c-.45-.414-.676-.952-.676-1.615 0-.641.225-1.18.676-1.614a2.376 2.376 0 0 1 1.658-.642c.634 0 1.187.207 1.637.642.45.435.675.952.675 1.614 0 .642-.225 1.18-.675 1.615-.45.413-.983.641-1.637.641-.655 0-1.208-.207-1.658-.641ZM107.578 8.361a6.569 6.569 0 0 1 2.517 2.4 6.2 6.2 0 0 1 .901 3.27V24.69c0 .58-.205 1.055-.614 1.449-.41.393-.901.6-1.494.6-.512 0-.962-.166-1.31-.476a2.304 2.304 0 0 1-.717-1.139h-.368c-.45.58-1.044 1.056-1.801 1.428a5.491 5.491 0 0 1-2.456.56 5.399 5.399 0 0 1-2.784-.746c-.84-.497-1.494-1.2-1.985-2.07-.471-.89-.717-1.883-.717-2.98 0-1.78.614-3.207 1.822-4.325 1.228-1.117 2.886-1.655 5.015-1.655h3.152v-1.304c0-.849-.246-1.532-.758-2.028-.511-.518-1.187-.766-2.006-.766-.47 0-.859.082-1.207.227-.328.145-.717.435-1.167.87-.389.372-.737.62-1.064.765-.307.145-.676.207-1.085.207-.491 0-.921-.165-1.248-.476a1.576 1.576 0 0 1-.512-1.2c0-.497.184-.993.532-1.47.348-.475.84-.93 1.433-1.324 1.289-.87 2.722-1.304 4.318-1.304a6.777 6.777 0 0 1 3.603.828Zm-.839 10.348h-3.152c-.758 0-1.392.227-1.863.683-.471.455-.716 1.076-.716 1.821 0 .724.225 1.304.655 1.718.429.434 1.023.641 1.76.641.573 0 1.166-.145 1.78-.455a4.875 4.875 0 0 0 1.556-1.159v-3.25h-.02ZM117.566 26.532c-.921-.393-1.719-.87-2.395-1.47a5.128 5.128 0 0 1-1.044-1.324c-.245-.455-.368-.89-.368-1.283 0-.476.164-.87.512-1.2.348-.332.757-.476 1.248-.476.409 0 .798.082 1.146.269.348.165.717.496 1.106.972.45.497.88.849 1.309 1.076.43.207.922.31 1.495.31.839 0 1.494-.185 1.985-.579.471-.393.716-.848.716-1.407 0-.62-.266-1.117-.818-1.449-.553-.351-1.413-.745-2.62-1.2a20.23 20.23 0 0 1-2.866-1.2c-.757-.394-1.391-.973-1.944-1.739-.553-.765-.819-1.717-.819-2.897 0-.952.266-1.842.819-2.65.532-.827 1.31-1.49 2.292-2.007.983-.517 2.108-.765 3.357-.765 1.064 0 2.026.165 2.886.476.86.31 1.596.724 2.19 1.262.86.828 1.289 1.614 1.289 2.4 0 .477-.163.87-.491 1.201-.327.331-.737.476-1.248.476-.369 0-.696-.062-1.003-.207a3.74 3.74 0 0 1-.962-.724 4.56 4.56 0 0 0-1.249-.87 3.768 3.768 0 0 0-1.433-.268c-.695 0-1.228.165-1.637.476-.389.33-.593.724-.593 1.2 0 .62.266 1.117.818 1.449.532.351 1.412.745 2.62 1.2a20.23 20.23 0 0 1 2.866 1.2c.757.393 1.391.973 1.944 1.739.532.765.819 1.718.819 2.897a5.05 5.05 0 0 1-.86 2.815c-.573.89-1.392 1.593-2.436 2.11-1.043.518-2.272.787-3.643.787-1.044-.02-2.067-.207-2.988-.6ZM152.34.787c.41.393.614.89.614 1.448V24.67c0 .58-.204 1.056-.614 1.45-.409.392-.921.6-1.535.6-.491 0-.921-.166-1.289-.477a2.202 2.202 0 0 1-.737-1.138h-.389c-.348.559-.88 1.014-1.617 1.407a4.896 4.896 0 0 1-2.354.58 5.34 5.34 0 0 1-2.947-.87c-.901-.579-1.617-1.407-2.17-2.462-.552-1.056-.818-2.256-.818-3.58v-5.795c0-1.325.266-2.505.818-3.58.533-1.056 1.269-1.884 2.17-2.463a5.34 5.34 0 0 1 2.947-.87c.84 0 1.597.166 2.293.518.696.352 1.228.807 1.596 1.345h.369V2.235c0-.58.204-1.055.614-1.448.409-.394.9-.6 1.494-.6.634 0 1.146.206 1.555.6Zm-4.503 21.689c.574-.6.86-1.366.86-2.277v-5.795c0-.93-.286-1.676-.86-2.276-.573-.6-1.269-.89-2.108-.89-.839 0-1.535.29-2.108.89-.573.6-.86 1.366-.86 2.276V20.2c0 .931.287 1.676.86 2.277.573.6 1.269.89 2.108.89a2.68 2.68 0 0 0 2.108-.89ZM167.998 8.423c1.126.62 2.026 1.47 2.661 2.525a6.617 6.617 0 0 1 .962 3.456v2.463c0 .641-.225 1.138-.676 1.49-.45.352-1.003.517-1.658.517h-8.207v1.304c0 .952.287 1.718.88 2.297.594.58 1.371.87 2.333.87.635 0 1.187-.104 1.658-.29.471-.187.942-.497 1.413-.952.368-.352.695-.6 1.002-.725.287-.145.635-.207 1.044-.207.492 0 .901.166 1.208.476a1.7 1.7 0 0 1 .471 1.2c0 .435-.144.87-.41 1.325a4.91 4.91 0 0 1-1.105 1.283c-.614.497-1.371.89-2.272 1.18-.9.29-1.883.435-2.968.435-1.412 0-2.681-.31-3.827-.932-1.146-.62-2.047-1.47-2.681-2.525a6.608 6.608 0 0 1-.962-3.456v-5.794c0-1.242.327-2.401.962-3.457.634-1.055 1.535-1.904 2.66-2.524 1.126-.621 2.395-.932 3.766-.932a7.95 7.95 0 0 1 3.746.973Zm-6.017 3.684c-.594.58-.881 1.345-.881 2.256v.972h6.284v-.973c0-.93-.287-1.676-.86-2.255-.573-.58-1.33-.87-2.272-.87-.941-.02-1.678.27-2.271.87ZM197.103 8.444c.409.393.614.89.614 1.448V24.67c0 .58-.205 1.056-.614 1.449-.41.393-.901.6-1.494.6-.635 0-1.126-.166-1.433-.476-.327-.331-.512-.704-.553-1.118h-.409c-.348.56-.88 1.015-1.617 1.408s-1.515.58-2.395.58a5.202 5.202 0 0 1-2.865-.829c-.88-.538-1.576-1.324-2.088-2.318-.511-.993-.778-2.131-.778-3.394V9.913c0-.58.205-1.055.614-1.449.41-.393.922-.6 1.536-.6.593 0 1.084.207 1.494.6.409.394.614.89.614 1.45V20.57c0 .849.266 1.532.777 2.028.512.518 1.229.766 2.109.766.859 0 1.555-.248 2.067-.765.512-.518.778-1.2.778-2.029V9.913c0-.58.204-1.055.614-1.449.409-.393.921-.6 1.535-.6.573 0 1.084.187 1.494.58ZM204.389 26.532c-.921-.393-1.719-.87-2.394-1.47a5.085 5.085 0 0 1-1.044-1.324c-.246-.455-.369-.89-.369-1.283 0-.476.164-.87.512-1.2.348-.332.757-.476 1.249-.476.409 0 .798.082 1.146.269.348.165.716.496 1.105.972.45.497.88.849 1.31 1.076.43.207.921.31 1.494.31.839 0 1.494-.185 1.985-.579.471-.393.717-.848.717-1.407 0-.62-.266-1.117-.819-1.449-.552-.351-1.412-.745-2.62-1.2a20.212 20.212 0 0 1-2.865-1.2c-.757-.394-1.392-.973-1.945-1.739-.552-.765-.818-1.717-.818-2.897a4.6 4.6 0 0 1 .818-2.65c.533-.827 1.31-1.49 2.293-2.007.982-.517 2.108-.765 3.356-.765 1.065 0 2.027.165 2.886.476.86.31 1.597.724 2.19 1.262.86.828 1.29 1.614 1.29 2.4 0 .477-.164.87-.491 1.201-.328.331-.737.476-1.249.476-.368 0-.696-.062-1.003-.207a3.757 3.757 0 0 1-.962-.724 4.556 4.556 0 0 0-1.248-.87 3.772 3.772 0 0 0-1.433-.268c-.696 0-1.228.165-1.637.476-.389.33-.594.724-.594 1.2 0 .62.266 1.117.819 1.449.532.351 1.412.745 2.62 1.2 1.166.393 2.108.807 2.865 1.2.757.393 1.392.973 1.944 1.739.533.765.819 1.718.819 2.897a5.05 5.05 0 0 1-.859 2.815c-.574.89-1.392 1.593-2.436 2.11-1.044.518-2.272.787-3.643.787-1.065-.02-2.068-.207-2.989-.6ZM227.415 8.361a6.565 6.565 0 0 1 2.518 2.4 6.2 6.2 0 0 1 .9 3.27V24.69c0 .58-.204 1.055-.614 1.449-.409.393-.9.6-1.494.6-.511 0-.962-.166-1.31-.476a2.302 2.302 0 0 1-.716-1.139h-.368c-.451.58-1.044 1.056-1.802 1.428a5.488 5.488 0 0 1-2.456.56 5.396 5.396 0 0 1-2.783-.746c-.839-.497-1.494-1.2-1.986-2.07-.47-.89-.716-1.883-.716-2.98 0-1.78.614-3.207 1.822-4.325 1.228-1.117 2.886-1.655 5.014-1.655h3.152v-1.304c0-.849-.245-1.532-.757-2.028-.512-.518-1.187-.766-2.006-.766-.471 0-.86.082-1.208.227-.327.145-.716.435-1.166.87-.389.372-.737.62-1.064.765-.307.145-.676.207-1.085.207-.491 0-.921-.165-1.249-.476a1.576 1.576 0 0 1-.511-1.2c0-.497.184-.993.532-1.47.348-.475.839-.93 1.432-1.324 1.29-.87 2.723-1.304 4.319-1.304a6.774 6.774 0 0 1 3.602.828Zm-.818 10.348h-3.152c-.758 0-1.392.227-1.863.683-.471.455-.716 1.076-.716 1.821 0 .724.225 1.304.655 1.718.43.434 1.023.641 1.76.641.573 0 1.167-.145 1.781-.455a4.882 4.882 0 0 0 1.555-1.159v-3.25h-.02ZM244.096 7.657c.574 0 1.024.166 1.392.518.348.351.532.807.532 1.345 0 .559-.184.993-.532 1.345-.348.352-.818.517-1.392.517h-2.21c-.737 0-1.351.249-1.842.766-.491.518-.737 1.16-.737 1.925v10.575c0 .58-.205 1.056-.614 1.449-.409.393-.921.6-1.535.6a2.073 2.073 0 0 1-1.494-.6 1.95 1.95 0 0 1-.614-1.449V9.913c0-.58.204-1.055.614-1.449.409-.393.9-.6 1.494-.6.512 0 .962.145 1.351.455.389.29.614.642.716 1.056h.328c.286-.455.716-.849 1.248-1.18A3.178 3.178 0 0 1 242.5 7.7h1.596v-.042ZM34.12 53.27c.9.621 1.616 1.45 2.149 2.484.532 1.056.798 2.215.798 3.518v5.795a6.704 6.704 0 0 1-.962 3.498 6.902 6.902 0 0 1-2.6 2.504c-1.105.62-2.312.91-3.643.91a7.5 7.5 0 0 1-3.643-.91 6.909 6.909 0 0 1-2.6-2.504 6.704 6.704 0 0 1-.961-3.498V47.124c0-.58.204-1.055.614-1.449.409-.393.9-.6 1.494-.6.614 0 1.126.207 1.535.6.41.394.614.89.614 1.45v7.098h.368c.369-.58.9-1.035 1.597-1.366a5.245 5.245 0 0 1 2.292-.497c1.064 0 2.047.31 2.947.91Zm-1.31 6.002c0-.93-.287-1.676-.84-2.276-.552-.6-1.269-.89-2.128-.89-.86 0-1.576.29-2.129.89-.553.6-.84 1.366-.84 2.276v5.795c0 .931.287 1.677.84 2.277.553.6 1.27.89 2.129.89.86 0 1.576-.29 2.128-.89.553-.6.84-1.366.84-2.277v-5.795ZM50.002 52.546c.573 0 1.024.166 1.392.517.348.352.532.807.532 1.345 0 .56-.184.994-.532 1.346-.348.352-.819.517-1.392.517h-2.21c-.737 0-1.351.248-1.842.766-.491.517-.737 1.159-.737 1.925v10.575a1.92 1.92 0 0 1-.614 1.449c-.41.393-.921.6-1.535.6a2.075 2.075 0 0 1-1.494-.6 1.952 1.952 0 0 1-.614-1.449V54.76c0-.58.204-1.055.614-1.448.41-.394.9-.6 1.494-.6.511 0 .962.144 1.35.455.39.29.615.641.717 1.055h.328c.286-.455.716-.848 1.248-1.18a3.179 3.179 0 0 1 1.699-.496h1.596ZM63.388 53.25a6.569 6.569 0 0 1 2.518 2.4 6.2 6.2 0 0 1 .9 3.27V69.58a1.92 1.92 0 0 1-.614 1.449c-.41.393-.9.6-1.494.6-.512 0-.962-.166-1.31-.476a2.302 2.302 0 0 1-.716-1.138h-.369c-.45.579-1.043 1.055-1.8 1.428a5.489 5.489 0 0 1-2.457.558 5.399 5.399 0 0 1-2.783-.745c-.84-.496-1.495-1.2-1.986-2.07-.47-.89-.716-1.883-.716-2.98 0-1.78.614-3.207 1.821-4.325 1.229-1.117 2.886-1.655 5.015-1.655h3.152V58.92c0-.849-.246-1.532-.757-2.028-.512-.518-1.187-.766-2.006-.766-.47 0-.86.083-1.208.227-.327.145-.716.435-1.166.87-.39.372-.737.62-1.065.765-.307.145-.675.207-1.084.207-.492 0-.921-.165-1.249-.476a1.576 1.576 0 0 1-.512-1.2c0-.497.184-.993.532-1.47.348-.475.84-.93 1.433-1.324 1.29-.87 2.722-1.304 4.319-1.304a6.674 6.674 0 0 1 3.602.828Zm-.839 10.327h-3.152c-.757 0-1.392.228-1.863.683-.47.456-.716 1.076-.716 1.821 0 .725.225 1.304.655 1.718.43.435 1.023.642 1.76.642.573 0 1.167-.145 1.78-.456a4.882 4.882 0 0 0 1.556-1.159v-3.249h-.02ZM71.452 48.738c-.45-.414-.675-.952-.675-1.614 0-.642.225-1.18.675-1.614a2.376 2.376 0 0 1 1.658-.642c.635 0 1.187.207 1.638.642.45.434.675.952.675 1.614 0 .642-.225 1.18-.675 1.614-.45.414-.983.642-1.638.642a2.376 2.376 0 0 1-1.658-.642Zm.144 22.29a1.952 1.952 0 0 1-.614-1.45V54.803c0-.58.204-1.055.614-1.449.409-.393.9-.6 1.494-.6.614 0 1.126.207 1.535.6.41.394.614.89.614 1.45v14.776a1.92 1.92 0 0 1-.614 1.448c-.41.394-.921.6-1.535.6a2.074 2.074 0 0 1-1.494-.6ZM80.09 71.028a1.952 1.952 0 0 1-.614-1.45V47.125c0-.58.204-1.055.614-1.449.41-.393.9-.6 1.494-.6.614 0 1.126.207 1.535.6.41.394.614.89.614 1.45v22.433a1.92 1.92 0 0 1-.614 1.449c-.41.393-.921.6-1.535.6a2.007 2.007 0 0 1-1.494-.58ZM98.797 53.291c1.126.62 2.026 1.47 2.661 2.525a6.617 6.617 0 0 1 .962 3.456v2.463c0 .641-.225 1.138-.676 1.49-.45.352-1.002.517-1.657.517h-8.208v1.304c0 .952.287 1.718.88 2.297.594.58 1.371.87 2.334.87.634 0 1.187-.104 1.657-.29.471-.186.942-.497 1.413-.952.368-.352.696-.6 1.002-.725.287-.144.635-.206 1.044-.206.492 0 .901.165 1.208.475a1.7 1.7 0 0 1 .471 1.2c0 .435-.144.87-.41 1.325a4.91 4.91 0 0 1-1.105 1.283c-.614.497-1.371.89-2.272 1.18-.9.29-1.883.435-2.968.435-1.412 0-2.68-.31-3.827-.931-1.146-.621-2.047-1.47-2.681-2.525a6.612 6.612 0 0 1-.962-3.457v-5.794c0-1.242.327-2.401.962-3.456.634-1.056 1.535-1.904 2.66-2.525 1.126-.621 2.395-.932 3.767-.932 1.35.042 2.62.352 3.745.973Zm-6.038 3.684c-.593.58-.88 1.345-.88 2.256v.972h6.284v-.972c0-.932-.287-1.677-.86-2.256-.573-.58-1.33-.87-2.272-.87-.921 0-1.678.29-2.272.87ZM109.399 71.069c-1.146-.62-2.046-1.47-2.681-2.525a6.617 6.617 0 0 1-.962-3.456v-5.795c0-1.242.328-2.4.962-3.456.635-1.056 1.535-1.904 2.681-2.525 1.147-.62 2.416-.931 3.828-.931 1.003 0 1.985.186 2.906.559.921.372 1.699.869 2.354 1.49.88.89 1.33 1.842 1.33 2.814 0 .476-.163.87-.511 1.2-.348.332-.758.477-1.249.477-.409 0-.778-.104-1.085-.29-.307-.207-.655-.538-1.023-1.014-.43-.538-.839-.931-1.249-1.16-.409-.227-.9-.33-1.453-.33-.962 0-1.739.29-2.333.869-.594.58-.88 1.345-.88 2.297v5.795c0 .952.286 1.718.88 2.297.594.58 1.371.87 2.333.87a3.19 3.19 0 0 0 1.617-.414c.45-.27.942-.746 1.453-1.387.389-.517.737-.89 1.065-1.076.307-.207.655-.29 1.064-.29.491 0 .921.166 1.249.476.347.331.511.724.511 1.2 0 1.014-.573 2.09-1.74 3.187a8.044 8.044 0 0 1-2.435 1.49c-.942.373-1.863.56-2.784.56-1.432 0-2.701-.311-3.848-.932ZM126.408 71.069c-1.146-.62-2.047-1.47-2.681-2.525a6.607 6.607 0 0 1-.962-3.456v-5.795c0-1.242.327-2.4.962-3.456.634-1.056 1.535-1.904 2.681-2.525 1.146-.62 2.415-.931 3.827-.931 1.433 0 2.723.31 3.848.931a7.183 7.183 0 0 1 2.681 2.525 6.448 6.448 0 0 1 .983 3.456v5.795c0 1.242-.328 2.4-.983 3.456a7.184 7.184 0 0 1-2.681 2.525c-1.125.62-2.415.931-3.848.931-1.412 0-2.681-.31-3.827-.931Zm6.202-3.684c.593-.58.88-1.345.88-2.297v-5.795c0-.952-.287-1.718-.88-2.297-.594-.58-1.372-.87-2.375-.87-.962 0-1.739.29-2.333.87-.594.58-.88 1.345-.88 2.297v5.795c0 .952.286 1.718.88 2.297.594.58 1.371.87 2.333.87.983 0 1.781-.29 2.375-.87ZM152.995 53.188c.88.56 1.576 1.325 2.088 2.318.512.994.778 2.132.778 3.394V69.56c0 .58-.205 1.055-.614 1.448-.41.393-.921.6-1.535.6a2.077 2.077 0 0 1-1.495-.6 1.953 1.953 0 0 1-.614-1.448V58.9c0-.848-.266-1.531-.777-2.028-.512-.517-1.228-.766-2.109-.766-.859 0-1.555.249-2.067.766-.511.518-.778 1.2-.778 2.028V69.56c0 .58-.204 1.055-.614 1.448-.409.393-.921.6-1.535.6a2.076 2.076 0 0 1-1.494-.6 1.953 1.953 0 0 1-.614-1.448V54.782c0-.58.205-1.055.614-1.449.41-.393.901-.6 1.494-.6.635 0 1.126.166 1.433.476.328.331.512.683.553 1.076h.409c.348-.538.88-1.014 1.617-1.386a5.174 5.174 0 0 1 2.395-.56c1.044.022 2.006.29 2.865.85ZM171.416 53.188c.88.56 1.576 1.325 2.088 2.318.511.994.778 2.132.778 3.394V69.56c0 .58-.205 1.055-.614 1.448-.41.393-.921.6-1.536.6a2.076 2.076 0 0 1-1.494-.6 1.953 1.953 0 0 1-.614-1.448V58.9c0-.848-.266-1.531-.777-2.028-.512-.517-1.229-.766-2.109-.766-.859 0-1.555.249-2.067.766-.512.518-.778 1.2-.778 2.028V69.56c0 .58-.204 1.055-.614 1.448-.409.393-.921.6-1.535.6a2.076 2.076 0 0 1-1.494-.6 1.953 1.953 0 0 1-.614-1.448V54.782c0-.58.205-1.055.614-1.449.41-.393.901-.6 1.494-.6.635 0 1.126.166 1.433.476.328.331.512.683.553 1.076h.409c.348-.538.88-1.014 1.617-1.386a5.174 5.174 0 0 1 2.395-.56c1.043.022 2.005.29 2.865.85ZM189.264 53.291c1.125.62 2.026 1.47 2.661 2.525a6.617 6.617 0 0 1 .962 3.456v2.463c0 .641-.226 1.138-.676 1.49-.45.352-1.003.517-1.658.517h-8.207v1.304c0 .952.286 1.718.88 2.297.593.58 1.371.87 2.333.87.635 0 1.187-.104 1.658-.29.471-.186.942-.497 1.412-.952.369-.352.696-.6 1.003-.725.287-.144.635-.206 1.044-.206.491 0 .901.165 1.208.475.307.332.47.725.47 1.2 0 .435-.143.87-.409 1.325a4.91 4.91 0 0 1-1.105 1.283c-.614.497-1.372.89-2.272 1.18-.901.29-1.883.435-2.968.435-1.412 0-2.681-.31-3.827-.931-1.147-.621-2.047-1.47-2.682-2.525a6.617 6.617 0 0 1-.962-3.457v-5.794c0-1.242.328-2.401.962-3.456.635-1.056 1.535-1.904 2.661-2.525 1.126-.621 2.395-.932 3.766-.932 1.351.042 2.62.352 3.746.973Zm-6.018 3.684c-.593.58-.88 1.345-.88 2.256v.972h6.284v-.972c0-.932-.287-1.677-.86-2.256-.573-.58-1.33-.87-2.272-.87-.941 0-1.678.29-2.272.87ZM199.866 71.069c-1.146-.62-2.047-1.47-2.681-2.525a6.607 6.607 0 0 1-.962-3.456v-5.795c0-1.242.327-2.4.962-3.456.634-1.056 1.535-1.904 2.681-2.525 1.146-.62 2.415-.931 3.827-.931 1.003 0 1.986.186 2.907.559.921.372 1.699.869 2.354 1.49.88.89 1.33 1.842 1.33 2.814 0 .476-.164.87-.512 1.2-.348.332-.757.477-1.248.477-.41 0-.778-.104-1.085-.29-.307-.207-.655-.538-1.023-1.014-.43-.538-.84-.931-1.249-1.16-.409-.227-.9-.33-1.453-.33-.962 0-1.74.29-2.333.869-.594.58-.881 1.345-.881 2.297v5.795c0 .952.287 1.718.881 2.297.593.58 1.371.87 2.333.87a3.19 3.19 0 0 0 1.617-.414c.45-.27.941-.746 1.453-1.387.389-.517.737-.89 1.064-1.076.307-.207.655-.29 1.065-.29.491 0 .921.166 1.248.476.348.331.512.724.512 1.2 0 1.014-.573 2.09-1.74 3.187a8.056 8.056 0 0 1-2.435 1.49c-.942.373-1.863.56-2.784.56-1.433 0-2.702-.311-3.848-.932ZM222.565 67.696c.573 0 1.043.165 1.412.517.368.352.552.807.552 1.345 0 .56-.184.994-.552 1.346-.369.351-.839.517-1.412.517h-2.784a5.782 5.782 0 0 1-2.865-.724c-.86-.476-1.515-1.16-2.006-2.029a5.697 5.697 0 0 1-.737-2.856v-9.168h-.471c-.573 0-1.044-.165-1.433-.517a1.752 1.752 0 0 1-.593-1.345c0-.538.204-.994.593-1.345.389-.352.88-.518 1.433-.518h.471v-2.814c0-.58.205-1.056.614-1.45.409-.392.9-.6 1.494-.6.614 0 1.126.208 1.535.6.409.394.614.89.614 1.45v2.814h3.214c.573 0 1.043.166 1.432.518.389.351.594.807.594 1.345 0 .559-.205.993-.594 1.345s-.88.517-1.432.517h-3.214v9.169c0 .6.143 1.055.43 1.386.286.331.655.476 1.126.476h2.579v.02ZM227.354 71.11c-.45-.455-.675-1.035-.675-1.738 0-.725.225-1.304.675-1.76.45-.455 1.023-.682 1.719-.682.696 0 1.269.227 1.72.683.45.455.675 1.034.675 1.738s-.225 1.283-.675 1.739c-.451.455-1.024.682-1.72.682-.696.042-1.269-.186-1.719-.662Z"/></g><defs><clipPath id="clip0_172_1049"><path fill="#fff" d="M0 0h246v72H0z"/></clipPath></defs></svg>