<svg width="249" height="59" fill="none" xmlns="http://www.w3.org/2000/svg"><g clip-path="url('#clip0_172_857')" fill="#0EB2D3"><path d="M26.494 40.257c.251.554.402 1.108.402 1.713 0 1.008-.352 1.864-1.056 2.62-.704.756-1.609 1.058-2.765 1.058-.905 0-1.609-.201-2.111-.655-.503-.403-1.006-1.058-1.358-1.914L12.97 27.913H7.591v14.259c0 .957-.352 1.814-1.056 2.469-.703.654-1.608 1.007-2.714 1.007-1.106 0-2.011-.353-2.715-1.008C.402 43.986.05 43.13.05 42.172V4.132c0-.958.352-1.814 1.056-2.47C1.81 1.009 2.715.656 3.821.656h9.501c3.922 0 6.888 1.159 8.949 3.477 2.06 2.317 3.066 5.693 3.066 10.127 0 2.72-.452 5.089-1.357 7.054-.905 2.015-2.162 3.476-3.72 4.333v.302l6.234 14.31ZM13.272 20.91c1.307 0 2.363-.605 3.217-1.865.805-1.26 1.257-2.821 1.257-4.786 0-1.965-.402-3.527-1.257-4.787-.804-1.26-1.91-1.864-3.217-1.864h-5.68V20.91h5.68ZM37.353 32.044v3.477c0 1.26.352 2.267 1.106 3.023.754.756 1.76 1.108 3.016 1.108.804 0 1.458-.15 2.01-.453.554-.302 1.107-.857 1.71-1.663a4.983 4.983 0 0 1 1.458-1.31 3.937 3.937 0 0 1 1.76-.403c.854 0 1.508.252 2.06.806.504.555.805 1.21.805 2.066 0 .756-.2 1.562-.653 2.368a8.348 8.348 0 0 1-1.81 2.217c-.955.857-2.112 1.512-3.368 2.015-1.257.504-2.615.706-3.972.706-2.061 0-3.921-.454-5.63-1.411-1.71-.957-3.017-2.217-3.972-3.83-.955-1.561-1.458-3.325-1.458-5.24V23.127c0-1.864.453-3.577 1.408-5.19.955-1.612 2.262-2.871 3.87-3.829 1.66-.957 3.47-1.41 5.43-1.41 1.96 0 3.82.453 5.43 1.41 1.659.958 2.966 2.217 3.87 3.83.956 1.612 1.408 3.325 1.408 5.19v5.592c0 1.26-.402 2.116-1.156 2.62-.754.453-1.76.705-3.017.705H37.353Zm1.005-11.89c-.704.755-1.056 1.763-1.056 3.023v2.872h7.592v-2.872c0-1.26-.352-2.268-1.056-3.023-.704-.756-1.609-1.109-2.765-1.109-1.156 0-2.011.353-2.715 1.109ZM77.118 14.31a3.427 3.427 0 0 1 1.006 2.468V48.47c0 1.965-.453 3.778-1.307 5.34-.855 1.562-2.112 2.822-3.62 3.729-1.559.907-3.268 1.36-5.178 1.36-1.458 0-2.866-.252-4.223-.806-1.307-.554-2.514-1.26-3.52-2.267-.653-.655-1.206-1.36-1.558-2.116-.352-.756-.553-1.462-.553-2.117 0-.755.252-1.41.805-2.015.553-.554 1.206-.857 2.01-.857.704 0 1.308.152 1.81.404.503.252.956.705 1.408 1.31.603.755 1.156 1.31 1.71 1.612.552.302 1.206.453 2.01.453.955 0 1.76-.352 2.313-1.007.553-.655.854-1.713.854-3.124v-6.197h-.653c-.503.755-1.257 1.36-2.212 1.864a7.303 7.303 0 0 1-3.167.705c-2.313 0-4.223-.907-5.681-2.72-1.458-1.814-2.212-4.384-2.212-7.76V23.177c0-3.326.754-5.895 2.212-7.76 1.458-1.813 3.368-2.72 5.68-2.72 1.257 0 2.414.302 3.42.907 1.005.604 1.759 1.26 2.262 1.965h.754c.352-1.462 1.357-2.217 3.016-2.217 1.156-.05 1.96.302 2.614.957ZM64.248 34.26c0 1.21.352 2.217 1.006 2.973.653.756 1.508 1.159 2.463 1.159.955 0 1.81-.403 2.463-1.16.654-.755 1.006-1.762 1.006-2.972V23.177c0-1.21-.352-2.217-1.006-2.973-.653-.756-1.508-1.159-2.463-1.159-.955 0-1.81.403-2.463 1.159-.654.756-1.006 1.764-1.006 2.973V34.26ZM85.212 6.55c-.704-.705-1.056-1.612-1.056-2.72 0-1.11.352-2.016 1.056-2.722C85.966.353 86.871 0 87.977 0s2.01.353 2.715 1.058c.704.705 1.055 1.612 1.055 2.72 0 1.11-.352 2.016-1.055 2.722-.704.705-1.609 1.058-2.715 1.058-1.106.05-2.01-.303-2.765-1.008Zm.302 37.738c-.704-.706-1.056-1.512-1.056-2.419V16.83c0-.958.352-1.815 1.056-2.47.703-.655 1.508-1.007 2.413-1.007.955 0 1.81.352 2.463 1.008a3.428 3.428 0 0 1 1.005 2.468V41.87c0 .907-.351 1.764-1.005 2.419-.653.705-1.508 1.058-2.463 1.058-.905 0-1.71-.353-2.413-1.058ZM101.098 45.094c-1.407-.605-2.564-1.36-3.519-2.267-1.357-1.36-2.01-2.721-2.01-4.132 0-.806.25-1.461.803-2.015s1.207-.806 2.011-.806c.704 0 1.358.15 1.961.453.603.302 1.207.806 1.91 1.562.604.655 1.157 1.159 1.659 1.41a3.937 3.937 0 0 0 1.76.404c.905 0 1.709-.252 2.262-.806.603-.555.905-1.21.905-2.016 0-1.058-.352-1.914-1.106-2.57-.754-.654-1.961-1.46-3.62-2.367-1.558-.857-2.865-1.663-3.871-2.368-1.055-.756-1.91-1.764-2.614-3.074-.704-1.31-1.055-2.922-1.055-4.837 0-1.562.402-3.023 1.256-4.383.855-1.36 1.961-2.469 3.419-3.275s3.016-1.21 4.826-1.21c1.508 0 2.916.252 4.173.706 1.257.504 2.312 1.108 3.167 1.864.603.554 1.056 1.159 1.357 1.814.302.655.453 1.31.453 1.915 0 .806-.252 1.46-.805 2.015-.553.554-1.206.806-2.011.806-.653 0-1.156-.1-1.659-.302-.452-.202-.955-.554-1.508-1.109a5.036 5.036 0 0 0-1.508-1.158 4.42 4.42 0 0 0-1.659-.303c-.754 0-1.357.252-1.86.756-.452.504-.704 1.109-.704 1.764 0 1.057.352 1.914 1.106 2.57.754.654 1.961 1.46 3.62 2.367 1.558.857 2.865 1.663 3.871 2.368 1.056.756 1.91 1.764 2.614 3.074.704 1.31 1.056 2.922 1.056 4.837 0 1.713-.453 3.224-1.307 4.635-.855 1.41-2.062 2.52-3.62 3.325-1.558.806-3.268 1.26-5.228 1.26-1.609 0-3.117-.302-4.525-.907ZM132.569 38.695c.955 0 1.81.302 2.463.907.654.605 1.006 1.36 1.006 2.267 0 .907-.352 1.713-1.006 2.268-.653.604-1.508.907-2.463.907h-3.821c-2.363 0-4.323-.807-5.882-2.368-1.558-1.562-2.363-3.527-2.363-5.895V19.952c-.955 0-1.809-.302-2.463-.907-.653-.604-1.005-1.36-1.005-2.267 0-.907.352-1.713 1.005-2.267.654-.605 1.508-.907 2.463-.907V8.868c0-.958.352-1.814 1.056-2.47.704-.654 1.508-1.007 2.413-1.007.955 0 1.81.353 2.464 1.008a3.43 3.43 0 0 1 1.005 2.469v4.736h3.821c.955 0 1.81.302 2.463.907.654.604 1.006 1.36 1.006 2.267 0 .907-.352 1.713-1.006 2.267-.653.605-1.508.907-2.463.907h-3.821v16.829c0 .654.151 1.108.402 1.41.252.303.654.454 1.157.454h3.569v.05ZM153.432 12.999c.955 0 1.81.302 2.463.907.654.605 1.006 1.36 1.006 2.267 0 .907-.352 1.713-1.006 2.268-.653.604-1.508.906-2.463.906h-3.821c-.804 0-1.458.303-2.011.958-.553.655-.804 1.46-.804 2.519v19.045c0 .907-.352 1.764-1.005 2.419-.654.705-1.509 1.058-2.464 1.058a3.238 3.238 0 0 1-2.413-1.058c-.653-.706-1.056-1.512-1.056-2.419V16.83c0-.958.352-1.815 1.056-2.47.704-.655 1.508-1.007 2.413-1.007.704 0 1.358.201 2.011.655.603.403 1.006.957 1.156 1.562h.654c.452-.706 1.106-1.31 1.86-1.814.804-.504 1.508-.706 2.262-.706h2.162V13ZM173.742 14.007c1.559.907 2.765 2.066 3.67 3.577.905 1.512 1.307 3.124 1.307 4.938v19.347c0 .907-.352 1.764-1.005 2.419-.654.705-1.509 1.058-2.464 1.058-.754 0-1.407-.202-2.011-.655a3.2 3.2 0 0 1-1.156-1.562h-.653c-.503.705-1.257 1.36-2.263 1.965-1.005.605-2.161.907-3.418.907-1.408 0-2.665-.403-3.871-1.26-1.207-.856-2.162-2.015-2.916-3.527-.754-1.562-1.106-3.325-1.106-5.34 0-3.024.905-5.442 2.765-7.205 1.86-1.764 4.374-2.62 7.692-2.62h3.468v-3.477c0-1.108-.301-1.965-.854-2.57-.553-.604-1.358-.906-2.313-.906-.603 0-1.106.1-1.558.302-.453.201-1.006.554-1.609 1.108-.653.555-1.206.907-1.709 1.16-.503.2-1.106.302-1.76.302-.804 0-1.458-.252-2.011-.807-.553-.554-.804-1.209-.804-2.015 0-.756.251-1.512.804-2.267.503-.756 1.257-1.462 2.162-2.117 1.961-1.31 4.173-1.965 6.536-1.965 1.809-.1 3.519.353 5.077 1.21Zm-1.961 17.685h-3.468c-.956 0-1.81.403-2.464 1.158-.653.756-1.005 1.764-1.005 2.973 0 1.21.352 2.217 1.005 2.973.654.756 1.508 1.159 2.464 1.159.603 0 1.206-.151 1.809-.454a5.459 5.459 0 0 0 1.659-1.159v-6.65ZM198.677 12.999c.955 0 1.81.302 2.463.907.654.605 1.006 1.36 1.006 2.267 0 .907-.352 1.713-1.006 2.268-.653.604-1.508.906-2.463.906h-3.821c-.804 0-1.458.303-2.011.958-.553.655-.804 1.46-.804 2.519v19.045c0 .907-.352 1.764-1.005 2.419-.654.705-1.509 1.058-2.464 1.058a3.238 3.238 0 0 1-2.413-1.058c-.653-.706-1.055-1.512-1.055-2.419V16.83c0-.958.351-1.815 1.055-2.47.704-.655 1.508-1.007 2.413-1.007.704 0 1.358.201 2.011.655.603.403 1.006.957 1.156 1.562h.654c.452-.706 1.106-1.31 1.86-1.814.804-.504 1.508-.706 2.262-.706h2.162V13ZM208.631 45.094c-1.408-.605-2.564-1.36-3.519-2.267-1.357-1.36-2.011-2.721-2.011-4.132 0-.806.251-1.461.804-2.015s1.207-.806 2.011-.806c.704 0 1.358.15 1.961.453.603.302 1.207.806 1.91 1.562.604.655 1.157 1.159 1.659 1.41a3.937 3.937 0 0 0 1.76.404c.905 0 1.709-.252 2.262-.806.603-.555.905-1.21.905-2.016 0-1.058-.352-1.914-1.106-2.57-.754-.654-1.961-1.46-3.62-2.367-1.558-.857-2.865-1.663-3.871-2.368-1.055-.756-1.91-1.764-2.614-3.074-.704-1.31-1.055-2.922-1.055-4.837 0-1.562.402-3.023 1.256-4.383.855-1.36 1.961-2.469 3.419-3.275s3.016-1.21 4.826-1.21c1.508 0 2.916.252 4.173.706 1.256.504 2.312 1.108 3.167 1.864.603.554 1.056 1.159 1.357 1.814.302.655.453 1.31.453 1.915 0 .806-.252 1.46-.805 2.015-.553.554-1.206.806-2.011.806-.653 0-1.156-.1-1.659-.302-.452-.202-.955-.554-1.508-1.109a5.049 5.049 0 0 0-1.508-1.158 4.42 4.42 0 0 0-1.659-.303c-.754 0-1.357.252-1.86.756-.452.504-.704 1.109-.704 1.764 0 1.057.352 1.914 1.106 2.57.754.654 1.961 1.46 3.62 2.367 1.558.857 2.865 1.663 3.871 2.368 1.055.756 1.91 1.764 2.614 3.074.704 1.31 1.056 2.922 1.056 4.837 0 1.713-.453 3.224-1.307 4.635-.855 1.41-2.062 2.52-3.62 3.325-1.559.806-3.268 1.26-5.228 1.26-1.559 0-3.067-.302-4.525-.907ZM234.421 32.044v3.477c0 1.26.352 2.267 1.106 3.023.754.756 1.76 1.108 3.016 1.108.805 0 1.458-.15 2.011-.453.553-.302 1.106-.857 1.71-1.663a4.985 4.985 0 0 1 1.457-1.31 3.938 3.938 0 0 1 1.76-.403c.855 0 1.508.252 2.061.806.503.555.805 1.21.805 2.066 0 .756-.202 1.562-.654 2.368a8.343 8.343 0 0 1-1.81 2.217c-.955.857-2.111 1.512-3.368 2.015-1.257.504-2.614.706-3.972.706-2.061 0-3.921-.454-5.63-1.411-1.709-.957-3.017-2.217-3.972-3.83-.955-1.561-1.458-3.325-1.458-5.24V23.127c0-1.864.453-3.577 1.408-5.19.955-1.612 2.262-2.871 3.871-3.829 1.659-.957 3.469-1.41 5.429-1.41 1.961 0 3.821.453 5.43 1.41 1.659.958 2.966 2.217 3.871 3.83.955 1.612 1.408 3.325 1.408 5.19v5.592c0 1.26-.403 2.116-1.157 2.62-.754.453-1.759.705-3.016.705h-10.306Zm1.056-11.89c-.704.755-1.056 1.763-1.056 3.023v2.872h7.591v-2.872c0-1.26-.352-2.268-1.056-3.023-.703-.756-1.608-1.109-2.765-1.109-1.156 0-2.01.353-2.714 1.109Z"/></g><defs><clipPath id="clip0_172_857"><path fill="#fff" d="M0 0h249v59H0z"/></clipPath></defs></svg>