<svg width="23" height="21" fill="none" xmlns="http://www.w3.org/2000/svg"><g clip-path="url('#clip0_140_3517')" fill="#000"><path d="M22.93 7.848c-.253-1.63-.845-3.12-1.866-4.407-1.753-2.206-3.998-3.39-6.772-3.42-1.866-.014-3.732-.05-5.597.008C5.069.14 2.47 1.96.845 5.29a7.69 7.69 0 0 0-.5 1.345c-.014.05-.028.102-.042.146-.014.05-.028.095-.035.146a9.443 9.443 0 0 0-.176 3.478c0 .007 0 .014.007.022.106.606.253 1.206.45 1.775.198.548.444 1.09.754 1.593 1.549 2.558 3.766 4.034 6.674 4.34.464.052.936.074 1.4.06.296-.008.43.101.55.364.282.643.598 1.264.894 1.893.14.292.317.533.683.533.366 0 .542-.24.683-.533.303-.629.62-1.257.894-1.893.12-.27.26-.372.556-.358 1.253.052 2.485-.095 3.654-.584 3.027-1.272 4.893-3.566 5.547-6.898l.022-.131v-.008c.02-.131.042-.255.077-.387.099-.687.063-1.564-.007-2.345Zm-7.012 8.724c-.943.226-1.95.197-2.929.241-.408.015-.654.168-.823.54-.197.44-.416.87-.662 1.382-.253-.519-.472-.957-.676-1.403-.162-.366-.408-.526-.803-.512-1.295.044-2.59.015-3.808-.504C3.45 15.14 1.803 13.036 1.43 9.93.965 5.962 3.66 2.163 7.667 1.512c.859-.138 1.753-.087 2.633-.095 1.281-.014 2.556-.007 3.837 0 3.457.008 6.406 2.331 7.258 5.795 1.05 4.216-1.471 8.41-5.477 9.36Z"/><path d="M9.476 9.134c0-1.374 0-2.748-.007-4.121 0-.176-.035-.373-.12-.512-.246-.394-.697-.402-1.056-.036-.739.76-1.478 1.527-2.203 2.301-.17.183-.338.263-.578.256-.668-.015-1.337-.007-2.006-.007-.486 0-.725.256-.725.767v2.63c0 .563.225.79.781.79.67.007 1.338-.015 2.007.014a.8.8 0 0 1 .478.212c.747.753 1.486 1.52 2.211 2.294.24.249.507.366.824.234.317-.131.415-.416.408-.767-.021-1.352-.014-2.703-.014-4.055Zm-4.055.665H4.133v-1.36H5.42V9.8Zm2.675 1.797c-.45-.475-.845-.891-1.225-1.315-.07-.073-.084-.22-.084-.336a69.806 69.806 0 0 1 0-1.717c0-.11.035-.249.105-.322.38-.416.768-.818 1.197-1.271v4.961h.007ZM13.531 9.104v-2.74c0-.453.246-.745.634-.76.373-.014.704.307.71.746.008 1.841.015 3.675 0 5.517 0 .46-.302.737-.71.73-.387-.007-.634-.285-.634-.752v-2.74ZM16.22 9.083V6.416c0-.49.268-.819.662-.826.387 0 .676.329.683.81v5.408c0 .497-.26.782-.683.782-.415-.008-.648-.278-.648-.767-.014-.914-.014-1.827-.014-2.74ZM12.193 9.097c0 .424.007.848 0 1.279-.007.519-.274.833-.69.826-.4-.008-.675-.315-.675-.811-.007-.863-.007-1.725.007-2.587.007-.497.267-.79.69-.782.415 0 .661.3.668.804 0 .424-.007.847 0 1.271-.007 0-.007 0 0 0ZM20.233 9.134c0 .453.007.898 0 1.351-.007.424-.253.702-.633.716-.388.015-.69-.263-.697-.694-.014-.92-.014-1.848-.007-2.769.007-.431.288-.716.682-.716.395 0 .648.285.655.73.007.454 0 .921 0 1.382Z"/></g><defs><clipPath id="clip0_140_3517"><path fill="#fff" d="M0 0h23v21H0z"/></clipPath></defs></svg>