<svg width="31" height="31" fill="none" xmlns="http://www.w3.org/2000/svg"><g clip-path="url('#clip0_179_1117')" fill="#0EB2D3"><path d="M15.73 31C6.96 31.08.111 24.136 0 15.73-.111 6.96 6.88.111 15.27 0a15.459 15.459 0 0 1 15.714 15.285C31.095 24.04 24.136 30.857 15.73 31ZM2.4 15.46c-.048 7.261 5.878 13.14 13.076 13.156 7.246.016 13.14-5.879 13.14-13.092.017-7.246-5.878-13.125-13.092-13.125C8.278 2.383 2.384 8.262 2.399 15.46Z"/><path d="M22.483 24.454c-.174-.064-.46-.143-.762-.255-1.748-.667-3.496-1.35-5.26-2.018-1.731-.667-3.48-1.334-5.211-2.002-.382-.143-.62-.413-.747-.81-.667-2.002-1.335-4.02-2.002-6.022-.445-1.35-.906-2.717-1.35-4.068-.16-.46-.048-.874.301-1.223.334-.334.747-.43 1.208-.286 1.16.397 2.32.778 3.48 1.176 2.05.699 4.115 1.398 6.165 2.081.015 0 .031.016.031.016 1.129.35 1.08.477 1.462 1.478 1.192 3.114 2.368 6.212 3.56 9.327.142.381.301.747.412 1.144.191.747-.38 1.462-1.287 1.462Zm-1.843-3.29c-.333-.857-.635-1.668-.953-2.478-.667-1.732-1.335-3.48-2.002-5.212-.064-.159-.143-.254-.318-.302-.254-.063-.492-.159-.747-.238-1.763-.572-3.511-1.144-5.275-1.716-.35-.111-.683-.223-1.065-.334.128.397.255.747.366 1.097.651 2.002 1.303 4.004 1.954 6.022.048.159.143.222.286.286 1.923.715 3.846 1.446 5.768 2.16.652.223 1.287.461 1.986.716Z"/><path d="M15.508 16.668a1.194 1.194 0 0 1-1.208-1.192c0-.652.54-1.192 1.208-1.192.652 0 1.192.556 1.192 1.208 0 .635-.54 1.176-1.192 1.176Z"/></g><defs><clipPath id="clip0_179_1117"><path fill="#fff" d="M0 0h31v31H0z"/></clipPath></defs></svg>