<svg width="155" height="49" fill="none" xmlns="http://www.w3.org/2000/svg"><g clip-path="url('#clip0_172_1107')"><g clip-path="url('#clip1_172_1107')" fill="#000"><path d="M21.331 26.424c.848 0 1.537.27 2.066.792.53.522.795 1.153.795 1.855 0 .72-.265 1.332-.795 1.89-.53.54-1.218.811-2.066.811H5.826c-.795 0-1.466-.27-2.014-.792A2.548 2.548 0 0 1 3 29.07V1.881c0-.738.265-1.369.812-1.89.548-.505 1.219-.757 2.014-.757h15.046c.848 0 1.536.27 2.066.792.53.522.795 1.153.795 1.855 0 .72-.265 1.332-.795 1.89-.53.54-1.218.81-2.066.81H8.704v8.23h8.53c.848 0 1.536.27 2.066.81.53.54.795 1.17.795 1.89 0 .721-.265 1.333-.795 1.856-.53.522-1.218.792-2.066.792h-8.53v8.283h12.627v-.018ZM62.673 9.156c1.113.72 1.996 1.746 2.667 3.06.671 1.315 1.007 2.792 1.007 4.448v7.203c0 1.639-.336 3.115-1.007 4.448-.671 1.314-1.554 2.34-2.667 3.06-1.112.721-2.313 1.1-3.62 1.1-1.095 0-2.066-.235-2.914-.703-.848-.468-1.483-1.008-1.872-1.62h-.459v9.29c0 .721-.247 1.315-.76 1.82-.494.504-1.13.738-1.889.738a2.604 2.604 0 0 1-1.854-.739c-.495-.504-.76-1.098-.76-1.818v-28.36c0-.721.247-1.315.76-1.82.494-.504 1.112-.738 1.854-.738.636 0 1.183.18 1.625.559.441.378.741.828.883 1.386h.459c.424-.648 1.06-1.224 1.907-1.693.848-.486 1.855-.72 3.002-.72 1.325.018 2.543.378 3.638 1.099Zm-1.571 7.508c0-1.152-.354-2.088-1.042-2.845-.707-.738-1.572-1.116-2.596-1.116-1.042 0-1.908.378-2.596 1.116-.707.738-1.042 1.693-1.042 2.845v7.203c0 1.152.353 2.089 1.042 2.845.706.738 1.571 1.116 2.596 1.116 1.042 0 1.907-.378 2.596-1.116.706-.738 1.042-1.693 1.042-2.845v-7.203ZM71.892 31.268c-.495-.504-.76-1.098-.76-1.819V1.557c0-.72.248-1.315.76-1.819C72.386-.766 73.004-1 73.746-1c.76 0 1.395.252 1.89.738.494.504.76 1.099.76 1.819v27.892c0 .72-.248 1.315-.76 1.819-.495.504-1.13.738-1.89.738-.742 0-1.36-.234-1.854-.738ZM85.667 31.322c-1.413-.774-2.508-1.819-3.303-3.133-.794-1.315-1.183-2.755-1.183-4.304v-7.203c0-1.548.389-2.989 1.183-4.303.795-1.315 1.89-2.36 3.303-3.133 1.412-.775 2.984-1.17 4.715-1.17 1.766 0 3.338.395 4.75 1.17 1.396.774 2.508 1.818 3.303 3.133.812 1.314 1.2 2.755 1.2 4.303v7.203c0 1.549-.405 2.99-1.2 4.304a8.858 8.858 0 0 1-3.303 3.133c-1.395.774-2.984 1.17-4.75 1.17-1.73-.018-3.303-.396-4.715-1.17Zm7.629-4.592c.724-.72 1.095-1.675 1.095-2.863v-7.203c0-1.17-.371-2.124-1.095-2.863-.724-.72-1.696-1.098-2.914-1.098-1.183 0-2.137.36-2.879 1.098-.724.72-1.095 1.675-1.095 2.863v7.203c0 1.17.371 2.125 1.095 2.863.724.72 1.696 1.098 2.879 1.098 1.218 0 2.19-.36 2.914-1.098ZM115.6 8.291c.707 0 1.272.217 1.713.649.442.432.654.99.654 1.674 0 .685-.212 1.243-.654 1.675-.441.432-1.006.648-1.713.648h-2.737c-.918 0-1.678.324-2.278.955-.6.63-.918 1.44-.918 2.395v13.162c0 .72-.248 1.315-.76 1.82-.494.503-1.13.737-1.889.737a2.606 2.606 0 0 1-1.855-.738c-.494-.504-.759-1.098-.759-1.819V11.082c0-.72.247-1.314.759-1.818.495-.504 1.113-.738 1.855-.738.635 0 1.201.18 1.66.558.476.378.759.81.883 1.296h.406c.371-.558.883-1.044 1.554-1.458.671-.414 1.36-.63 2.101-.63h1.978ZM132.077 9.156a8.161 8.161 0 0 1 3.108 2.971 7.87 7.87 0 0 1 1.113 4.07V29.45c0 .72-.247 1.314-.759 1.818-.495.504-1.113.739-1.855.739-.635 0-1.183-.199-1.624-.577-.442-.396-.742-.864-.883-1.422h-.46c-.547.72-1.289 1.296-2.207 1.764a6.679 6.679 0 0 1-3.038.703c-1.253 0-2.384-.306-3.426-.937-1.042-.612-1.854-1.476-2.437-2.575-.6-1.098-.883-2.34-.883-3.691 0-2.197.76-3.997 2.261-5.366 1.501-1.386 3.567-2.07 6.181-2.07h3.867v-1.621c0-1.063-.318-1.891-.936-2.54-.618-.63-1.448-.954-2.49-.954-.582 0-1.077.09-1.483.27-.406.18-.883.54-1.431 1.063-.494.468-.918.774-1.306.954-.389.162-.83.252-1.343.252-.6 0-1.13-.198-1.554-.612-.424-.396-.635-.9-.635-1.495 0-.612.211-1.224.653-1.836.441-.613 1.024-1.153 1.748-1.657 1.572-1.08 3.356-1.62 5.334-1.62 1.677.036 3.161.396 4.485 1.116Zm-1.024 12.857h-3.868c-.935 0-1.713.288-2.295.864-.601.576-.883 1.333-.883 2.25 0 .901.265 1.622.794 2.144.53.522 1.254.792 2.173.792.706 0 1.43-.18 2.189-.558.76-.378 1.396-.846 1.908-1.44v-4.052h-.018ZM152.616 8.291c.706 0 1.271.217 1.713.649.441.432.653.99.653 1.674 0 .685-.212 1.243-.653 1.675-.442.432-1.007.648-1.713.648h-2.737c-.919 0-1.678.324-2.279.955-.6.63-.918 1.44-.918 2.395v13.162c0 .72-.247 1.315-.759 1.82-.495.503-1.13.737-1.89.737a2.604 2.604 0 0 1-1.854-.738c-.495-.504-.76-1.098-.76-1.819V11.082c0-.72.248-1.314.76-1.818.494-.504 1.112-.738 1.854-.738.636 0 1.201.18 1.66.558.477.378.76.81.883 1.296h.406c.371-.558.883-1.044 1.554-1.458.672-.414 1.36-.63 2.102-.63h1.978ZM43.671 27.36c.547.685.812 1.387.812 2.09 0 .72-.264 1.314-.777 1.818-.512.504-1.148.738-1.872.738-.918 0-1.695-.54-2.366-1.62l-3.868-6.05h-.459l-3.867 6.05c-.336.558-.707.972-1.095 1.224-.389.27-.83.396-1.325.396A2.604 2.604 0 0 1 27 31.268c-.494-.504-.76-1.099-.76-1.819 0-.684.266-1.386.778-2.089l5.015-7.436-4.415-6.735c-.547-.738-.812-1.44-.812-2.089 0-.72.265-1.314.777-1.818s1.148-.739 1.872-.739c.918 0 1.695.54 2.366 1.621l3.32 5.114h.46l3.284-5.114c.336-.558.707-.972 1.095-1.224.389-.27.83-.397 1.325-.397.724 0 1.342.253 1.854.739.494.504.76 1.098.76 1.818 0 .649-.266 1.35-.778 2.09l-4.468 6.734 4.998 7.436Z"/></g></g><defs><clipPath id="clip0_172_1107"><path fill="#fff" d="M0 0h155v49H0z"/></clipPath><clipPath id="clip1_172_1107"><path fill="#fff" transform="translate(3 -1)" d="M0 0h152v43H0z"/></clipPath></defs></svg>