<svg width="264" height="49" fill="none" xmlns="http://www.w3.org/2000/svg"><g clip-path="url('#clip0_172_886')" fill="#0EB2D3"><path d="M.976 47.788C.326 47.182 0 46.389 0 45.503V9.697c0-.885.325-1.678.976-2.284.65-.606 1.486-.933 2.508-.933s1.858.327 2.509.933c.65.606.975 1.399.975 2.284v35.806c0 .886-.325 1.679-.975 2.285-.65.606-1.487.932-2.509.932a3.713 3.713 0 0 1-2.508-.932ZM30.66 20.607c1.394 1.585 2.09 3.823 2.09 6.667v17.903c0 .84-.325 1.632-.929 2.238-.604.653-1.393.979-2.276.979a2.99 2.99 0 0 1-2.23-.98c-.604-.652-.975-1.398-.975-2.237V27.274c0-1.026-.279-1.818-.837-2.378-.557-.56-1.347-.839-2.369-.839-1.022 0-1.811.28-2.369.84-.557.559-.836 1.351-.836 2.377v17.903c0 .84-.325 1.632-.93 2.238-.603.653-1.393.979-2.275.979a2.99 2.99 0 0 1-2.23-.98c-.604-.652-.976-1.398-.976-2.237V22.006c0-.886.325-1.679.976-2.285.65-.606 1.393-.932 2.23-.932.882 0 1.58.186 1.997.606.465.42.697.886.79 1.445h.697c.464-.653 1.161-1.259 2.09-1.818.93-.56 1.998-.84 3.16-.84 2.09 0 3.808.793 5.202 2.425ZM39.3 12.495c-.65-.653-.975-1.492-.975-2.518 0-1.026.325-1.865.975-2.517.65-.653 1.487-.98 2.509-.98 1.022 0 1.858.327 2.508.98.65.652.976 1.491.976 2.517 0 1.026-.325 1.865-.976 2.518-.65.653-1.486 1.025-2.508 1.025s-1.858-.372-2.509-1.025Zm.233 34.966c-.65-.652-.976-1.398-.976-2.237V22.006c0-.886.325-1.679.975-2.285.65-.606 1.394-.932 2.23-.932a3.15 3.15 0 0 1 2.277.932c.603.606.929 1.399.929 2.285v23.171c0 .84-.326 1.632-.93 2.238-.603.653-1.393.979-2.276.979-.836 0-1.58-.28-2.23-.933ZM55.606 47.694c-1.58-.885-2.787-2.05-3.67-3.543a9.176 9.176 0 0 1-1.347-4.849V27.88c0-1.772.464-3.357 1.347-4.849.883-1.445 2.137-2.657 3.67-3.543 1.58-.886 3.298-1.305 5.203-1.305 1.3 0 2.555.233 3.763.699a9.31 9.31 0 0 1 3.112 1.958c1.487 1.399 2.23 2.89 2.23 4.383 0 .745-.232 1.352-.743 1.864-.511.513-1.115.746-1.859.746-.65 0-1.207-.14-1.672-.42-.465-.279-.929-.745-1.394-1.398-.557-.746-1.068-1.259-1.533-1.538-.51-.28-1.114-.42-1.858-.42-1.161 0-2.09.326-2.787 1.026-.697.699-1.022 1.632-1.022 2.797v11.423c0 1.165.325 2.098 1.022 2.797.697.7 1.626 1.026 2.787 1.026.697 0 1.348-.187 1.858-.513.558-.327 1.162-.933 1.812-1.772.604-.793 1.161-1.352 1.672-1.632.465-.326 1.022-.466 1.673-.466.743 0 1.347.233 1.858.746.511.513.743 1.119.743 1.865 0 1.585-.79 3.17-2.415 4.615-1.022.886-2.137 1.632-3.438 2.192-1.254.56-2.555.839-3.81.839-1.904 0-3.623-.42-5.202-1.306ZM74.977 12.495c-.65-.653-.975-1.492-.975-2.518 0-1.026.325-1.865.975-2.517.65-.653 1.487-.98 2.509-.98 1.022 0 1.858.327 2.508.98.65.652.976 1.491.976 2.517 0 1.026-.325 1.865-.976 2.518-.65.653-1.486.979-2.508.979-1.022.046-1.858-.326-2.509-.98Zm.233 34.966c-.65-.652-.976-1.398-.976-2.237V22.006c0-.886.325-1.679.976-2.285.65-.606 1.393-.932 2.23-.932a3.15 3.15 0 0 1 2.276.932c.604.606.929 1.399.929 2.285v23.171c0 .84-.325 1.632-.93 2.238-.603.653-1.393.979-2.276.979-.836 0-1.58-.28-2.23-.933ZM100.063 19.441c1.44.84 2.555 1.912 3.391 3.31.836 1.4 1.208 2.891 1.208 4.57v17.902a3.15 3.15 0 0 1-.929 2.238c-.604.653-1.394.98-2.277.98-.697 0-1.3-.187-1.858-.607a2.961 2.961 0 0 1-1.068-1.445h-.604c-.465.653-1.162 1.259-2.09 1.818-.93.56-1.998.84-3.16.84-1.3 0-2.462-.373-3.577-1.166-1.115-.793-1.997-1.865-2.694-3.264-.697-1.445-1.022-3.077-1.022-4.942 0-2.797.836-5.035 2.555-6.667 1.719-1.631 4.042-2.424 7.108-2.424h3.205v-3.217c0-1.026-.279-1.818-.79-2.378-.51-.56-1.254-.839-2.137-.839-.557 0-1.022.093-1.44.28-.418.186-.929.513-1.486 1.026-.604.512-1.115.839-1.58 1.072-.464.186-1.022.28-1.626.28-.743 0-1.347-.233-1.858-.746-.51-.513-.743-1.12-.743-1.865 0-.7.232-1.399.743-2.098.465-.7 1.162-1.352 1.998-1.958 1.811-1.212 3.855-1.819 6.039-1.819 1.672-.14 3.252.28 4.692 1.12Zm-1.812 16.365h-3.205c-.883 0-1.673.373-2.277 1.072-.604.7-.929 1.632-.929 2.75 0 1.12.325 2.052.93 2.752.603.699 1.393 1.072 2.276 1.072.557 0 1.114-.14 1.672-.42a5.057 5.057 0 0 0 1.533-1.072v-6.154ZM123.058 18.462c.882 0 1.672.28 2.276.84.604.56.929 1.258.929 2.098 0 .839-.325 1.585-.929 2.098-.604.56-1.394.839-2.276.839h-3.531c-.743 0-1.347.28-1.858.886-.511.606-.743 1.352-.743 2.33v17.624a3.15 3.15 0 0 1-.929 2.238c-.604.653-1.394.979-2.277.979a2.99 2.99 0 0 1-2.23-.98c-.603-.652-.975-1.398-.975-2.237V22.006c0-.886.325-1.679.975-2.285.651-.606 1.394-.932 2.23-.932.651 0 1.255.186 1.858.606.558.373.93.886 1.069 1.445h.604c.418-.653 1.022-1.212 1.719-1.678.743-.466 1.393-.653 2.09-.653h1.998v-.047ZM143.405 48.16c-1.301-.559-2.37-1.258-3.252-2.097-1.254-1.26-1.858-2.518-1.858-3.823 0-.746.232-1.352.743-1.865.511-.513 1.115-.746 1.858-.746.65 0 1.254.14 1.812.42.557.28 1.115.745 1.765 1.445.558.606 1.069 1.072 1.533 1.305a3.635 3.635 0 0 0 1.626.373c.836 0 1.579-.233 2.09-.746.558-.513.837-1.119.837-1.865 0-.979-.326-1.771-1.022-2.377-.697-.606-1.812-1.352-3.345-2.192-1.44-.792-2.648-1.538-3.577-2.19-.976-.7-1.765-1.633-2.416-2.845-.65-1.212-.975-2.704-.975-4.476a7.47 7.47 0 0 1 1.161-4.056c.79-1.259 1.812-2.284 3.159-3.03 1.347-.746 2.787-1.12 4.46-1.12 1.393 0 2.694.234 3.855.654 1.162.466 2.137 1.025 2.927 1.725.557.512.975 1.072 1.254 1.678.279.606.418 1.212.418 1.772 0 .746-.232 1.352-.743 1.865-.511.512-1.115.745-1.858.745-.604 0-1.069-.093-1.533-.28-.418-.186-.883-.512-1.394-1.025a4.663 4.663 0 0 0-1.393-1.072 4.082 4.082 0 0 0-1.533-.28c-.697 0-1.255.233-1.719.7-.418.466-.651 1.025-.651 1.631 0 .98.326 1.772 1.022 2.378.697.606 1.812 1.352 3.345 2.191 1.44.793 2.648 1.539 3.577 2.191.976.7 1.765 1.632 2.416 2.844.65 1.213.975 2.704.975 4.476 0 1.585-.418 2.984-1.208 4.29-.789 1.305-1.904 2.33-3.344 3.076A10.282 10.282 0 0 1 147.586 49c-1.487 0-2.881-.28-4.181-.84ZM167.236 36.086v3.217c0 1.165.325 2.098 1.022 2.797.696.7 1.626 1.026 2.787 1.026.743 0 1.347-.14 1.858-.42.511-.28 1.022-.792 1.58-1.538a4.6 4.6 0 0 1 1.347-1.212 3.632 3.632 0 0 1 1.626-.373c.789 0 1.393.233 1.904.745.465.513.744 1.12.744 1.912 0 .7-.186 1.445-.604 2.191a7.741 7.741 0 0 1-1.673 2.052c-.882.792-1.951 1.398-3.112 1.864-1.162.467-2.416.653-3.67.653-1.905 0-3.624-.42-5.203-1.305-1.579-.886-2.787-2.052-3.67-3.544a9.173 9.173 0 0 1-1.347-4.848V27.88c0-1.725.418-3.31 1.301-4.802.882-1.492 2.09-2.657 3.577-3.543 1.533-.886 3.205-1.305 5.017-1.305 1.811 0 3.53.42 5.017 1.305 1.533.886 2.741 2.051 3.577 3.543.882 1.492 1.3 3.077 1.3 4.802v5.175c0 1.166-.371 1.959-1.068 2.425-.697.42-1.626.652-2.787.652h-9.523v-.046Zm.975-11.003c-.65.7-.975 1.632-.975 2.797v2.658h7.014V27.88c0-1.165-.325-2.098-.975-2.797-.651-.7-1.487-1.026-2.555-1.026-1.069 0-1.905.327-2.509 1.026ZM189.023 48.16c-1.301-.559-2.369-1.258-3.252-2.097-1.254-1.26-1.858-2.518-1.858-3.823 0-.746.232-1.352.743-1.865.511-.513 1.115-.746 1.858-.746.651 0 1.255.14 1.812.42.557.28 1.115.745 1.765 1.445.558.606 1.069 1.072 1.533 1.305a3.635 3.635 0 0 0 1.626.373c.836 0 1.58-.233 2.091-.746.557-.513.836-1.119.836-1.865 0-.979-.325-1.771-1.022-2.377-.697-.606-1.812-1.352-3.345-2.192-1.44-.792-2.648-1.538-3.577-2.19-.975-.7-1.765-1.633-2.416-2.845-.65-1.212-.975-2.704-.975-4.476 0-1.445.372-2.797 1.161-4.056.79-1.259 1.812-2.284 3.159-3.03 1.347-.746 2.787-1.12 4.46-1.12 1.393 0 2.694.234 3.856.654 1.161.466 2.136 1.025 2.926 1.725.558.512.976 1.072 1.254 1.678.279.606.418 1.212.418 1.772 0 .746-.232 1.352-.743 1.865-.511.512-1.115.745-1.858.745a3.913 3.913 0 0 1-1.533-.28c-.418-.186-.883-.512-1.394-1.025a4.663 4.663 0 0 0-1.393-1.072 4.082 4.082 0 0 0-1.533-.28c-.697 0-1.254.233-1.719.7-.418.466-.65 1.025-.65 1.631 0 .98.325 1.772 1.022 2.378.696.606 1.811 1.352 3.344 2.191 1.44.793 2.648 1.539 3.577 2.191.976.7 1.766 1.632 2.416 2.844.65 1.213.975 2.704.975 4.476 0 1.585-.418 2.984-1.207 4.29-.79 1.305-1.905 2.33-3.345 3.076A10.282 10.282 0 0 1 193.204 49c-1.487 0-2.88-.28-4.181-.84ZM207.372 12.495c-.65-.653-.975-1.492-.975-2.518 0-1.026.325-1.865.975-2.517.651-.653 1.487-.98 2.509-.98 1.022 0 1.858.327 2.508.98.651.652.976 1.491.976 2.517 0 1.026-.325 1.865-.976 2.518-.65.653-1.486.979-2.508.979-.976.046-1.812-.326-2.509-.98Zm.279 34.966c-.65-.652-.976-1.398-.976-2.237V22.006c0-.886.326-1.679.976-2.285.65-.606 1.394-.932 2.23-.932.882 0 1.672.326 2.276.932.604.606.929 1.399.929 2.285v23.171c0 .84-.325 1.632-.929 2.238-.604.653-1.394.979-2.276.979-.836 0-1.58-.28-2.23-.933ZM223.724 47.695c-1.579-.886-2.787-2.052-3.67-3.544a9.182 9.182 0 0 1-1.347-4.848V27.88c0-1.771.465-3.357 1.347-4.849.883-1.445 2.137-2.657 3.67-3.543 1.58-.886 3.298-1.305 5.203-1.305 1.905 0 3.623.42 5.203 1.305 1.579.886 2.787 2.052 3.67 3.543a9.182 9.182 0 0 1 1.347 4.85v11.422c0 1.771-.465 3.356-1.347 4.848-.883 1.446-2.137 2.658-3.67 3.544-1.58.885-3.298 1.305-5.203 1.305-1.905 0-3.67-.42-5.203-1.305Zm7.944-5.595c.697-.7 1.022-1.632 1.022-2.797V27.88c0-1.165-.325-2.098-1.022-2.797-.697-.7-1.626-1.026-2.787-1.026-1.162 0-2.091.326-2.788 1.026-.697.7-1.022 1.632-1.022 2.797v11.423c0 1.165.325 2.098 1.022 2.797.697.7 1.626 1.026 2.788 1.026 1.161 0 2.136-.327 2.787-1.026Zm-4.413-29.326c-.465-.466-.651-1.025-.651-1.631 0-.56.14-1.26.418-2.098l1.951-6.388C229.531.886 230.506 0 231.9 0c.836 0 1.58.28 2.091.793.557.512.836 1.258.836 2.144 0 .653-.186 1.445-.604 2.331l-2.648 6.434c-.465 1.166-1.347 1.772-2.648 1.772-.697.046-1.254-.233-1.672-.7ZM261.909 20.607c1.394 1.585 2.091 3.823 2.091 6.667v17.903c0 .84-.325 1.632-.929 2.238-.604.653-1.394.979-2.276.979a2.989 2.989 0 0 1-2.23-.98c-.604-.652-.976-1.398-.976-2.237V27.274c0-1.026-.279-1.818-.836-2.378-.557-.56-1.347-.839-2.369-.839-1.022 0-1.812.28-2.369.84-.558.559-.836 1.351-.836 2.377v17.903c0 .84-.326 1.632-.93 2.238-.603.653-1.393.979-2.276.979a2.99 2.99 0 0 1-2.23-.98c-.604-.652-.975-1.398-.975-2.237V22.006c0-.886.325-1.679.975-2.285.651-.606 1.394-.932 2.23-.932.883 0 1.58.186 1.998.606.464.42.697.886.789 1.445h.697c.465-.653 1.162-1.259 2.091-1.818.929-.56 1.997-.84 3.159-.84 2.09 0 3.809.793 5.202 2.425Z"/></g><defs><clipPath id="clip0_172_886"><path fill="#fff" d="M0 0h264v49H0z"/></clipPath></defs></svg>