<svg width="47" height="42" fill="none" xmlns="http://www.w3.org/2000/svg"><g clip-path="url('#clip0_140_3020')" filter="url('#filter0_i_140_3020')" fill="#000"><path d="M46.856 15.695c-.518-3.259-1.726-6.24-3.812-8.812-3.582-4.413-8.172-6.78-13.84-6.84-3.812-.029-7.625-.102-11.437.015C10.358.278 5.05 3.916 1.727 10.58a15.175 15.175 0 0 0-1.022 2.69 7.48 7.48 0 0 1-.086.291c-.03.103-.058.19-.072.293a18.493 18.493 0 0 0-.36 6.956c0 .014 0 .029.014.044a22.54 22.54 0 0 0 .921 3.55 17.05 17.05 0 0 0 1.54 3.187c3.164 5.114 7.696 8.066 13.638 8.68.95.102 1.913.146 2.863.117.604-.014.877.205 1.122.73.575 1.287 1.222 2.529 1.827 3.786.287.584.647 1.067 1.395 1.067s1.108-.483 1.396-1.067c.618-1.257 1.266-2.514 1.827-3.785.244-.54.532-.745 1.136-.716 2.56.102 5.078-.19 7.467-1.17 6.186-2.542 9.998-7.13 11.336-13.795l.043-.263v-.015c.043-.262.086-.51.158-.774.202-1.374.13-3.127-.014-4.691ZM32.527 33.144c-1.927.453-3.985.394-5.984.482-.835.03-1.338.336-1.684 1.082-.402.876-.848 1.739-1.352 2.761-.518-1.037-.964-1.914-1.38-2.805-.332-.731-.835-1.053-1.641-1.023-2.647.087-5.294.029-7.783-1.009-5.654-2.352-9.02-6.561-9.783-12.772-.95-7.935 4.56-15.535 12.747-16.835 1.755-.278 3.582-.176 5.38-.19 2.618-.03 5.222-.015 7.84 0 7.064.014 13.092 4.662 14.833 11.589 2.143 8.432-3.007 16.82-11.193 18.72Z"/><path d="M19.364 18.267c0-2.747 0-5.495-.014-8.242 0-.35-.072-.745-.245-1.023-.503-.79-1.424-.804-2.158-.073a337.08 337.08 0 0 0-4.503 4.603c-.345.366-.69.526-1.18.512-1.366-.03-2.733-.015-4.1-.015-.992 0-1.481.512-1.481 1.535v5.26c0 1.126.46 1.579 1.596 1.579 1.367.014 2.734-.03 4.1.029.332.015.734.19.979.424a224.435 224.435 0 0 1 4.517 4.589c.49.496 1.036.73 1.683.467.648-.263.85-.833.835-1.534-.043-2.704-.029-5.407-.029-8.11Zm-8.287 1.33H8.446v-2.718h2.633v2.718Zm5.467 3.595c-.92-.95-1.726-1.783-2.503-2.63-.144-.147-.173-.439-.173-.673-.014-1.14-.014-2.294 0-3.434 0-.22.072-.497.216-.643.777-.833 1.568-1.637 2.446-2.543v9.923h.014ZM27.65 18.209v-5.48c0-.907.504-1.491 1.295-1.52.763-.03 1.439.613 1.453 1.49.015 3.683.029 7.35 0 11.034 0 .92-.618 1.476-1.453 1.46-.791-.014-1.295-.57-1.295-1.504v-5.48ZM33.146 18.165V12.83c0-.98.547-1.637 1.352-1.652.792 0 1.381.658 1.396 1.622v10.815c0 .993-.532 1.563-1.396 1.563-.848-.014-1.323-.555-1.323-1.534-.029-1.827-.029-3.654-.029-5.48ZM24.917 18.194c0 .848.014 1.695 0 2.558-.014 1.037-.561 1.665-1.41 1.65-.82-.014-1.38-.628-1.38-1.621-.015-1.725-.015-3.45.014-5.174.014-.993.546-1.578 1.41-1.563.848 0 1.352.599 1.366 1.607 0 .848-.014 1.695 0 2.543-.014 0-.014 0 0 0ZM41.346 18.267c0 .906.015 1.797 0 2.703-.014.848-.518 1.403-1.295 1.433-.79.029-1.41-.527-1.424-1.389a236.709 236.709 0 0 1-.014-5.538c.014-.863.59-1.433 1.395-1.433.806 0 1.324.57 1.338 1.462.015.906 0 1.841 0 2.762Z"/></g><defs><clipPath id="clip0_140_3020"><path fill="#fff" d="M0 0h47v42H0z"/></clipPath><filter id="filter0_i_140_3020" x="0" y="0" width="47" height="42" filterUnits="userSpaceOnUse" color-interpolation-filters="sRGB"><feFlood flood-opacity="0" result="BackgroundImageFix"/><feBlend in="SourceGraphic" in2="BackgroundImageFix" result="shape"/><feColorMatrix in="SourceAlpha" values="0 0 0 0 0 0 0 0 0 0 0 0 0 0 0 0 0 0 127 0" result="hardAlpha"/><feOffset dy="-72"/><feGaussianBlur stdDeviation="2"/><feComposite in2="hardAlpha" operator="arithmetic" k2="-1" k3="1"/><feColorMatrix values="0 0 0 0 0.054902 0 0 0 0 0.698039 0 0 0 0 0.827451 0 0 0 1 0"/><feBlend in2="shape" result="effect1_innerShadow_140_3020"/></filter></defs></svg>