<svg width="99" height="88" fill="none" xmlns="http://www.w3.org/2000/svg"><g clip-path="url('#clip0_140_3480')"><path d="M40.824 76.14v-6.795H5.986c-2.907 0-5.25-1.846-5.88-4.648a4.744 4.744 0 0 1-.093-.968C0 44.367 0 25.017 0 5.655 0 2.723 2.592.092 5.565 0c.421-.013.829 0 1.25 0h86.238c2.882 0 5.25 1.885 5.855 4.687.066.314.092.654.092.968v57.93c0 3.155-2.644 5.76-5.841 5.76H58.203v6.794h7.683c5.039.013 9.617 4.268 9.986 9.256.026.34.092.694.078 1.034-.052.995-.684 1.571-1.723 1.571H25.286c-1.815 0-2.302-.563-2.131-2.396.342-3.64 2.157-6.35 5.289-8.182a9.347 9.347 0 0 1 4.762-1.283c2.5-.013 5.013 0 7.617 0ZM3.079 53.254h92.843V6.362c.013-2.238-1.592-3.26-3.276-3.246-6.21.065-12.407.026-18.616.026-22.629 0-45.258 0-67.886.013-.54 0-1.145.144-1.618.406-1.224.641-1.447 1.82-1.447 3.076V53.255Zm92.843 3.182H3.144c-.026.118-.052.21-.052.288 0 2.12-.013 4.228 0 6.349 0 .406.079.825.197 1.218.447 1.361 1.513 1.976 3.342 1.976h85.686c.368 0 .75-.013 1.118-.065 1.316-.197 2.315-1.152 2.394-2.488.106-2.003.08-4.005.106-6.008-.014-.42-.014-.825-.014-1.27ZM26.444 84.819h46.073c-.013-.131-.013-.21-.04-.301-.737-2.907-3.697-5.237-6.71-5.237-10.695 0-21.391 0-32.087-.013-1.303 0-2.526.249-3.658.877-1.841 1.034-3.026 2.58-3.578 4.674Zm17.59-8.745h10.92V69.41h-10.92v6.664Z" fill="#000"/></g><defs><clipPath id="clip0_140_3480"><path fill="#fff" d="M0 0h99v88H0z"/></clipPath></defs></svg>