<svg width="93" height="93" fill="none" xmlns="http://www.w3.org/2000/svg"><g clip-path="url('#clip0_140_3551')"><path d="M50.272 60.861v-36.35c0-.581.033-1.178-.017-1.758-.199-2.073-1.774-3.5-3.797-3.5-2.022 0-3.58 1.443-3.697 3.55-.083 1.459-.017 2.918-.017 4.377v33.1c-.928.034-1.193-.679-1.624-1.11-3.383-3.334-6.715-6.733-10.098-10.05-1.824-1.774-4.095-1.857-5.654-.298-1.542 1.542-1.476 3.83.315 5.638 5.92 5.97 11.855 11.924 17.84 17.827 2.007 1.99 3.963 1.957 5.953-.016a3616.852 3616.852 0 0 0 17.84-17.828c1.808-1.824 1.874-4.062.3-5.638-1.56-1.542-3.864-1.46-5.655.315-3.78 3.748-7.51 7.546-11.689 11.741Z" fill="#000"/><path d="M90.513 46.5a44.304 44.304 0 0 1-8.174 25.572c-5.074 7.147-12.37 12.736-20.61 15.737a44.377 44.377 0 0 1-27.291 1.028c-8.572-2.437-16.233-7.495-21.92-14.344-5.72-6.9-9.235-15.589-9.915-24.51-.696-9.155 1.443-18.375 6.201-26.236A44.561 44.561 0 0 1 28.286 6.401C36.66 2.571 46.26 1.509 55.28 3.35a44.405 44.405 0 0 1 23.03 12.72A44.211 44.211 0 0 1 90 39.716c.348 2.239.514 4.51.514 6.783 0 1.608 2.487 1.608 2.487 0-.017-9.602-3.001-19.104-8.589-26.915a47.12 47.12 0 0 0-22.019-16.8C53.29-.546 43.11-.894 33.775 1.759c-8.97 2.553-17.128 7.877-23.08 15.074A46.882 46.882 0 0 0 .132 42.902C-.63 52.535 1.69 62.336 6.715 70.595c4.825 7.943 12.054 14.41 20.527 18.241 8.937 4.03 18.984 5.174 28.585 3.234 9.185-1.857 17.74-6.617 24.224-13.383 6.532-6.816 10.943-15.621 12.369-24.958.364-2.388.563-4.809.563-7.23.017-1.592-2.47-1.592-2.47 0Z" fill="#0EB2D3"/></g><defs><clipPath id="clip0_140_3551"><path fill="#fff" d="M0 0h93v93H0z"/></clipPath></defs></svg>