<svg width="47" height="58" fill="none" xmlns="http://www.w3.org/2000/svg"><g clip-path="url('#clip0_140_2829')" filter="url('#filter0_i_140_2829')"><path d="M30.695 26.975c.383.166.619.273.87.364 8.285 3.353 13.342 9.497 15.081 18.494.295 1.486.354 3.049.354 4.581-.015 1.275-.855 2.17-1.798 2.913-2.005 1.593-4.35 2.412-6.767 3.05-3.553.925-7.165 1.471-10.822 1.547-3.066.06-6.147.137-9.2-.03-4.584-.258-9.125-.91-13.43-2.7-1.4-.577-2.713-1.306-3.789-2.428C.384 51.916-.059 50.885 0 49.7c.472-9.406 4.644-16.46 12.664-21.058.575-.333 1.194-.591 1.799-.864.575-.258 1.165-.47 1.902-.774-4.63-3.14-7.033-7.45-6.9-13.017.088-4.036 1.68-7.495 4.614-10.226 5.676-5.249 14.242-4.976 19.52.592 2.02 2.14 3.288 4.688 3.789 7.631.501 2.959.118 5.78-1.062 8.496-1.18 2.731-3.08 4.81-5.631 6.494ZM23.53 54.996c5.44 0 9.848-.455 14.58-1.714 1.74-.47 3.391-1.26 5.057-1.988.678-.288 1.032-.91.929-1.73-.148-1.198-.207-2.412-.428-3.595-2.344-12.107-14.182-19.601-25.682-16.233C9.185 32.3 3.288 40.326 2.978 49.474c-.03.864.266 1.502.973 1.866 1.076.546 2.153 1.122 3.288 1.471 5.322 1.67 10.762 2.2 16.29 2.185Zm-.03-29.144c5.617.182 11.116-4.597 11.146-11.333.03-6.114-4.63-11.485-11.131-11.454-6.457.015-11.057 5.34-11.072 11.363-.015 6.857 5.558 11.576 11.057 11.424Z" fill="#000"/></g><defs><clipPath id="clip0_140_2829"><path fill="#fff" d="M0 0h47v58H0z"/></clipPath><filter id="filter0_i_140_2829" x="0" y="0" width="47" height="58" filterUnits="userSpaceOnUse" color-interpolation-filters="sRGB"><feFlood flood-opacity="0" result="BackgroundImageFix"/><feBlend in="SourceGraphic" in2="BackgroundImageFix" result="shape"/><feColorMatrix in="SourceAlpha" values="0 0 0 0 0 0 0 0 0 0 0 0 0 0 0 0 0 0 127 0" result="hardAlpha"/><feOffset dy="67"/><feGaussianBlur stdDeviation="2"/><feComposite in2="hardAlpha" operator="arithmetic" k2="-1" k3="1"/><feColorMatrix values="0 0 0 0 0.054902 0 0 0 0 0.698039 0 0 0 0 0.827451 0 0 0 1 0"/><feBlend in2="shape" result="effect1_innerShadow_140_2829"/></filter></defs></svg>