<svg width="64" height="17" fill="none" xmlns="http://www.w3.org/2000/svg"><g clip-path="url('#clip0_140_3426')" fill="#000"><path d="M3.809 2.443c1.238 0 2.214.41 2.928 1.215.714.806 1.071 1.96 1.071 3.472 0 1.513-.357 2.666-1.071 3.472s-1.69 1.215-2.928 1.215H2.345v3.968c0 .31-.107.583-.333.793-.226.211-.5.323-.845.323-.334 0-.62-.112-.845-.323a1.065 1.065 0 0 1-.334-.793V3.559c0-.31.107-.583.334-.794.226-.21.5-.322.845-.322h2.642Zm0 7.13c.5 0 .893-.223 1.202-.67.31-.446.464-1.041.464-1.773s-.154-1.327-.464-1.773c-.31-.447-.702-.67-1.202-.67H2.345v4.886h1.464ZM10.57 16.541a3.305 3.305 0 0 1-1.226-1.227 3.26 3.26 0 0 1-.453-1.674V9.672c0-.608.155-1.166.453-1.674A3.493 3.493 0 0 1 10.57 6.77a3.323 3.323 0 0 1 1.737-.458c.643 0 1.214.148 1.738.458.524.31.928.707 1.226 1.228.298.508.452 1.066.452 1.674v3.968c0 .607-.154 1.165-.452 1.674a3.494 3.494 0 0 1-1.226 1.227 3.353 3.353 0 0 1-1.738.46c-.63 0-1.214-.15-1.738-.46Zm2.666-1.934c.226-.236.345-.558.345-.967V9.672c0-.41-.12-.732-.345-.967-.227-.236-.536-.36-.929-.36s-.702.124-.928.36c-.226.235-.345.558-.345.967v3.968c0 .409.119.731.345.967.226.236.536.36.928.36.393 0 .702-.125.929-.36ZM23.627 2.666c.214.223.31.484.31.794v12.213c0 .298-.108.558-.31.782a1.015 1.015 0 0 1-.762.334.968.968 0 0 1-.607-.198 1.015 1.015 0 0 1-.37-.508h-.19c-.154.235-.392.446-.702.632a2.03 2.03 0 0 1-1.06.285c-.713 0-1.296-.297-1.76-.88-.453-.583-.68-1.414-.68-2.48V9.672c0-1.066.227-1.897.68-2.48.452-.583 1.047-.88 1.76-.88a2 2 0 0 1 .977.235c.297.161.524.347.678.583h.19V3.46c0-.31.108-.583.322-.794.214-.21.464-.322.75-.322.31 0 .56.111.774.322Zm-1.833 7.006c0-.397-.108-.707-.31-.955-.214-.248-.464-.372-.762-.372a.954.954 0 0 0-.761.372c-.215.248-.31.558-.31.955v3.968c0 .397.107.707.31.955a.954.954 0 0 0 .761.372c.298 0 .56-.124.762-.372.202-.248.31-.558.31-.955V9.672ZM27.471 16.541a3.306 3.306 0 0 1-1.226-1.227 3.26 3.26 0 0 1-.452-1.674V9.672c0-.608.155-1.166.452-1.674a3.494 3.494 0 0 1 1.226-1.228 3.323 3.323 0 0 1 1.738-.458c.428 0 .845.086 1.25.248.404.16.75.384 1.035.67.5.483.738.991.738 1.524 0 .26-.083.471-.25.657a.844.844 0 0 1-.63.26c-.227 0-.405-.049-.56-.136-.155-.099-.298-.26-.464-.483a2.01 2.01 0 0 0-.524-.546 1.182 1.182 0 0 0-.619-.149c-.393 0-.702.124-.928.36-.227.236-.346.558-.346.967v3.968c0 .41.12.732.346.967.226.236.535.36.928.36.238 0 .44-.062.63-.174.18-.111.382-.322.608-.62.202-.273.393-.459.56-.57a.96.96 0 0 1 .559-.161c.25 0 .452.087.63.26.167.174.25.397.25.657 0 .558-.261 1.091-.797 1.612-.333.31-.714.558-1.142.757a3.172 3.172 0 0 1-1.286.285c-.619-.025-1.202-.174-1.726-.484ZM38.029 6.733a3.122 3.122 0 0 1 1.535 2.728v6.212c0 .298-.107.558-.31.782a1.015 1.015 0 0 1-.761.334.979.979 0 0 1-.62-.198.992.992 0 0 1-.356-.508h-.19c-.155.235-.393.446-.703.632a2.058 2.058 0 0 1-2.262-.112c-.368-.26-.666-.644-.904-1.14-.226-.496-.345-1.067-.345-1.724 0-.98.286-1.748.845-2.306.571-.558 1.357-.844 2.369-.844h1.07V9.474c0-.348-.082-.633-.261-.819-.179-.198-.417-.297-.714-.297-.179 0-.345.024-.476.086-.131.062-.298.186-.5.36-.19.174-.37.298-.524.372-.155.062-.333.1-.547.1a.862.862 0 0 1-.631-.261.918.918 0 0 1-.25-.657c0-.248.083-.484.25-.732.166-.248.392-.471.678-.67a3.467 3.467 0 0 1 2.012-.632 2.956 2.956 0 0 1 1.595.41Zm-.607 5.692H36.35a.955.955 0 0 0-.761.372c-.215.248-.31.558-.31.954 0 .397.107.707.31.955.214.248.464.372.761.372.179 0 .37-.05.572-.136.19-.1.369-.223.512-.372v-2.145h-.012ZM42.552 16.715a3.208 3.208 0 0 1-1.084-.732c-.416-.434-.63-.88-.63-1.327 0-.26.083-.47.25-.657a.843.843 0 0 1 .63-.26c.227 0 .429.05.607.136.179.1.381.26.584.509.178.223.357.372.523.446.167.087.346.124.536.124.286 0 .524-.087.702-.26a.89.89 0 0 0 .274-.658c0-.334-.119-.62-.345-.818-.226-.21-.607-.459-1.119-.769a9.796 9.796 0 0 1-1.202-.768c-.322-.236-.595-.57-.81-.992-.226-.422-.333-.943-.333-1.55 0-.496.131-.98.393-1.414a2.846 2.846 0 0 1 1.06-1.054c.44-.26.94-.384 1.487-.384.464 0 .905.074 1.286.235.392.161.714.36.976.595.178.174.321.372.416.583.095.211.143.422.143.62 0 .26-.083.471-.25.657a.843.843 0 0 1-.63.26 1.31 1.31 0 0 1-.513-.086 1.374 1.374 0 0 1-.464-.36 1.528 1.528 0 0 0-.464-.372 1.367 1.367 0 0 0-.524-.099.73.73 0 0 0-.571.248.825.825 0 0 0-.214.57c0 .335.119.62.345.819.226.21.607.471 1.119.769.476.272.88.52 1.202.768.321.236.595.57.81.992.226.422.333.943.333 1.55 0 .546-.131 1.042-.405 1.488a2.872 2.872 0 0 1-1.119 1.067 3.297 3.297 0 0 1-1.607.397 3.331 3.331 0 0 1-1.392-.273ZM52.276 14.656c.298 0 .56.1.762.285.214.186.31.434.31.732a.958.958 0 0 1-.31.732 1.122 1.122 0 0 1-.762.285h-1.178c-.726 0-1.333-.248-1.821-.757-.488-.495-.726-1.128-.726-1.897V8.655c-.298 0-.56-.1-.762-.285-.214-.186-.31-.434-.31-.732s.108-.545.31-.731c.214-.186.464-.286.762-.286V5.084c0-.31.107-.583.321-.794.214-.21.464-.322.75-.322.297 0 .56.111.762.322.202.223.31.484.31.794v1.525h1.177c.298 0 .56.1.762.285.203.186.31.434.31.732a.958.958 0 0 1-.31.731 1.122 1.122 0 0 1-.762.285h-1.166v5.394c0 .199.048.36.13.46a.44.44 0 0 0 .358.148h1.083v.012ZM54.359 4.44a.784.784 0 0 1-.226-.571c0-.186.047-.434.13-.732l.644-2.22c.178-.607.511-.917.976-.917.285 0 .523.087.702.273.178.186.273.434.273.744 0 .235-.059.508-.19.818l-.88 2.245c-.155.409-.453.607-.881.607a.716.716 0 0 1-.548-.248ZM59.453 16.715a3.21 3.21 0 0 1-1.083-.732c-.416-.434-.63-.88-.63-1.327 0-.26.083-.47.25-.657a.843.843 0 0 1 .63-.26c.226 0 .428.05.607.136.179.1.381.26.583.509.179.223.357.372.524.446.167.087.345.124.536.124.285 0 .523-.087.702-.26a.89.89 0 0 0 .274-.658c0-.334-.12-.62-.345-.818-.227-.21-.608-.459-1.12-.769a9.796 9.796 0 0 1-1.202-.768c-.32-.236-.595-.57-.809-.992-.226-.422-.333-.943-.333-1.55 0-.496.13-.98.393-1.414a2.847 2.847 0 0 1 1.059-1.054c.44-.26.94-.384 1.488-.384.464 0 .904.074 1.285.235.393.161.714.36.976.595.179.174.322.372.417.583.095.211.143.422.143.62 0 .26-.084.471-.25.657a.843.843 0 0 1-.631.26 1.31 1.31 0 0 1-.512-.086 1.372 1.372 0 0 1-.464-.36 1.53 1.53 0 0 0-.464-.372 1.368 1.368 0 0 0-.524-.099.73.73 0 0 0-.571.248.825.825 0 0 0-.215.57c0 .335.12.62.346.819.226.21.607.471 1.118.769.477.272.881.52 1.203.768.32.236.595.57.809.992.226.422.333.943.333 1.55 0 .546-.13 1.042-.404 1.488a2.872 2.872 0 0 1-1.12 1.067 3.297 3.297 0 0 1-1.606.397 3.368 3.368 0 0 1-1.393-.273Z"/></g><defs><clipPath id="clip0_140_3426"><path fill="#fff" d="M0 0h64v17H0z"/></clipPath></defs></svg>