<svg width="193" height="173" fill="none" xmlns="http://www.w3.org/2000/svg"><g clip-path="url('#clip0_140_1764')" fill="#000"><path d="M192.334 30.893c-1.154-1.422-2.619-1.956-4.351-1.245-1.687.712-2.442 2.045-2.442 3.868v48.45c0 1.823.755 3.156 2.442 3.867 2.042.845 3.552-.133 4.973-1.911v.667-52.896c-.311-.4-.444-.622-.622-.8ZM7.504 34.67c0-2.089-.134-4.09-2.398-5.023-2.087-.889-3.64.09-5.106 2.09v52.228c.355.356.622.534.8.756 1.154 1.29 2.53 1.778 4.173 1.156 1.731-.667 2.486-2 2.486-3.823V63.83c.044-9.734 0-19.424.044-29.159Zm0 0c0-2.089-.134-4.09-2.398-5.023-2.087-.889-3.64.09-5.106 2.09v52.228c.355.356.622.534.8.756 1.154 1.29 2.53 1.778 4.173 1.156 1.731-.667 2.486-2 2.486-3.823V63.83c.044-9.734 0-19.424.044-29.159ZM128.267 31.515c0-5.823-1.376-11.424-4.706-16.224-2.309-3.379-5.328-6.268-8.303-9.113-1.731-1.644-4.173-1.2-5.505.49-1.332 1.688-.977 3.822.932 5.467.711.622 1.51 1.2 2.176 1.867 2.175 2.089 4.129 4.356 5.283 7.556-2.575 0-4.884-.089-7.148.044-1.998.09-3.507 1.734-3.596 3.601-.089 1.956 1.376 3.645 3.507 3.867 1.11.133 2.22.09 3.33.09 6.838 0 6.838 0 6.394 6.889 0 .133-.134.267-.311.578-2.531 0-5.195-.045-7.814 0-.888 0-1.821.044-2.62.355-1.643.667-2.619 2.045-2.397 3.867.222 1.867 1.287 3.2 3.329 3.29 3.242.089 6.483.044 9.768.044v7.557h-8.302c-2.886.044-4.795 1.511-4.84 3.778-.044 2.311 1.687 3.778 4.706 3.823 2.798.044 5.595 0 8.436 0v7.378H72.458v-7.378c3.02 0 5.905.133 8.747-.045 1.154-.089 2.664-.444 3.33-1.289.71-.889.976-2.489.754-3.6-.355-1.734-1.864-2.623-3.685-2.623-3.019-.044-6.038 0-9.146 0v-7.556c2.975 0 5.86.133 8.747-.045 1.154-.089 2.664-.444 3.33-1.289.71-.889.976-2.445.754-3.6-.355-1.778-1.864-2.623-3.64-2.667-3.02-.045-6.038 0-9.28 0 0-2.09.045-3.956-.044-5.779-.044-1.378.533-1.778 1.865-1.778 2.442.09 4.884.09 7.326 0 2.53-.089 4.084-1.645 4.084-3.778 0-2.178-1.776-3.778-4.306-3.823-2.043-.044-4.13 0-6.66 0 .666-1.2.932-2 1.465-2.578 2.175-2.4 4.395-4.8 6.66-7.067 1.465-1.467 1.82-3.423.754-5.023-1.11-1.645-3.24-2.134-5.105-1.112-.578.312-1.11.712-1.643 1.156-7.947 6.579-11.943 15.113-11.988 25.426a6623.341 6623.341 0 0 0 0 42.005c.045 6.8-.31 13.69.444 20.403 1.865 16.446 16.65 28.492 32.988 27.47 16.783-1.067 29.969-14.713 30.058-31.293.089-19.736.044-39.56 0-59.341Zm-8.569 64.853c-2.22 11.246-12.92 18.802-24.064 18.224-11.854-.622-21.222-8.979-22.865-20.625-.444-3.2-.355-6.49-.4-9.734-.044-3.156 0-6.312 0-9.601h48.75c-.444 7.334-.044 14.713-1.421 21.736Z"/><path d="M139.455 86.678c-2.175.044-3.463 1.556-3.64 4.178-.222 2.49-.355 5.023-.933 7.468-3.374 14.89-12.298 25.07-26.772 29.559-13.763 4.312-26.506 1.467-37.472-8.045-8.702-7.557-12.831-17.336-13.364-28.76-.133-2.711-1.288-4.222-3.419-4.4-2.353-.178-4.217 1.689-4.129 4.4.222 9.157 2.709 17.647 7.859 25.292 6.393 9.424 15.006 15.78 25.884 19.158.666.223 1.643.978 1.687 1.512.133 3.822.089 7.69.089 11.735-.932.133-1.554.222-2.22.311-9.59 1.689-16.916 10.134-16.96 19.469 0 2.934 1.332 4.4 4.306 4.4h52.391c2.974 0 4.395-1.422 4.306-4.4-.31-7.646-3.818-13.468-10.478-17.158-2.575-1.422-5.594-2.089-8.657-3.156 0-3.156.133-6.667-.045-10.134-.089-1.734.577-2.445 2.176-2.89 8.258-2.311 15.184-6.845 20.956-13.157 8.036-8.757 12.076-19.202 12.387-31.026.044-2.578-1.687-4.356-3.952-4.356Zm-46.574 50.806h7.282v11.246h-7.281v-11.246Zm14.918 19.069c5.062.089 9.679 4.045 10.834 8.757H74.412c1.065-4.712 5.727-8.668 10.789-8.757a480.939 480.939 0 0 1 22.598 0ZM24.819 57.696v45.339c-.133 2.223-1.554 3.69-3.596 3.734-1.998.045-3.641-1.378-3.908-3.467-.044-.444-.044-.889-.044-1.333V13.246c0-2.89 1.51-4.712 3.907-4.667 2.353.044 3.64 1.689 3.64 4.578v44.54ZM175.818 57.83v43.739c0 .533.044 1.022 0 1.555-.222 2.223-1.865 3.734-3.952 3.645-1.998-.089-3.507-1.555-3.596-3.778-.089-2.889 0-5.778 0-8.668V13.024c0-2.756 1.51-4.49 3.818-4.445 2.309.044 3.73 1.778 3.73 4.578V57.83ZM150.91 57.608V34.093c0-3.067 1.332-4.756 3.73-4.711 2.308 0 3.818 1.822 3.818 4.756v47.517c0 2.045-.71 3.645-2.753 4.312-1.687.578-3.152.044-4.084-1.423-.489-.8-.711-1.955-.711-2.933-.044-8.001 0-16.002 0-24.003ZM42.134 57.918v23.515c0 3.022-1.42 4.756-3.774 4.711-2.264-.044-3.774-1.911-3.774-4.8V34.27c0-3.112 1.421-4.934 3.863-4.934 2.398.044 3.685 1.689 3.685 4.8v23.781ZM100.34 3.69c.045 2.088-1.642 3.866-3.729 3.866-1.998 0-3.863-1.822-3.818-3.822 0-1.956 1.687-3.645 3.64-3.734 2.087-.089 3.863 1.6 3.907 3.69Z"/><path d="M100.296 94.457c-.044 2.044-1.91 3.822-3.907 3.733-1.91-.089-3.64-1.867-3.64-3.778 0-2.178 1.598-3.778 3.773-3.778 2.176.044 3.818 1.689 3.774 3.823Z"/></g><defs><clipPath id="clip0_140_1764"><path fill="#fff" d="M0 0h193v173H0z"/></clipPath></defs></svg>