<svg width="172" height="172" fill="none" xmlns="http://www.w3.org/2000/svg"><g clip-path="url('#clip0_140_1757')" fill="#000"><path d="M165.254 52.605c-4.311-10.23-10.499-19.411-18.362-27.341-7.862-7.908-16.998-14.117-27.184-18.473C109.186 2.3 98.018 0 86.536 0h-.09C74.743 0 63.395 2.256 52.74 6.724a85.738 85.738 0 0 0-27.453 18.361A85.585 85.585 0 0 0 6.791 52.382C2.3 62.992 0 74.272 0 85.91c0 11.66 2.256 22.94 6.746 33.551 4.333 10.253 10.543 19.456 18.45 27.363a85.604 85.604 0 0 0 27.41 18.429c10.632 4.49 21.957 6.746 33.64 6.746h.022C133.535 172 172 133.401 172 85.978a85.415 85.415 0 0 0-6.746-33.373ZM86.067 162.864H86c-42.24 0-76.73-34.266-76.909-76.395-.156-42.374 34.11-77.087 76.373-77.355h.514c42.374 0 76.864 34.4 76.886 76.663 0 42.464-34.445 77.065-76.797 77.087Z"/><path d="M123.751 83.118c-5.719-3.306-11.527-6.656-17.133-9.895-11.84-6.813-24.08-13.872-36.098-20.908-.849-.492-1.787-.76-2.703-.76-1.273 0-2.48.492-3.35 1.385-.894.916-1.363 2.167-1.34 3.619.11 7.193.089 14.497.066 21.556-.022 2.97-.022 6.053-.022 9.069v9.292c0 7.126 0 14.497.022 21.735 0 1.407.47 2.613 1.363 3.507a4.34 4.34 0 0 0 3.105 1.273c.871 0 1.742-.246 2.591-.737 17.021-9.829 35.003-20.216 53.454-30.848 1.72-.983 2.703-2.525 2.703-4.2-.045-1.63-.983-3.127-2.658-4.088Zm-14.766 6.255-12.799 7.394-20.149 11.638-3.685 2.122V63.975l3.685 2.122 29.888 17.245 3.06 1.764 3.686 2.122-3.686 2.145Z"/></g><defs><clipPath id="clip0_140_1757"><path fill="#fff" d="M0 0h172v172H0z"/></clipPath></defs></svg>