<svg width="241" height="35" fill="none" xmlns="http://www.w3.org/2000/svg"><g clip-path="url('#clip0_172_1011')" fill="#000"><path d="M.741 34.095C.247 33.631 0 33.051 0 32.355V7.422c0-.789.27-1.438.831-1.995.562-.533 1.214-.812 2-.812 1.303 0 2.382.789 3.258 2.39l8.74 16.676h.405V7.004c0-.672.247-1.23.741-1.693.495-.464 1.079-.696 1.798-.696.696 0 1.303.232 1.797.696.495.464.742 1.02.742 1.693v24.934c0 .789-.292 1.461-.854 2.018-.562.556-1.236.835-2 .835-1.303 0-2.381-.812-3.258-2.435l-8.718-16.63h-.404v16.63c0 .695-.247 1.275-.742 1.739-.494.464-1.1.696-1.797.696-.719 0-1.326-.232-1.798-.696ZM40.22 14.079c.449.44.673.997.673 1.623v16.561c0 .65-.224 1.183-.674 1.624-.45.44-.989.672-1.64.672-.697 0-1.236-.185-1.573-.533-.36-.371-.562-.789-.607-1.253h-.449c-.382.627-.966 1.137-1.775 1.577-.809.441-1.663.65-2.629.65a5.625 5.625 0 0 1-3.145-.928c-.967-.603-1.73-1.484-2.292-2.598-.562-1.113-.854-2.389-.854-3.803V15.726c0-.65.225-1.183.674-1.624.45-.44 1.011-.673 1.685-.673.652 0 1.19.232 1.64.673.45.44.674.997.674 1.623v11.946c0 .95.293 1.716.854 2.273.562.58 1.348.858 2.314.858.944 0 1.708-.279 2.27-.858.562-.58.854-1.346.854-2.273V15.726c0-.65.224-1.183.674-1.624.45-.44 1.01-.673 1.685-.673.651-.023 1.19.21 1.64.65ZM57.453 14.033c1.235.695 2.224 1.646 2.92 2.83a7.528 7.528 0 0 1 1.057 3.873v2.76c0 .719-.248 1.275-.742 1.67-.494.394-1.1.58-1.82.58h-9.01v1.46c0 1.068.315 1.926.966 2.575.652.65 1.506.975 2.562.975.696 0 1.303-.116 1.82-.325.516-.209 1.033-.557 1.55-1.067.404-.394.764-.673 1.101-.812.315-.162.697-.232 1.146-.232.54 0 .989.186 1.326.534.337.37.516.811.516 1.345 0 .487-.157.974-.449 1.484-.292.51-.697.998-1.213 1.438-.674.557-1.506.998-2.494 1.322-.989.325-2.067.488-3.258.488-1.55 0-2.944-.348-4.202-1.044-1.258-.696-2.247-1.647-2.943-2.83a7.528 7.528 0 0 1-1.056-3.873v-6.495c0-1.391.36-2.69 1.056-3.873.696-1.183 1.685-2.134 2.92-2.83 1.236-.696 2.63-1.044 4.135-1.044 1.483.047 2.876.395 4.112 1.09Zm-6.606 4.128c-.652.65-.966 1.508-.966 2.528v1.114h6.898v-1.09c0-1.044-.315-1.88-.944-2.529-.63-.65-1.46-.974-2.494-.974-1.034-.023-1.843.302-2.494.951ZM68.125 34.35c-1.01-.44-1.887-.974-2.629-1.646a5.716 5.716 0 0 1-1.145-1.485c-.27-.51-.405-.997-.405-1.438 0-.533.18-.974.562-1.345.382-.371.831-.533 1.37-.533.45 0 .877.092 1.259.301.382.186.786.557 1.213 1.09.494.557.966.951 1.438 1.206.472.232 1.011.348 1.64.348.921 0 1.64-.208 2.18-.65.516-.44.786-.95.786-1.576 0-.696-.292-1.253-.899-1.624-.606-.394-1.55-.835-2.876-1.345a21.93 21.93 0 0 1-3.145-1.345c-.832-.441-1.528-1.09-2.135-1.949-.606-.858-.899-1.925-.899-3.247 0-1.067.293-2.064.9-2.969.583-.928 1.437-1.67 2.516-2.25 1.078-.58 2.314-.858 3.684-.858 1.169 0 2.225.186 3.169.534.943.347 1.752.811 2.404 1.414.944.928 1.415 1.81 1.415 2.691 0 .534-.18.974-.539 1.345-.36.371-.809.534-1.37.534-.405 0-.764-.07-1.102-.232a4.121 4.121 0 0 1-1.055-.812 5.004 5.004 0 0 0-1.371-.974 4.064 4.064 0 0 0-1.573-.302c-.764 0-1.348.186-1.797.534-.427.37-.652.812-.652 1.345 0 .696.292 1.253.899 1.624.584.394 1.55.835 2.876 1.345 1.28.44 2.314.904 3.145 1.345.832.44 1.528 1.09 2.135 1.949.584.858.899 1.925.899 3.247 0 1.113-.315 2.18-.944 3.154-.63.997-1.528 1.786-2.674 2.366-1.146.58-2.494.881-4 .881-1.168-.023-2.269-.232-3.28-.672ZM92.302 30.176c.629 0 1.146.185 1.55.58.404.394.607.904.607 1.507 0 .626-.203 1.113-.607 1.508-.404.394-.921.58-1.55.58h-3.056a6.248 6.248 0 0 1-3.146-.812c-.943-.534-1.662-1.3-2.202-2.273a6.499 6.499 0 0 1-.808-3.201V17.813h-.517c-.63 0-1.146-.185-1.573-.58a1.983 1.983 0 0 1-.652-1.507c0-.603.225-1.114.652-1.508.427-.394.966-.58 1.573-.58h.517v-3.154c0-.65.224-1.183.674-1.624.449-.44.988-.672 1.64-.672.674 0 1.236.231 1.685.672.45.44.674.997.674 1.624v3.154h3.528c.629 0 1.145.186 1.572.58.427.394.652.905.652 1.508 0 .626-.225 1.113-.652 1.507-.427.395-.966.58-1.572.58h-3.528v10.275c0 .673.157 1.183.472 1.554.314.371.719.534 1.236.534h2.83ZM107.356 13.197c.629 0 1.123.186 1.528.58.382.394.584.905.584 1.508 0 .626-.202 1.113-.584 1.507-.382.395-.899.58-1.528.58h-2.427c-.809 0-1.483.279-2.022.858-.539.58-.809 1.3-.809 2.157V32.24c0 .65-.225 1.183-.674 1.623-.449.441-1.011.673-1.685.673-.652 0-1.191-.232-1.64-.673a2.21 2.21 0 0 1-.674-1.623V15.725c0-.649.224-1.182.674-1.623.449-.44.988-.673 1.64-.673.562 0 1.056.163 1.483.51.427.325.674.72.786 1.183h.36c.314-.51.786-.95 1.37-1.322a3.439 3.439 0 0 1 1.865-.556h1.753v-.047ZM122.028 13.986a7.288 7.288 0 0 1 2.764 2.69 7.059 7.059 0 0 1 .988 3.665v11.945c0 .65-.225 1.183-.674 1.624-.449.44-.989.672-1.64.672-.562 0-1.056-.185-1.438-.533a2.59 2.59 0 0 1-.787-1.276h-.404c-.494.65-1.146 1.183-1.977 1.6a5.925 5.925 0 0 1-2.696.627 5.834 5.834 0 0 1-3.056-.835c-.921-.557-1.64-1.346-2.18-2.32-.516-.997-.786-2.11-.786-3.34 0-1.994.674-3.595 2-4.847 1.348-1.253 3.168-1.856 5.504-1.856h3.461v-1.461c0-.95-.27-1.716-.832-2.273-.561-.58-1.303-.858-2.202-.858-.516 0-.943.093-1.325.255-.36.162-.787.487-1.281.974-.427.418-.809.696-1.168.858-.337.163-.742.232-1.191.232-.539 0-1.011-.185-1.371-.533a1.785 1.785 0 0 1-.562-1.345c0-.557.203-1.114.585-1.647.382-.534.921-1.044 1.572-1.485 1.416-.974 2.989-1.46 4.741-1.46 1.461-.07 2.787.254 3.955.927Zm-.899 11.574h-3.46c-.831 0-1.528.255-2.045.765-.517.51-.786 1.206-.786 2.041 0 .812.247 1.462.719 1.925.472.487 1.123.72 1.932.72.629 0 1.281-.163 1.955-.51a5.374 5.374 0 0 0 1.708-1.3V25.56h-.023ZM161.73 13.94a6.491 6.491 0 0 1 2.247 2.574c.562 1.09.831 2.296.831 3.595v12.154c0 .65-.224 1.183-.674 1.624-.449.44-1.011.672-1.685.672a2.253 2.253 0 0 1-1.64-.672 2.212 2.212 0 0 1-.674-1.624V20.11c0-.904-.27-1.6-.787-2.134-.516-.533-1.235-.788-2.089-.788-.854 0-1.55.255-2.045.788-.494.534-.741 1.253-.741 2.134v12.154c0 .65-.225 1.183-.674 1.624-.45.44-1.011.672-1.685.672a2.256 2.256 0 0 1-1.641-.672 2.212 2.212 0 0 1-.674-1.624V20.11c0-.904-.247-1.6-.764-2.134-.516-.533-1.213-.788-2.067-.788-.876 0-1.55.278-2.067.812-.517.533-.764 1.275-.764 2.203v12.061c0 .65-.225 1.183-.674 1.624-.449.44-1.011.672-1.685.672a2.252 2.252 0 0 1-1.64-.672 2.208 2.208 0 0 1-.674-1.624V15.726c0-.65.224-1.183.674-1.624.449-.44.988-.673 1.64-.673.562 0 1.056.163 1.438.487.382.325.652.743.786 1.276h.405c.427-.65 1.011-1.16 1.752-1.577.742-.394 1.506-.603 2.315-.603.966 0 1.865.232 2.696.696a6.142 6.142 0 0 1 2.089 1.902h.405a5.97 5.97 0 0 1 2.157-1.902 5.869 5.869 0 0 1 2.808-.696c1.101-.023 2.157.301 3.101.928ZM169.931 8.93c-.494-.464-.741-1.067-.741-1.81 0-.718.247-1.321.741-1.808a2.58 2.58 0 0 1 1.82-.72c.697 0 1.303.233 1.798.72.494.487.741 1.067.741 1.809 0 .719-.247 1.322-.741 1.81a2.528 2.528 0 0 1-1.798.718 2.58 2.58 0 0 1-1.82-.719Zm.135 24.98a2.212 2.212 0 0 1-.674-1.623V15.726c0-.65.225-1.183.674-1.624.449-.44.989-.672 1.64-.672.674 0 1.236.232 1.685.672.45.441.675.998.675 1.624v16.56c0 .65-.225 1.183-.675 1.624-.449.44-1.011.673-1.685.673a2.29 2.29 0 0 1-1.64-.673ZM181.368 34.35c-1.011-.44-1.887-.974-2.629-1.646a5.73 5.73 0 0 1-1.146-1.485c-.269-.51-.404-.997-.404-1.438 0-.533.179-.974.561-1.345.382-.371.832-.533 1.371-.533.449 0 .876.092 1.258.301.382.186.787.557 1.214 1.09.494.557.966.951 1.438 1.206.471.232 1.011.348 1.64.348.921 0 1.64-.208 2.179-.65.517-.44.787-.95.787-1.576 0-.696-.292-1.253-.899-1.624-.607-.394-1.55-.835-2.876-1.345a21.958 21.958 0 0 1-3.146-1.345c-.831-.441-1.528-1.09-2.134-1.949-.607-.858-.899-1.925-.899-3.247 0-1.067.292-2.064.899-2.969.584-.928 1.438-1.67 2.516-2.25 1.079-.58 2.315-.858 3.685-.858 1.169 0 2.225.186 3.168.534.944.347 1.753.811 2.404 1.414.944.928 1.416 1.81 1.416 2.691 0 .534-.18.974-.539 1.345-.36.371-.809.534-1.371.534-.404 0-.764-.07-1.101-.232a4.13 4.13 0 0 1-1.056-.812 5.002 5.002 0 0 0-1.37-.974 4.07 4.07 0 0 0-1.573-.302c-.764 0-1.348.186-1.798.534-.427.37-.651.812-.651 1.345 0 .696.292 1.253.898 1.624.585.394 1.551.835 2.876 1.345a21.92 21.92 0 0 1 3.146 1.345c.831.44 1.528 1.09 2.135 1.949.584.858.898 1.925.898 3.247 0 1.113-.314 2.18-.943 3.154-.63.997-1.528 1.786-2.674 2.366-1.146.58-2.494.881-4 .881-1.146-.023-2.269-.232-3.28-.672ZM196.242 8.93c-.494-.464-.741-1.067-.741-1.81 0-.718.247-1.321.741-1.808a2.58 2.58 0 0 1 1.82-.72c.697 0 1.303.233 1.798.72.494.487.741 1.067.741 1.809 0 .719-.247 1.322-.741 1.81a2.528 2.528 0 0 1-1.798.718 2.58 2.58 0 0 1-1.82-.719Zm.135 24.98a2.212 2.212 0 0 1-.674-1.623V15.726c0-.65.225-1.183.674-1.624.449-.44.989-.672 1.64-.672.674 0 1.236.232 1.685.672.45.441.674.998.674 1.624v16.56c0 .65-.224 1.183-.674 1.624-.449.44-1.011.673-1.685.673a2.29 2.29 0 0 1-1.64-.673ZM208.645 33.956c-1.258-.696-2.247-1.647-2.943-2.83a7.523 7.523 0 0 1-1.056-3.873V20.76c0-1.392.359-2.69 1.056-3.874.696-1.183 1.685-2.134 2.943-2.83 1.258-.695 2.651-1.043 4.202-1.043 1.572 0 2.988.348 4.224 1.044a7.964 7.964 0 0 1 2.943 2.83 7.339 7.339 0 0 1 1.079 3.873v6.494a7.34 7.34 0 0 1-1.079 3.874 7.965 7.965 0 0 1-2.943 2.83c-1.236.695-2.652 1.043-4.224 1.043-1.528 0-2.944-.348-4.202-1.044Zm6.808-4.128c.652-.65.966-1.508.966-2.575V20.76c0-1.067-.314-1.925-.966-2.575-.652-.65-1.505-.974-2.606-.974-1.056 0-1.91.325-2.562.974-.651.65-.966 1.508-.966 2.575v6.494c0 1.067.315 1.925.966 2.575.652.65 1.506.974 2.562.974 1.078 0 1.954-.325 2.606-.974Zm-3.707-20.713a1.761 1.761 0 0 1-.517-1.275c0-.302.112-.766.359-1.392l2-4.778C214.015.557 214.734 0 215.7 0c.629 0 1.146.209 1.55.626.405.418.607.928.607 1.554 0 .44-.18.998-.517 1.624l-2.471 4.662c-.405.788-1.034 1.183-1.865 1.183-.517 0-.921-.186-1.258-.534ZM237.854 13.916c.967.626 1.73 1.484 2.292 2.598.562 1.113.854 2.389.854 3.804v11.945c0 .65-.225 1.183-.674 1.623-.449.44-1.011.673-1.685.673a2.251 2.251 0 0 1-1.64-.673 2.207 2.207 0 0 1-.674-1.623V20.318c0-.951-.293-1.717-.854-2.273-.562-.58-1.348-.859-2.315-.859-.943 0-1.707.279-2.269.859s-.854 1.345-.854 2.273v11.945c0 .65-.224 1.183-.674 1.623-.449.44-1.011.673-1.685.673a2.251 2.251 0 0 1-1.64-.673 2.207 2.207 0 0 1-.674-1.623V15.725c0-.65.224-1.183.674-1.623.449-.441.988-.673 1.64-.673.697 0 1.236.185 1.573.533.359.372.562.766.607 1.207h.449c.382-.604.966-1.137 1.775-1.555a5.583 5.583 0 0 1 2.629-.626c1.123 0 2.179.325 3.145.928Z"/></g><defs><clipPath id="clip0_172_1011"><path fill="#fff" d="M0 0h241v35H0z"/></clipPath></defs></svg>