<svg width="246" height="160" fill="none" xmlns="http://www.w3.org/2000/svg"><g clip-path="url('#clip0_140_241')" fill="#050606" fill-opacity=".5"><path d="M112.549.091c3.23 0 5.82 2.557 5.789 5.692-.03 2.952-3.016 6.026-5.85 5.904-3.046-.152-5.667-2.739-5.728-5.965-.061-3.135 2.499-5.6 5.789-5.63ZM165.351 11.383c-3.535.274-5.881-3.165-5.759-5.692.153-3.195 2.468-5.691 6.002-5.63 3.261.03 5.607 2.983 5.607 5.691 0 2.77-2.468 5.814-5.85 5.631ZM156.667 92.585c.031 3.409-3.382 5.874-5.728 5.905-3.229.03-5.728-2.679-5.972-5.874-.213-3.105 2.682-5.54 6.551-5.662 2.499-.06 5.149 2.862 5.149 5.631ZM151.122 5.783c-.03 3.013-2.803 6.026-5.697 5.874-3.261-.152-5.85-2.83-5.759-6.026.091-3.196 2.559-5.662 5.941-5.57 3.139.091 5.546 2.556 5.515 5.722ZM45.58 38.775c3.352-.03 5.942 2.283 5.911 5.6-.03 3.378-2.407 5.813-6.642 5.844-2.255 0-5.119-3.135-4.997-5.692.153-3.135 2.53-5.813 5.728-5.752ZM102.404 25.11c.609 2.769-3.291 5.873-5.424 5.873-3.626 0-6.124-3.378-6.032-5.995.09-2.77 2.132-5.57 5.94-5.6 3.169.03 5.912 2.586 5.516 5.721ZM27.848 11.444c-2.834.608-5.728-2.587-5.759-5.479 0-2.8 1.707-5.387 5.332-5.66 4.053-.305 6.155 2.434 6.277 5.6.122 2.525-2.133 5.934-5.85 5.539ZM218.213 0c3.412 0 5.728 2.283 5.85 5.57.122 3.165-2.133 5.813-6.398 5.874-2.407.03-5.089-3.044-5.089-5.814 0-2.8 2.651-5.874 5.637-5.63ZM0 77.063c.03-3.166 2.59-5.448 5.941-5.479 3.474-.03 5.637 3.257 5.545 5.722-.121 2.922-2.772 5.661-5.575 5.63-3.565-.06-5.942-2.404-5.911-5.873ZM224.063 24.957c.274 2.587-2.011 5.783-5.759 5.691-3.168-.06-5.697-2.495-5.697-5.63 0-2.83 2.315-5.813 5.911-5.722 2.925.091 5.728 2.191 5.545 5.661ZM40.157 74.841c-.427-3.287 2.529-5.57 5.545-5.661 2.956-.091 5.85 2.313 5.82 5.57-.03 3.195-2.407 5.904-6.703 5.813-2.347-.03-4.632-2.83-4.662-5.722ZM206.666 5.752c.365 2.496-2.438 5.783-5.454 5.722-3.535-.091-6.063-2.313-6.002-5.63.061-3.044 2.132-5.783 5.697-5.753 3.169.061 5.85 2.374 5.759 5.661ZM96.736 49.884c-3.26 0-5.82-2.526-5.789-5.661.061-2.983 2.803-5.6 6.003-5.478 3.321.121 5.636 2.221 5.606 5.874 0 3.013-2.529 5.295-5.82 5.265ZM132.567 98.216c-2.955.09-5.545-2.405-5.637-5.387-.091-3.044 2.377-5.57 5.332-5.753 3.687-.213 6.124 2.04 6.277 5.387.152 3.226-2.895 6.057-5.972 5.753ZM182.839 30.618c-3.351.213-5.697-3.287-5.423-5.813.366-3.56 2.498-5.478 5.941-5.448 3.291.03 5.82 2.8 5.637 5.996-.244 3.5-3.595 5.63-6.155 5.265ZM132.445 80.259c-3.23-.092-5.606-2.526-5.545-5.753.061-3.074 2.803-5.539 6.124-5.387 3.199.152 5.515 2.161 5.362 6.087-.091 3.013-2.559 5.144-5.941 5.053ZM66.725 80.441c-2.772.092-5.575-2.77-5.575-5.63 0-2.983 2.68-5.661 5.728-5.661 3.29 0 5.819 2.16 5.94 5.63.092 3.196-2.528 5.57-6.093 5.661ZM97.01 80.41c-3.26.031-6.063-2.465-6.032-5.508.06-2.952 2.255-5.692 5.82-5.752 3.138-.061 5.758 2.495 5.788 5.539.031 2.587-1.797 5.752-5.575 5.722ZM165.229 38.745c3.534-.153 6.002 2.526 6.032 5.57.031 3.043-2.498 5.538-5.545 5.63-4.113.091-5.911-2.526-6.032-5.57-.183-2.891 2.163-5.691 5.545-5.63ZM27.695 30.679c-3.138-.06-5.91-2.678-5.606-5.63.335-3.166 2.286-5.662 6.277-5.54 3.077.091 5.362 2.8 5.362 5.57.03 3.348-2.56 5.66-6.033 5.6ZM25.715 98.246c-3.047-.03-5.545-2.191-5.515-4.87.03-4.078 2.133-6.391 5.88-6.27 3.444.092 5.455 2.253 5.515 5.6.061 2.983-2.193 5.784-5.88 5.54ZM5.606 115.594C2.255 115.533-.06 113.068 0 109.72c.06-3.104 2.681-5.417 6.185-5.265 3.382.152 5.21 2.191 5.362 5.63.122 2.831-2.711 5.905-5.94 5.509ZM70.199 5.843c-.092-3.317 2.163-5.691 5.484-5.66 3.473.03 5.636 2.13 5.88 5.508.183 2.587-2.254 5.783-5.454 5.783-3.595-.03-5.819-2.07-5.91-5.63ZM202.065 49.884c-3.169.03-5.606-2.313-5.637-5.387-.03-3.379 2.255-5.722 5.637-5.753 3.321-.03 5.667 2.253 5.88 5.388.214 2.617-2.559 6.178-5.88 5.752ZM11.456 44.74c.03 3.257-3.26 5.661-5.789 5.63-3.138-.03-5.484-2.1-5.484-6.056 0-3.287 2.285-5.691 5.667-5.509 3.26.153 5.667 2.344 5.606 5.935ZM45.672 98.246c-3.382-.06-5.698-2.496-5.637-5.935.061-3.074 2.712-5.296 6.216-5.204 2.864.06 5.484 2.77 5.301 5.813-.213 3.074-2.62 5.387-5.88 5.326ZM27.421 50.127c-1.889.366-4.997-2.008-5.362-5.539-.274-2.678 2.59-5.6 5.545-5.813 3.534-.243 5.85 2.526 6.124 5.296.335 3.378-2.255 5.752-6.307 6.056ZM5.423 11.444C3.016 11.474.091 9.1.03 7.06-.122 2.83 1.858.456 5.393.304c3.9-.182 6.032 2.892 6.063 5.509 0 2.557-1.859 5.813-6.033 5.63ZM20.292 109.812c-.275-3.196 2.803-5.54 5.697-5.479 3.017.061 5.576 2.526 5.637 5.539.06 3.135-2.407 5.661-5.545 5.722-3.687.061-5.759-2.008-5.79-5.782ZM118.277 74.659c.183 2.678-2.224 5.69-5.271 5.752-3.808.06-5.941-2.192-6.215-5.448-.213-2.648 1.98-5.752 5.606-5.813 3.291-.092 5.728 2.191 5.88 5.508ZM81.137 98.246c-3.687.365-5.576-2.983-5.698-5.57-.152-3.256 2.56-5.539 6.094-5.6 2.56-.06 5.606 2.8 5.393 5.753-.244 3.074-2.53 5.447-5.79 5.417ZM70.838 25.048c.03 3.105-2.59 5.722-5.667 5.722-3.778 0-5.697-2.77-5.85-5.539-.182-3.226 2.407-5.661 5.728-5.691 3.2-.03 5.759 2.374 5.79 5.508ZM132.415 30.648c-3.2-.152-5.393-2.495-5.363-5.66.031-3.622 2.59-5.875 6.399-5.51 2.467.244 5.118 2.466 4.935 5.875-.091 2.739-2.711 5.752-5.971 5.295ZM181.011 75.602c-1.675-3.53-3.595-7-5.149-10.592-2.011-4.626-6.977-6.056-10.968-4.474-2.59 1.035-5.18 2.192-6.124 5.235-.64 2.07-.427 4.048.487 5.966l2.224 4.717c-.091.06.914 1.644.823 1.674l1.31 2.8c3.87 8.309 7.8 16.588 11.7 24.896.883 1.887 1.737 3.744 2.711 5.844-1.553-.426-2.803-.822-4.082-1.126-4.357-1.035-8.227-.274-11.334 3.135-1.646 1.795-2.225 3.987-1.798 6.391.548 3.074 2.316 5.448 4.783 7.153 10.025 6.878 20.109 13.665 30.164 20.483 3.169 2.161 5.606 5.022 7.19 8.522 1.524 3.409 4.327 4.596 7.831 3.165 9.963-4.078 19.895-8.187 29.859-12.265 3.503-1.431 5.484-4.353 5.332-8.127-.214-5.813-.549-11.596-.793-17.409-.213-5.052-1.279-9.861-3.412-14.457-2.163-4.626-4.144-9.344-6.246-14-1.097-2.405-1.92-4.961-3.473-7.183-2.255-3.257-6.094-4.718-9.903-2.8-1.34.67-2.772 1.217-4.143 1.887-.792.395-1.371.426-2.163-.213-2.316-1.857-4.906-2.283-7.678-.913-1.432.7-2.956 1.248-4.357 1.978-.975.517-1.615.426-2.499-.274-2.651-2.16-5.606-2.709-8.836-1.248-1.919.883-3.869 1.705-5.88 2.587-1.341-2.708-2.62-5.295-3.961-8.035.153 0-.304-.426-.183-.426-.426-.76-.639-1.4-.639-1.4s-.549-1.004-.793-1.491Z"/></g><defs><clipPath id="clip0_140_241"><path fill="#fff" d="M0 0h246v160H0z"/></clipPath></defs></svg>