<svg width="83" height="84" fill="none" xmlns="http://www.w3.org/2000/svg"><g clip-path="url('#clip0_140_3474')" fill="#000"><path d="M79.745 25.69a42.155 42.155 0 0 0-8.86-13.352 41.315 41.315 0 0 0-13.12-9.022A40.165 40.165 0 0 0 41.76 0h-.043C36.067 0 30.59 1.102 25.45 3.284a41.344 41.344 0 0 0-13.248 8.967 41.825 41.825 0 0 0-8.925 13.33A42.232 42.232 0 0 0 0 41.957c0 5.695 1.089 11.204 3.255 16.386a41.904 41.904 0 0 0 8.904 13.364 41.29 41.29 0 0 0 13.226 9C30.516 82.898 35.981 84 41.62 84h.01C64.44 84 83 65.15 83 41.99c0-5.64-1.1-11.128-3.255-16.3ZM41.532 79.539H41.5c-20.384 0-37.027-16.734-37.113-37.309-.075-20.694 16.46-37.647 36.854-37.778h.248c20.448 0 37.092 16.8 37.102 37.44 0 20.738-16.621 37.636-37.059 37.647Z"/><path d="M59.717 40.593c-2.76-1.615-5.562-3.251-8.268-4.833A2684.833 2684.833 0 0 1 34.03 25.55c-.41-.24-.862-.372-1.304-.372-.615 0-1.197.24-1.617.677-.431.447-.658 1.058-.647 1.767.054 3.513.043 7.08.032 10.527-.01 1.451-.01 2.956-.01 4.43v4.537c0 3.48 0 7.08.01 10.615 0 .687.227 1.276.658 1.713a2.08 2.08 0 0 0 1.498.621c.42 0 .841-.12 1.25-.36 8.214-4.8 16.892-9.872 25.795-15.065.83-.48 1.305-1.233 1.305-2.05-.022-.797-.475-1.528-1.283-1.997Zm-7.125 3.054-6.177 3.611-9.723 5.684-1.778 1.036V31.244l1.778 1.036 14.423 8.422 1.477.862L54.37 42.6l-1.778 1.047Z"/></g><defs><clipPath id="clip0_140_3474"><path fill="#fff" d="M0 0h83v84H0z"/></clipPath></defs></svg>