<svg width="37" height="33" fill="none" xmlns="http://www.w3.org/2000/svg"><g clip-path="url('#clip0_140_3501')" fill="#000"><path d="M36.887 12.332c-.408-2.56-1.36-4.903-3.002-6.924C31.066 1.941 27.453.08 22.992.034c-3.002-.022-6.003-.08-9.004.012C8.154.218 3.975 3.077 1.359 8.313c-.34.678-.6 1.39-.804 2.113-.023.08-.045.16-.068.23-.023.08-.045.149-.057.23a14.504 14.504 0 0 0-.283 5.465c0 .011 0 .023.012.034.17.953.407 1.895.724 2.79.317.862.714 1.711 1.212 2.503 2.492 4.02 6.06 6.339 10.737 6.821.747.08 1.506.115 2.253.092.476-.012.691.16.884.574.453 1.01.962 1.986 1.438 2.974.227.46.51.838 1.099.838s.872-.379 1.098-.838c.487-.988.997-1.975 1.439-2.974.192-.425.419-.586.894-.563 2.016.08 3.998-.149 5.878-.918 4.87-1.998 7.871-5.604 8.924-10.84l.035-.206v-.012c.033-.206.067-.402.124-.608.159-1.08.102-2.457-.011-3.686Zm-11.28 13.71c-1.518.356-3.137.31-4.712.379-.657.023-1.053.264-1.325.85-.317.688-.668 1.366-1.064 2.17-.408-.816-.76-1.505-1.088-2.205-.26-.574-.656-.827-1.29-.804-2.085.07-4.168.023-6.128-.792C5.55 23.79 2.9 20.484 2.3 15.604 1.552 9.37 5.889 3.4 12.333 2.377c1.382-.218 2.82-.138 4.236-.15 2.061-.022 4.111-.01 6.172 0 5.561.012 10.306 3.663 11.677 9.106 1.687 6.625-2.367 13.216-8.811 14.709Z"/><path d="M15.244 14.353c0-2.159 0-4.317-.011-6.476 0-.276-.057-.586-.193-.804-.396-.62-1.121-.631-1.699-.057-1.189 1.194-2.378 2.4-3.545 3.617-.271.287-.543.413-.928.402-1.076-.024-2.152-.012-3.228-.012-.781 0-1.166.402-1.166 1.206v4.133c0 .884.362 1.24 1.257 1.24 1.076.012 2.151-.023 3.227.023.26.012.578.15.77.333 1.201 1.183 2.39 2.389 3.557 3.606.385.39.815.574 1.325.367.51-.207.668-.654.657-1.206-.034-2.124-.023-4.248-.023-6.372ZM8.72 15.398H6.648v-2.136h2.073v2.136Zm4.303 2.824c-.725-.746-1.359-1.4-1.97-2.067-.114-.114-.136-.344-.136-.528-.012-.895-.012-1.802 0-2.698 0-.172.056-.39.17-.505.611-.655 1.234-1.286 1.925-1.998v7.796h.011ZM21.767 14.307V10c0-.712.397-1.171 1.02-1.194.6-.023 1.132.482 1.143 1.171.012 2.894.023 5.776 0 8.67 0 .723-.486 1.159-1.143 1.147-.623-.011-1.02-.447-1.02-1.182v-4.306ZM26.094 14.273v-4.191c0-.77.43-1.286 1.064-1.298.623 0 1.087.517 1.099 1.275v8.497c0 .78-.42 1.228-1.099 1.228-.668-.011-1.042-.436-1.042-1.206-.022-1.435-.022-2.87-.022-4.305ZM19.616 14.295c0 .666.01 1.332 0 2.01-.012.815-.442 1.309-1.11 1.297-.646-.011-1.087-.494-1.087-1.274-.012-1.355-.012-2.71.01-4.065.012-.78.431-1.24 1.11-1.229.669 0 1.065.471 1.077 1.263 0 .666-.012 1.332 0 1.998-.012 0-.012 0 0 0ZM32.55 14.353c0 .712.01 1.412 0 2.124-.012.666-.409 1.103-1.02 1.125-.623.023-1.11-.413-1.121-1.09a185.677 185.677 0 0 1-.012-4.352c.012-.678.465-1.125 1.099-1.125.634 0 1.042.447 1.053 1.148.011.712 0 1.447 0 2.17Z"/></g><defs><clipPath id="clip0_140_3501"><path fill="#fff" d="M0 0h37v33H0z"/></clipPath></defs></svg>