<svg width="146" height="117" fill="none" xmlns="http://www.w3.org/2000/svg"><g clip-path="url('#clip0_140_355')" fill="#000"><path d="M45.225 112.819c0 1.037.021 2.023-.01 2.998-.02.54-.312.986-.832 1.1-.51.114-1.091.156-1.445-.425.114-.115.24-.218.385-.364.25.312.561.478.904.26.291-.177.572-.426.375-.851-.219.01-.323.218-.551.228-.739.042-1.144-.228-1.217-.954-.052-.519-.052-1.048.135-1.557.156-.415.551-.55.884-.477.457.125.894.156 1.372.042Zm-.561 1.494v-.353c.01-.384-.125-.664-.54-.685-.437-.031-.614.249-.666.643-.01.114-.01.229-.01.353 0 .747.166 1.038.634 1.038.447 0 .582-.239.582-.996ZM61.6 112.839v3.912c0 .062-.01.125-.02.187-.177.052-.344.041-.552 0v-1.359c-.26-.052-.343.176-.54.197-.749.104-1.217-.229-1.3-.986-.052-.508-.041-1.017.135-1.504.156-.426.583-.592.915-.488.458.135.873.062 1.362.041Zm-.572 1.453v-.394c0-.353-.156-.581-.51-.612-.342-.032-.581.124-.654.466-.083.395-.094.789.02 1.183.094.301.344.395.635.374.312-.021.489-.197.51-.509.01-.176 0-.342 0-.508ZM51.09 113.234c.394-.447.997-.582 1.61-.343.5.187.604.623.614 1.079.02.581 0 1.162 0 1.816-.624-.114-1.216.062-1.809-.021-.603-.083-.53-.591-.54-1.027 0-.394.197-.602.571-.643.28-.031.572-.011.853-.011.176 0 .374-.031.364-.228 0-.207-.084-.446-.343-.477-.23-.031-.5-.073-.697.01-.26.114-.426-.01-.624-.155Zm1.694 1.245c-.343 0-.624-.011-.905 0-.208.01-.343.145-.374.342-.031.218.062.394.27.477.291.114.603.125.863-.041.28-.187.125-.477.146-.778ZM90.731 113.234c.416-.447 1.03-.582 1.633-.343.52.208.603.654.613 1.131.01.529 0 1.069 0 1.598 0 .031-.02.062-.052.145-.582-.145-1.175.073-1.757-.02-.603-.094-.53-.602-.53-1.038 0-.394.208-.602.582-.633.26-.031.53-.01.8-.01.188 0 .416 0 .406-.239-.01-.218-.083-.467-.395-.477-.218 0-.468-.063-.645.02-.27.135-.426.011-.654-.134Zm1.706 1.245c-.323 0-.614-.011-.915 0-.208.01-.344.145-.375.342-.03.218.063.394.281.467.291.114.603.124.863-.042.28-.176.135-.466.145-.767ZM30.65 115.765c-.832 0-1.227-.487-1.165-1.587.062-1.152.333-1.328 1.279-1.401.831-.062 1.216.498 1.216 1.608-.01.976-.405 1.391-1.33 1.38Zm.758-1.318v-.477c-.02-.384-.228-.643-.603-.664-.416-.021-.655.239-.696.633-.032.28-.042.56.03.84.095.343.313.509.656.488.353-.01.55-.207.603-.55.01-.135.01-.27.01-.27ZM40.412 114.271c0 1.214-.614 1.733-1.747 1.484-.499-.114-.665-.602-.738-1.048a2.509 2.509 0 0 1 .145-1.349c.208-.519.697-.571 1.154-.581.49-.01.905.197 1.082.706.093.269.135.549.104.788Zm-.562-.021c-.01-.103 0-.197-.01-.301-.02-.394-.25-.632-.624-.643-.385-.01-.624.239-.665.612-.032.28-.021.571.02.841.063.363.302.539.676.519.354-.021.54-.229.583-.571.01-.156.01-.311.02-.457ZM83.579 114.323c0 1.162-.624 1.671-1.757 1.442-.23-.052-.354-.238-.479-.404-.353-.467-.364-1.65-.041-2.138.208-.322.863-.519 1.34-.415.573.135.874.488.937 1.121.01.124 0 .259 0 .394Zm-.551-.021c-.021-.176-.021-.363-.063-.539-.062-.312-.312-.436-.582-.457-.26-.01-.51.104-.603.363-.146.415-.156.851.01 1.266.104.27.343.343.614.332.28-.01.478-.155.55-.425.063-.166.053-.363.074-.54ZM135.375 114.261c0 1.214-.593 1.733-1.737 1.484-.509-.104-.675-.592-.748-1.038a2.412 2.412 0 0 1 .145-1.349c.208-.508.697-.581 1.154-.581.489-.01.905.197 1.092.706.083.269.135.539.094.778Zm-.551.062h-.011c0-.135.011-.27 0-.405-.021-.373-.239-.601-.592-.622-.385-.031-.645.207-.687.581a3.23 3.23 0 0 0 .011.84c.052.353.281.561.665.54.385-.011.572-.239.614-.602a1.67 1.67 0 0 1 0-.332ZM17.238 115.402c-.8.581-1.768.498-2.11-.187-.354-.705-.292-1.411.134-2.054.24-.363.666-.405 1.06-.374.458.042.78.312.926.768.083.28.146.571.135.934h-1.83c.073.726.437.955 1.04.695.343-.145.343-.145.645.218Zm-.395-1.349c-.021-.425-.156-.757-.624-.768-.468-.01-.655.312-.697.768h1.32ZM101.294 114.489h-1.819c.052.706.437.955 1.019.674.301-.145.489-.114.634.187-.416.415-1.352.581-1.788.26-.458-.343-.718-1.256-.343-2.159.208-.498.81-.788 1.331-.664.686.166.987.685.966 1.702Zm-.53-.436c-.021-.467-.187-.788-.644-.778-.458.01-.645.322-.655.778h1.299ZM71.58 114.489h-1.819c.042.706.416.944 1.02.695.353-.145.353-.145.633.177-.395.425-1.33.56-1.788.269-.457-.29-.655-1.4-.384-2.137.176-.467.8-.799 1.32-.706.697.114 1.03.654 1.019 1.702Zm-.55-.436c-.021-.529-.25-.799-.634-.778-.395.021-.603.28-.614.778h1.248ZM123.855 112.87h.499v1.536c0 .633.167.882.562.872.447-.011.665-.291.665-.872v-1.484c.187-.124.354-.052.541-.083v2.926c-.198-.051-.416.135-.572-.155-.052-.104-.166-.011-.26.031-.686.29-1.518.187-1.476-.872.02-.581 0-1.162 0-1.753.01-.031.02-.083.041-.146ZM66.6 115.765c-.249-.031-.519.125-.633-.218-.614.343-1.134.301-1.477-.051a.593.593 0 0 1-.166-.436v-2.169c.135-.104.291-.052.499-.021 0 .53-.01 1.059 0 1.588.01.581.187.82.572.809.426-.02.655-.301.655-.84v-1.525c.197-.094.364-.063.55-.042v2.905ZM117.503 115.755c-.25 0-.499.093-.624-.187-.655.301-1.144.28-1.466-.041-.125-.125-.197-.239-.197-.426.01-.726 0-1.463 0-2.21.135-.104.301-.021.488-.052 0 .561-.01 1.079 0 1.588.011.384.011.799.541.84.457.031.686-.28.696-.851v-1.556h.551c.011.965.011 1.909.011 2.895ZM11.499 115.786v-3.6h-1.04c-.135-.177-.093-.332-.052-.509h2.755c.114.135.063.291.031.488h-1.08v3.538c-.209.125-.386.031-.614.083ZM25.16 115.744h-.51v-2.863c.437-.042.437-.042.562.269.343-.373.738-.498 1.195-.259.448.239.562.654.551 1.121-.01.56 0 1.131 0 1.691-.176.093-.332.073-.53.021 0-.529-.01-1.059 0-1.588a.834.834 0 0 0-.25-.622c-.218-.239-.467-.218-.727-.146-.26.073-.28.322-.291.53-.01.591 0 1.193 0 1.846ZM22.207 113.213c-.218.321-.416.415-.79.197-.416-.249-.81-.042-.946.436-.094.321-.094.653.031.975.177.457.572.612.978.343.301-.208.498-.135.686.145-.354.487-1.414.643-1.882.27-.52-.415-.634-1.847-.187-2.397.426-.54 1.476-.529 2.11.031ZM88.371 113.213c-.207.301-.405.436-.78.207-.436-.259-.862-.041-.966.457-.063.29-.073.591.031.882.187.519.561.685 1.03.384.342-.229.498-.042.675.197-.437.488-1.497.602-1.934.218-.51-.457-.592-1.878-.135-2.407.437-.509 1.424-.488 2.08.062ZM112.315 115.745h-.53v-2.325c-.333-.124-.624-.259-.188-.591.073-.052.094-.114.104-.197.136-1.027.146-1.027 1.154-.934a.628.628 0 0 1 0 .415c-.603.104-.603.104-.54.726h.457c.167.125.094.26.083.415-.176.011-.343.021-.561.042.021.83.021 1.618.021 2.449ZM78.152 113.4c0 .435-.01.892 0 1.338 0 .228-.094.498.311.55.188.021.063.28.073.425-.81.104-.946-.01-.946-.788 0-.394.01-.799 0-1.193 0-.156.094-.364-.208-.426-.177-.041-.114-.353-.073-.373.479-.197.167-.644.323-.945.166-.051.322-.041.499-.01v.726c.083.26.426 0 .436.364.01.342-.27.207-.415.332ZM121.246 115.755c-.915.021-.988-.052-.988-.872 0-.383.01-.767 0-1.151 0-.166.083-.363-.208-.415-.166-.031-.104-.312-.073-.332.426-.229.229-.654.322-.996h.51v.84c.249.052.582.052.364.477-.094.021-.208.042-.354.073 0 .477-.01.923 0 1.37 0 .228-.093.498.312.549.198.021.042.281.115.457ZM35.67 115.278v.456c-.945.094-.997.042-.997-.861v-3.144c.166-.124.332-.041.53-.073 0 1.069.01 2.096 0 3.124-.01.332.052.57.468.498ZM104.465 111.646c0 1.069.011 2.086 0 3.092 0 .342.032.612.479.529v.457c-.239.052-.499.072-.728 0-.166-.052-.27-.218-.26-.436.01-1.193 0-2.397 0-3.621.156 0 .302-.011.509-.021ZM129.365 115.744h-.509v-2.884c.229.01.499-.166.53.311.426-.425.873-.56 1.362-.155-.062.197-.208.311-.343.425-.769-.291-1.04-.104-1.05.716.01.508.01 1.027.01 1.587ZM47.95 112.881c.155-.062.3-.042.467-.021v2.854c-.125.103-.28.041-.468.031v-2.864ZM109.175 101.259v4.141c0 .736-.333 1.079-1.06 1.068-.697-.01-.967-.259-.967-.965-.011-2.614 0-5.229 0-7.844 0-.581.249-.965.644-1.058.614-.146 1.206.072 1.446.602.374.788.696 1.597 1.039 2.407.281.685.562 1.369.832 2.054.042.114.104.135.26.114v-1.359c0-.996-.011-2.002.01-2.999.011-.591.281-.82.894-.82.655-.01 1.04.291 1.082.841.01.104.01.218.01.322v7.47c0 .914-.385 1.277-1.289 1.235-.354-.01-.582-.166-.749-.487-.416-.768-.686-1.588-1.029-2.387-.343-.788-.676-1.577-1.008-2.366a.272.272 0 0 1-.115.031ZM99.433 101.799v-4.12c0-.238-.041-.497.094-.715.187-.311.717-.477 1.196-.353a.898.898 0 0 1 .686.768c.021.124.01.249.01.373 0 2.512-.021 5.012.011 7.523.01.934-.583 1.359-1.508 1.183-.239-.041-.405-.218-.54-.436-.416-.736-.656-1.546-1.02-2.303-.384-.799-.675-1.65-1.008-2.501-.187.135-.114.301-.114.436-.01 1.266 0 2.521 0 3.787 0 .529-.219.892-.624 1.017-.437.145-1.04-.031-1.32-.394-.125-.166-.084-.353-.084-.519-.01-1.754-.01-3.507-.01-5.261v-2.625c0-.55.25-.934.624-1.027.582-.156 1.195.041 1.435.54.384.798.727 1.618 1.07 2.438.291.695.562 1.401.843 2.096.041.072.103.093.26.093ZM4.429 101.353c.821.322 1.3.851 1.424 1.619.24 1.483-.114 2.438-1.445 3.175-.29.155-.665.197-1.008.207-.842.031-1.695 0-2.537.021-.478.01-.863-.436-.863-.892.01-2.625 0-5.261.01-7.886 0-.498.23-.83.728-.861 1.113-.063 2.246-.187 3.337.145.947.29 1.529 1.152 1.57 2.138.032.985-.228 1.805-1.216 2.334Zm-2.36.986v2.251c1.403.146 1.85-.135 1.85-1.11 0-.944-.29-1.276-1.85-1.141Zm-.01-3.891v2.158c.499-.093 1.07.218 1.413-.342.292-.467.281-.986.01-1.453-.321-.56-.893-.29-1.423-.363ZM89.557 101.778c-.063.685.093 1.598-.094 2.501-.28 1.318-1.227 2.179-2.547 2.345-1.123.145-2.204-.021-2.994-.944-.489-.571-.718-1.245-.707-2.013.01-1.494 0-2.978-.042-4.472-.02-.955.821-2.2 1.882-2.563 1.019-.343 2.048-.332 3.015.197.988.54 1.404 1.453 1.476 2.511.052.747.01 1.494.01 2.438Zm-2.038-.228v-2.034c-.02-.799-.416-1.255-1.092-1.276-.707-.01-1.133.394-1.143 1.204a93.892 93.892 0 0 0 0 4.192c.02.799.447 1.193 1.164 1.172.655-.021 1.05-.477 1.06-1.245.021-.664.01-1.338.01-2.013ZM13.225 102.785v2.584c0 .581-.198.933-.604 1.079-.415.155-.956 0-1.289-.343-.208-.207-.124-.456-.124-.685-.01-1.535-.01-3.081-.01-4.617v-3.185c0-.509.217-.84.717-.872 1.08-.062 2.183-.176 3.254.114 1.07.29 1.57 1.11 1.746 2.127.094.53.084 1.069-.03 1.598-.136.644-.427 1.204-1.01 1.577.437.924.853 1.806 1.27 2.698.176.384.28.758.072 1.173-.27.539-1.383.716-1.747.01-.385-.747-.696-1.536-1.03-2.303-.113-.27-.238-.54-.342-.82-.052-.135-.146-.135-.25-.135h-.623Zm.03-4.327v2.553c.52-.125 1.134.218 1.487-.395.333-.57.333-1.183.01-1.763-.342-.613-.945-.333-1.496-.395ZM26.345 104.082c-.572 0-1.133.021-1.684-.01-.28-.011-.375.124-.427.352-.093.415-.166.83-.28 1.235-.187.675-.811.996-1.477.799-.374-.114-.644-.861-.509-1.359.5-1.837.988-3.663 1.466-5.5.208-.788.333-1.618.707-2.365.302-.612.645-.84 1.279-.81.55.021 1.04.364 1.216.955.26.85.468 1.712.697 2.573.457 1.733.884 3.476 1.383 5.199.187.643-.084 1.193-.604 1.328-.727.187-1.34-.187-1.424-.913-.083-.519-.291-.965-.343-1.484Zm-.291-1.837c-.25-.954-.364-1.888-.77-2.77-.197.913-.394 1.826-.592 2.77h1.362ZM63.856 98.52v2.148c.572 0 1.144-.01 1.726.01.364.011.676.135.853.509.145.311.114.602-.073.861-.198.28-.51.384-.842.384h-1.643v2.127h2.506c.28 0 .54.052.79.197.374.229.436.592.353.965-.083.384-.385.654-.77.654-1.403.021-2.806.01-4.2-.01a.757.757 0 0 1-.727-.758c-.01-2.708-.01-5.416 0-8.114 0-.456.332-.757.884-.768a92.672 92.672 0 0 1 3.794 0c.53.01.967.488.946.934-.02.394-.436.882-1.05.872-.842-.021-1.674-.01-2.547-.01ZM121.027 98.52v2.148c.583 0 1.154-.021 1.737.011.363.01.675.145.852.508.146.311.114.602-.083.861-.198.28-.51.374-.842.374h-1.643v2.127c.863 0 1.736-.011 2.61 0 .707.01 1.091.394 1.06 1.027-.021.394-.374.789-.79.789a186 186 0 0 1-4.159-.011.767.767 0 0 1-.769-.768c-.01-2.708-.01-5.416 0-8.114 0-.467.364-.757.936-.767 1.237-.021 2.464-.021 3.701 0 .551.01 1.008.487.988.944-.021.404-.458.871-1.05.871-.843-.01-1.674 0-2.548 0ZM129.532 101.664c0-.861-.031-1.722.01-2.573.042-1.1.946-2.179 2.1-2.511 1.269-.363 2.412-.135 3.348.83.322.332.593.726.468 1.266-.094.415-.354.623-.728.716-.353.093-.676.062-.936-.25a11.04 11.04 0 0 1-.28-.362 1.073 1.073 0 0 0-1.238-.426c-.436.146-.634.509-.634.955-.01 1.494-.01 2.978 0 4.472.011.519.354.872.884.996.364.083.842-.166 1.092-.539.26-.384.582-.706 1.112-.623.385.062.676.228.821.623.177.487-.01.892-.312 1.255a3.062 3.062 0 0 1-1.912 1.1c-1.134.176-2.194.021-3.005-.872-.53-.57-.79-1.276-.759-2.085.031-.664.01-1.318.01-1.982-.01.01-.031.01-.041.01ZM74.377 101.55c0 .737-.01 1.474 0 2.21.01.529.344.872.874 1.007.374.093.852-.146 1.102-.519.26-.384.561-.716 1.102-.643.416.052.717.249.842.653.156.467-.02.872-.312 1.225a3.049 3.049 0 0 1-1.954 1.12c-1.144.166-2.236 0-3.036-.934-.489-.56-.718-1.245-.707-2.012.01-1.484 0-2.978-.042-4.462-.02-.872.811-2.075 1.768-2.49 1.34-.592 2.87-.187 3.66.653.166.177.311.374.415.602.24.509.135 1.048-.291 1.297-.426.25-.967.322-1.362-.187-.114-.145-.229-.28-.333-.425-.301-.394-.727-.363-1.122-.26-.406.104-.593.467-.603.872-.01.758 0 1.525 0 2.293ZM141.935 98.51c-.437 0-.801.01-1.175 0-.426-.01-.811-.311-.842-.654-.052-.54.042-.944.603-1.09.166-.04.333-.061.499-.061h3.836c.271 0 .52.041.728.207.291.228.499.519.374.913-.135.426-.467.664-.904.706-.354.03-.697.01-1.092.01V105.39c0 .581-.187.976-.603 1.069-.468.104-.935.125-1.289-.332-.187-.239-.125-.488-.125-.737-.01-2.116-.01-4.243-.01-6.36v-.519ZM53.75 104.538c.697 0 1.342.011 1.986 0 .25 0 .489.042.697.166.353.218.54.55.447.965-.104.426-.437.696-.863.706-1.196.021-2.402.01-3.597-.01-.375-.011-.676-.395-.676-.81-.01-.934-.01-1.878-.01-2.812V97.67c0-.82.25-1.07 1.06-1.059.655 0 .977.363.977 1.11-.02 2.242-.02 4.504-.02 6.817ZM43.572 104.538c.697 0 1.341.011 1.976 0 .25 0 .499.042.696.166.354.208.54.55.447.965-.104.426-.436.696-.863.706-1.195.021-2.401.01-3.597-.01-.374-.011-.676-.384-.676-.81-.01-.871-.01-1.753-.01-2.625v-5.26c0-.82.26-1.07 1.05-1.07.655 0 .977.364.977 1.1v6.838ZM33.883 101.55v-4.192c0-.26.145-.467.332-.602.343-.238.749-.228 1.123-.083.385.135.562.447.562.851v8.01c0 .467-.323.862-.718.934-.613.114-1.123-.093-1.289-.57-.052-.156 0-.353 0-.53v-3.818h-.01ZM73.795 38.246c1.102 0 1.986.872 1.976 1.94-.01 1.007-1.03 2.055-1.996 2.013-1.04-.051-1.934-.933-1.955-2.033-.02-1.07.863-1.91 1.975-1.92ZM91.823 42.096c-1.206.093-2.006-1.08-1.965-1.94.052-1.09.842-1.941 2.048-1.92 1.113.01 1.913 1.017 1.913 1.94 0 .944-.842 1.982-1.996 1.92ZM88.86 69.779c.01 1.162-1.154 2.002-1.954 2.013-1.103.01-1.955-.913-2.038-2.003-.073-1.058.915-1.888 2.235-1.93.842-.02 1.747.976 1.757 1.92ZM86.957 40.197c-.01 1.027-.956 2.054-1.944 2.002-1.112-.052-1.996-.965-1.965-2.054.032-1.09.874-1.93 2.028-1.899 1.07.02 1.892.861 1.882 1.95ZM50.954 51.434c1.143-.01 2.027.778 2.017 1.91-.01 1.15-.821 1.98-2.267 1.991-.769 0-1.746-1.068-1.705-1.94.042-1.069.863-1.982 1.955-1.961ZM70.333 46.785c.208.945-1.123 2.003-1.85 2.003-1.237 0-2.09-1.152-2.059-2.044.031-.944.728-1.899 2.027-1.91 1.082 0 2.018.872 1.882 1.951ZM44.903 42.116c-.967.208-1.954-.882-1.965-1.867 0-.955.572-1.837 1.82-1.93 1.382-.104 2.1.83 2.141 1.909.031.861-.738 2.023-1.996 1.888ZM109.861 38.225c1.165 0 1.955.779 1.996 1.9.042 1.078-.727 1.98-2.183 2.002-.821.01-1.736-1.038-1.736-1.982-.01-.965.904-2.013 1.923-1.92ZM35.39 64.497c.01-1.079.884-1.857 2.027-1.867 1.186-.01 1.924 1.11 1.893 1.95-.042.996-.946 1.93-1.903 1.92-1.206-.02-2.017-.83-2.017-2.003ZM111.847 46.723c.094.882-.686 1.972-1.965 1.94-1.081-.02-1.944-.85-1.944-1.919 0-.965.79-1.982 2.017-1.95.998.04 1.954.747 1.892 1.93ZM49.103 63.73c-.145-1.121.863-1.9 1.892-1.93 1.009-.031 1.997.788 1.986 1.899-.01 1.089-.821 2.012-2.287 1.981-.81-.01-1.59-.965-1.59-1.95ZM105.921 40.176c.125.85-.832 1.971-1.861 1.95-1.206-.03-2.069-.788-2.048-1.919.021-1.038.728-1.971 1.944-1.961 1.071.02 1.996.81 1.965 1.93ZM68.4 55.232c-1.113 0-1.986-.862-1.976-1.93.021-1.017.957-1.91 2.048-1.868 1.134.041 1.924.758 1.913 2.003 0 1.016-.863 1.795-1.986 1.795ZM80.626 71.698c-1.008.032-1.892-.82-1.923-1.836-.032-1.038.81-1.899 1.819-1.961 1.258-.073 2.09.695 2.142 1.836.052 1.1-.978 2.065-2.038 1.961ZM97.78 48.663c-1.143.073-1.944-1.12-1.85-1.981.124-1.214.852-1.868 2.027-1.858a1.939 1.939 0 0 1 1.924 2.044c-.073 1.183-1.227 1.92-2.1 1.795ZM80.595 65.576c-1.102-.03-1.913-.86-1.892-1.96.02-1.048.956-1.889 2.09-1.837 1.09.052 1.881.737 1.83 2.075-.043 1.027-.885 1.754-2.028 1.722ZM58.159 65.639c-.946.03-1.903-.944-1.903-1.92 0-1.017.915-1.93 1.955-1.93 1.123 0 1.986.737 2.027 1.92.042 1.1-.852 1.899-2.08 1.93ZM68.503 65.628c-1.112.01-2.069-.84-2.058-1.878.02-1.006.77-1.94 1.986-1.96 1.07-.022 1.965.85 1.975 1.888.01.882-.624 1.96-1.903 1.95ZM91.771 51.423c1.206-.051 2.048.862 2.059 1.9.01 1.037-.853 1.888-1.892 1.919-1.404.031-2.017-.861-2.059-1.899a1.845 1.845 0 0 1 1.892-1.92ZM44.851 48.674c-1.07-.02-2.017-.913-1.913-1.92.114-1.079.78-1.93 2.142-1.888 1.05.031 1.83.955 1.83 1.899 0 1.141-.884 1.93-2.059 1.909ZM44.165 71.709c-1.04-.01-1.892-.748-1.882-1.66.01-1.39.728-2.18 2.007-2.138 1.175.031 1.86.768 1.882 1.91.02 1.016-.749 1.97-2.007 1.888ZM37.303 77.623c-1.133-.02-1.934-.861-1.913-2.002.021-1.059.915-1.847 2.11-1.796 1.155.052 1.779.748 1.83 1.92.042.965-.914 2.013-2.027 1.878ZM59.344 40.207c-.031-1.13.738-1.94 1.871-1.93 1.186.01 1.924.727 2.007 1.878.062.882-.77 1.972-1.861 1.972-1.227-.01-1.986-.706-2.017-1.92ZM104.351 55.221c-1.081.01-1.913-.788-1.923-1.836-.011-1.152.769-1.95 1.923-1.961 1.133-.01 1.934.767 2.007 1.836.062.893-.874 2.107-2.007 1.961ZM39.31 53.468c.01 1.11-1.113 1.93-1.976 1.92-1.07-.011-1.871-.717-1.871-2.066 0-1.12.78-1.94 1.934-1.878 1.102.052 1.933.8 1.913 2.024ZM50.975 71.709c-1.154-.021-1.944-.851-1.924-2.024.021-1.048.926-1.805 2.121-1.774.978.02 1.872.944 1.81 1.982-.063 1.048-.895 1.837-2.007 1.816ZM44.747 55.304c-.644.125-1.705-.684-1.83-1.888-.093-.913.884-1.91 1.892-1.982 1.207-.083 1.997.861 2.09 1.806.115 1.151-.77 1.96-2.152 2.064ZM37.24 42.116c-.82.01-1.819-.799-1.84-1.494-.041-1.442.624-2.251 1.83-2.314a1.922 1.922 0 0 1 2.07 1.878c0 .882-.624 1.993-2.06 1.93ZM42.314 75.651c-.093-1.089.957-1.888 1.944-1.867 1.03.02 1.903.861 1.924 1.888a1.91 1.91 0 0 1-1.892 1.951c-1.248.02-1.955-.685-1.976-1.972ZM75.76 63.667c.063.913-.759 1.94-1.798 1.961-1.3.021-2.028-.747-2.121-1.857-.073-.903.676-1.961 1.913-1.982 1.112-.03 1.954.747 2.006 1.878ZM63.076 71.709c-1.258.124-1.902-1.017-1.944-1.9-.052-1.11.873-1.888 2.08-1.908.873-.021 1.912.954 1.84 1.96-.073 1.06-.863 1.858-1.976 1.848ZM59.562 46.754c.01 1.059-.883 1.951-1.933 1.951-1.29 0-1.945-.944-1.997-1.888-.062-1.1.822-1.93 1.955-1.94 1.102-.011 1.965.809 1.975 1.877ZM80.584 48.674c-1.091-.052-1.84-.85-1.83-1.93.01-1.235.884-2.003 2.184-1.878.842.083 1.746.84 1.684 2.002-.031.924-.936 1.951-2.038 1.806ZM96.74 63.989c-.571-1.204-1.226-2.387-1.756-3.61-.686-1.578-2.381-2.066-3.743-1.526-.884.353-1.767.747-2.09 1.785-.218.705-.145 1.38.167 2.033l.758 1.608c-.03.021.312.56.281.571l.447.955c1.32 2.832 2.662 5.655 3.993 8.487.301.644.592 1.277.925 1.992-.53-.145-.957-.28-1.393-.383-1.487-.353-2.807-.094-3.868 1.068-.561.613-.759 1.36-.613 2.18.187 1.047.79 1.857 1.632 2.438 3.42 2.345 6.862 4.659 10.293 6.983a6.941 6.941 0 0 1 2.453 2.905c.52 1.162 1.477 1.567 2.672 1.08 3.4-1.391 6.789-2.792 10.189-4.182 1.196-.488 1.871-1.484 1.819-2.77-.072-1.983-.187-3.954-.27-5.936-.073-1.722-.437-3.362-1.164-4.928-.739-1.578-1.414-3.186-2.132-4.773-.374-.82-.655-1.692-1.185-2.45-.769-1.11-2.079-1.608-3.379-.954-.457.228-.946.415-1.414.644-.27.134-.468.145-.738-.073-.79-.633-1.674-.778-2.62-.311-.488.238-1.008.425-1.487.674-.332.176-.551.145-.852-.093-.905-.737-1.913-.924-3.015-.426-.655.301-1.32.581-2.007.882-.457-.923-.894-1.805-1.351-2.74.052 0-.104-.144-.063-.144-.145-.26-.218-.478-.218-.478s-.197-.342-.27-.508Z"/><path d="M129.938 37.727a61.44 61.44 0 0 0-13.267-19.631 61.618 61.618 0 0 0-19.68-13.24C89.37 1.629 81.26 0 72.9 0c-8.358 0-16.457 1.629-24.099 4.856a61.574 61.574 0 0 0-19.67 13.24C23.455 23.77 18.985 30.37 15.866 37.727 12.632 45.343 11 53.437 11 61.78c0 8.342 1.632 16.425 4.866 24.051a62.959 62.959 0 0 0 2.807 5.77 2.274 2.274 0 0 0 1.986 1.162c1.736 0 2.817-1.858 1.985-3.373a56.887 56.887 0 0 1-7.121-27.61c0-31.574 25.742-57.265 57.379-57.265 31.637 0 57.379 25.69 57.379 57.265a56.886 56.886 0 0 1-7.122 27.61c-.842 1.515.249 3.373 1.986 3.373.821 0 1.59-.447 1.985-1.162a62.966 62.966 0 0 0 2.808-5.77c3.233-7.616 4.865-15.709 4.865-24.051 0-8.343-1.632-16.425-4.865-24.052Z"/></g><defs><clipPath id="clip0_140_355"><path fill="#fff" d="M0 0h146v117H0z"/></clipPath></defs></svg>