<svg width="111" height="82" fill="none" xmlns="http://www.w3.org/2000/svg"><g clip-path="url('#clip0_172_919')"><path d="M25.286 39.858V82H5.57C3.043 80.859 1.157 78.999 0 76.505V21.134c8.443 6.256 16.886 12.469 25.286 18.724Z" fill="#527CBE"/><path d="M85.714 82V39.9C94.157 33.646 102.6 27.39 111 21.135v55.37c-1.243 2.664-3.129 4.608-6 5.496H85.714Z" fill="#33A854"/><path d="M85.714 7.65C89.357 4.777 92.83 1.69 97.286 0H102c1.286.592 2.614 1.141 3.857 1.86 2.786 1.564 3.986 4.269 5.143 7.016v12.258a12937.924 12937.924 0 0 0-25.286 18.767l-.043-.085c0-10.736.043-21.43.043-32.165Z" fill="#FBBC0E"/><path d="M13.286 0c4.757 1.395 8.185 4.776 12 7.65 0 10.694.043 21.388.043 32.082l-.043.127C16.886 33.603 8.443 27.389 0 21.134V8.876C1.543 4.27 4.629 1.268 9.429 0h3.857Z" fill="#C72420"/><path d="M25.328 39.732c0-10.694-.042-21.388-.042-32.082 8.871 6.51 17.7 13.019 26.571 19.486 1.2.888 2.4 1.733 3.686 2.705 6.943-5.114 13.843-10.229 20.743-15.343 3.128-2.325 6.3-4.565 9.471-6.848 0 10.694-.043 21.43-.043 32.124-10.028 7.44-20.057 14.836-30.171 22.36-10.157-7.481-20.186-14.963-30.215-22.402Z" fill="#E84436"/></g><defs><clipPath id="clip0_172_919"><path fill="#fff" d="M0 0h111v82H0z"/></clipPath></defs></svg>