<svg width="67" height="14" fill="none" xmlns="http://www.w3.org/2000/svg"><g clip-path="url('#clip0_140_3536')" fill="#000"><path d="M6.981.188c.33 0 .614.106.839.306.212.212.33.47.33.765a.972.972 0 0 1-.33.753c-.225.212-.496.306-.839.306H5.233v10.53a.972.972 0 0 1-.33.752c-.225.2-.497.306-.84.306-.33 0-.614-.106-.838-.306a.99.99 0 0 1-.331-.753V2.317H1.169c-.33 0-.614-.105-.838-.305A.99.99 0 0 1 0 1.259C0 .965.106.706.33.506.556.294.828.188 1.17.188H6.98ZM14.234 4.365c.2.212.307.459.307.753v7.635c0 .283-.106.53-.307.741a1.03 1.03 0 0 1-.756.318c-.295 0-.52-.07-.673-.2a.73.73 0 0 1-.26-.47h-.236c-.154.223-.39.423-.697.6-.307.176-.662.27-1.052.27a2.2 2.2 0 0 1-1.736-.788c-.46-.53-.685-1.259-.685-2.2V5.118c0-.294.106-.553.319-.753.212-.2.46-.306.744-.306.295 0 .555.106.756.306.213.212.307.459.307.753v5.894c0 .33.095.6.284.777.189.188.448.282.78.282.33 0 .602-.094.779-.282.189-.189.283-.448.283-.777V5.118c0-.294.107-.553.32-.753.212-.2.46-.306.743-.306.32 0 .58.106.78.306ZM20.46 11.788c.294 0 .554.094.755.27.213.177.307.412.307.695a.89.89 0 0 1-.307.694c-.212.176-.46.27-.756.27h-1.17c-.72 0-1.322-.235-1.807-.717-.484-.47-.72-1.07-.72-1.8V6.082c-.296 0-.555-.094-.756-.27-.213-.177-.307-.412-.307-.694a.89.89 0 0 1 .307-.695c.212-.176.46-.27.756-.27V2.706c0-.294.106-.553.319-.753.212-.2.46-.306.744-.306a1.045 1.045 0 0 1 1.063 1.059v1.447h1.17c.295 0 .555.094.756.27a.89.89 0 0 1 .307.695.89.89 0 0 1-.307.694c-.213.176-.461.27-.756.27h-1.17V11.2c0 .188.047.341.13.435.083.094.2.141.354.141h1.087v.012ZM23.967 13.565a3.211 3.211 0 0 1-1.216-1.165 2.989 2.989 0 0 1-.45-1.588V7.047c0-.576.154-1.106.45-1.588.295-.482.708-.87 1.216-1.165a3.416 3.416 0 0 1 1.725-.435c.638 0 1.205.141 1.725.435.52.294.921.67 1.216 1.165a2.99 2.99 0 0 1 .45 1.588v3.765a2.99 2.99 0 0 1-.45 1.588c-.295.482-.708.87-1.216 1.165a3.447 3.447 0 0 1-1.725.435 3.447 3.447 0 0 1-1.725-.435Zm2.646-1.835c.225-.224.343-.53.343-.918V7.047c0-.388-.118-.694-.343-.918-.224-.223-.531-.34-.921-.34s-.697.117-.921.34c-.225.224-.343.53-.343.918v3.765c0 .388.118.694.343.918.224.223.531.34.921.34s.697-.105.921-.34ZM35.106 3.965c.296 0 .556.094.756.27a.89.89 0 0 1 .307.695.89.89 0 0 1-.307.694c-.212.176-.46.27-.756.27h-1.169a.795.795 0 0 0-.626.294c-.165.189-.248.447-.248.777v5.8c0 .282-.106.53-.307.741a1.03 1.03 0 0 1-.756.318c-.284 0-.532-.106-.744-.318a1.014 1.014 0 0 1-.32-.741V5.118c0-.294.107-.553.32-.753.212-.2.46-.306.744-.306.224 0 .425.059.614.188.189.13.307.294.354.483h.19c.141-.224.33-.4.566-.553.237-.153.473-.224.686-.224h.696v.012ZM37.374 1.988c-.224-.223-.33-.494-.33-.835 0-.33.106-.612.33-.835.225-.224.497-.33.84-.33.33 0 .613.106.838.33.224.223.33.494.33.835 0 .33-.106.612-.33.835-.225.224-.496.33-.839.33-.342 0-.626-.106-.839-.33Zm.083 11.506a1.014 1.014 0 0 1-.319-.741V5.118c0-.294.107-.553.32-.753.212-.2.46-.306.743-.306.296 0 .556.106.756.306.213.212.307.459.307.753v7.635c0 .282-.106.53-.307.741a1.03 1.03 0 0 1-.756.318c-.283 0-.531-.106-.744-.318ZM45.69 4.27c.473.271.85.636 1.123 1.095.271.459.401.953.401 1.494v5.894c0 .282-.106.53-.307.741a1.03 1.03 0 0 1-.756.318c-.236 0-.437-.059-.614-.188a.942.942 0 0 1-.355-.483h-.189c-.153.224-.39.424-.696.6-.308.177-.662.27-1.052.27-.425 0-.827-.129-1.193-.376-.366-.247-.661-.611-.898-1.082-.224-.47-.342-1.012-.342-1.635 0-.93.283-1.66.839-2.189.567-.529 1.346-.8 2.35-.8h1.063V6.871c0-.33-.082-.6-.26-.777-.177-.188-.413-.282-.708-.282a1.17 1.17 0 0 0-.473.082c-.13.059-.295.177-.496.341a2.26 2.26 0 0 1-.52.353c-.153.06-.33.094-.543.094a.876.876 0 0 1-.626-.247.85.85 0 0 1-.248-.623c0-.235.083-.459.248-.694.165-.236.39-.447.673-.636a3.55 3.55 0 0 1 1.997-.6 2.905 2.905 0 0 1 1.582.389Zm-.602 5.389h-1.063a.964.964 0 0 0-.756.353c-.213.235-.307.53-.307.906s.106.67.307.906c.212.235.46.353.756.353.177 0 .366-.047.567-.13.189-.094.366-.212.508-.353V9.66h-.012ZM49.482 13.494a1.014 1.014 0 0 1-.319-.741V1.165c0-.294.107-.553.32-.753.212-.2.46-.306.743-.306.296 0 .556.106.756.306.213.212.307.459.307.753v11.588c0 .282-.106.53-.307.741-.212.212-.46.318-.756.318-.283 0-.531-.106-.744-.318ZM55.27 9.753v1.059c0 .388.118.694.343.918.224.223.531.34.921.34.248 0 .45-.046.626-.129.166-.094.343-.259.52-.506a1.55 1.55 0 0 1 .449-.4c.154-.082.33-.13.543-.13.26 0 .473.083.626.248a.831.831 0 0 1 .248.623c0 .236-.07.471-.2.718s-.32.47-.556.67a3.447 3.447 0 0 1-1.027.613 3.28 3.28 0 0 1-1.217.223 3.416 3.416 0 0 1-1.725-.435 3.211 3.211 0 0 1-1.216-1.165 2.989 2.989 0 0 1-.45-1.588V7.047c0-.565.143-1.094.438-1.588a3.145 3.145 0 0 1 1.193-1.165 3.26 3.26 0 0 1 1.666-.435c.602 0 1.169.141 1.665.435.508.294.898.683 1.193 1.165.295.494.437 1.012.437 1.588v1.694c0 .388-.118.647-.354.788-.236.142-.544.212-.933.212h-3.19v.012Zm.32-3.624c-.213.224-.32.53-.32.918v.87h2.327v-.87c0-.388-.106-.694-.319-.918a1.114 1.114 0 0 0-.838-.34c-.343 0-.638.117-.85.34ZM62.5 13.73a3.196 3.196 0 0 1-1.075-.695c-.414-.411-.627-.835-.627-1.258 0-.247.083-.447.248-.624a.857.857 0 0 1 .627-.247c.224 0 .425.047.602.13.177.094.378.247.579.482.177.212.354.353.52.423.165.083.342.118.531.118.284 0 .52-.082.697-.247a.826.826 0 0 0 .272-.624.98.98 0 0 0-.343-.776c-.224-.2-.602-.435-1.11-.73a9.79 9.79 0 0 1-1.193-.729 2.643 2.643 0 0 1-.803-.941c-.225-.4-.331-.894-.331-1.47 0-.471.13-.93.39-1.342.26-.423.602-.753 1.05-1 .438-.247.934-.365 1.477-.365.461 0 .898.071 1.276.224.39.153.709.341.969.565.177.164.319.353.413.553.095.2.142.4.142.588a.869.869 0 0 1-.248.623.857.857 0 0 1-.626.247c-.19 0-.366-.023-.508-.082a1.359 1.359 0 0 1-.46-.341 1.508 1.508 0 0 0-.461-.353 1.412 1.412 0 0 0-.52-.094.74.74 0 0 0-.567.235.763.763 0 0 0-.213.541.98.98 0 0 0 .343.777c.224.2.602.447 1.11.73.473.258.874.493 1.193.729.32.223.59.54.803.94.225.4.331.895.331 1.471 0 .518-.13.989-.401 1.412-.26.424-.638.765-1.11 1.012a3.392 3.392 0 0 1-1.596.376 3.216 3.216 0 0 1-1.382-.258Z"/></g><defs><clipPath id="clip0_140_3536"><path fill="#fff" d="M0 0h67v14H0z"/></clipPath></defs></svg>