<svg width="23" height="21" fill="none" xmlns="http://www.w3.org/2000/svg"><g clip-path="url('#clip0_140_3509')" fill="#000"><path d="M22.93 7.848c-.254-1.63-.845-3.12-1.866-4.407-1.753-2.206-3.999-3.39-6.773-3.42-1.865-.014-3.73-.05-5.596.008C5.069.14 2.47 1.96.845 5.29a7.69 7.69 0 0 0-.5 1.345 3.796 3.796 0 0 1-.042.146c-.014.05-.028.095-.035.146a9.443 9.443 0 0 0-.176 3.478c0 .007 0 .014.007.022.105.606.253 1.206.45 1.775.197.548.444 1.09.753 1.593 1.55 2.558 3.767 4.034 6.674 4.34.465.052.937.074 1.401.06.296-.008.43.101.55.364.281.643.598 1.264.894 1.893.14.292.316.533.683.533.366 0 .542-.24.682-.533.303-.629.62-1.257.895-1.893.12-.27.26-.372.556-.358 1.253.052 2.485-.095 3.654-.584 3.027-1.272 4.892-3.566 5.547-6.898l.021-.131v-.008c.021-.131.042-.255.078-.387.098-.687.063-1.564-.007-2.345Zm-7.012 8.724c-.944.226-1.95.197-2.929.241-.408.015-.655.168-.824.54-.197.44-.415.87-.661 1.382-.254-.519-.472-.957-.676-1.403-.162-.366-.409-.526-.803-.512-1.295.044-2.59.015-3.809-.504C3.45 15.14 1.802 13.036 1.43 9.93.965 5.962 3.661 2.163 7.667 1.512c.859-.138 1.753-.087 2.633-.095 1.281-.014 2.555-.007 3.836 0 3.457.008 6.407 2.331 7.259 5.795 1.049 4.216-1.471 8.41-5.477 9.36Z"/><path d="M9.476 9.133c0-1.373 0-2.747-.007-4.12 0-.176-.035-.373-.12-.512-.246-.395-.697-.402-1.056-.037-.739.76-1.478 1.527-2.203 2.302-.17.183-.338.263-.578.256-.668-.015-1.337-.008-2.006-.008-.486 0-.725.256-.725.768v2.63c0 .563.225.79.781.79.67.007 1.338-.015 2.007.014a.8.8 0 0 1 .478.212c.747.752 1.486 1.52 2.211 2.294.24.248.507.365.824.234.317-.132.415-.417.408-.767-.021-1.352-.014-2.704-.014-4.056Zm-4.055.665H4.133V8.44H5.42V9.8Zm2.675 1.798c-.45-.475-.845-.892-1.225-1.316-.07-.073-.084-.219-.084-.336a69.806 69.806 0 0 1 0-1.717c0-.11.035-.248.105-.321.38-.417.768-.819 1.197-1.272v4.962h.007ZM13.531 9.104v-2.74c0-.453.246-.745.634-.76.373-.014.704.307.71.746.008 1.841.015 3.675 0 5.517 0 .46-.302.737-.71.73-.387-.007-.634-.285-.634-.752v-2.74ZM16.22 9.083V6.416c0-.49.268-.819.662-.826.387 0 .676.329.683.81v5.408c0 .497-.26.782-.683.782-.415-.008-.648-.278-.648-.767-.014-.914-.014-1.827-.014-2.74ZM12.194 9.097c0 .424.006.847 0 1.279-.008.518-.275.833-.69.825-.402-.007-.676-.314-.676-.81-.007-.863-.007-1.725.007-2.588.007-.496.267-.789.69-.781.415 0 .661.3.668.803 0 .424-.007.848 0 1.272-.007 0-.007 0 0 0ZM20.233 9.134c0 .453.007.898 0 1.351-.007.424-.253.702-.633.716-.388.015-.69-.263-.697-.694-.014-.92-.014-1.848-.007-2.769.007-.431.288-.716.683-.716.394 0 .647.285.654.73.007.454 0 .921 0 1.382Z"/></g><defs><clipPath id="clip0_140_3509"><path fill="#fff" d="M0 0h23v21H0z"/></clipPath></defs></svg>