<svg width="95" height="84" fill="none" xmlns="http://www.w3.org/2000/svg"><g clip-path="url('#clip0_140_3463')" fill="#000"><path d="M94.672 15c-.568-.69-1.29-.95-2.141-.604-.831.345-1.203.992-1.203 1.877v23.525c0 .885.372 1.533 1.203 1.878 1.005.41 1.748-.065 2.447-.928v.324-25.684c-.153-.194-.218-.302-.306-.388ZM3.693 16.834c0-1.014-.065-1.985-1.18-2.438C1.486 13.964.721 14.439 0 15.41v25.36c.175.172.306.259.393.367.569.626 1.246.863 2.055.56.852-.323 1.224-.97 1.224-1.855v-8.85c.021-4.726 0-9.431.021-14.158Zm0 0c0-1.014-.065-1.985-1.18-2.438C1.486 13.964.721 14.439 0 15.41v25.36c.175.172.306.259.393.367.569.626 1.246.863 2.055.56.852-.323 1.224-.97 1.224-1.855v-8.85c.021-4.726 0-9.431.021-14.158ZM63.137 15.302c0-2.828-.678-5.547-2.317-7.878-1.136-1.64-2.622-3.043-4.087-4.424-.852-.799-2.054-.583-2.71.237-.655.82-.48 1.856.46 2.655.349.302.742.582 1.07.906 1.071 1.015 2.033 2.115 2.6 3.67-1.267 0-2.403-.044-3.518.02a1.857 1.857 0 0 0-1.77 1.749c-.044.95.678 1.77 1.727 1.878.546.064 1.092.043 1.639.043 3.365 0 3.365 0 3.147 3.345 0 .065-.066.13-.153.28-1.246 0-2.557-.02-3.847 0-.437 0-.896.022-1.289.173-.809.324-1.29.993-1.18 1.878.11.907.634 1.554 1.639 1.597 1.595.043 3.19.022 4.808.022v3.669h-4.087c-1.42.021-2.36.734-2.382 1.834-.022 1.123.83 1.835 2.317 1.857 1.376.021 2.753 0 4.152 0v3.582h-23.69v-3.583c1.486 0 2.907.065 4.305-.021.568-.043 1.312-.216 1.64-.626.349-.432.48-1.209.37-1.748-.174-.842-.917-1.274-1.813-1.274-1.486-.021-2.972 0-4.502 0v-3.669c1.464 0 2.885.065 4.305-.021.568-.043 1.312-.216 1.64-.626.349-.432.48-1.187.37-1.748-.174-.864-.917-1.274-1.791-1.295-1.486-.022-2.972 0-4.568 0 0-1.015.022-1.921-.022-2.806-.022-.67.263-.863.918-.863a50.18 50.18 0 0 0 3.606 0c1.246-.043 2.01-.799 2.01-1.835 0-1.057-.873-1.834-2.12-1.856-1.004-.021-2.032 0-3.277 0 .328-.583.459-.971.721-1.252a98.383 98.383 0 0 1 3.278-3.431c.721-.713.896-1.662.372-2.44-.547-.798-1.596-1.035-2.514-.539a4.932 4.932 0 0 0-.808.561c-3.912 3.195-5.879 7.338-5.9 12.346-.023 6.798-.023 13.597 0 20.395.021 3.303-.154 6.648.218 9.907.918 7.985 8.195 13.834 16.237 13.338 8.261-.518 14.752-7.144 14.796-15.194.043-9.583.021-19.209 0-28.813ZM58.919 46.79c-1.093 5.46-6.36 9.13-11.845 8.849-5.835-.302-10.447-4.36-11.255-10.014-.219-1.554-.175-3.152-.197-4.727-.022-1.532 0-3.065 0-4.662h23.996c-.218 3.561-.022 7.144-.7 10.554Z"/><path d="M68.644 42.086c-1.071.022-1.705.756-1.792 2.029-.11 1.209-.175 2.439-.46 3.626-1.66 7.23-6.053 12.173-13.177 14.352-6.775 2.094-13.047.713-18.445-3.906-4.284-3.67-6.316-8.417-6.578-13.964-.066-1.317-.634-2.05-1.683-2.137-1.158-.086-2.076.82-2.032 2.137.109 4.446 1.333 8.568 3.868 12.28 3.147 4.576 7.386 7.662 12.74 9.303.329.108.81.475.831.734.066 1.856.044 3.733.044 5.697-.459.065-.765.108-1.093.151-4.72.82-8.326 4.921-8.348 9.454 0 1.424.656 2.136 2.12 2.136h25.788c1.464 0 2.163-.69 2.12-2.136-.153-3.713-1.88-6.54-5.158-8.331-1.268-.69-2.754-1.015-4.262-1.533 0-1.532.066-3.237-.022-4.92-.043-.842.285-1.188 1.071-1.403 4.065-1.123 7.474-3.324 10.316-6.389 3.955-4.252 5.944-9.324 6.097-15.065.022-1.251-.83-2.115-1.945-2.115Zm-22.925 24.67h3.584v5.46h-3.584v-5.46Zm7.343 9.258c2.491.044 4.764 1.964 5.332 4.252H36.627c.525-2.288 2.82-4.209 5.311-4.252 3.715-.086 7.43-.086 11.124 0ZM12.216 28.014V50.03c-.065 1.079-.764 1.791-1.77 1.813-.983.021-1.792-.67-1.923-1.684-.022-.216-.022-.431-.022-.647V6.43c0-1.402.743-2.287 1.923-2.266 1.159.022 1.792.82 1.792 2.223v21.626ZM86.543 28.08v21.236c0 .26.021.497 0 .756-.11 1.08-.918 1.813-1.946 1.77-.983-.044-1.726-.756-1.77-1.835-.043-1.403 0-2.806 0-4.209V6.325c0-1.338.743-2.18 1.88-2.159 1.136.022 1.836.864 1.836 2.223V28.08ZM74.282 27.971V16.554c0-1.49.656-2.31 1.836-2.288 1.136 0 1.88.885 1.88 2.31v23.071c0 .993-.35 1.77-1.356 2.094-.83.28-1.551.021-2.01-.69-.24-.39-.35-.95-.35-1.425-.022-3.885 0-7.77 0-11.655ZM20.74 28.122v11.417c0 1.468-.7 2.31-1.858 2.288-1.115-.022-1.858-.928-1.858-2.331V16.64c0-1.511.7-2.396 1.902-2.396 1.18.022 1.814.82 1.814 2.331v11.547ZM49.39 1.791a1.849 1.849 0 0 1-1.835 1.878c-.984 0-1.902-.885-1.88-1.856 0-.95.83-1.77 1.792-1.813 1.027-.043 1.901.777 1.923 1.791Z"/><path d="M49.368 45.863c-.021.993-.94 1.856-1.923 1.813-.94-.043-1.792-.907-1.792-1.835 0-1.057.787-1.834 1.858-1.834 1.07.021 1.88.82 1.857 1.856Z"/></g><defs><clipPath id="clip0_140_3463"><path fill="#fff" d="M0 0h95v84H0z"/></clipPath></defs></svg>