<svg width="154" height="21" fill="none" xmlns="http://www.w3.org/2000/svg"><g clip-path="url('#clip0_140_3437')" fill="#000"><path d="M2.143 16.39A4.022 4.022 0 0 1 .567 14.79C.185 14.115 0 13.316 0 12.418V6.566C0 5.68.185 4.88.554 4.193c.37-.689.887-1.23 1.552-1.61.666-.382 1.405-.566 2.242-.566.702 0 1.368.147 2.008.455.64.307 1.158.713 1.528 1.217.332.442.505.86.505 1.254 0 .344-.111.64-.345.873-.234.233-.518.344-.875.344-.246 0-.456-.061-.653-.197-.185-.123-.382-.344-.591-.651-.259-.394-.505-.664-.751-.824a1.531 1.531 0 0 0-.85-.246c-.58 0-1.047.197-1.392.602-.345.406-.53.972-.53 1.722v5.852c0 .738.185 1.316.542 1.722.37.405.85.602 1.478.602.345 0 .665-.086.936-.258.271-.172.542-.467.826-.885.21-.32.406-.554.59-.677.173-.123.37-.196.592-.196.345 0 .64.11.875.344.234.233.345.516.345.873 0 .455-.185.934-.567 1.414a4.14 4.14 0 0 1-1.552 1.18 4.696 4.696 0 0 1-2.02.43c-.862-.012-1.626-.196-2.304-.577ZM11.246 16.402c-.542-.308-.96-.701-1.268-1.218a3.129 3.129 0 0 1-.468-1.66V9.59c0-.602.16-1.155.468-1.66.308-.504.739-.91 1.268-1.217a3.555 3.555 0 0 1 1.799-.455c.665 0 1.256.148 1.798.455.542.308.961.701 1.269 1.217a3.13 3.13 0 0 1 .468 1.66v3.935a3.13 3.13 0 0 1-.468 1.66c-.308.504-.74.91-1.269 1.217a3.588 3.588 0 0 1-1.798.455 3.555 3.555 0 0 1-1.799-.455Zm2.76-1.918c.234-.234.357-.554.357-.96V9.59c0-.405-.123-.725-.357-.959-.234-.233-.555-.356-.961-.356-.407 0-.727.123-.961.356-.234.234-.357.554-.357.96v3.934c0 .405.123.725.357.959.234.233.554.356.96.356.407 0 .728-.123.962-.356ZM28.54 7.131c.457.578.678 1.328.678 2.262v6.16c0 .295-.11.553-.32.775-.222.221-.48.332-.788.332-.296 0-.555-.11-.776-.332a1.06 1.06 0 0 1-.333-.775V9.381c0-.344-.086-.627-.27-.811-.186-.197-.432-.296-.74-.296s-.554.099-.739.296c-.185.196-.271.467-.271.811v6.16c0 .295-.11.553-.32.774-.222.222-.48.332-.789.332-.295 0-.554-.11-.776-.331a1.06 1.06 0 0 1-.332-.775V9.38c0-.344-.087-.627-.271-.811-.185-.197-.431-.296-.74-.296-.307 0-.554.099-.738.296-.185.196-.271.467-.271.811v6.16c0 .295-.111.553-.32.774-.222.222-.481.332-.79.332-.295 0-.553-.11-.775-.331a1.06 1.06 0 0 1-.333-.775V7.574c0-.308.111-.578.333-.787.222-.21.48-.32.776-.32.259 0 .468.062.64.197.173.123.296.295.37.516h.197c.185-.27.444-.492.764-.651.32-.173.64-.259.96-.259.407 0 .777.099 1.097.295.332.197.604.468.813.812h.197c.234-.344.53-.627.887-.812.37-.196.776-.295 1.232-.295.714-.012 1.305.283 1.749.861ZM37.213 7.131c.468.578.702 1.402.702 2.46v3.934c0 1.057-.234 1.88-.702 2.459a2.253 2.253 0 0 1-1.823.873c-.345 0-.69-.074-1.01-.234-.32-.16-.555-.344-.703-.578h-.197v3.836c0 .308-.11.578-.32.787a1.06 1.06 0 0 1-.788.32c-.296 0-.555-.11-.776-.32a1.067 1.067 0 0 1-.333-.787V7.574c0-.308.111-.578.333-.787.221-.209.48-.32.776-.32.258 0 .468.062.653.197.172.135.295.307.37.504h.196c.16-.233.407-.442.727-.627.32-.184.69-.283 1.096-.283.715 0 1.33.295 1.799.873Zm-1.515 2.46c0-.394-.111-.702-.32-.947-.222-.246-.481-.37-.789-.37-.308 0-.579.124-.788.37-.222.245-.32.553-.32.946v3.935c0 .393.11.7.32.946.21.246.48.37.788.37.308 0 .579-.124.788-.37.21-.245.32-.553.32-.946V9.59ZM46.193 6.787c.209.221.32.48.32.787v7.98c0 .294-.111.553-.32.774-.222.221-.48.332-.789.332-.308 0-.542-.074-.702-.21a.764.764 0 0 1-.27-.491h-.247c-.16.234-.407.443-.727.627s-.69.283-1.096.283c-.727 0-1.33-.27-1.811-.824-.48-.553-.715-1.316-.715-2.3V7.575c0-.308.111-.578.333-.787.222-.21.48-.32.776-.32.308 0 .58.11.788.32.222.221.32.48.32.787v6.16c0 .344.1.627.296.811.198.197.469.295.813.295.345 0 .629-.098.813-.295.197-.197.296-.467.296-.811v-6.16c0-.308.11-.578.333-.787.221-.21.48-.32.776-.32.332-.012.59.099.813.32ZM52.684 14.533c.308 0 .58.098.789.283.221.184.32.43.32.725s-.111.541-.32.726c-.222.184-.48.282-.789.282h-1.22c-.75 0-1.379-.246-1.884-.75-.505-.492-.751-1.118-.751-1.88V8.581c-.308 0-.58-.098-.789-.283-.221-.184-.32-.43-.32-.725s.11-.541.32-.726c.222-.184.48-.282.789-.282V5.04c0-.307.11-.578.332-.787.222-.209.48-.32.776-.32.308 0 .58.111.789.32.209.222.32.48.32.787v1.512h1.22c.307 0 .578.099.788.283.21.185.32.43.32.726 0 .295-.11.54-.32.725-.222.184-.48.283-.789.283h-1.22v5.348c0 .197.05.357.136.455.087.099.21.148.37.148h1.133v.012ZM59.484 6.676c.492.283.887.664 1.17 1.143a3 3 0 0 1 .419 1.562v6.16c0 .295-.111.553-.32.774-.222.222-.48.332-.789.332-.246 0-.456-.061-.64-.196a.984.984 0 0 1-.37-.505h-.197c-.16.234-.407.443-.727.628-.32.184-.69.282-1.096.282-.444 0-.862-.135-1.244-.393s-.69-.64-.936-1.131c-.234-.492-.358-1.058-.358-1.71 0-.97.296-1.733.875-2.286.591-.553 1.404-.836 2.451-.836h1.109V9.393c0-.344-.086-.627-.271-.811-.185-.197-.431-.295-.74-.295-.184 0-.356.024-.492.086-.135.061-.308.184-.517.356a2.357 2.357 0 0 1-.542.37c-.16.06-.345.098-.567.098a.912.912 0 0 1-.653-.259.889.889 0 0 1-.258-.651c0-.246.086-.48.258-.726.173-.246.407-.467.702-.664a3.697 3.697 0 0 1 2.082-.627 3.164 3.164 0 0 1 1.65.406Zm-.629 5.643h-1.108c-.308 0-.579.123-.788.37-.222.245-.32.553-.32.946 0 .393.11.7.32.947.221.246.48.369.788.369.185 0 .382-.05.591-.136.197-.098.382-.22.53-.368V12.32h-.013ZM64.731 16.402a3.35 3.35 0 0 1-1.268-1.218 3.128 3.128 0 0 1-.469-1.66V9.59c0-.602.16-1.155.468-1.66.308-.504.74-.91 1.27-1.217a3.556 3.556 0 0 1 1.798-.455c.443 0 .874.086 1.293.246.419.16.776.381 1.072.664.517.48.763.984.763 1.512a.91.91 0 0 1-.258.652.893.893 0 0 1-.653.258c-.234 0-.419-.049-.579-.135-.16-.098-.308-.258-.48-.48a2.037 2.037 0 0 0-.542-.54 1.266 1.266 0 0 0-.641-.148c-.406 0-.727.123-.96.357-.235.233-.358.553-.358.959v3.934c0 .406.123.725.357.959.234.234.555.357.961.357.246 0 .456-.062.653-.173.185-.11.394-.32.628-.614.21-.27.407-.455.579-.566.172-.11.357-.16.579-.16.259 0 .468.086.653.258a.889.889 0 0 1 .259.652c0 .553-.271 1.082-.826 1.598-.345.308-.739.554-1.182.75a3.405 3.405 0 0 1-1.33.283c-.641-.024-1.245-.172-1.787-.48ZM71.432 4.303c-.234-.234-.345-.516-.345-.873 0-.344.111-.64.345-.873.234-.233.518-.344.875-.344.345 0 .64.11.874.344.234.234.345.517.345.873 0 .344-.11.64-.345.873-.234.234-.517.344-.874.344s-.653-.123-.875-.344Zm.087 12.012a1.06 1.06 0 0 1-.333-.774V7.574c0-.308.11-.578.332-.787.222-.21.48-.32.776-.32.309 0 .58.11.789.32.222.221.32.48.32.787v7.98c0 .294-.11.552-.32.774a1.072 1.072 0 0 1-1.564-.013ZM77.074 16.402c-.542-.308-.96-.701-1.269-1.218a3.129 3.129 0 0 1-.468-1.66V9.59c0-.602.16-1.156.468-1.66.308-.504.74-.91 1.269-1.217a3.556 3.556 0 0 1 1.798-.455c.665 0 1.257.148 1.799.455.542.307.96.7 1.269 1.217a3.13 3.13 0 0 1 .468 1.66v3.935a3.13 3.13 0 0 1-.468 1.66c-.308.503-.74.91-1.27 1.217a3.588 3.588 0 0 1-1.798.455 3.556 3.556 0 0 1-1.798-.455Zm2.76-1.918c.233-.234.356-.554.356-.96V9.59c0-.406-.123-.725-.357-.959-.234-.233-.554-.356-.96-.356-.407 0-.727.123-.961.356-.235.234-.358.553-.358.96v3.934c0 .405.123.725.358.959.234.233.554.356.96.356.407 0 .727-.123.961-.356Zm-1.54-10.082a.76.76 0 0 1-.235-.566c0-.184.05-.43.136-.725L78.86.91c.185-.603.53-.91 1.01-.91.296 0 .542.086.727.27.185.185.283.43.283.738 0 .234-.061.504-.197.812l-.911 2.225c-.16.406-.469.603-.912.603a.775.775 0 0 1-.567-.246ZM90.291 7.082c.48.553.715 1.316.715 2.3v6.16c0 .294-.111.552-.32.774-.222.221-.481.332-.789.332-.296 0-.554-.111-.776-.332a1.06 1.06 0 0 1-.333-.775v-6.16c0-.344-.098-.627-.295-.811-.197-.197-.468-.295-.813-.295-.345 0-.629.098-.813.295-.197.197-.296.467-.296.811v6.16c0 .295-.11.553-.32.775-.222.221-.48.332-.788.332-.296 0-.555-.111-.776-.332a1.06 1.06 0 0 1-.333-.775V7.574c0-.308.11-.578.332-.787.222-.209.48-.32.776-.32.308 0 .542.074.703.21.16.135.246.307.27.491h.247c.16-.233.406-.442.727-.627.32-.184.69-.283 1.096-.283.702 0 1.306.27 1.786.824ZM99 12.418v1.107c0 .405.123.725.357.959.234.233.555.356.961.356.259 0 .468-.049.653-.135.172-.098.357-.27.542-.529.148-.184.308-.332.468-.418a1.17 1.17 0 0 1 .567-.135c.271 0 .492.086.652.258a.868.868 0 0 1 .259.652c0 .246-.074.492-.209.75a2.392 2.392 0 0 1-.579.7 3.59 3.59 0 0 1-1.072.64c-.406.16-.825.234-1.269.234a3.555 3.555 0 0 1-1.798-.455c-.542-.308-.96-.701-1.269-1.218a3.13 3.13 0 0 1-.468-1.66V9.59c0-.59.148-1.143.456-1.66a3.283 3.283 0 0 1 1.244-1.217 3.395 3.395 0 0 1 1.737-.455c.628 0 1.219.148 1.737.455.529.308.936.713 1.244 1.217.308.517.456 1.058.456 1.66v1.77c0 .407-.124.677-.37.825-.246.147-.567.22-.973.22H99v.013Zm.333-3.787c-.222.234-.333.554-.333.96v.91h2.427v-.91c0-.406-.111-.726-.333-.96-.222-.233-.517-.356-.875-.356-.357 0-.665.123-.886.356ZM111.417 7.082c.48.553.714 1.316.714 2.3v6.16a1.1 1.1 0 0 1-.32.774 1.074 1.074 0 0 1-.789.332c-.295 0-.554-.111-.776-.332a1.063 1.063 0 0 1-.332-.775v-6.16c0-.344-.099-.627-.296-.811-.197-.197-.468-.295-.813-.295-.345 0-.628.098-.813.295-.197.197-.295.467-.295.811v6.16c0 .295-.111.553-.321.775a1.07 1.07 0 0 1-.788.332c-.296 0-.554-.111-.776-.332a1.06 1.06 0 0 1-.333-.775V7.574c0-.308.111-.578.333-.787.222-.209.48-.32.776-.32.308 0 .542.074.702.21.16.135.246.307.271.491h.246c.161-.233.407-.442.727-.627a2.17 2.17 0 0 1 1.096-.283c.715 0 1.319.27 1.787.824ZM118.339 16.316a1.063 1.063 0 0 1-.332-.775V3.43c0-.308.111-.579.332-.788.222-.209.481-.32.776-.32.308 0 .579.111.789.32.221.222.32.48.32.787v12.11a1.1 1.1 0 0 1-.32.776 1.074 1.074 0 0 1-.789.332c-.295.012-.554-.111-.776-.332ZM122.49 4.303c-.234-.234-.344-.516-.344-.873 0-.344.11-.64.344-.873.235-.233.518-.344.875-.344.345 0 .641.11.875.344.234.234.345.517.345.873 0 .344-.111.64-.345.873-.234.234-.518.344-.875.344s-.64-.123-.875-.344Zm.099 12.012a1.06 1.06 0 0 1-.333-.774V7.574c0-.308.111-.578.333-.787.222-.21.48-.32.776-.32.308 0 .579.11.788.32.222.221.321.48.321.787v7.98c0 .294-.111.552-.321.774a1.07 1.07 0 0 1-1.564-.013ZM132.456 7.082c.48.553.714 1.316.714 2.3v6.16a1.1 1.1 0 0 1-.32.774c-.222.221-.48.332-.788.332-.296 0-.555-.111-.776-.332a1.06 1.06 0 0 1-.333-.775v-6.16c0-.344-.099-.627-.296-.811-.197-.197-.468-.295-.813-.295-.345 0-.628.098-.813.295-.197.197-.295.467-.295.811v6.16c0 .295-.111.553-.321.775a1.07 1.07 0 0 1-.788.332c-.296 0-.554-.111-.776-.332a1.06 1.06 0 0 1-.333-.775V7.574c0-.308.111-.578.333-.787.222-.209.48-.32.776-.32.308 0 .542.074.702.21.16.135.247.307.271.491h.247c.16-.233.406-.442.726-.627.321-.184.69-.283 1.097-.283.702 0 1.305.27 1.786.824ZM137.321 12.418v1.107c0 .405.124.725.358.959.234.233.554.356.96.356.259 0 .468-.049.653-.135.173-.098.357-.27.542-.529.148-.184.308-.332.468-.418a1.17 1.17 0 0 1 .567-.135c.271 0 .493.086.653.258a.871.871 0 0 1 .259.652c0 .246-.074.492-.21.75a2.361 2.361 0 0 1-.579.7 3.59 3.59 0 0 1-1.072.64c-.406.16-.825.234-1.268.234a3.558 3.558 0 0 1-1.799-.455 3.342 3.342 0 0 1-1.268-1.218 3.13 3.13 0 0 1-.469-1.66V9.59c0-.59.148-1.143.456-1.66a3.287 3.287 0 0 1 1.244-1.217 3.396 3.396 0 0 1 1.737-.455c.628 0 1.22.148 1.737.455.53.308.936.713 1.244 1.217.308.517.456 1.058.456 1.66v1.77c0 .407-.123.677-.37.825-.246.147-.566.22-.973.22h-3.326v.013Zm.333-3.787c-.222.234-.333.554-.333.96v.91h2.427v-.91c0-.406-.111-.726-.333-.96-.221-.233-.517-.356-.874-.356s-.665.123-.887.356ZM148.26 6.676c.493.283.887.664 1.17 1.143.283.48.419.996.419 1.562v6.16a1.1 1.1 0 0 1-.32.774 1.074 1.074 0 0 1-.789.332 1.04 1.04 0 0 1-.64-.196.986.986 0 0 1-.37-.505h-.197c-.16.234-.406.443-.727.628-.32.184-.69.282-1.096.282-.443 0-.862-.135-1.244-.393s-.69-.64-.936-1.131c-.234-.492-.358-1.058-.358-1.71 0-.97.296-1.733.875-2.286.591-.553 1.404-.836 2.451-.836h1.109V9.393c0-.344-.086-.627-.271-.811-.185-.197-.431-.295-.739-.295a1.22 1.22 0 0 0-.493.086c-.135.061-.308.184-.517.356a2.357 2.357 0 0 1-.542.37c-.16.06-.345.098-.567.098a.914.914 0 0 1-.653-.259.89.89 0 0 1-.258-.651c0-.246.086-.48.258-.726a2.62 2.62 0 0 1 .702-.664 3.7 3.7 0 0 1 2.082-.627 3.164 3.164 0 0 1 1.651.406Zm-.628 5.643h-1.109c-.308 0-.579.123-.788.37-.222.245-.321.553-.321.946 0 .393.111.7.321.947.221.246.48.369.788.369.185 0 .382-.05.591-.136.197-.098.382-.22.53-.368V12.32h-.012ZM151.918 16.414c-.234-.234-.345-.517-.345-.873 0-.344.111-.64.345-.873.234-.234.518-.344.875-.344.345 0 .64.11.874.344.234.234.345.516.345.873 0 .344-.111.64-.345.873-.234.233-.517.344-.874.344a1.22 1.22 0 0 1-.875-.344Z"/></g><defs><clipPath id="clip0_140_3437"><path fill="#fff" d="M0 0h154v21H0z"/></clipPath></defs></svg>