<svg width="316" height="87" fill="none" xmlns="http://www.w3.org/2000/svg"><g clip-path="url('#clip0_172_969')"><path d="M3.557 45.884c-1.105-.575-1.966-1.392-2.546-2.45-.6-1.057-.899-2.263-.899-3.617 0-1.095.15-2.06.468-2.876.319-.817.693-1.484 1.142-2.023a23.004 23.004 0 0 1 1.685-1.78c.487-.483.861-.873 1.105-1.133.243-.26.43-.556.599-.872.374-.76.73-1.28 1.048-1.558.319-.278.73-.427 1.217-.427.543 0 .992.167 1.33.52.355.352.524.816.524 1.391 0 .687-.188 1.299-.543 1.837-.356.538-.918 1.188-1.685 1.985-.88.891-1.554 1.689-2.003 2.394-.45.705-.674 1.54-.674 2.523 0 .984.243 1.744.748 2.282.487.538 1.18.798 2.022.798.656 0 1.217-.13 1.704-.408.487-.26.992-.742 1.535-1.447.412-.52.768-.872 1.067-1.058.3-.185.656-.278 1.03-.278.58 0 1.067.185 1.46.575.375.371.58.854.58 1.447 0 .78-.393 1.596-1.141 2.412-.693.835-1.573 1.466-2.64 1.93a8.219 8.219 0 0 1-3.314.686c-1.441.019-2.714-.278-3.819-.853Zm2.247-20.372c-.412-.409-.618-.928-.618-1.559 0-.65.206-1.169.618-1.577.412-.408.936-.612 1.572-.612.637 0 1.161.204 1.573.612.412.408.618.928.618 1.558 0 .631-.206 1.15-.618 1.559-.412.408-.936.612-1.573.612a1.991 1.991 0 0 1-1.572-.593ZM24.02 15.9c2.508 0 4.493.687 5.99 2.042 1.498 1.373 2.228 3.247 2.228 5.659 0 2.393-.748 4.267-2.227 5.659-1.498 1.373-3.483 2.06-5.991 2.06h-3.445v6.438c0 .556-.206 1.02-.618 1.391-.412.371-.917.557-1.498.557-.58 0-1.085-.186-1.497-.557a1.795 1.795 0 0 1-.618-1.391V17.812c0-.538.206-.983.618-1.355.412-.37.898-.556 1.497-.556h5.56Zm0 11.579c1.198 0 2.153-.353 2.902-1.058.73-.705 1.104-1.633 1.104-2.802 0-1.168-.374-2.096-1.104-2.801-.73-.705-1.704-1.058-2.902-1.058h-3.445v7.719h3.445ZM37.611 39.038c-1.048-.557-1.872-1.318-2.452-2.264a5.84 5.84 0 0 1-.88-3.099V28.48c0-1.113.3-2.152.88-3.098.58-.947 1.404-1.707 2.453-2.264 1.048-.556 2.209-.835 3.5-.835 1.31 0 2.49.278 3.52.835a6.527 6.527 0 0 1 2.453 2.264c.599.946.898 1.985.898 3.098v5.195c0 1.114-.3 2.153-.898 3.099a6.526 6.526 0 0 1-2.453 2.264c-1.03.556-2.21.835-3.52.835a7.123 7.123 0 0 1-3.5-.835Zm5.654-3.303c.543-.52.805-1.206.805-2.06V28.48c0-.853-.262-1.54-.805-2.06-.543-.519-1.254-.779-2.171-.779-.88 0-1.592.26-2.135.78-.543.52-.805 1.206-.805 2.06v5.194c0 .854.262 1.54.805 2.06s1.255.78 2.135.78c.917.018 1.628-.242 2.171-.78ZM59.815 22.45c.524 0 .936.149 1.273.464.319.316.487.724.487 1.206 0 .501-.169.89-.487 1.206-.318.316-.749.464-1.273.464h-2.022c-.674 0-1.235.223-1.685.686-.449.464-.674 1.04-.674 1.726v9.481c0 .52-.187.946-.561 1.299-.375.352-.843.538-1.404.538-.543 0-.993-.186-1.367-.538a1.734 1.734 0 0 1-.562-1.299V24.436c0-.52.188-.947.562-1.3a1.918 1.918 0 0 1 1.367-.537c.468 0 .88.13 1.235.408.356.26.562.575.655.946h.3c.262-.408.655-.76 1.142-1.058.505-.296 1.011-.445 1.554-.445h1.46ZM72.808 23.1c1.01.556 1.816 1.298 2.377 2.226.562.928.862 1.985.862 3.154v16.44c0 .519-.188.945-.562 1.298-.374.352-.842.538-1.404.538-.543 0-.992-.185-1.367-.538a1.733 1.733 0 0 1-.561-1.299v-6.698h-.337c-.375.52-.899.928-1.517 1.225a4.726 4.726 0 0 1-2.022.445c-.992 0-1.91-.278-2.733-.816a5.614 5.614 0 0 1-1.966-2.245 7.017 7.017 0 0 1-.711-3.136v-5.195c0-1.17.28-2.208.86-3.154a6.083 6.083 0 0 1 2.379-2.227c1.01-.556 2.134-.816 3.35-.816 1.218 0 2.34.26 3.352.798ZM66.76 33.675c0 .835.262 1.503.767 2.041.506.538 1.161.798 1.947.798.787 0 1.442-.26 1.948-.798.505-.538.767-1.224.767-2.04V28.48c0-.835-.262-1.503-.767-2.04-.506-.539-1.161-.799-1.948-.799-.786 0-1.441.26-1.947.798-.505.538-.767 1.225-.767 2.041v5.195ZM92.147 23.155c.375.353.562.798.562 1.299v13.248c0 .52-.187.946-.562 1.298a1.918 1.918 0 0 1-1.367.538c-.58 0-1.03-.148-1.31-.426-.3-.297-.468-.631-.505-1.002h-.375c-.318.5-.805.909-1.479 1.261-.674.353-1.385.52-2.19.52a4.83 4.83 0 0 1-2.621-.742c-.805-.483-1.442-1.188-1.91-2.078-.468-.89-.711-1.911-.711-3.043v-9.555c0-.52.187-.947.561-1.3.375-.352.843-.537 1.404-.537.543 0 .993.185 1.367.538.374.352.562.798.562 1.299v9.555c0 .76.243 1.373.711 1.818.468.464 1.123.687 1.928.687.787 0 1.423-.223 1.891-.687.468-.464.712-1.076.712-1.818v-9.555c0-.52.187-.947.561-1.3.375-.352.843-.537 1.404-.537.543-.019.993.148 1.367.52ZM106.507 23.118c1.029.557 1.853 1.318 2.433 2.264.581.946.88 1.985.88 3.098v2.208c0 .576-.206 1.02-.618 1.336-.411.316-.917.464-1.516.464h-7.507v1.169c0 .854.262 1.54.805 2.06.543.519 1.254.779 2.134.779.58 0 1.086-.093 1.516-.26.431-.167.862-.445 1.292-.853.337-.316.637-.539.918-.65.262-.13.58-.185.954-.185.45 0 .824.148 1.105.426.281.297.43.65.43 1.077 0 .39-.131.779-.374 1.187a4.42 4.42 0 0 1-1.011 1.15c-.562.446-1.254.798-2.078 1.058-.824.26-1.722.39-2.715.39-1.291 0-2.452-.279-3.5-.835-1.049-.557-1.873-1.318-2.453-2.264a5.84 5.84 0 0 1-.88-3.099v-5.195c0-1.113.3-2.152.88-3.098.58-.947 1.404-1.707 2.434-2.264 1.029-.556 2.19-.835 3.444-.835 1.236.037 2.397.316 3.427.872Zm-5.523 3.303c-.543.52-.805 1.206-.805 2.022v.872h5.747v-.872c0-.835-.262-1.503-.786-2.022-.524-.52-1.217-.78-2.078-.78-.843-.018-1.535.26-2.078.78Zm1.104-7.236a1.38 1.38 0 0 1-.43-1.02c0-.242.093-.613.299-1.114l1.666-3.822c.356-.89.955-1.336 1.76-1.336.524 0 .955.167 1.292.501.337.334.505.742.505 1.243 0 .353-.149.798-.43 1.299l-2.059 3.73c-.337.63-.862.946-1.554.946-.412-.019-.768-.149-1.049-.427ZM133.054 16.272c.374.352.561.798.561 1.299v20.112c0 .52-.187.946-.561 1.299-.375.352-.843.538-1.404.538-.45 0-.843-.148-1.18-.427a1.971 1.971 0 0 1-.674-1.02h-.337c-.318.5-.805.909-1.479 1.261a4.552 4.552 0 0 1-2.153.52c-.973 0-1.872-.26-2.696-.78-.824-.519-1.479-1.261-1.984-2.207-.506-.947-.749-2.023-.749-3.21v-5.195c0-1.188.243-2.245.749-3.21.487-.946 1.16-1.688 1.984-2.208a4.959 4.959 0 0 1 2.696-.78c.768 0 1.46.15 2.097.465.636.315 1.123.723 1.46 1.206h.337v-6.346c0-.52.187-.946.562-1.299a1.918 1.918 0 0 1 1.367-.538 1.887 1.887 0 0 1 1.404.52Zm-4.119 19.444c.524-.538.786-1.224.786-2.04V28.48c0-.835-.262-1.503-.786-2.04-.524-.539-1.161-.798-1.928-.798-.768 0-1.405.26-1.929.797-.524.538-.786 1.225-.786 2.041v5.195c0 .835.262 1.503.786 2.041s1.161.798 1.929.798c.767.019 1.404-.26 1.928-.798ZM147.376 23.118c1.029.557 1.853 1.318 2.433 2.264.581.946.88 1.985.88 3.098v2.208c0 .575-.206 1.02-.618 1.336-.411.316-.917.464-1.516.464h-7.507v1.169c0 .853.262 1.54.805 2.06.543.519 1.254.779 2.134.779.58 0 1.086-.093 1.516-.26.431-.167.862-.445 1.292-.854.337-.315.637-.538.918-.649.262-.13.58-.186.954-.186.45 0 .824.149 1.105.427.281.297.43.65.43 1.076 0 .39-.131.78-.374 1.188-.243.408-.58.798-1.011 1.15-.562.445-1.254.798-2.078 1.058-.824.26-1.722.39-2.715.39-1.291 0-2.452-.279-3.501-.836-1.048-.556-1.872-1.317-2.452-2.263a5.843 5.843 0 0 1-.88-3.099v-5.195c0-1.113.3-2.152.88-3.098.58-.947 1.404-1.707 2.434-2.264 1.029-.557 2.19-.835 3.445-.835 1.235.037 2.396.316 3.426.872Zm-5.505 3.303c-.543.52-.805 1.206-.805 2.022v.872h5.748v-.872c0-.835-.262-1.503-.786-2.022-.525-.52-1.217-.78-2.078-.78-.862-.018-1.554.26-2.079.78ZM164.581 23.1a5.992 5.992 0 0 1 1.965 2.226c.487.947.73 1.986.73 3.154v5.196c0 1.131-.299 2.189-.879 3.135a6.265 6.265 0 0 1-2.378 2.245c-1.011.557-2.116.817-3.332.817a6.972 6.972 0 0 1-3.333-.817c-1.011-.556-1.797-1.298-2.378-2.245a5.923 5.923 0 0 1-.879-3.135V17.589c0-.52.187-.946.561-1.298a1.92 1.92 0 0 1 1.367-.539c.562 0 1.03.186 1.404.539.374.352.562.797.562 1.298v6.364h.337c.337-.52.823-.927 1.46-1.224a4.877 4.877 0 0 1 2.097-.445c.973 0 1.872.278 2.696.816Zm-1.199 5.38c0-.834-.262-1.502-.767-2.04-.506-.539-1.161-.798-1.947-.798s-1.442.26-1.947.798c-.506.538-.768 1.224-.768 2.04v5.196c0 .835.262 1.502.768 2.04.505.539 1.161.798 1.947.798s1.441-.26 1.947-.797c.505-.538.767-1.225.767-2.041V28.48ZM180.7 23.118c1.029.557 1.853 1.318 2.434 2.264.58.946.88 1.985.88 3.098v2.208c0 .575-.206 1.02-.618 1.336-.412.316-.918.464-1.517.464h-7.507v1.169c0 .853.262 1.54.805 2.06.543.519 1.254.779 2.134.779.581 0 1.086-.093 1.517-.26.43-.167.861-.445 1.291-.854.337-.315.637-.538.918-.649.262-.13.58-.186.955-.186.449 0 .823.149 1.104.427.281.297.431.65.431 1.076 0 .39-.131.78-.375 1.188-.243.408-.58.798-1.011 1.15-.561.445-1.254.798-2.078 1.058-.823.26-1.722.39-2.714.39-1.292 0-2.453-.279-3.501-.836-1.049-.556-1.872-1.317-2.453-2.263a5.843 5.843 0 0 1-.88-3.099v-5.195c0-1.113.3-2.152.88-3.098.581-.947 1.404-1.707 2.434-2.264 1.03-.557 2.19-.835 3.445-.835 1.235.037 2.396.316 3.426.872Zm-5.504 3.303c-.543.52-.805 1.206-.805 2.022v.872h5.747v-.872c0-.835-.262-1.503-.786-2.022-.524-.52-1.217-.78-2.078-.78-.861-.018-1.554.26-2.078.78ZM195.696 22.45c.524 0 .936.149 1.273.464.318.316.486.724.486 1.206 0 .501-.168.89-.486 1.206-.319.316-.749.464-1.273.464h-2.022c-.674 0-1.236.223-1.685.686-.449.464-.674 1.04-.674 1.726v9.481c0 .52-.187.946-.562 1.299-.374.352-.842.538-1.404.538a1.92 1.92 0 0 1-1.367-.538 1.734 1.734 0 0 1-.561-1.299V24.436c0-.52.187-.947.561-1.3a1.92 1.92 0 0 1 1.367-.537c.468 0 .88.13 1.236.408.355.26.561.575.655.946h.3c.262-.408.655-.76 1.142-1.058a2.945 2.945 0 0 1 1.553-.445h1.461ZM199.852 19.018c-.412-.371-.618-.854-.618-1.447 0-.575.206-1.058.618-1.448a2.197 2.197 0 0 1 1.516-.575c.581 0 1.086.186 1.498.575.412.39.618.854.618 1.448 0 .575-.206 1.057-.618 1.447a2.153 2.153 0 0 1-1.498.575c-.599 0-1.104-.185-1.516-.575Zm.112 20.001a1.734 1.734 0 0 1-.561-1.299V24.473c0-.52.187-.946.561-1.299a1.92 1.92 0 0 1 1.367-.538c.562 0 1.03.186 1.404.538.374.353.562.798.562 1.299V37.72c0 .52-.188.947-.562 1.3-.374.352-.842.537-1.404.537-.524-.018-.992-.185-1.367-.538ZM216.308 23.063a5.959 5.959 0 0 1 2.303 2.152c.561.909.824 1.892.824 2.931v9.556c0 .52-.188.946-.562 1.299a1.92 1.92 0 0 1-1.367.538c-.468 0-.88-.149-1.198-.427a2.058 2.058 0 0 1-.655-1.02h-.337c-.412.519-.955.946-1.648 1.28-.692.334-1.441.5-2.246.5a5.011 5.011 0 0 1-2.546-.667c-.768-.446-1.367-1.077-1.816-1.856a5.536 5.536 0 0 1-.656-2.672c0-1.595.562-2.875 1.667-3.877 1.123-1.002 2.639-1.485 4.586-1.485h2.884v-1.169c0-.76-.225-1.373-.693-1.818-.468-.464-1.086-.686-1.835-.686-.43 0-.786.074-1.104.204-.3.13-.656.39-1.068.779-.355.334-.674.556-.973.686-.281.13-.618.186-.992.186-.45 0-.843-.148-1.142-.427a1.398 1.398 0 0 1-.468-1.076c0-.445.168-.89.486-1.317.319-.427.768-.835 1.311-1.188 1.179-.779 2.49-1.169 3.95-1.169 1.217-.037 2.322.223 3.295.742Zm-.749 9.277h-2.883c-.693 0-1.273.204-1.704.612-.43.408-.655.965-.655 1.633 0 .649.206 1.169.599 1.54.393.39.936.575 1.61.575.525 0 1.067-.13 1.629-.408a4.457 4.457 0 0 0 1.423-1.04V32.34h-.019ZM225.444 39.371c-.842-.352-1.572-.779-2.19-1.317a4.604 4.604 0 0 1-.955-1.187c-.225-.408-.337-.798-.337-1.15 0-.427.15-.78.468-1.077.318-.297.693-.426 1.142-.426.374 0 .73.074 1.048.24.319.15.656.446 1.011.873.412.445.805.76 1.199.965.393.185.842.278 1.366.278.768 0 1.367-.167 1.816-.52.431-.352.655-.76.655-1.261 0-.557-.243-1.002-.748-1.3-.506-.315-1.292-.667-2.397-1.075a18.707 18.707 0 0 1-2.621-1.076c-.692-.353-1.273-.873-1.778-1.559-.506-.686-.749-1.54-.749-2.598 0-.853.243-1.65.749-2.374.486-.743 1.198-1.336 2.097-1.8.898-.464 1.928-.687 3.07-.687.973 0 1.853.149 2.64.427.786.278 1.46.65 2.003 1.132.786.742 1.179 1.447 1.179 2.152 0 .427-.15.78-.449 1.076-.3.297-.674.427-1.142.427-.337 0-.637-.056-.917-.185a3.403 3.403 0 0 1-.88-.65c-.394-.353-.768-.612-1.142-.78a3.512 3.512 0 0 0-1.311-.24c-.636 0-1.123.148-1.498.426-.355.297-.543.65-.543 1.076 0 .557.244 1.002.749 1.3.487.315 1.292.667 2.397 1.075 1.067.353 1.928.724 2.621 1.076.692.353 1.273.873 1.778 1.56.487.686.749 1.54.749 2.597 0 .89-.262 1.744-.786 2.523-.524.798-1.273 1.429-2.228 1.893-.955.463-2.078.705-3.332.705a7.878 7.878 0 0 1-2.734-.538ZM7.62 59.336c-.431 0-.768.148-1.03.427-.262.296-.393.705-.393 1.243v2.523h2.602c.524 0 .955.148 1.31.464.356.315.543.723.543 1.206 0 .5-.187.89-.542 1.206-.356.315-.805.464-1.31.464H6.196v11.058c0 .52-.187.946-.562 1.299-.374.352-.842.538-1.404.538-.543 0-.992-.186-1.367-.538a1.733 1.733 0 0 1-.561-1.299V66.869h-.45c-.524 0-.954-.149-1.31-.464A1.558 1.558 0 0 1 0 65.199c0-.483.187-.89.543-1.206.356-.316.805-.464 1.31-.464h.431v-2.523c0-.947.225-1.8.674-2.56a4.909 4.909 0 0 1 1.835-1.82c.767-.444 1.647-.648 2.62-.648H9.96c.524 0 .955.148 1.292.463.337.316.505.724.505 1.206 0 .501-.168.891-.505 1.206-.337.316-.768.464-1.292.464H7.62v.019ZM15.539 79.282c-1.049-.557-1.872-1.318-2.453-2.264a5.84 5.84 0 0 1-.88-3.099v-5.195c0-1.113.3-2.152.88-3.098.58-.946 1.404-1.707 2.453-2.264 1.048-.556 2.209-.835 3.5-.835 1.311 0 2.49.279 3.52.835a6.527 6.527 0 0 1 2.453 2.264c.599.946.898 1.985.898 3.098v5.195c0 1.114-.299 2.153-.898 3.1a6.528 6.528 0 0 1-2.453 2.263c-1.03.556-2.209.835-3.52.835-1.272 0-2.452-.279-3.5-.835Zm5.673-3.303c.542-.52.805-1.206.805-2.06v-5.195c0-.853-.263-1.54-.805-2.06-.543-.519-1.274-.778-2.172-.778-.88 0-1.592.26-2.134.779-.543.52-.805 1.206-.805 2.06v5.195c0 .853.262 1.54.805 2.059.542.52 1.254.78 2.134.78.917 0 1.629-.26 2.172-.78ZM37.761 62.675c.524 0 .936.149 1.273.464.319.316.487.724.487 1.206 0 .501-.168.89-.487 1.206-.318.316-.749.464-1.273.464H35.74c-.674 0-1.235.223-1.685.686-.449.464-.674 1.04-.674 1.726v9.481c0 .52-.187.946-.561 1.299-.375.353-.843.538-1.404.538-.543 0-.993-.186-1.367-.538a1.733 1.733 0 0 1-.562-1.299V64.661c0-.52.188-.947.562-1.3a1.918 1.918 0 0 1 1.367-.537c.468 0 .88.13 1.235.408.356.26.562.575.656.946h.3c.261-.408.654-.76 1.141-1.057a2.95 2.95 0 0 1 1.554-.446h1.46ZM60.059 63.27a5.268 5.268 0 0 1 1.872 2.059c.468.872.692 1.837.692 2.876v9.722c0 .52-.187.947-.561 1.299-.375.353-.843.538-1.404.538-.543 0-.993-.185-1.367-.538a1.733 1.733 0 0 1-.562-1.299v-9.722c0-.724-.224-1.28-.655-1.707-.43-.427-1.03-.63-1.741-.63-.73 0-1.292.203-1.704.63-.412.427-.617 1.002-.617 1.707v9.722c0 .52-.188.947-.562 1.299-.375.353-.843.538-1.404.538-.543 0-.992-.185-1.367-.538a1.733 1.733 0 0 1-.562-1.299v-9.722c0-.724-.206-1.28-.636-1.707-.43-.427-1.011-.63-1.723-.63-.73 0-1.291.222-1.722.648-.43.427-.636 1.02-.636 1.763v9.648c0 .52-.188.947-.562 1.299-.374.353-.843.538-1.404.538-.543 0-.992-.185-1.367-.538a1.733 1.733 0 0 1-.561-1.299V64.68c0-.52.187-.947.561-1.3a1.918 1.918 0 0 1 1.367-.537c.468 0 .88.13 1.198.39.318.26.543.593.655 1.02h.337c.356-.52.843-.928 1.46-1.262a4.18 4.18 0 0 1 1.929-.482c.805 0 1.554.185 2.246.556a5.054 5.054 0 0 1 1.742 1.522h.337a4.915 4.915 0 0 1 1.797-1.522 5.056 5.056 0 0 1 2.34-.556c.917 0 1.797.26 2.584.76ZM75.56 63.306a5.958 5.958 0 0 1 2.303 2.153c.561.909.823 1.892.823 2.931v9.555c0 .52-.187.947-.561 1.3a1.918 1.918 0 0 1-1.367.537c-.468 0-.88-.148-1.198-.426a2.06 2.06 0 0 1-.655-1.02h-.337c-.412.519-.955.945-1.648 1.28a5.105 5.105 0 0 1-2.246.5 5.015 5.015 0 0 1-2.547-.668c-.767-.445-1.366-1.076-1.816-1.855a5.54 5.54 0 0 1-.655-2.672c0-1.596.562-2.876 1.666-3.878 1.124-1.002 2.64-1.484 4.587-1.484h2.883V68.39c0-.76-.224-1.373-.692-1.818-.468-.464-1.086-.687-1.835-.687-.43 0-.786.075-1.105.204-.318.13-.655.39-1.067.78-.356.334-.674.556-.973.686-.281.13-.618.186-.993.186-.449 0-.842-.149-1.141-.427a1.4 1.4 0 0 1-.469-1.076c0-.445.169-.89.487-1.317.319-.427.768-.835 1.31-1.188 1.18-.78 2.49-1.169 3.95-1.169a6.3 6.3 0 0 1 3.296.742Zm-.749 9.277h-2.883c-.693 0-1.273.204-1.704.613-.43.408-.655.964-.655 1.632 0 .65.206 1.17.6 1.54.392.39.935.576 1.61.576.523 0 1.066-.13 1.628-.409a4.459 4.459 0 0 0 1.423-1.039v-2.913h-.019ZM90.8 62.675c.523 0 .935.149 1.272.464.319.316.487.724.487 1.206 0 .501-.168.89-.487 1.206-.318.316-.749.464-1.273.464h-2.022c-.674 0-1.235.223-1.685.686-.449.464-.674 1.04-.674 1.726v9.481c0 .52-.187.946-.561 1.299-.375.353-.843.538-1.404.538-.543 0-.993-.186-1.367-.538a1.734 1.734 0 0 1-.562-1.299V64.661c0-.52.188-.947.562-1.3a1.918 1.918 0 0 1 1.367-.537c.468 0 .88.13 1.235.408.356.26.562.575.656.946h.299c.262-.408.655-.76 1.142-1.057a2.95 2.95 0 0 1 1.554-.446h1.46ZM112.554 63.306c.823.52 1.479 1.262 1.984 2.208.506.947.749 2.023.749 3.21v5.195c0 1.188-.243 2.246-.749 3.21-.505.947-1.161 1.689-1.984 2.208-.824.52-1.723.78-2.696.78-.805 0-1.535-.168-2.172-.502-.637-.333-1.086-.723-1.385-1.168h-.337v6.698c0 .52-.188.946-.562 1.298-.374.353-.842.538-1.404.538a1.92 1.92 0 0 1-1.367-.538 1.734 1.734 0 0 1-.561-1.298V64.698c0-.52.187-.946.561-1.299a1.92 1.92 0 0 1 1.367-.538c.468 0 .88.13 1.198.408.318.26.543.613.655 1.002h.337c.319-.464.787-.872 1.423-1.224.637-.353 1.367-.52 2.228-.52.992-.018 1.891.26 2.715.78Zm-1.18 5.418c0-.835-.262-1.503-.786-2.04-.524-.539-1.161-.799-1.928-.799-.768 0-1.405.26-1.929.798s-.786 1.225-.786 2.041v5.195c0 .835.262 1.503.786 2.041s1.161.798 1.929.798c.767 0 1.404-.26 1.928-.798s.786-1.224.786-2.04v-5.196ZM127.606 63.306a5.954 5.954 0 0 1 2.302 2.153c.562.909.824 1.892.824 2.931v9.555c0 .52-.187.947-.561 1.3a1.92 1.92 0 0 1-1.367.537c-.468 0-.88-.148-1.198-.426a2.06 2.06 0 0 1-.656-1.02h-.337c-.411.519-.954.945-1.647 1.28a5.107 5.107 0 0 1-2.247.5 5.017 5.017 0 0 1-2.546-.668c-.767-.445-1.366-1.076-1.816-1.855a5.546 5.546 0 0 1-.655-2.672c0-1.596.562-2.876 1.666-3.878 1.124-1.002 2.64-1.484 4.587-1.484h2.883V68.39c0-.76-.225-1.373-.693-1.818-.468-.464-1.085-.687-1.834-.687-.431 0-.787.075-1.105.204-.318.13-.655.39-1.067.78-.356.334-.674.556-.973.686-.281.13-.618.186-.993.186-.449 0-.842-.149-1.142-.427a1.401 1.401 0 0 1-.468-1.076c0-.445.169-.89.487-1.317.318-.427.768-.835 1.31-1.188 1.18-.78 2.49-1.169 3.951-1.169a6.343 6.343 0 0 1 3.295.742Zm-.768 9.277h-2.883c-.693 0-1.273.204-1.704.613-.43.408-.655.964-.655 1.632 0 .65.206 1.17.599 1.54.393.39.936.576 1.61.576.524 0 1.067-.13 1.629-.409a4.454 4.454 0 0 0 1.423-1.039v-2.913h-.019ZM142.845 62.675c.524 0 .936.149 1.273.464.318.316.487.724.487 1.206 0 .501-.169.89-.487 1.206-.318.316-.749.464-1.273.464h-2.022c-.674 0-1.236.223-1.685.686-.449.464-.674 1.04-.674 1.726v9.481c0 .52-.187.946-.562 1.299-.374.353-.842.538-1.404.538-.543 0-.992-.186-1.366-.538a1.732 1.732 0 0 1-.562-1.299V64.661c0-.52.187-.947.562-1.3a1.915 1.915 0 0 1 1.366-.537c.468 0 .88.13 1.236.408.356.26.562.575.655.946h.3c.262-.408.655-.76 1.142-1.057a2.951 2.951 0 0 1 1.554-.446h1.46ZM155.707 76.257c.524 0 .954.149 1.291.464.337.316.506.724.506 1.206 0 .501-.169.89-.506 1.206-.337.316-.767.464-1.291.464h-2.547a5.38 5.38 0 0 1-2.621-.65c-.786-.426-1.385-1.038-1.834-1.818a5.03 5.03 0 0 1-.674-2.56v-8.22h-.431c-.524 0-.955-.148-1.31-.464a1.557 1.557 0 0 1-.543-1.206c0-.482.187-.89.543-1.206.355-.315.805-.463 1.31-.463h.431v-2.524c0-.52.187-.946.561-1.298a1.92 1.92 0 0 1 1.367-.539c.562 0 1.03.186 1.404.538.375.353.562.798.562 1.3v2.523h2.939c.524 0 .955.148 1.311.464.355.315.543.723.543 1.206 0 .5-.188.89-.543 1.205-.356.316-.805.464-1.311.464h-2.939v8.238c0 .538.131.947.393 1.243.262.297.599.427 1.03.427h2.359ZM169.224 63.362c1.029.557 1.853 1.318 2.433 2.264.581.946.88 1.985.88 3.098v2.208c0 .575-.206 1.02-.618 1.336-.411.316-.917.464-1.516.464h-7.507v1.169c0 .853.262 1.54.805 2.06.543.519 1.254.779 2.134.779.58 0 1.086-.093 1.516-.26.431-.167.862-.445 1.292-.854.337-.315.637-.538.918-.649.262-.13.58-.185.954-.185.45 0 .824.148 1.105.426.281.297.43.65.43 1.076 0 .39-.131.78-.374 1.188a4.42 4.42 0 0 1-1.011 1.15c-.562.446-1.254.798-2.078 1.058-.824.26-1.722.39-2.715.39-1.291 0-2.452-.279-3.501-.835-1.048-.557-1.872-1.318-2.452-2.264a5.843 5.843 0 0 1-.88-3.099v-5.195c0-1.113.3-2.152.88-3.098.58-.947 1.404-1.707 2.434-2.264 1.029-.556 2.19-.835 3.445-.835 1.254.019 2.396.297 3.426.872Zm-5.505 3.303c-.542.52-.805 1.206-.805 2.022v.872h5.748v-.872c0-.835-.262-1.503-.786-2.022-.525-.52-1.217-.78-2.078-.78-.843-.018-1.536.242-2.079.78ZM195.771 56.516c.374.352.561.797.561 1.298v20.113c0 .52-.187.946-.561 1.299-.375.352-.843.538-1.405.538-.449 0-.842-.149-1.179-.427a1.97 1.97 0 0 1-.674-1.02h-.337c-.318.5-.805.909-1.479 1.261a4.552 4.552 0 0 1-2.153.52c-.973 0-1.872-.26-2.696-.78-.824-.519-1.479-1.261-1.984-2.207-.506-.947-.749-2.023-.749-3.21v-5.195c0-1.188.243-2.245.749-3.21.486-.947 1.16-1.689 1.984-2.208a4.959 4.959 0 0 1 2.696-.78c.768 0 1.46.149 2.097.464.636.316 1.123.724 1.46 1.206h.337v-6.364c0-.52.187-.946.562-1.298a1.917 1.917 0 0 1 1.366-.538c.562 0 1.03.185 1.405.538Zm-4.1 19.444c.524-.538.786-1.224.786-2.04v-5.196c0-.835-.262-1.503-.786-2.04-.525-.539-1.161-.799-1.929-.799-.767 0-1.404.26-1.928.798s-.786 1.225-.786 2.041v5.195c0 .835.262 1.503.786 2.041s1.161.798 1.928.798c.768 0 1.404-.26 1.929-.798ZM210.111 63.362c1.03.557 1.854 1.318 2.434 2.264.58.946.88 1.985.88 3.098v2.208c0 .575-.206 1.02-.618 1.336-.412.316-.917.464-1.516.464h-7.508v1.169c0 .853.262 1.54.805 2.06.543.519 1.255.779 2.135.779.58 0 1.086-.093 1.516-.26.431-.167.861-.445 1.292-.854.337-.315.636-.538.917-.649.262-.13.581-.185.955-.185.449 0 .824.148 1.105.426.28.297.43.65.43 1.076 0 .39-.131.78-.374 1.188a4.458 4.458 0 0 1-1.011 1.15c-.562.446-1.255.798-2.078 1.058-.824.26-1.723.39-2.715.39-1.292 0-2.452-.279-3.501-.835-1.048-.557-1.872-1.318-2.452-2.264a5.835 5.835 0 0 1-.88-3.099v-5.195c0-1.113.299-2.152.88-3.098.58-.947 1.404-1.707 2.433-2.264 1.03-.556 2.191-.835 3.445-.835 1.236.019 2.378.297 3.426.872Zm-5.523 3.303c-.543.52-.805 1.206-.805 2.022v.872h5.748v-.872c0-.835-.262-1.503-.786-2.022-.525-.52-1.217-.78-2.079-.78-.842-.018-1.535.242-2.078.78ZM226.773 79.615c-.58 0-1.085-.185-1.497-.556a1.795 1.795 0 0 1-.618-1.392V58.056c0-.538.206-.984.618-1.355.412-.37.898-.556 1.497-.556h6.253c2.378 0 4.175.556 5.411 1.65 1.235 1.096 1.853 2.617 1.853 4.565 0 1.169-.262 2.171-.805 3.025a4.584 4.584 0 0 1-2.228 1.836v.334c1.18.39 2.097 1.058 2.79 2.004.693.965 1.03 2.097 1.03 3.414 0 2.041-.674 3.655-2.041 4.843-1.367 1.187-3.332 1.8-5.897 1.8h-6.366Zm6.272-13.915c.955 0 1.685-.26 2.228-.78.543-.519.805-1.205.805-2.078 0-.871-.262-1.558-.805-2.078-.543-.519-1.292-.779-2.228-.779h-4.119v5.696h4.119v.019Zm.262 10.056c1.03 0 1.891-.278 2.546-.853.674-.576.993-1.318.993-2.264 0-.91-.337-1.651-.993-2.226-.674-.576-1.516-.854-2.546-.854h-4.399v6.197h4.399ZM252.59 62.675c.525 0 .936.149 1.273.464.319.316.487.724.487 1.206 0 .501-.168.89-.487 1.206-.318.316-.748.464-1.273.464h-2.022c-.674 0-1.235.223-1.685.686-.449.464-.673 1.04-.673 1.726v9.481c0 .52-.188.946-.562 1.299-.375.353-.843.538-1.404.538a1.92 1.92 0 0 1-1.367-.538 1.735 1.735 0 0 1-.562-1.299V64.661c0-.52.188-.947.562-1.3a1.92 1.92 0 0 1 1.367-.537c.468 0 .88.13 1.235.408.356.26.562.575.656.946h.299c.262-.408.655-.76 1.142-1.057.506-.297 1.011-.446 1.554-.446h1.46ZM264.834 63.306a5.957 5.957 0 0 1 2.303 2.153c.562.909.824 1.892.824 2.931v9.555c0 .52-.188.947-.562 1.3a1.917 1.917 0 0 1-1.367.537c-.468 0-.88-.148-1.198-.426a2.058 2.058 0 0 1-.655-1.02h-.337c-.412.519-.955.945-1.648 1.28a5.1 5.1 0 0 1-2.246.5 5.011 5.011 0 0 1-2.546-.668c-.768-.445-1.367-1.076-1.816-1.855a5.536 5.536 0 0 1-.656-2.672c0-1.596.562-2.876 1.667-3.878 1.123-1.002 2.639-1.484 4.586-1.484h2.884V68.39c0-.76-.225-1.373-.693-1.818-.468-.464-1.086-.687-1.835-.687-.43 0-.786.075-1.104.204-.3.13-.656.39-1.068.78-.355.334-.673.556-.973.686-.281.13-.618.186-.992.186-.45 0-.843-.149-1.142-.427a1.398 1.398 0 0 1-.468-1.076c0-.445.168-.89.486-1.317.319-.427.768-.835 1.311-1.188 1.179-.78 2.49-1.169 3.95-1.169a6.34 6.34 0 0 1 3.295.742Zm-.767 9.277h-2.884c-.692 0-1.273.204-1.703.613-.431.408-.655.964-.655 1.632 0 .65.205 1.17.599 1.54.393.39.936.576 1.61.576.524 0 1.067-.13 1.628-.409a4.454 4.454 0 0 0 1.423-1.039v-2.913h-.018ZM272.229 59.262c-.412-.371-.618-.854-.618-1.448 0-.575.206-1.057.618-1.447a2.198 2.198 0 0 1 1.517-.575c.58 0 1.085.185 1.497.575.412.39.618.854.618 1.447 0 .576-.206 1.058-.618 1.448a2.15 2.15 0 0 1-1.497.575c-.618 0-1.124-.186-1.517-.575Zm.112 19.982a1.734 1.734 0 0 1-.561-1.299V64.698c0-.52.187-.946.561-1.299a1.92 1.92 0 0 1 1.367-.538c.562 0 1.03.186 1.404.538.375.353.562.798.562 1.299v13.248c0 .52-.187.946-.562 1.298-.374.353-.842.538-1.404.538a1.92 1.92 0 0 1-1.367-.538ZM280.111 79.244a1.731 1.731 0 0 1-.562-1.299v-20.13c0-.52.187-.947.562-1.3a1.918 1.918 0 0 1 1.367-.538c.561 0 1.029.186 1.404.539.374.352.561.797.561 1.298v20.113c0 .52-.187.946-.561 1.299-.375.352-.843.538-1.404.538a1.854 1.854 0 0 1-1.367-.52ZM297.222 63.362c1.03.557 1.854 1.318 2.434 2.264.58.946.88 1.985.88 3.098v2.208c0 .575-.206 1.02-.618 1.336-.412.316-.917.464-1.516.464h-7.508v1.169c0 .853.263 1.54.805 2.06.543.519 1.255.779 2.135.779.58 0 1.086-.093 1.516-.26.431-.167.861-.445 1.292-.854.337-.315.637-.538.917-.649.262-.13.581-.185.955-.185.449 0 .824.148 1.105.426.281.297.43.65.43 1.076 0 .39-.131.78-.374 1.188a4.458 4.458 0 0 1-1.011 1.15c-.562.446-1.254.798-2.078 1.058-.824.26-1.723.39-2.715.39-1.292 0-2.452-.279-3.501-.835-1.048-.557-1.872-1.318-2.452-2.264a5.835 5.835 0 0 1-.88-3.099v-5.195c0-1.113.299-2.152.88-3.098.58-.947 1.404-1.707 2.434-2.264 1.029-.556 2.19-.835 3.444-.835 1.236.019 2.397.297 3.426.872Zm-5.523 3.303c-.542.52-.805 1.206-.805 2.022v.872h5.748v-.872c0-.835-.262-1.503-.786-2.022-.525-.52-1.217-.78-2.078-.78-.843-.018-1.536.242-2.079.78ZM307.388 72.045c-.356-.352-.524-.835-.524-1.41 0-.723.206-1.354.599-1.91.393-.557.974-1.188 1.741-1.912.861-.798 1.498-1.521 1.928-2.152.431-.631.637-1.373.637-2.245 0-.984-.243-1.744-.749-2.282-.505-.538-1.179-.798-2.022-.798-.655 0-1.217.13-1.703.408-.487.26-.993.742-1.536 1.447-.412.52-.767.872-1.067 1.058a1.943 1.943 0 0 1-1.029.278c-.581 0-1.068-.185-1.461-.575-.374-.371-.58-.854-.58-1.447 0-.78.374-1.596 1.142-2.412.693-.835 1.573-1.466 2.64-1.93a8.216 8.216 0 0 1 3.313-.686c1.442 0 2.715.296 3.82.872 1.104.575 1.965 1.391 2.546 2.449.599 1.057.898 2.263.898 3.618 0 .965-.149 1.8-.43 2.523-.3.724-.656 1.318-1.067 1.8-.412.482-.974 1.02-1.648 1.633a14.4 14.4 0 0 0-1.31 1.261c-.319.371-.562.761-.731 1.188-.262.668-.561 1.132-.898 1.391-.318.26-.73.39-1.198.39a1.916 1.916 0 0 1-1.311-.557Zm-.243 7.292c-.412-.408-.618-.928-.618-1.559 0-.63.206-1.15.618-1.558.412-.408.936-.612 1.572-.612.656 0 1.18.204 1.592.612.412.408.617.928.617 1.577 0 .63-.205 1.15-.617 1.559-.412.408-.936.612-1.573.612a2.229 2.229 0 0 1-1.591-.63Z" fill="#000"/><path d="M267.043 23.675c-.505-.52-.749-1.188-.749-2.004 0-1.02.281-1.93.843-2.727.562-.798 1.385-1.707 2.49-2.728 1.217-1.15 2.134-2.17 2.752-3.061.618-.89.917-1.967.917-3.21 0-1.41-.355-2.486-1.067-3.266-.711-.76-1.685-1.15-2.902-1.15-.936 0-1.741.186-2.433.575-.693.39-1.423 1.076-2.191 2.06-.58.742-1.086 1.243-1.516 1.503-.431.278-.936.408-1.479.408-.843 0-1.535-.278-2.078-.817-.543-.538-.824-1.224-.824-2.059 0-1.113.543-2.264 1.647-3.451.993-1.188 2.247-2.097 3.763-2.746a11.902 11.902 0 0 1 4.737-.983c2.059 0 3.875.408 5.467 1.243 1.572.835 2.789 2.004 3.65 3.488.861 1.503 1.273 3.228 1.273 5.176 0 1.373-.206 2.58-.636 3.6a9.39 9.39 0 0 1-1.517 2.56c-.599.687-1.385 1.466-2.34 2.32-.767.668-1.385 1.261-1.853 1.8a5.633 5.633 0 0 0-1.049 1.706c-.393.965-.805 1.615-1.273 1.986-.468.37-1.048.556-1.722.556-.768-.018-1.404-.278-1.91-.779Zm-.337 10.409c-.599-.594-.898-1.336-.898-2.227 0-.89.299-1.632.898-2.226.599-.594 1.348-.89 2.247-.89.936 0 1.685.278 2.265.853.581.575.861 1.317.861 2.245 0 .89-.299 1.633-.898 2.226-.599.594-1.348.89-2.247.89-.88.02-1.629-.277-2.228-.871Z" fill="#0EB2D3"/></g><defs><clipPath id="clip0_172_969"><path fill="#fff" d="M0 0h316v87H0z"/></clipPath></defs></svg>