<svg width="137" height="29" fill="none" xmlns="http://www.w3.org/2000/svg"><g clip-path="url('#clip0_140_1812')" fill="#000"><path d="M14.275.39c.676 0 1.256.219 1.715.633.434.439.676.975.676 1.584 0 .61-.217 1.146-.676 1.56-.46.439-1.015.634-1.715.634H10.7v21.81c0 .61-.217 1.146-.676 1.56-.46.414-1.015.634-1.715.634-.676 0-1.256-.22-1.715-.634-.459-.438-.676-.95-.676-1.56V4.802H2.39c-.676 0-1.256-.22-1.715-.634C.217 3.728 0 3.217 0 2.607c0-.609.217-1.145.676-1.56C1.136.61 1.691.39 2.391.39h11.884ZM29.105 9.041c.41.439.628.95.628 1.56v15.816c0 .585-.217 1.097-.628 1.535-.434.439-.942.658-1.546.658-.603 0-1.062-.146-1.376-.414a1.52 1.52 0 0 1-.532-.975h-.483c-.314.463-.797.878-1.425 1.243a4.222 4.222 0 0 1-2.15.56c-1.425 0-2.608-.536-3.55-1.632-.942-1.097-1.401-2.608-1.401-4.557V10.6c0-.61.217-1.145.652-1.56.435-.414.942-.633 1.522-.633.604 0 1.135.219 1.546.633.434.439.628.95.628 1.56v12.21c0 .682.193 1.242.58 1.608.386.39.917.584 1.593.584.677 0 1.232-.194 1.595-.584.386-.39.58-.926.58-1.609V10.601c0-.61.217-1.145.651-1.56.435-.414.942-.633 1.522-.633.652 0 1.184.219 1.594.633ZM41.834 24.418c.604 0 1.135.195 1.546.56.435.366.628.854.628 1.439 0 .584-.217 1.072-.628 1.438a2.32 2.32 0 0 1-1.546.56h-2.39c-1.474 0-2.706-.487-3.696-1.487-.99-.974-1.474-2.217-1.474-3.728V12.599c-.604 0-1.135-.195-1.546-.56-.434-.366-.628-.853-.628-1.438s.218-1.073.628-1.438a2.32 2.32 0 0 1 1.546-.56V5.604c0-.61.218-1.145.652-1.56.435-.414.942-.633 1.522-.633.604 0 1.135.219 1.546.633.41.439.628.95.628 1.56v2.997h2.391c.604 0 1.135.195 1.546.56.41.366.628.854.628 1.439 0 .585-.218 1.072-.628 1.438a2.32 2.32 0 0 1-1.546.56h-2.391v10.6c0 .39.096.708.266.902.169.196.41.293.724.293h2.222v.024ZM49.008 28.098c-1.063-.609-1.884-1.389-2.488-2.412a6.252 6.252 0 0 1-.918-3.29v-7.799c0-1.194.314-2.29.918-3.29.604-.999 1.45-1.803 2.488-2.412 1.063-.61 2.222-.902 3.526-.902 1.305 0 2.464.293 3.527.902 1.063.61 1.884 1.389 2.488 2.412.604 1 .918 2.096.918 3.29v7.799c0 1.194-.314 2.29-.918 3.29-.604.999-1.45 1.803-2.488 2.412-1.063.61-2.246.902-3.527.902-1.28 0-2.463-.293-3.526-.902Zm5.41-3.801c.46-.463.7-1.097.7-1.901v-7.799c0-.804-.24-1.437-.7-1.9-.459-.463-1.087-.707-1.884-.707-.797 0-1.425.243-1.884.707-.459.463-.7 1.096-.7 1.9v7.799c0 .804.241 1.438.7 1.9.46.464 1.087.707 1.884.707.797 0 1.425-.22 1.884-.706ZM71.785 8.212c.604 0 1.135.195 1.546.56.41.366.628.854.628 1.439 0 .585-.218 1.072-.628 1.438-.435.365-.942.56-1.546.56h-2.391c-.508 0-.918.195-1.28.61-.339.39-.508.925-.508 1.608V26.44c0 .585-.217 1.097-.628 1.535-.434.439-.942.658-1.545.658-.58 0-1.087-.22-1.522-.658-.435-.438-.652-.95-.652-1.535V10.6c0-.61.217-1.146.652-1.56.435-.414.942-.634 1.522-.634.458 0 .869.122 1.255.39.387.268.629.61.725 1h.387c.29-.464.676-.83 1.159-1.146.483-.317.966-.463 1.4-.463h1.426v.024ZM76.422 4.118c-.459-.463-.676-1.023-.676-1.73 0-.682.218-1.267.676-1.73.46-.463 1.015-.682 1.715-.682.677 0 1.256.219 1.715.682.46.463.676 1.023.676 1.73 0 .683-.217 1.267-.676 1.73-.459.463-1.014.683-1.715.683-.7 0-1.28-.22-1.715-.683Zm.17 23.834c-.435-.439-.653-.95-.653-1.535V10.6c0-.61.218-1.146.653-1.56.434-.414.942-.633 1.521-.633.604 0 1.135.219 1.546.633.435.439.628.95.628 1.56v15.816c0 .585-.217 1.096-.628 1.535-.435.439-.942.658-1.546.658-.58 0-1.087-.22-1.522-.658ZM93.427 8.846a6.233 6.233 0 0 1 2.294 2.267c.556.95.822 1.973.822 3.094v12.21c0 .584-.218 1.096-.629 1.535-.434.439-.942.658-1.545.658-.483 0-.894-.122-1.256-.39a1.95 1.95 0 0 1-.725-1h-.386c-.314.464-.797.878-1.425 1.244a4.222 4.222 0 0 1-2.15.56c-.87 0-1.69-.268-2.44-.78-.748-.511-1.352-1.267-1.835-2.242-.46-.974-.7-2.095-.7-3.387 0-1.925.579-3.436 1.714-4.533 1.16-1.096 2.754-1.657 4.807-1.657h2.174v-2.193c0-.683-.17-1.243-.532-1.609-.362-.39-.845-.584-1.45-.584-.361 0-.7.048-.965.17-.266.122-.604.366-1.015.707-.386.341-.749.585-1.063.73a3.023 3.023 0 0 1-1.11.196c-.508 0-.918-.17-1.28-.512-.339-.341-.508-.78-.508-1.291 0-.488.17-.95.507-1.438.339-.488.797-.926 1.377-1.316a7.194 7.194 0 0 1 4.082-1.243 5.88 5.88 0 0 1 3.237.804Zm-1.232 11.161H90.02c-.604 0-1.135.244-1.546.731-.435.488-.628 1.097-.628 1.877s.218 1.39.628 1.876c.435.488.942.732 1.546.732.362 0 .749-.098 1.16-.268a4.002 4.002 0 0 0 1.038-.732v-4.216h-.024ZM101.18 27.952c-.435-.439-.652-.95-.652-1.535V2.413c0-.61.217-1.146.652-1.56.435-.414.942-.634 1.522-.634.604 0 1.135.22 1.546.634.434.439.628.95.628 1.56v24.004c0 .585-.218 1.096-.628 1.535-.435.439-.942.658-1.546.658-.58 0-1.087-.22-1.522-.658ZM113.015 20.202v2.194c0 .804.242 1.438.701 1.9.459.464 1.087.707 1.884.707.507 0 .918-.097 1.28-.268.338-.195.7-.536 1.063-1.048.29-.365.604-.658.918-.828.314-.17.676-.268 1.111-.268.531 0 .966.17 1.28.511.338.342.507.756.507 1.292 0 .487-.145.975-.411 1.487-.265.511-.652.974-1.135 1.389a7.03 7.03 0 0 1-2.101 1.267 6.637 6.637 0 0 1-2.488.463c-1.304 0-2.464-.293-3.526-.902-1.063-.609-1.884-1.389-2.488-2.412a6.25 6.25 0 0 1-.918-3.29v-7.799c0-1.17.29-2.266.894-3.29.603-1.023 1.4-1.827 2.439-2.412 1.039-.61 2.174-.902 3.406-.902 1.232 0 2.391.293 3.405.902a6.84 6.84 0 0 1 2.44 2.412 6.29 6.29 0 0 1 .894 3.29v3.51c0 .804-.242 1.34-.725 1.632-.483.293-1.111.439-1.908.439h-6.522v.024Zm.653-7.506c-.435.464-.653 1.097-.653 1.901v1.804h4.759v-1.804c0-.804-.218-1.437-.653-1.9-.434-.463-1.014-.707-1.714-.707-.701 0-1.305.243-1.739.707ZM127.797 28.44c-.893-.366-1.618-.854-2.198-1.439-.845-.853-1.28-1.73-1.28-2.607 0-.512.169-.926.507-1.292.339-.34.773-.511 1.281-.511.459 0 .869.097 1.231.268.363.195.773.511 1.184.999.362.438.725.73 1.063.877.338.17.7.244 1.087.244.579 0 1.062-.17 1.425-.512.362-.341.555-.78.555-1.292 0-.658-.241-1.218-.7-1.608-.459-.414-1.232-.902-2.271-1.51-.99-.537-1.787-1.024-2.439-1.512-.652-.463-1.208-1.12-1.643-1.95-.459-.828-.676-1.851-.676-3.046 0-.974.266-1.925.797-2.778a5.694 5.694 0 0 1 2.15-2.071c.894-.512 1.908-.756 3.019-.756.942 0 1.836.147 2.609.463.797.317 1.449.707 1.98 1.17a3.8 3.8 0 0 1 .846 1.146c.193.414.29.828.29 1.218 0 .512-.17.926-.508 1.292-.338.34-.773.511-1.28.511-.386 0-.749-.048-1.038-.17-.29-.122-.604-.341-.942-.707-.314-.341-.628-.585-.942-.731a2.858 2.858 0 0 0-1.063-.195c-.483 0-.87.17-1.16.487a1.595 1.595 0 0 0-.434 1.121c0 .658.241 1.219.7 1.609.459.414 1.232.926 2.271 1.51.966.537 1.787 1.024 2.439 1.512.652.463 1.208 1.12 1.643 1.95.458.828.676 1.851.676 3.045 0 1.073-.266 2.047-.821 2.925-.532.877-1.305 1.584-2.271 2.096-.966.511-2.053.78-3.261.78-.99.024-1.956-.147-2.826-.537Z"/></g><defs><clipPath id="clip0_140_1812"><path fill="#fff" d="M0 0h137v29H0z"/></clipPath></defs></svg>