<svg width="93" height="75" fill="none" xmlns="http://www.w3.org/2000/svg"><g clip-path="url('#clip0_140_3328')" fill="#000"><path d="M28.808 72.32c0 .665.013 1.296-.007 1.922-.013.345-.198.631-.53.705-.324.073-.695.1-.92-.273.073-.073.152-.14.245-.233.159.2.358.306.576.166.186-.113.364-.272.239-.545-.14.007-.206.14-.351.146-.47.027-.729-.146-.775-.612-.033-.332-.033-.671.086-.997a.477.477 0 0 1 .563-.306c.291.08.57.1.874.026Zm-.358.957v-.226c.007-.246-.08-.426-.344-.439-.278-.02-.39.16-.424.412-.006.074-.006.147-.006.227 0 .478.106.665.404.665.284 0 .37-.153.37-.639ZM39.238 72.333v2.508c0 .04-.006.08-.013.12a.696.696 0 0 1-.35 0v-.872c-.166-.033-.22.113-.345.126-.477.067-.775-.146-.828-.632-.033-.326-.026-.651.086-.964.1-.273.37-.38.583-.313.291.087.556.04.867.027Zm-.364.931v-.253c0-.226-.1-.372-.324-.392-.219-.02-.371.08-.417.3-.053.252-.06.505.013.758.06.192.218.252.404.239.198-.013.31-.126.324-.326.007-.113 0-.22 0-.326ZM32.543 72.586c.252-.286.636-.373 1.027-.22.317.12.384.4.39.692.014.372 0 .745 0 1.164-.397-.073-.775.04-1.152-.013-.384-.054-.338-.38-.344-.659 0-.253.125-.386.364-.412.179-.02.364-.007.543-.007.112 0 .238-.02.232-.146 0-.133-.053-.286-.219-.306-.146-.02-.318-.047-.444.006-.165.074-.271-.006-.397-.1Zm1.08.798c-.219 0-.398-.007-.577 0-.132.007-.218.093-.238.22-.02.139.04.252.172.305.186.073.384.08.55-.026.179-.12.08-.306.093-.5ZM57.795 72.586c.265-.286.655-.373 1.04-.22.33.133.384.42.39.725.007.34 0 .685 0 1.025 0 .02-.013.04-.033.093-.37-.094-.748.046-1.12-.014-.383-.06-.337-.385-.337-.665 0-.253.133-.386.371-.406.166-.02.338-.006.51-.006.12 0 .265 0 .258-.153-.006-.14-.053-.3-.252-.306-.139 0-.297-.04-.41.013-.172.087-.272.007-.417-.086Zm1.086.798c-.206 0-.39-.007-.583 0-.132.007-.218.093-.238.22-.02.139.04.252.178.299.186.073.385.08.55-.027.179-.113.086-.3.093-.492ZM19.523 74.209c-.53 0-.781-.313-.741-1.018.04-.738.211-.851.814-.898.53-.04.775.32.775 1.031-.007.625-.258.891-.848.885Zm.484-.845v-.306c-.014-.246-.146-.412-.385-.426-.264-.013-.417.153-.443.406-.02.18-.027.36.02.539.06.22.198.326.417.312.225-.006.35-.133.384-.352.007-.087.007-.173.007-.173ZM25.742 73.25c0 .779-.391 1.111-1.113.952-.318-.073-.424-.386-.47-.672a1.617 1.617 0 0 1 .093-.865c.132-.332.443-.366.735-.372.311-.007.576.126.689.452.06.173.086.352.066.505Zm-.358-.013c-.006-.066 0-.126-.006-.193-.014-.252-.16-.405-.398-.412-.245-.007-.397.153-.424.392-.02.18-.013.366.014.54.04.232.192.345.43.332.225-.014.344-.147.37-.366.008-.1.008-.2.014-.293ZM53.238 73.284c0 .745-.397 1.07-1.119.924-.145-.033-.225-.153-.304-.259-.226-.3-.232-1.058-.027-1.37.133-.206.55-.333.854-.266.365.086.557.312.596.718.007.08 0 .166 0 .253Zm-.35-.014c-.014-.112-.014-.232-.04-.345-.04-.2-.199-.28-.371-.293-.166-.007-.325.066-.384.233-.093.266-.1.545.006.811.067.173.219.22.391.213.179-.007.305-.1.351-.273.04-.106.033-.232.046-.346ZM86.232 73.244c0 .778-.378 1.11-1.106.951-.325-.066-.43-.38-.477-.665a1.555 1.555 0 0 1 .093-.865c.132-.326.443-.372.735-.372.311-.007.576.126.695.452.053.173.086.346.06.499Zm-.351.04h-.007c0-.087.007-.173 0-.26-.013-.24-.152-.385-.377-.399-.245-.02-.41.133-.437.373-.02.18-.02.366.006.538.033.227.179.36.424.346.245-.006.364-.153.39-.385a1.144 1.144 0 0 1 0-.213ZM10.98 73.975c-.51.373-1.126.32-1.344-.12-.225-.452-.186-.904.086-1.316.152-.233.424-.26.675-.24.292.027.497.2.59.492.053.18.092.366.086.6H9.907c.047.465.278.611.663.445.218-.093.218-.093.41.14Zm-.252-.864c-.013-.273-.099-.486-.397-.492-.298-.007-.417.2-.444.492h.841ZM64.523 73.39h-1.159c.033.453.278.612.65.433.191-.093.31-.073.403.12-.265.266-.86.372-1.139.166-.291-.22-.457-.805-.218-1.384a.756.756 0 0 1 .847-.425c.437.106.63.439.616 1.09Zm-.338-.279c-.013-.3-.119-.505-.41-.499-.291.007-.41.207-.417.5h.827ZM45.596 73.39h-1.159c.027.453.265.606.65.446.224-.093.224-.093.403.113-.252.273-.848.36-1.139.173-.291-.186-.417-.898-.245-1.37.112-.3.51-.512.841-.452.444.073.656.419.649 1.09Zm-.351-.279c-.013-.34-.159-.512-.404-.499-.252.014-.384.18-.39.5h.794ZM78.894 72.353h.318v.984c0 .406.106.566.358.56.284-.008.423-.187.423-.56v-.95c.12-.08.226-.034.345-.054v1.876c-.126-.034-.265.086-.364-.1-.034-.067-.106-.007-.166.02-.437.186-.967.12-.94-.559.013-.372 0-.745 0-1.124.006-.02.013-.053.026-.093ZM42.424 74.209c-.16-.02-.331.08-.404-.14-.39.22-.722.193-.94-.033a.38.38 0 0 1-.106-.28v-1.39c.086-.066.185-.033.317-.013 0 .34-.006.678 0 1.018.007.372.12.525.365.518.271-.013.417-.193.417-.538v-.978c.126-.06.232-.04.35-.027v1.863ZM74.848 74.201c-.16 0-.318.06-.398-.12-.417.194-.728.18-.933-.026-.08-.08-.126-.153-.126-.273.006-.465 0-.937 0-1.416.086-.067.192-.013.311-.034 0 .36-.007.692 0 1.018.007.246.007.512.344.539.292.02.438-.18.444-.545v-.998h.351c.007.618.007 1.224.007 1.855ZM7.325 74.222v-2.308h-.663c-.086-.113-.06-.213-.033-.326h1.755c.073.086.04.186.02.313h-.689v2.268c-.132.08-.245.02-.39.053ZM16.026 74.195h-.324v-1.836c.278-.026.278-.026.358.173.218-.24.47-.32.761-.166.285.153.358.419.351.718-.006.36 0 .725 0 1.084-.112.06-.212.047-.338.014 0-.34-.006-.679 0-1.018 0-.16-.046-.28-.159-.4-.139-.152-.297-.139-.463-.092-.166.046-.179.206-.186.339-.006.38 0 .765 0 1.184ZM14.146 72.572c-.14.206-.265.266-.504.127-.264-.16-.516-.027-.602.279-.06.206-.06.42.02.625.112.293.364.393.622.22.192-.133.318-.087.437.093-.225.313-.9.412-1.198.173-.332-.266-.404-1.184-.12-1.537.272-.346.94-.339 1.345.02ZM56.291 72.572c-.132.193-.258.28-.496.133-.278-.166-.55-.026-.616.293-.04.186-.047.379.02.565.119.333.357.44.655.246.219-.146.318-.026.43.127-.277.312-.953.385-1.231.14-.325-.293-.377-1.205-.086-1.544.278-.326.907-.312 1.324.04ZM71.543 74.195h-.338v-1.49c-.212-.08-.397-.166-.119-.379.046-.033.06-.073.066-.126.086-.659.093-.659.735-.599a.407.407 0 0 1 0 .266c-.384.067-.384.067-.344.466h.291c.106.08.06.166.053.266a9.075 9.075 0 0 0-.357.026c.013.533.013 1.038.013 1.57ZM49.782 72.692c0 .28-.007.572 0 .858 0 .146-.06.32.198.353.12.013.04.18.047.272-.517.067-.603-.006-.603-.505 0-.253.007-.512 0-.765 0-.1.06-.233-.133-.273-.112-.026-.072-.226-.046-.24.305-.126.106-.412.205-.605a.642.642 0 0 1 .318-.006v.465c.053.167.272 0 .278.233.007.22-.172.133-.264.213ZM77.232 74.202c-.583.013-.63-.033-.63-.559 0-.246.007-.492 0-.738 0-.106.054-.233-.132-.266-.106-.02-.066-.2-.046-.213.271-.146.145-.419.205-.638h.325v.538c.159.034.37.034.231.306-.06.014-.132.027-.225.047 0 .306-.006.592 0 .878 0 .146-.06.32.199.352.126.014.026.18.073.293ZM22.722 73.896v.293c-.603.06-.636.026-.636-.552V71.62c.106-.08.212-.026.338-.046 0 .685.006 1.343 0 2.002-.007.213.033.366.298.319ZM66.543 71.568c0 .685.007 1.337 0 1.982 0 .22.02.392.305.34v.292a.912.912 0 0 1-.464 0c-.106-.033-.172-.14-.165-.28.006-.764 0-1.536 0-2.32.099 0 .192-.007.324-.014ZM82.404 74.195h-.325v-1.85c.146.008.318-.105.338.2.272-.272.556-.359.868-.1-.04.127-.133.2-.219.273-.49-.186-.662-.066-.669.46.007.325.007.658.007 1.017ZM30.543 72.36c.1-.04.192-.027.298-.014v1.83c-.08.066-.179.026-.298.02V72.36ZM69.543 64.91v2.654c0 .472-.212.691-.675.685-.444-.007-.616-.167-.616-.619-.007-1.676 0-3.352 0-5.028 0-.373.159-.619.41-.679.391-.093.768.047.92.386.24.506.445 1.024.663 1.543.179.44.358.878.53 1.317.026.073.066.087.165.073v-.871c0-.639-.006-1.284.007-1.922.007-.38.179-.526.57-.526.417-.006.662.186.688.539.007.066.007.14.007.206v4.79c0 .584-.245.817-.821.79-.225-.006-.371-.106-.477-.312-.265-.492-.437-1.018-.656-1.53-.218-.505-.43-1.01-.642-1.516a.172.172 0 0 1-.073.02ZM63.338 65.256v-2.64c0-.154-.027-.32.06-.46.119-.2.456-.306.76-.226a.574.574 0 0 1 .438.492c.013.08.007.16.007.24 0 1.61-.014 3.212.006 4.822.007.598-.37.871-.96.758-.152-.027-.258-.14-.344-.28-.265-.472-.418-.99-.65-1.476-.244-.512-.43-1.057-.642-1.603-.119.087-.073.193-.073.28-.006.811 0 1.616 0 2.427 0 .34-.139.572-.397.652-.278.093-.662-.02-.841-.253-.08-.106-.053-.226-.053-.332-.007-1.124-.007-2.248-.007-3.373v-1.682c0-.353.16-.599.398-.659.37-.1.761.027.914.346.245.512.463 1.038.682 1.563.185.446.357.898.536 1.344.027.046.066.06.166.06ZM2.821 64.97c.523.206.828.545.907 1.037.153.951-.072 1.563-.92 2.035-.185.1-.424.127-.642.133-.537.02-1.08 0-1.616.014-.305.006-.55-.28-.55-.572.007-1.683 0-3.373.007-5.055 0-.32.145-.532.463-.552.709-.04 1.43-.12 2.126.093.603.186.974.738 1 1.37.02.632-.146 1.157-.775 1.496Zm-1.503.631v1.444c.894.093 1.179-.087 1.179-.712 0-.605-.186-.818-1.18-.732Zm-.007-2.494v1.384c.318-.06.682.14.9-.22a.875.875 0 0 0 .008-.931c-.206-.36-.57-.186-.908-.233ZM57.046 65.242c-.04.44.06 1.025-.06 1.603-.178.845-.78 1.397-1.622 1.504-.715.093-1.404-.014-1.907-.606a1.886 1.886 0 0 1-.45-1.29c.006-.958 0-1.91-.027-2.867-.013-.612.523-1.41 1.199-1.643.649-.22 1.304-.213 1.92.127.63.346.894.93.94 1.61.034.478.007.957.007 1.562Zm-1.298-.146v-1.304c-.013-.512-.265-.805-.695-.818-.45-.006-.722.253-.728.772a60.48 60.48 0 0 0 0 2.687c.013.512.284.765.741.751.417-.013.67-.305.676-.798.013-.425.006-.858.006-1.29ZM8.424 65.888v1.656c0 .372-.126.598-.384.691-.265.1-.61 0-.821-.22-.133-.132-.08-.292-.08-.438-.007-.984-.007-1.975-.007-2.96v-2.042c0-.326.14-.539.457-.559.69-.04 1.391-.113 2.073.074.682.186 1 .711 1.113 1.363.06.34.053.685-.02 1.025-.086.412-.272.771-.642 1.01.278.592.543 1.158.808 1.73.112.246.178.485.046.751-.172.346-.88.46-1.113.007-.245-.479-.443-.984-.655-1.477-.073-.172-.153-.345-.219-.525-.033-.087-.093-.087-.159-.087h-.397Zm.02-2.774v1.636c.33-.08.722.14.947-.253a1.1 1.1 0 0 0 .006-1.13c-.218-.393-.602-.213-.953-.253ZM16.781 66.719c-.364 0-.721.013-1.072-.007-.18-.006-.239.08-.272.227-.06.266-.106.532-.179.791-.119.432-.516.639-.94.512-.239-.073-.41-.552-.325-.871.318-1.177.63-2.348.934-3.525.133-.506.212-1.038.45-1.517.192-.392.411-.539.815-.519a.828.828 0 0 1 .775.612c.165.546.298 1.098.444 1.65.291 1.11.563 2.228.88 3.332.12.413-.053.765-.384.852-.463.12-.854-.12-.907-.586-.053-.332-.185-.618-.219-.951Zm-.185-1.177c-.159-.612-.232-1.21-.49-1.776-.126.585-.252 1.17-.378 1.776h.868ZM40.675 63.154v1.377c.365 0 .729-.007 1.1.006.232.007.43.087.543.326.093.2.073.386-.046.552-.126.18-.325.246-.537.246H40.69v1.364h1.596c.179 0 .344.033.503.126.239.147.278.38.225.619-.053.246-.245.419-.49.419-.894.013-1.788.007-2.675-.007a.484.484 0 0 1-.464-.485 683.172 683.172 0 0 1 0-5.202c0-.292.212-.485.563-.492a58.67 58.67 0 0 1 2.417 0c.338.007.616.313.603.599-.013.253-.278.565-.669.559-.536-.014-1.066-.007-1.623-.007ZM77.093 63.154v1.377c.37 0 .735-.014 1.106.006.231.007.43.093.543.326.093.2.073.386-.053.552-.126.18-.325.24-.537.24h-1.046v1.363c.55 0 1.106-.006 1.662 0 .45.007.696.253.676.659-.014.253-.239.505-.504.505-.88.007-1.768.007-2.649-.006a.49.49 0 0 1-.49-.493 672.975 672.975 0 0 1 0-5.2c0-.3.232-.486.596-.493.788-.013 1.57-.013 2.358 0 .351.007.642.313.63.605-.014.26-.292.559-.67.559-.536-.007-1.066 0-1.622 0ZM82.51 65.169c0-.552-.02-1.104.007-1.65.026-.705.602-1.396 1.337-1.61.808-.232 1.537-.086 2.133.533.205.213.377.465.298.811-.06.266-.225.4-.464.46-.225.06-.43.04-.596-.16a7.144 7.144 0 0 1-.179-.233.68.68 0 0 0-.788-.273c-.278.093-.404.326-.404.612-.006.958-.006 1.909 0 2.867.007.332.225.559.563.638.232.054.537-.106.696-.346.165-.246.37-.452.708-.399.245.04.43.147.523.4.113.312-.006.572-.198.804a1.948 1.948 0 0 1-1.219.705c-.722.113-1.397.014-1.914-.558a1.807 1.807 0 0 1-.483-1.337c.02-.426.007-.845.007-1.27-.007.006-.02.006-.027.006ZM47.377 65.096c0 .472-.006.944 0 1.417.007.339.219.558.557.645.238.06.543-.093.702-.333.165-.246.357-.459.702-.412.265.033.457.16.536.419.1.3-.013.559-.199.785-.324.399-.748.645-1.244.718-.729.107-1.424 0-1.934-.599-.312-.359-.457-.798-.45-1.29.006-.951 0-1.909-.027-2.86-.013-.559.516-1.33 1.126-1.596.854-.38 1.828-.12 2.33.419.107.113.2.24.266.386.152.325.086.671-.186.83-.271.16-.616.207-.867-.119-.073-.093-.146-.18-.212-.273-.192-.252-.464-.232-.715-.166-.259.067-.378.3-.385.559-.006.486 0 .978 0 1.47ZM90.41 63.147c-.278 0-.51.007-.748 0-.271-.007-.516-.2-.536-.419-.033-.346.026-.605.384-.698.106-.027.212-.04.318-.04h2.444c.172 0 .33.026.463.133.186.146.318.332.239.585-.087.273-.299.426-.577.452-.225.02-.443.007-.695.007v4.39c0 .372-.12.625-.384.685-.298.066-.596.08-.821-.213-.12-.153-.08-.313-.08-.472-.006-1.357-.006-2.72-.006-4.077v-.333ZM34.238 67.011c.444 0 .855.007 1.265 0 .16 0 .312.027.444.107.225.14.344.352.285.619a.566.566 0 0 1-.55.452c-.762.013-1.53.006-2.291-.007-.239-.007-.43-.253-.43-.519-.007-.598-.007-1.204-.007-1.802v-3.253c0-.525.159-.685.675-.678.417 0 .623.233.623.712-.014 1.436-.014 2.886-.014 4.37ZM27.755 67.012c.444 0 .854.006 1.258 0 .16 0 .318.026.444.106.225.133.344.353.285.619a.566.566 0 0 1-.55.452c-.762.013-1.53.007-2.291-.007-.239-.006-.43-.246-.43-.519-.007-.558-.007-1.124-.007-1.682v-3.373c0-.525.165-.685.668-.685.418 0 .623.233.623.705v4.384ZM21.583 65.096v-2.687c0-.166.093-.3.212-.386.218-.153.476-.146.715-.053.245.086.357.286.357.545v5.135c0 .3-.205.552-.456.599-.391.073-.716-.06-.822-.366-.033-.1 0-.226 0-.34v-2.447h-.006ZM47.007 24.517c.702 0 1.265.558 1.258 1.243-.007.646-.656 1.317-1.272 1.29a1.335 1.335 0 0 1-1.245-1.303c-.013-.685.55-1.224 1.259-1.23ZM58.49 26.984c-.768.06-1.278-.691-1.252-1.244.034-.698.537-1.243 1.305-1.23.709.007 1.219.652 1.219 1.244 0 .605-.537 1.27-1.272 1.23ZM56.603 44.73c.006.745-.736 1.283-1.245 1.29-.702.007-1.245-.585-1.298-1.284-.047-.678.582-1.21 1.423-1.237.537-.013 1.113.625 1.12 1.23ZM55.39 25.767c-.006.659-.608 1.317-1.238 1.284-.708-.034-1.271-.619-1.251-1.317a1.226 1.226 0 0 1 1.291-1.217c.682.013 1.205.552 1.199 1.25ZM32.457 32.97c.728-.006 1.291.5 1.285 1.224-.007.739-.523 1.27-1.444 1.277-.49 0-1.113-.685-1.086-1.243.026-.686.55-1.27 1.245-1.258ZM44.801 29.99c.133.606-.715 1.284-1.178 1.284-.789 0-1.332-.738-1.312-1.31.02-.605.464-1.217 1.292-1.224.688 0 1.284.559 1.198 1.25ZM28.603 26.997c-.616.134-1.245-.565-1.252-1.197 0-.612.364-1.177 1.159-1.237.88-.066 1.338.532 1.364 1.224.02.552-.47 1.297-1.271 1.21ZM69.98 24.503c.742 0 1.245.5 1.272 1.217.026.692-.464 1.27-1.391 1.284-.523.007-1.106-.665-1.106-1.27-.007-.619.576-1.29 1.225-1.23ZM22.543 41.344c.007-.691.563-1.19 1.291-1.197.755-.007 1.226.712 1.206 1.25-.027.639-.603 1.238-1.212 1.231-.768-.013-1.285-.532-1.285-1.284ZM71.245 29.95c.06.566-.437 1.264-1.252 1.244-.688-.013-1.238-.545-1.238-1.23 0-.619.503-1.27 1.285-1.25.635.026 1.245.478 1.205 1.237ZM31.278 40.852c-.093-.718.55-1.217 1.205-1.237.643-.02 1.272.505 1.265 1.217-.006.698-.523 1.29-1.457 1.27-.516-.006-1.013-.618-1.013-1.25ZM67.47 25.754c.08.545-.53 1.263-1.185 1.25-.769-.02-1.318-.505-1.305-1.23.013-.665.464-1.264 1.239-1.257.682.013 1.271.518 1.251 1.237ZM43.57 35.404c-.71 0-1.265-.552-1.259-1.237.014-.651.61-1.224 1.305-1.197.722.027 1.225.486 1.218 1.284 0 .652-.55 1.15-1.265 1.15ZM51.358 45.96c-.643.02-1.206-.525-1.226-1.177-.02-.665.517-1.217 1.16-1.257.8-.047 1.33.446 1.364 1.177.033.705-.623 1.324-1.298 1.257ZM62.285 31.195c-.729.046-1.239-.719-1.179-1.27.08-.78.543-1.198 1.291-1.192a1.24 1.24 0 0 1 1.226 1.31c-.047.759-.782 1.231-1.338 1.152ZM51.338 42.036c-.702-.02-1.219-.552-1.206-1.257.014-.672.61-1.21 1.332-1.177.695.033 1.198.472 1.165 1.33-.026.658-.563 1.124-1.291 1.104ZM37.046 42.076c-.602.02-1.212-.605-1.212-1.23 0-.652.583-1.238 1.245-1.238.716 0 1.265.473 1.292 1.23.026.706-.543 1.218-1.325 1.238ZM43.636 42.07c-.709.006-1.318-.54-1.312-1.205.014-.645.49-1.244 1.265-1.257a1.241 1.241 0 0 1 1.259 1.21c.006.566-.398 1.258-1.212 1.251ZM58.457 32.964a1.228 1.228 0 0 1 1.311 1.217c.007.665-.543 1.21-1.205 1.23-.894.02-1.285-.552-1.311-1.217a1.18 1.18 0 0 1 1.205-1.23ZM28.57 31.201c-.683-.013-1.285-.585-1.219-1.23.073-.692.497-1.237 1.364-1.21.67.02 1.166.611 1.166 1.216 0 .732-.563 1.238-1.311 1.224ZM28.132 45.967c-.662-.006-1.205-.479-1.198-1.064.006-.891.463-1.397 1.278-1.37.748.02 1.185.492 1.199 1.224.013.651-.477 1.263-1.279 1.21ZM23.762 49.758c-.722-.013-1.232-.552-1.219-1.284.013-.678.583-1.183 1.344-1.15.735.033 1.133.479 1.166 1.23.026.619-.583 1.29-1.291 1.204ZM37.801 25.774c-.02-.725.47-1.244 1.192-1.237.755.006 1.225.465 1.279 1.204.04.565-.49 1.263-1.186 1.263-.781-.006-1.265-.452-1.285-1.23ZM66.47 35.398c-.689.007-1.218-.505-1.225-1.177-.007-.738.49-1.25 1.225-1.257.722-.007 1.232.492 1.278 1.177.04.572-.556 1.35-1.278 1.257ZM25.04 34.274c.006.712-.709 1.237-1.259 1.23-.682-.006-1.192-.458-1.192-1.323 0-.718.497-1.244 1.232-1.204.702.034 1.232.512 1.219 1.297ZM32.47 45.967c-.735-.013-1.238-.545-1.225-1.297.013-.672.59-1.157 1.351-1.137.623.013 1.192.605 1.152 1.27-.04.672-.57 1.178-1.278 1.164ZM28.503 35.452c-.41.08-1.086-.44-1.165-1.211-.06-.585.563-1.224 1.205-1.27.768-.054 1.272.552 1.331 1.157.073.738-.49 1.257-1.37 1.324ZM23.722 26.997c-.523.007-1.159-.512-1.172-.957-.027-.925.397-1.444 1.165-1.484a1.228 1.228 0 0 1 1.318 1.204c0 .566-.397 1.277-1.311 1.237ZM26.954 48.494c-.06-.698.609-1.21 1.238-1.197.656.013 1.212.552 1.225 1.21a1.221 1.221 0 0 1-1.205 1.251c-.795.013-1.245-.439-1.258-1.264ZM48.258 40.812c.04.586-.483 1.244-1.145 1.258-.828.013-1.292-.48-1.351-1.191-.047-.579.43-1.257 1.218-1.27.709-.02 1.245.478 1.278 1.203ZM40.179 45.967c-.802.08-1.212-.652-1.239-1.217-.033-.712.557-1.21 1.325-1.224.556-.013 1.218.612 1.172 1.257-.046.679-.55 1.19-1.258 1.184ZM37.94 29.97a1.252 1.252 0 0 1-1.231 1.251c-.822 0-1.239-.605-1.272-1.21-.04-.706.523-1.238 1.245-1.244.702-.007 1.252.518 1.258 1.204ZM51.331 31.2c-.695-.032-1.172-.544-1.165-1.236.006-.792.563-1.284 1.39-1.204a1.215 1.215 0 0 1 1.073 1.284c-.02.592-.596 1.25-1.298 1.157ZM61.623 41.018c-.365-.771-.782-1.53-1.12-2.314-.437-1.011-1.516-1.324-2.384-.978-.563.226-1.126.479-1.33 1.144-.14.452-.094.885.105 1.303l.483 1.032c-.02.013.2.359.18.365l.284.612c.841 1.816 1.695 3.625 2.543 5.441.192.412.378.818.59 1.277-.338-.093-.61-.18-.888-.246-.947-.226-1.788-.06-2.463.685-.358.392-.484.871-.391 1.397.119.672.503 1.19 1.04 1.563 2.178 1.503 4.37 2.986 6.556 4.476a4.443 4.443 0 0 1 1.563 1.863c.33.745.94 1.004 1.702.691 2.165-.891 4.324-1.789 6.49-2.68.761-.313 1.192-.951 1.159-1.776-.047-1.27-.12-2.534-.172-3.805a8.262 8.262 0 0 0-.742-3.159c-.47-1.011-.9-2.042-1.358-3.06-.238-.525-.417-1.084-.755-1.57-.49-.711-1.324-1.03-2.152-.611-.291.146-.603.266-.9.412-.173.087-.299.093-.47-.046-.504-.406-1.067-.5-1.67-.2-.311.153-.642.273-.947.432-.212.114-.35.093-.543-.06-.576-.472-1.218-.591-1.92-.272-.418.193-.841.372-1.279.565-.291-.592-.57-1.157-.86-1.756.033 0-.067-.093-.04-.093-.093-.166-.14-.306-.14-.306s-.125-.22-.171-.326Z"/><path d="M82.768 24.184a39.396 39.396 0 0 0-8.45-12.584 39.235 39.235 0 0 0-12.536-8.487C56.927 1.044 51.762 0 46.437 0a39.008 39.008 0 0 0-15.35 3.113 39.207 39.207 0 0 0-12.53 8.487 39.577 39.577 0 0 0-8.45 12.584c-2.06 4.882-3.1 10.07-3.1 15.418 0 5.347 1.04 10.529 3.1 15.418.536 1.27 1.132 2.5 1.787 3.698.252.459.742.745 1.265.745 1.106 0 1.795-1.191 1.265-2.162a36.646 36.646 0 0 1-4.536-17.7c0-20.24 16.397-36.708 36.55-36.708 20.152 0 36.549 16.469 36.549 36.709A36.646 36.646 0 0 1 78.451 57.3c-.537.971.159 2.162 1.264 2.162.524 0 1.014-.286 1.265-.745a40.411 40.411 0 0 0 1.788-3.699c2.06-4.881 3.1-10.07 3.1-15.417 0-5.348-1.04-10.53-3.1-15.418Z"/></g><defs><clipPath id="clip0_140_3328"><path fill="#fff" d="M0 0h93v75H0z"/></clipPath></defs></svg>