<svg width="240" height="37" fill="none" xmlns="http://www.w3.org/2000/svg"><g clip-path="url('#clip0_172_1031')" fill="#000"><path d="M.779 36.044C.259 35.554 0 34.94 0 34.204V7.847c0-.833.283-1.52.873-2.108.59-.564 1.274-.859 2.1-.859 1.368 0 2.5.834 3.42 2.526l9.178 17.63h.424V7.405c0-.711.26-1.3.779-1.79s1.132-.736 1.887-.736c.731 0 1.368.246 1.887.736.52.49.779 1.079.779 1.79v26.358c0 .834-.307 1.545-.896 2.134-.59.588-1.298.882-2.1.882-1.369 0-2.5-.858-3.42-2.574l-9.155-17.58h-.424v17.58c0 .735-.26 1.348-.779 1.839-.519.49-1.156.735-1.887.735-.755 0-1.392-.245-1.887-.735ZM42.23 14.883c.471.466.707 1.055.707 1.717v17.507c0 .686-.236 1.25-.708 1.716a2.358 2.358 0 0 1-1.722.711c-.731 0-1.297-.196-1.651-.564-.378-.392-.59-.833-.637-1.324h-.472c-.401.662-1.014 1.202-1.864 1.668-.85.465-1.746.686-2.76.686a5.877 5.877 0 0 1-3.303-.98c-1.014-.638-1.817-1.57-2.406-2.747-.59-1.177-.897-2.525-.897-4.021V16.624c0-.686.236-1.25.708-1.716.472-.466 1.062-.711 1.77-.711.683 0 1.25.245 1.722.711.471.466.707 1.054.707 1.716v12.628c0 1.005.307 1.814.897 2.403.59.613 1.415.907 2.43.907.99 0 1.793-.294 2.383-.907.59-.613.896-1.422.896-2.403V16.624c0-.686.236-1.25.708-1.716.472-.466 1.061-.711 1.77-.711.683-.024 1.25.22 1.721.687ZM60.324 14.835c1.298.735 2.336 1.74 3.067 2.99a8 8 0 0 1 1.11 4.096v2.918c0 .76-.26 1.348-.78 1.765-.518.417-1.155.613-1.91.613h-9.46v1.545c0 1.128.33 2.035 1.014 2.721.684.687 1.58 1.03 2.69 1.03.73 0 1.368-.122 1.91-.343.543-.22 1.085-.589 1.628-1.128.425-.417.802-.711 1.156-.858.33-.172.731-.245 1.203-.245.567 0 1.038.196 1.392.564.354.392.543.858.543 1.422 0 .515-.165 1.03-.472 1.569a5.783 5.783 0 0 1-1.274 1.52c-.708.589-1.58 1.054-2.619 1.398-1.038.343-2.17.515-3.42.515-1.628 0-3.091-.368-4.412-1.104-1.321-.735-2.36-1.74-3.09-2.991a7.999 7.999 0 0 1-1.11-4.095v-6.865c0-1.471.378-2.845 1.11-4.095.73-1.25 1.769-2.256 3.066-2.992 1.298-.735 2.76-1.103 4.341-1.103 1.557.05 3.02.417 4.317 1.152Zm-6.936 4.364c-.684.687-1.014 1.594-1.014 2.673v1.177h7.243v-1.153c0-1.103-.33-1.986-.991-2.672-.66-.687-1.534-1.03-2.619-1.03-1.085-.025-1.934.319-2.619 1.005ZM71.53 36.313c-1.061-.466-1.981-1.03-2.76-1.74a6.037 6.037 0 0 1-1.203-1.57c-.283-.54-.424-1.054-.424-1.52 0-.564.188-1.03.59-1.422.4-.392.872-.564 1.438-.564.472 0 .92.098 1.322.319.4.196.825.588 1.273 1.152.52.588 1.015 1.005 1.51 1.275.496.245 1.062.368 1.723.368.967 0 1.722-.22 2.288-.687.543-.466.826-1.005.826-1.667 0-.736-.307-1.324-.944-1.716-.637-.417-1.628-.883-3.02-1.423a22.948 22.948 0 0 1-3.303-1.422c-.873-.466-1.604-1.152-2.24-2.06-.638-.907-.944-2.034-.944-3.432 0-1.128.306-2.182.943-3.139.614-.98 1.51-1.765 2.642-2.378 1.133-.613 2.43-.907 3.87-.907 1.226 0 2.335.196 3.326.564.99.367 1.84.858 2.524 1.495.991.981 1.487 1.913 1.487 2.845 0 .564-.19 1.03-.567 1.422-.377.392-.849.564-1.439.564-.424 0-.802-.074-1.156-.245a4.33 4.33 0 0 1-1.109-.859 5.252 5.252 0 0 0-1.439-1.03 4.24 4.24 0 0 0-1.651-.318c-.802 0-1.416.196-1.887.564-.449.392-.685.858-.685 1.422 0 .735.307 1.324.944 1.716.614.417 1.628.883 3.02 1.422 1.345.466 2.43.957 3.303 1.423.873.465 1.604 1.152 2.24 2.06.614.906.945 2.034.945 3.432a6.1 6.1 0 0 1-.991 3.335c-.66 1.054-1.605 1.888-2.808 2.5-1.203.614-2.618.932-4.199.932-1.227-.024-2.383-.245-3.444-.71ZM96.915 31.9c.66 0 1.204.196 1.628.613.425.417.637.956.637 1.594 0 .662-.212 1.176-.637 1.593-.424.417-.967.613-1.628.613h-3.208c-1.227 0-2.312-.294-3.303-.858-.99-.564-1.746-1.373-2.312-2.403-.566-1.03-.85-2.157-.85-3.383V18.83H86.7c-.66 0-1.203-.196-1.651-.613a2.103 2.103 0 0 1-.684-1.594c0-.637.235-1.177.684-1.594.448-.416 1.014-.613 1.651-.613h.543v-3.334c0-.687.236-1.25.708-1.717a2.357 2.357 0 0 1 1.722-.71c.707 0 1.297.244 1.77.71.47.466.707 1.055.707 1.717v3.334h3.704c.66 0 1.203.197 1.651.613.448.417.684.957.684 1.594 0 .662-.236 1.177-.684 1.594-.448.417-1.014.613-1.651.613H92.15v10.862c0 .711.165 1.25.495 1.643.33.392.755.564 1.298.564h2.972ZM112.722 13.952c.66 0 1.18.196 1.604.613.401.417.614.956.614 1.593 0 .662-.213 1.177-.614 1.594-.401.417-.944.613-1.604.613h-2.548c-.849 0-1.557.294-2.123.907-.566.613-.85 1.373-.85 2.28v12.53c0 .687-.236 1.25-.707 1.717-.472.465-1.062.71-1.77.71-.684 0-1.25-.245-1.722-.71a2.344 2.344 0 0 1-.708-1.717V16.624c0-.686.236-1.25.708-1.716a2.358 2.358 0 0 1 1.722-.711c.59 0 1.109.171 1.557.54.449.343.708.76.826 1.25h.378c.33-.54.825-1.005 1.439-1.398a3.59 3.59 0 0 1 1.958-.588h1.84v-.05ZM128.127 14.786a7.666 7.666 0 0 1 2.902 2.844c.708 1.201 1.038 2.5 1.038 3.874V34.13c0 .687-.236 1.25-.707 1.717a2.36 2.36 0 0 1-1.723.71c-.589 0-1.109-.195-1.51-.563a2.734 2.734 0 0 1-.825-1.349h-.425c-.519.687-1.203 1.25-2.076 1.692a6.187 6.187 0 0 1-2.831.662 6.097 6.097 0 0 1-3.209-.883c-.967-.588-1.722-1.422-2.288-2.451-.543-1.055-.826-2.232-.826-3.531 0-2.109.708-3.8 2.1-5.125 1.416-1.324 3.326-1.961 5.78-1.961h3.633v-1.545c0-1.006-.283-1.815-.873-2.403-.59-.613-1.368-.907-2.312-.907-.542 0-.991.098-1.392.27-.377.171-.825.514-1.344 1.03-.449.44-.85.735-1.227.907-.354.171-.779.245-1.251.245-.566 0-1.061-.197-1.439-.564-.401-.393-.589-.858-.589-1.422 0-.589.212-1.177.613-1.741.401-.564.967-1.104 1.651-1.57 1.487-1.03 3.138-1.544 4.978-1.544 1.534-.074 2.926.27 4.152.98Zm-.943 12.235h-3.633c-.873 0-1.605.27-2.147.809-.543.54-.826 1.275-.826 2.158 0 .858.26 1.544.755 2.035.495.515 1.18.76 2.029.76.66 0 1.345-.172 2.052-.54a5.637 5.637 0 0 0 1.793-1.373v-3.85h-.023ZM150.61 36.289c-.589-.466-.99-1.128-1.25-1.962l-5.379-16.697c-.118-.417-.165-.736-.165-.981 0-.711.236-1.3.708-1.766.472-.465 1.061-.71 1.769-.71 1.25 0 2.053.661 2.43 1.985l3.846 13.07h.424l3.822-13.045c.401-1.324 1.227-1.986 2.477-1.986.708 0 1.298.245 1.746.736.448.49.684 1.078.684 1.79 0 .294-.047.612-.118.931l-5.426 16.698c-.59 1.765-1.722 2.648-3.421 2.648-.849 0-1.557-.245-2.147-.711ZM165.379 9.44c-.519-.49-.779-1.128-.779-1.912 0-.76.26-1.398.779-1.913a2.698 2.698 0 0 1 1.911-.76c.731 0 1.368.245 1.887.76.519.515.779 1.128.779 1.913 0 .76-.26 1.397-.779 1.912-.519.49-1.132.76-1.887.76-.755 0-1.392-.27-1.911-.76Zm.142 26.408a2.344 2.344 0 0 1-.708-1.717V16.624c0-.686.236-1.25.708-1.716a2.356 2.356 0 0 1 1.722-.711c.708 0 1.297.245 1.769.711.472.466.708 1.054.708 1.716v17.507c0 .687-.236 1.25-.708 1.717-.472.466-1.061.71-1.769.71a2.394 2.394 0 0 1-1.722-.71ZM177.387 36.313c-1.061-.466-1.981-1.03-2.76-1.74a6.034 6.034 0 0 1-1.203-1.57c-.283-.54-.425-1.054-.425-1.52 0-.564.189-1.03.59-1.422.401-.392.873-.564 1.439-.564.472 0 .92.098 1.321.319.401.196.826.588 1.274 1.152.519.588 1.015 1.005 1.51 1.275.495.245 1.062.368 1.722.368.967 0 1.722-.22 2.289-.687.542-.466.825-1.005.825-1.667 0-.736-.306-1.324-.943-1.716-.637-.417-1.628-.883-3.02-1.423a22.942 22.942 0 0 1-3.303-1.422c-.873-.466-1.604-1.152-2.241-2.06-.637-.907-.944-2.034-.944-3.432 0-1.128.307-2.182.944-3.139.613-.98 1.51-1.765 2.642-2.378 1.133-.613 2.43-.907 3.869-.907 1.227 0 2.336.196 3.327.564.991.367 1.84.858 2.524 1.495.991.981 1.486 1.913 1.486 2.845a1.96 1.96 0 0 1-.566 1.422c-.377.392-.849.564-1.439.564-.425 0-.802-.074-1.156-.245a4.334 4.334 0 0 1-1.109-.859c-.495-.465-.967-.809-1.439-1.03a4.238 4.238 0 0 0-1.651-.318c-.803 0-1.416.196-1.888.564-.448.392-.684.858-.684 1.422 0 .735.307 1.324.944 1.716.613.417 1.628.883 3.02 1.422 1.344.466 2.429.957 3.302 1.423.873.465 1.605 1.152 2.242 2.06.613.906.943 2.034.943 3.432 0 1.177-.33 2.305-.991 3.335-.66 1.054-1.604 1.888-2.807 2.5-1.203.614-2.619.932-4.199.932-1.204-.024-2.383-.245-3.445-.71ZM193.005 9.44c-.519-.49-.778-1.128-.778-1.912 0-.76.259-1.398.778-1.913a2.698 2.698 0 0 1 1.911-.76c.731 0 1.368.245 1.887.76.519.515.779 1.128.779 1.913 0 .76-.26 1.397-.779 1.912-.519.49-1.132.76-1.887.76-.755 0-1.392-.27-1.911-.76Zm.142 26.408a2.344 2.344 0 0 1-.708-1.717V16.624c0-.686.236-1.25.708-1.716a2.356 2.356 0 0 1 1.722-.711c.708 0 1.297.245 1.769.711.472.466.708 1.054.708 1.716v17.507c0 .687-.236 1.25-.708 1.717-.472.466-1.061.71-1.769.71a2.394 2.394 0 0 1-1.722-.71ZM206.028 35.897c-1.321-.736-2.359-1.741-3.091-2.992a8.003 8.003 0 0 1-1.109-4.095v-6.865c0-1.471.378-2.844 1.109-4.095.732-1.25 1.77-2.256 3.091-2.991 1.321-.736 2.784-1.104 4.411-1.104 1.652 0 3.138.368 4.436 1.104a8.394 8.394 0 0 1 3.09 2.991 7.798 7.798 0 0 1 1.133 4.095v6.866a7.798 7.798 0 0 1-1.133 4.094 8.394 8.394 0 0 1-3.09 2.992c-1.298.735-2.784 1.103-4.436 1.103-1.604 0-3.09-.368-4.411-1.103Zm7.148-4.365c.684-.686 1.015-1.594 1.015-2.721v-6.866c0-1.128-.331-2.035-1.015-2.722-.684-.686-1.604-1.03-2.737-1.03-1.108 0-2.005.344-2.689 1.03-.684.687-1.015 1.594-1.015 2.722v6.866c0 1.127.331 2.035 1.015 2.721.684.687 1.581 1.03 2.689 1.03 1.133 0 2.053-.343 2.737-1.03Zm-3.893-21.896a1.871 1.871 0 0 1-.542-1.348c0-.32.118-.81.377-1.472l2.1-5.05C211.666.587 212.421 0 213.436 0c.66 0 1.203.22 1.627.662.425.441.637.98.637 1.643 0 .466-.188 1.054-.542 1.716l-2.595 4.929c-.425.833-1.086 1.25-1.958 1.25-.543 0-.968-.196-1.322-.564ZM236.697 14.712c1.015.662 1.817 1.569 2.407 2.746.589 1.177.896 2.525.896 4.021v12.628c0 .686-.236 1.25-.708 1.716-.472.466-1.061.711-1.769.711a2.356 2.356 0 0 1-1.722-.71 2.344 2.344 0 0 1-.708-1.717V21.479c0-1.005-.307-1.814-.897-2.403-.589-.613-1.415-.907-2.43-.907-.99 0-1.793.294-2.382.907-.59.613-.897 1.422-.897 2.403v12.628c0 .686-.236 1.25-.708 1.716-.471.466-1.061.711-1.769.711-.684 0-1.25-.245-1.722-.71a2.344 2.344 0 0 1-.708-1.717V16.624c0-.686.236-1.25.708-1.716a2.358 2.358 0 0 1 1.722-.711c.731 0 1.298.196 1.651.564.378.392.59.809.637 1.275h.472c.401-.638 1.015-1.202 1.864-1.643a5.828 5.828 0 0 1 2.76-.662c1.18 0 2.289.343 3.303.98Z"/></g><defs><clipPath id="clip0_172_1031"><path fill="#fff" d="M0 0h240v37H0z"/></clipPath></defs></svg>