<svg width="36" height="46" fill="none" xmlns="http://www.w3.org/2000/svg"><g clip-path="url('#clip0_140_3533')"><path d="M23.51 21.394c.294.132.475.216.667.289 6.346 2.659 10.22 7.532 11.552 14.667.226 1.18.271 2.419.271 3.634-.011 1.01-.655 1.72-1.378 2.31-1.535 1.264-3.33 1.913-5.183 2.419-2.721.734-5.488 1.167-8.288 1.227-2.35.048-4.71.108-7.047-.024-3.512-.205-6.99-.722-10.287-2.142-1.073-.457-2.078-1.035-2.902-1.925-.621-.674-.96-1.492-.915-2.43.361-7.46 3.557-13.056 9.7-16.701.44-.265.915-.47 1.378-.686.44-.205.892-.373 1.457-.614-3.546-2.49-5.387-5.908-5.285-10.324.067-3.2 1.287-5.944 3.534-8.11 4.348-4.163 10.909-3.946 14.951.47 1.547 1.696 2.518 3.718 2.902 6.052.384 2.346.09 4.584-.813 6.738-.903 2.166-2.36 3.814-4.313 5.15Zm-5.487 22.224c4.166 0 7.543-.361 11.168-1.36 1.332-.373 2.597-.999 3.873-1.576.52-.229.79-.722.711-1.372-.112-.95-.158-1.913-.327-2.852-1.796-9.601-10.863-15.545-19.671-12.874C7.035 25.617 2.518 31.982 2.28 39.238c-.023.686.203 1.191.745 1.48.825.433 1.649.89 2.519 1.167 4.076 1.324 8.243 1.745 12.478 1.733ZM18 20.503c4.302.145 8.514-3.645 8.537-8.988.023-4.849-3.546-9.108-8.526-9.084-4.946.012-8.469 4.235-8.48 9.012-.012 5.439 4.257 9.18 8.469 9.06Z" fill="#000"/></g><defs><clipPath id="clip0_140_3533"><path fill="#fff" d="M0 0h36v46H0z"/></clipPath></defs></svg>