<svg width="97" height="96" fill="none" xmlns="http://www.w3.org/2000/svg"><g clip-path="url('#clip0_172_916')"><path d="M45.519 0h5.962c.102.115.19.246.291 0h1.454c.175.26.175.26.393.274 3.112.26 6.137.897 9.104 1.822 9.467 2.949 17.335 8.254 23.574 15.93a47.239 47.239 0 0 1 8.55 16.09c.975 3.194 1.644 6.432 1.891 9.771.015.174-.102.492.276.477v1.88c-.028 0-.072.014-.101.014.029.043.073.087.102.13v4.915c-.03.043-.073.087-.102.13.029 0 .073.014.102.014v1.446c-.364-.072-.262.231-.277.376-.16 1.937-.494 3.845-.945 5.724-2.516 10.408-7.824 19.11-16.055 26.05a47.536 47.536 0 0 1-15.75 8.832c-3.127 1.04-6.312 1.85-9.613 2.11V62.911h13.118c.901-4.915 1.803-9.758 2.72-14.716H54.418c0-2.53-.03-4.987.014-7.445.015-.853.219-1.72.451-2.544 1.062-3.73 3.694-5.392 7.606-5.826 2.56-.289 5.12-.216 7.693-.028.247.014.524.1.8-.087 0-4.25 0-8.515.015-12.765 0-.433-.219-.506-.568-.578-2.297-.491-4.624-.78-6.966-.925-4.13-.275-8.23-.116-12.245.954-5.104 1.345-9.132 4.091-11.605 8.847-2.021 3.86-2.675 8.052-2.806 12.33-.073 2.43-.015 4.872-.015 7.3 0 .261.087.521-.145.84h-9.802v14.686h9.947V94.96c-.727-.058-1.396-.318-2.08-.52-8.9-2.675-16.447-7.445-22.613-14.37A47.326 47.326 0 0 1 4.246 67.97C2.123 63.287.771 58.4.276 53.283c-.014-.159.088-.448-.276-.376v-1.3c.03 0 .073-.015.102-.015-.03-.043-.073-.087-.102-.13V44.09c.03-.044.073-.087.102-.13-.03 0-.073-.015-.102-.015v-1.012c.349.044.262-.246.276-.39.204-2.053.597-4.062 1.106-6.057 2.646-10.235 8.07-18.706 16.23-25.471 4.871-4.033 10.368-6.953 16.403-8.847C37.07 1.214 40.182.535 43.381.26c.145-.014.45.087.393-.275h1.454c.102.26.189.13.29.015Z" fill="#3662AC"/></g><defs><clipPath id="clip0_172_916"><path fill="#fff" d="M0 0h97v96H0z"/></clipPath></defs></svg>