<svg width="37" height="37" fill="none" xmlns="http://www.w3.org/2000/svg"><g clip-path="url('#clip0_172_1091')" fill="#0EB2D3"><path d="M17.208 0c-.079.095-.142.095-.22 0h.22ZM20.013 0c-.08.095-.142.095-.22 0h.22ZM37 17.208c-.095-.079-.095-.142 0-.22v.22ZM0 19.871c.047.016.063.063.063.11 0 .032-.016.063-.063.032v-.142ZM16.987 37c.048-.11.095-.095.142 0h-.142ZM19.871 37c.047-.095.095-.11.142 0h-.142ZM0 16.988c.032-.016.063 0 .063.031 0 .032-.031.047-.063.032v-.063ZM37 20.013h-.047c.015-.016.031-.047.047-.063v.063ZM14.45 22.156c.19.19.489.205.678.016.677-.646 1.355-1.26 2.017-1.891 3.325-3.089 6.634-6.193 9.959-9.281 1.024-.962 2.553-.93 3.498.063.946.992.898 2.537-.142 3.514-3.214 3.025-6.46 6.035-9.69 9.06-1.97 1.828-3.925 3.656-5.894 5.484a.482.482 0 0 1-.694-.031c-.583-.63-1.166-1.245-1.733-1.86-2.143-2.3-4.302-4.585-6.43-6.886-1.102-1.198-.945-2.93.347-3.798 1.009-.693 2.332-.535 3.215.394 1.434 1.529 2.868 3.057 4.286 4.586.205.236.394.425.583.63Z"/><path d="M34.085 18.5c-.048 6.445-4.097 12.433-10.196 14.639-6.224 2.253-13.22.315-17.444-4.759-4.176-5.027-4.633-12.417-1.26-17.98 3.372-5.547 10.085-8.51 16.45-7.17 7.202 1.513 12.402 7.942 12.45 15.27.015 1.512 2.38 1.528 2.363 0-.047-7.47-4.743-14.214-11.74-16.83C17.713-.962 9.456 1.26 4.713 7.028c-4.775 5.814-5.5 14.198-1.623 20.674 3.892 6.493 11.566 9.85 18.972 8.384 7.186-1.403 13-7.438 14.135-14.671.158-.977.237-1.938.252-2.931.016-1.497-2.348-1.497-2.363.016Z"/></g><defs><clipPath id="clip0_172_1091"><path fill="#fff" d="M0 0h37v37H0z"/></clipPath></defs></svg>