<svg width="41" height="23" fill="none" xmlns="http://www.w3.org/2000/svg"><g clip-path="url('#clip0_172_1088')"><path d="M0 11.512C11.41-4.184 30.34-3.49 41 11.488c-10.379 14.607-29.145 16.067-41 .024Zm20.43 7.898c4.1.075 7.59-3.515 7.637-7.848.047-4.234-3.373-7.923-7.426-7.997-4.054-.074-7.498 3.466-7.591 7.774-.117 4.333 3.21 7.972 7.38 8.071Zm6.138.297c4.803-1.659 8.458-4.48 11.55-8.17-2.436-3.49-8.645-7.848-11.34-7.972 4.429 4.209 4.827 11.067-.21 16.142ZM14.221 3.467c-4.545 1.485-8.223 4.282-11.316 8.02 2.718 3.541 7.942 7.428 11.316 7.998-4.592-4.68-4.545-11.463 0-16.019Z" fill="#0EB2D3"/></g><defs><clipPath id="clip0_172_1088"><path fill="#fff" d="M0 0h41v23H0z"/></clipPath></defs></svg>