<svg width="132" height="34" fill="none" xmlns="http://www.w3.org/2000/svg"><g clip-path="url('#clip0_140_1825')" fill="#000"><path d="M7.856 4.885c2.553 0 4.566.819 6.039 2.43 1.473 1.613 2.21 3.919 2.21 6.944 0 3.026-.737 5.332-2.21 6.944-1.473 1.612-3.486 2.43-6.04 2.43H4.837v7.936c0 .62-.22 1.166-.687 1.588-.467.421-1.031.644-1.743.644-.688 0-1.277-.223-1.743-.644-.467-.447-.688-.968-.688-1.588V7.117c0-.62.221-1.165.688-1.587.466-.422 1.03-.645 1.743-.645h5.45Zm0 14.26c1.03 0 1.84-.447 2.48-1.34.637-.892.957-2.082.957-3.546 0-1.463-.32-2.653-.958-3.546-.638-.893-1.448-1.339-2.48-1.339H4.837v9.77h3.02ZM21.8 33.083c-1.08-.62-1.915-1.414-2.529-2.456a6.368 6.368 0 0 1-.933-3.348v-7.935c0-1.216.32-2.332.933-3.348.614-1.017 1.473-1.835 2.528-2.455 1.08-.62 2.26-.918 3.585-.918 1.325 0 2.504.298 3.584.918 1.08.62 1.915 1.413 2.528 2.455a6.368 6.368 0 0 1 .933 3.348v7.935c0 1.216-.319 2.332-.933 3.348-.613 1.017-1.473 1.836-2.528 2.456-1.08.62-2.283.917-3.584.917-1.301 0-2.504-.297-3.585-.917Zm5.498-3.87c.467-.47.712-1.115.712-1.934v-7.935c0-.819-.245-1.463-.712-1.935-.466-.47-1.104-.719-1.914-.719-.81 0-1.449.248-1.915.72-.467.47-.712 1.115-.712 1.934v7.935c0 .819.245 1.464.712 1.935.466.471 1.105.719 1.915.719s1.448-.248 1.915-.72ZM48.73 5.332c.442.446.638.967.638 1.587v24.427c0 .596-.22 1.116-.638 1.563-.442.446-.958.67-1.571.67a2.04 2.04 0 0 1-1.252-.398c-.369-.272-.639-.62-.761-1.016h-.393c-.32.471-.81.892-1.449 1.264a4.287 4.287 0 0 1-2.184.57c-1.473 0-2.676-.594-3.634-1.76-.932-1.165-1.399-2.827-1.399-4.96v-7.936c0-2.132.466-3.794 1.4-4.96.932-1.165 2.16-1.76 3.633-1.76.736 0 1.399.149 2.013.471.613.322 1.08.694 1.399 1.166h.393V6.919c0-.62.22-1.166.663-1.587.441-.422.957-.645 1.546-.645.638 0 1.154.223 1.596.645Zm-3.78 14.011c0-.793-.222-1.413-.639-1.91-.442-.495-.958-.743-1.571-.743-.614 0-1.154.248-1.571.744-.442.496-.639 1.116-.639 1.91v7.935c0 .794.221 1.414.639 1.91.417.496.957.744 1.57.744.614 0 1.155-.248 1.572-.744.417-.496.638-1.116.638-1.91v-7.936ZM56.66 33.083c-1.081-.62-1.916-1.414-2.53-2.456a6.367 6.367 0 0 1-.932-3.348v-7.935c0-1.216.319-2.332.933-3.348.613-1.017 1.472-1.835 2.528-2.455 1.08-.62 2.259-.918 3.584-.918a7.11 7.11 0 0 1 2.578.496 6.282 6.282 0 0 1 2.136 1.34c1.03.966 1.522 1.983 1.522 3.05 0 .52-.172.942-.516 1.314-.343.347-.785.52-1.3.52-.467 0-.836-.099-1.155-.272-.319-.199-.613-.52-.957-.967-.368-.521-.737-.868-1.08-1.091-.344-.199-.761-.298-1.277-.298-.81 0-1.448.248-1.915.72-.466.47-.712 1.115-.712 1.934v7.935c0 .819.246 1.463.712 1.935.467.47 1.105.719 1.915.719.491 0 .908-.124 1.301-.347.369-.224.786-.645 1.252-1.24.418-.546.81-.918 1.154-1.141.344-.223.712-.323 1.154-.323.515 0 .933.174 1.301.521.344.348.516.794.516 1.315 0 1.116-.54 2.182-1.645 3.224a8.948 8.948 0 0 1-2.357 1.512c-.884.372-1.743.57-2.651.57-1.277-.049-2.48-.346-3.56-.966ZM78.434 13.466a6.338 6.338 0 0 1 2.332 2.306c.565.967.835 2.009.835 3.15v12.424c0 .596-.221 1.116-.638 1.563-.442.446-.958.67-1.572.67-.49 0-.908-.125-1.276-.398a1.984 1.984 0 0 1-.736-1.016h-.393c-.32.47-.81.892-1.449 1.264a4.288 4.288 0 0 1-2.185.57c-.883 0-1.718-.272-2.479-.793-.761-.52-1.375-1.29-1.866-2.281-.466-.992-.712-2.133-.712-3.447 0-1.96.59-3.497 1.743-4.613 1.179-1.116 2.799-1.686 4.886-1.686h2.209v-2.232c0-.695-.172-1.265-.54-1.637-.368-.397-.86-.595-1.473-.595-.368 0-.712.05-.982.173-.27.124-.614.372-1.031.72-.393.347-.761.595-1.08.743a3.07 3.07 0 0 1-1.13.199c-.515 0-.932-.174-1.3-.521-.344-.347-.516-.794-.516-1.314 0-.496.172-.967.515-1.463.344-.497.81-.943 1.4-1.34a7.306 7.306 0 0 1 4.148-1.264 6.245 6.245 0 0 1 3.29.818Zm-1.252 11.383h-2.21c-.613 0-1.153.248-1.57.744-.442.496-.639 1.116-.639 1.91 0 .793.221 1.413.638 1.909.442.496.958.744 1.572.744.368 0 .76-.1 1.178-.273a4.063 4.063 0 0 0 1.056-.744v-4.29h-.025ZM87.763 33.43c-.909-.372-1.645-.868-2.234-1.464-.86-.868-1.301-1.76-1.301-2.653 0-.52.172-.942.515-1.314.344-.348.786-.521 1.301-.521.467 0 .884.099 1.252.272.368.199.786.521 1.203 1.017.368.447.737.744 1.08.893.344.174.712.248 1.105.248.59 0 1.08-.174 1.448-.52.369-.348.565-.794.565-1.315 0-.67-.245-1.24-.712-1.637-.466-.421-1.252-.918-2.308-1.537-1.006-.546-1.816-1.042-2.479-1.538-.663-.471-1.227-1.14-1.67-1.984-.466-.843-.687-1.885-.687-3.1 0-.992.27-1.959.81-2.827a5.786 5.786 0 0 1 2.185-2.108c.909-.52 1.94-.769 3.069-.769.957 0 1.866.149 2.651.471.81.323 1.473.72 2.013 1.19.368.348.663.745.86 1.166.196.422.294.844.294 1.24 0 .521-.172.943-.515 1.315-.344.347-.786.52-1.302.52-.392 0-.76-.05-1.055-.173-.295-.124-.614-.347-.957-.72-.32-.347-.639-.595-.958-.743a2.896 2.896 0 0 0-1.08-.199c-.491 0-.884.174-1.178.496a1.621 1.621 0 0 0-.442 1.141c0 .67.245 1.24.712 1.637.466.421 1.252.942 2.307 1.537.982.546 1.817 1.042 2.48 1.538.662.471 1.227 1.14 1.669 1.984.466.843.687 1.885.687 3.1 0 1.091-.27 2.083-.834 2.976-.54.893-1.326 1.612-2.308 2.133-.982.52-2.087.793-3.314.793a7.058 7.058 0 0 1-2.872-.545ZM107.819 29.313c.614 0 1.154.199 1.571.57.442.373.639.869.639 1.464s-.221 1.09-.639 1.463c-.441.372-.957.57-1.571.57h-2.43c-1.498 0-2.75-.496-3.756-1.513-1.007-.992-1.498-2.256-1.498-3.794V17.31c-.613 0-1.153-.198-1.57-.57-.443-.372-.639-.868-.639-1.463 0-.595.22-1.091.638-1.463.442-.373.958-.57 1.571-.57v-3.076c0-.62.221-1.166.663-1.587.442-.422.958-.645 1.547-.645.614 0 1.154.223 1.571.645.417.446.638.967.638 1.587v3.05h2.431c.613 0 1.153.199 1.571.57.417.373.638.869.638 1.464s-.221 1.091-.638 1.463c-.442.372-.958.57-1.571.57h-2.406v10.788c0 .397.098.72.27.918.172.198.417.297.736.297h2.234v.025ZM112.115 8.878a1.543 1.543 0 0 1-.466-1.14c0-.373.098-.869.27-1.464l1.326-4.439C113.613.62 114.3 0 115.258 0c.589 0 1.08.174 1.448.546.368.372.565.868.565 1.488 0 .47-.123 1.016-.393 1.636l-1.817 4.489c-.319.818-.933 1.215-1.816 1.215a1.5 1.5 0 0 1-1.13-.496ZM122.622 33.43c-.908-.372-1.645-.868-2.234-1.464-.859-.868-1.301-1.76-1.301-2.653 0-.52.172-.942.516-1.314.343-.348.785-.521 1.301-.521.466 0 .884.099 1.252.272.368.199.785.521 1.203 1.017.368.447.736.744 1.08.893.344.174.712.248 1.105.248.589 0 1.08-.174 1.448-.52.368-.348.565-.794.565-1.315 0-.67-.246-1.24-.712-1.637-.467-.421-1.252-.918-2.308-1.537-1.006-.546-1.817-1.042-2.479-1.538-.663-.471-1.228-1.14-1.67-1.984-.466-.843-.687-1.885-.687-3.1 0-.992.27-1.959.81-2.827a5.785 5.785 0 0 1 2.185-2.108c.908-.52 1.939-.769 3.069-.769.957 0 1.865.149 2.651.471.81.323 1.473.72 2.013 1.19.368.348.663.745.859 1.166.196.422.295.844.295 1.24 0 .521-.172.943-.516 1.315-.344.347-.785.52-1.301.52-.393 0-.761-.05-1.056-.173-.294-.124-.613-.347-.957-.72-.319-.347-.638-.595-.957-.743a2.902 2.902 0 0 0-1.081-.199c-.491 0-.883.174-1.178.496a1.624 1.624 0 0 0-.442 1.141c0 .67.246 1.24.712 1.637.467.421 1.252.942 2.308 1.537.982.546 1.816 1.042 2.479 1.538.663.471 1.228 1.14 1.67 1.984.466.843.687 1.885.687 3.1 0 1.091-.27 2.083-.835 2.976-.54.893-1.325 1.612-2.307 2.133-.982.52-2.087.793-3.314.793a7.143 7.143 0 0 1-2.873-.545Z"/></g><defs><clipPath id="clip0_140_1825"><path fill="#fff" d="M0 0h132v34H0z"/></clipPath></defs></svg>