<svg width="46" height="46" fill="none" xmlns="http://www.w3.org/2000/svg"><g clip-path="url('#clip0_172_1082')" fill="#0EB2D3"><path d="M12.075 15.871c.748.688 1.465 1.315 2.212 1.973-2.72 4.125-3.706 8.518-2.48 13.271.986 3.826 3.168 6.845 6.396 9.086 6.396 4.484 15.213 3.468 20.534-2.271 5.47-5.918 5.709-14.646.478-20.983-4.573-5.56-13.36-8.01-21.222-2.75l-2.032-2.122c6.097-5.17 17.545-5.679 24.958 2.123 6.934 7.293 6.755 19.129-.389 26.332-7.054 7.084-18.77 7.353-25.974.747-8.07-7.352-7.8-18.98-2.48-25.406Z"/><path d="M22.417 18.77c-.717-.746-1.345-1.434-2.003-2.091 3.707-3.438 11.299-2.72 15.573 1.524 4.752 4.693 5.021 12.374.598 17.306-4.663 5.2-12.255 5.739-17.725 1.196-4.722-3.886-5.768-11.598-2.212-16.41.33.3.598.598.927.867.927.717 1.136 1.405.628 2.63-1.734 4.215-.06 8.967 3.855 11.448 3.767 2.391 8.579 1.823 11.777-1.375 3.228-3.228 3.736-8.1 1.255-11.926-2.45-3.796-7.203-5.35-11.388-3.766-.388.18-.807.389-1.285.598Z"/><path d="M0 7.502C4.095 6.486 6.456 4.095 7.532 0c1.943 2.87 3.647 5.35 5.32 7.831.15.21.21.598.15.867-.418 1.733.598 2.75 1.674 3.826 4.334 4.274 8.608 8.578 12.882 12.882.24.24.658.478.688.747.09.718.328 1.734-.03 2.093-.359.358-1.375.179-2.093.06-.328-.06-.567-.539-.866-.808-4.514-4.573-9.057-9.116-13.57-13.689-.688-.688-1.375-.957-2.361-.897-.718.06-1.585-.18-2.182-.568C4.842 10.88 2.63 9.296 0 7.502Z"/><path d="M24.659 21.46c2.87-1.285 5.918-.388 7.592 1.973 1.763 2.481 1.554 5.919-.508 8.1-1.943 2.093-5.32 2.57-7.801 1.106-2.66-1.554-3.767-4.543-2.571-7.98.986 1.345 1.973 2.42 2.66 3.676.748 1.375 1.943 2.212 3.467 2.063 1.405-.15 2.57-1.256 2.84-2.66.269-1.495-.508-2.81-1.823-3.587-1.286-.777-2.451-1.704-3.856-2.69Z"/></g><defs><clipPath id="clip0_172_1082"><path fill="#fff" d="M0 0h46v46H0z"/></clipPath></defs></svg>