<svg width="315" height="43" fill="none" xmlns="http://www.w3.org/2000/svg"><g clip-path="url('#clip0_140_1790')" fill="#000"><path d="M4.384 33.56c-1.386-.781-2.444-1.864-3.225-3.274C.378 28.902 0 27.266 0 25.427V13.444c0-1.813.378-3.45 1.134-4.859.756-1.41 1.814-2.518 3.175-3.298 1.36-.78 2.872-1.158 4.585-1.158 1.436 0 2.797.302 4.107.931 1.31.63 2.369 1.46 3.124 2.493.68.906 1.034 1.762 1.034 2.568 0 .705-.227 1.309-.706 1.787-.479.479-1.058.705-1.789.705-.504 0-.932-.126-1.335-.403-.378-.252-.781-.705-1.21-1.334-.529-.806-1.033-1.36-1.537-1.687a3.13 3.13 0 0 0-1.738-.503c-1.184 0-2.142.403-2.847 1.233-.706.831-1.084 1.99-1.084 3.525v11.983c0 1.511.378 2.694 1.109 3.525.756.83 1.738 1.234 3.023 1.234.706 0 1.36-.177 1.915-.529.555-.352 1.109-.957 1.688-1.813.429-.654.832-1.133 1.21-1.384a2.051 2.051 0 0 1 1.21-.403c.705 0 1.31.227 1.788.705.479.478.706 1.057.706 1.787 0 .932-.378 1.914-1.16 2.896-.83 1.032-1.89 1.837-3.174 2.416-1.285.605-2.67.882-4.132.882-1.764-.026-3.326-.403-4.712-1.184ZM23.004 33.584c-1.109-.629-1.965-1.435-2.595-2.492a6.412 6.412 0 0 1-.958-3.399v-8.056c0-1.234.328-2.367.958-3.399.63-1.032 1.512-1.863 2.595-2.492 1.108-.63 2.318-.931 3.678-.931 1.361 0 2.57.302 3.68.931 1.108.63 1.964 1.435 2.594 2.492a6.412 6.412 0 0 1 .958 3.4v8.055a6.412 6.412 0 0 1-.958 3.399c-.63 1.032-1.511 1.863-2.595 2.492-1.108.63-2.343.932-3.678.932-1.361 0-2.57-.302-3.68-.932Zm5.644-3.927c.479-.478.73-1.133.73-1.964v-8.056c0-.83-.252-1.485-.73-1.964-.479-.478-1.134-.73-1.965-.73-.832 0-1.487.252-1.966.73-.479.479-.73 1.133-.73 1.964v8.056c0 .831.252 1.486.73 1.964.479.478 1.134.73 1.966.73.831 0 1.486-.252 1.965-.73ZM58.38 14.602c.931 1.183 1.385 2.719 1.385 4.632v12.613c0 .604-.227 1.133-.655 1.586-.454.453-.983.68-1.613.68-.605 0-1.134-.227-1.587-.68-.454-.453-.68-.982-.68-1.586V19.21c0-.705-.177-1.284-.555-1.662-.378-.402-.882-.604-1.511-.604-.63 0-1.134.202-1.512.604-.378.403-.555.957-.555 1.662v12.613c0 .604-.226 1.133-.655 1.586-.453.453-.982.68-1.612.68-.605 0-1.134-.227-1.587-.68-.454-.453-.68-.982-.68-1.586V19.21c0-.705-.177-1.284-.555-1.662-.378-.402-.882-.604-1.512-.604s-1.134.202-1.512.604c-.378.403-.554.957-.554 1.662v12.613c0 .604-.227 1.133-.655 1.586-.454.453-.983.68-1.613.68-.604 0-1.133-.227-1.587-.68-.454-.453-.68-.982-.68-1.586V15.508c0-.63.226-1.183.68-1.611.454-.428.983-.655 1.587-.655.53 0 .958.126 1.31.403.353.252.605.604.756 1.058h.404a4.059 4.059 0 0 1 1.562-1.335c.655-.352 1.31-.528 1.965-.528.831 0 1.587.201 2.242.604.68.403 1.235.956 1.663 1.661h.404c.478-.705 1.083-1.284 1.814-1.661.756-.403 1.587-.604 2.52-.604 1.46-.026 2.67.579 3.577 1.762ZM76.117 14.602c.957 1.183 1.436 2.87 1.436 5.035v8.056c0 2.165-.478 3.852-1.436 5.035-.957 1.184-2.217 1.788-3.729 1.788-.706 0-1.41-.151-2.066-.478-.655-.328-1.134-.705-1.436-1.184h-.403v7.855c0 .63-.227 1.183-.655 1.611-.454.453-.983.655-1.613.655-.605 0-1.134-.227-1.587-.655-.454-.453-.68-.981-.68-1.61V15.507c0-.63.226-1.183.68-1.611.453-.428.982-.655 1.587-.655.53 0 .957.126 1.335.403.353.277.605.63.756 1.033h.403c.328-.479.832-.907 1.487-1.285a4.438 4.438 0 0 1 2.242-.579c1.462 0 2.722.605 3.679 1.788Zm-3.1 5.035c0-.806-.226-1.435-.654-1.939-.454-.503-.983-.755-1.613-.755s-1.184.252-1.612.755c-.454.504-.655 1.133-.655 1.94v8.055c0 .806.226 1.435.655 1.939.428.503.982.755 1.612.755.63 0 1.184-.252 1.613-.755.428-.504.655-1.133.655-1.939v-8.056ZM94.485 13.897c.428.453.655.982.655 1.611v16.34c0 .604-.227 1.132-.655 1.586-.454.453-.983.68-1.613.68s-1.108-.152-1.436-.429a1.565 1.565 0 0 1-.554-1.007h-.504c-.328.479-.832.907-1.487 1.284a4.438 4.438 0 0 1-2.242.58c-1.487 0-2.721-.555-3.704-1.688-.982-1.133-1.461-2.693-1.461-4.707V15.508c0-.629.227-1.183.68-1.61.454-.429.983-.655 1.587-.655.63 0 1.185.226 1.613.654.453.453.655.982.655 1.611v12.613c0 .705.202 1.284.605 1.662.403.403.957.604 1.663.604.705 0 1.285-.201 1.663-.604.403-.403.604-.957.604-1.662V15.508c0-.629.227-1.183.68-1.61.454-.429.983-.655 1.588-.655.68-.026 1.21.201 1.663.654ZM107.763 29.758c.63 0 1.184.201 1.613.579.453.377.655.88.655 1.485 0 .604-.227 1.108-.655 1.485-.454.378-.983.58-1.613.58h-2.494c-1.537 0-2.822-.504-3.855-1.536-1.033-1.007-1.537-2.291-1.537-3.852V17.573c-.63 0-1.184-.202-1.613-.58-.453-.377-.655-.88-.655-1.485 0-.604.227-1.108.655-1.485.454-.378.983-.58 1.613-.58v-3.121c0-.63.227-1.183.68-1.611.454-.428.983-.655 1.587-.655.63 0 1.185.227 1.613.655.428.453.655.982.655 1.611v3.097h2.494c.63 0 1.185.201 1.613.579.428.377.655.88.655 1.485 0 .604-.227 1.108-.655 1.485-.454.378-.983.58-1.613.58h-2.494v10.95c0 .404.101.73.277.932.177.202.429.302.756.302h2.318v.026ZM121.671 13.67a6.474 6.474 0 0 1 2.394 2.342c.579.981.857 2.039.857 3.197v12.613c0 .604-.227 1.133-.655 1.586-.454.453-.983.68-1.613.68-.504 0-.932-.126-1.31-.403a2.016 2.016 0 0 1-.756-1.032h-.403c-.328.478-.832.906-1.487 1.284a4.438 4.438 0 0 1-2.242.579c-.907 0-1.764-.277-2.545-.806-.781-.529-1.411-1.31-1.915-2.316-.479-1.007-.731-2.165-.731-3.5 0-1.988.605-3.55 1.789-4.682 1.21-1.133 2.873-1.712 5.014-1.712h2.268v-2.266c0-.705-.176-1.284-.554-1.662-.378-.402-.882-.604-1.512-.604-.378 0-.731.05-1.008.177-.277.125-.63.377-1.058.73-.403.352-.781.604-1.109.755a3.18 3.18 0 0 1-1.159.201c-.529 0-.957-.176-1.335-.528-.353-.353-.529-.806-.529-1.335 0-.503.176-.982.529-1.485.353-.504.831-.957 1.436-1.36a7.556 7.556 0 0 1 4.258-1.284c1.235-.025 2.343.252 3.376.831Zm-1.285 11.556h-2.267c-.63 0-1.185.252-1.613.755-.453.504-.655 1.133-.655 1.939 0 .805.227 1.435.655 1.938.454.504.983.755 1.613.755.378 0 .781-.1 1.209-.276a4.187 4.187 0 0 0 1.084-.756v-4.355h-.026ZM132.405 33.584c-1.109-.629-1.965-1.435-2.595-2.492a6.412 6.412 0 0 1-.958-3.399v-8.056c0-1.234.328-2.367.958-3.399.63-1.032 1.511-1.863 2.595-2.492 1.108-.63 2.318-.931 3.678-.931a7.37 7.37 0 0 1 2.646.503c.857.327 1.587.78 2.192 1.36 1.058.981 1.562 2.014 1.562 3.096 0 .529-.176.957-.529 1.334-.353.353-.806.53-1.335.53-.479 0-.857-.102-1.185-.278-.327-.201-.629-.529-.982-.982-.378-.528-.756-.88-1.109-1.108-.353-.2-.781-.302-1.31-.302-.831 0-1.487.252-1.965.73-.479.479-.731 1.133-.731 1.964v8.056c0 .831.252 1.486.731 1.964.478.479 1.134.73 1.965.73a2.64 2.64 0 0 0 1.335-.352c.378-.227.807-.655 1.285-1.259.429-.554.832-.931 1.185-1.158.352-.227.73-.327 1.184-.327.529 0 .957.176 1.335.528.353.353.529.806.529 1.335 0 1.133-.554 2.215-1.688 3.273a9.192 9.192 0 0 1-2.419 1.535c-.907.378-1.789.58-2.721.58-1.31-.051-2.545-.353-3.653-.983ZM146.111 8.812c-.478-.479-.705-1.058-.705-1.788 0-.705.227-1.309.705-1.787.479-.479 1.059-.705 1.789-.705.706 0 1.31.226 1.789.705.479.478.706 1.057.706 1.787 0 .705-.227 1.31-.706 1.788s-1.058.705-1.789.705c-.73 0-1.335-.252-1.789-.705Zm.177 24.596c-.454-.453-.681-.982-.681-1.586V15.508c0-.63.227-1.183.681-1.61.453-.429.982-.655 1.587-.655.63 0 1.184.226 1.613.654.453.453.655.982.655 1.611v16.34c0 .604-.227 1.132-.655 1.585-.454.453-.983.68-1.613.68-.605 0-1.134-.252-1.587-.705ZM157.651 33.584c-1.108-.63-1.965-1.435-2.595-2.492a6.41 6.41 0 0 1-.957-3.399v-8.056a6.41 6.41 0 0 1 .957-3.399c.63-1.032 1.512-1.863 2.595-2.492 1.109-.63 2.318-.932 3.679-.932 1.36 0 2.57.303 3.678.932 1.109.63 1.966 1.435 2.596 2.492a6.42 6.42 0 0 1 .957 3.399v8.056a6.42 6.42 0 0 1-.957 3.399c-.63 1.032-1.512 1.863-2.596 2.492-1.108.63-2.343.932-3.678.932-1.361 0-2.57-.302-3.679-.932Zm5.644-3.927c.479-.478.731-1.133.731-1.964v-8.056c0-.83-.252-1.485-.731-1.964-.479-.478-1.134-.73-1.965-.73-.832 0-1.487.252-1.966.73-.478.479-.73 1.133-.73 1.964v8.056c0 .831.252 1.486.73 1.964.479.478 1.134.73 1.966.73.831 0 1.486-.252 1.965-.73Zm-3.149-20.644a1.556 1.556 0 0 1-.479-1.158c0-.378.101-.881.277-1.486l1.361-4.506C161.683.629 162.388 0 163.371 0c.604 0 1.108.176 1.486.554.378.377.58.881.58 1.51 0 .479-.126 1.033-.403 1.662l-1.865 4.557c-.327.83-.957 1.233-1.864 1.233-.454 0-.832-.176-1.159-.503ZM184.686 14.501c.983 1.133 1.462 2.694 1.462 4.708v12.613c0 .604-.227 1.133-.655 1.586-.454.453-.983.68-1.613.68-.605 0-1.134-.227-1.587-.68-.454-.453-.68-.982-.68-1.586V19.21c0-.705-.202-1.284-.605-1.662-.403-.402-.958-.604-1.663-.604-.706 0-1.285.202-1.663.604-.403.403-.605.957-.605 1.662v12.613c0 .604-.226 1.133-.655 1.586-.453.453-.982.68-1.612.68-.605 0-1.134-.227-1.588-.68-.453-.453-.68-.982-.68-1.586V15.508c0-.63.227-1.183.68-1.611.454-.428.983-.655 1.588-.655.63 0 1.108.151 1.436.428.327.277.504.63.554 1.008h.504c.328-.479.831-.907 1.487-1.285a4.438 4.438 0 0 1 2.242-.579c1.436 0 2.671.554 3.653 1.687ZM202.5 25.427v2.266c0 .831.252 1.486.731 1.964.478.478 1.134.73 1.965.73.529 0 .957-.1 1.335-.277.353-.201.731-.554 1.109-1.082.302-.378.63-.68.958-.856a2.388 2.388 0 0 1 1.159-.277c.554 0 1.007.176 1.335.528.353.353.529.78.529 1.335 0 .503-.151 1.007-.428 1.535-.277.53-.681 1.007-1.185 1.435-.629.554-1.36.982-2.192 1.31a6.978 6.978 0 0 1-2.595.478c-1.36 0-2.57-.302-3.678-.932-1.109-.629-1.966-1.435-2.596-2.492a6.42 6.42 0 0 1-.957-3.399v-8.056c0-1.208.302-2.341.932-3.399a6.722 6.722 0 0 1 2.545-2.492c1.083-.63 2.268-.931 3.553-.931 1.285 0 2.494.302 3.552.931a7.098 7.098 0 0 1 2.545 2.492 6.451 6.451 0 0 1 .932 3.4v3.624c0 .831-.252 1.385-.756 1.687-.503.302-1.159.453-1.99.453H202.5v.025Zm.68-7.754c-.453.479-.68 1.133-.68 1.964V21.5h4.964v-1.863c0-.83-.227-1.485-.681-1.964-.453-.478-1.058-.73-1.789-.73-.73 0-1.36.252-1.814.73ZM227.898 14.501c.982 1.133 1.461 2.694 1.461 4.708v12.613c0 .604-.227 1.133-.655 1.586-.454.453-.983.68-1.613.68-.604 0-1.134-.227-1.587-.68-.454-.453-.68-.982-.68-1.586V19.21c0-.705-.202-1.284-.605-1.662-.403-.402-.958-.604-1.663-.604-.706 0-1.285.202-1.663.604-.403.403-.605.957-.605 1.662v12.613c0 .604-.226 1.133-.655 1.586-.453.453-.982.68-1.612.68-.605 0-1.134-.227-1.588-.68-.453-.453-.68-.982-.68-1.586V15.508c0-.63.227-1.183.68-1.611.454-.428.983-.655 1.588-.655.63 0 1.108.151 1.436.428.327.277.504.63.554 1.008h.504c.328-.479.832-.907 1.487-1.285a4.438 4.438 0 0 1 2.242-.579c1.461 0 2.696.554 3.654 1.687ZM242.058 33.408c-.454-.453-.681-.982-.681-1.586V7.024c0-.63.227-1.183.681-1.611.453-.428.982-.655 1.587-.655.63 0 1.184.227 1.613.655.453.453.655.982.655 1.611v24.798c0 .604-.227 1.133-.655 1.586-.454.453-.983.68-1.613.68-.605.025-1.134-.227-1.587-.68ZM250.549 8.812c-.479-.479-.706-1.058-.706-1.788 0-.705.227-1.309.706-1.787.478-.479 1.058-.705 1.789-.705.705 0 1.31.226 1.789.705.478.478.705 1.057.705 1.787 0 .705-.227 1.31-.705 1.788-.479.478-1.059.705-1.789.705a2.491 2.491 0 0 1-1.789-.705Zm.201 24.596c-.453-.453-.68-.982-.68-1.586V15.508c0-.63.227-1.183.68-1.61.454-.429.983-.655 1.588-.655.63 0 1.184.226 1.612.654.454.453.655.982.655 1.611v16.34c0 .604-.226 1.132-.655 1.585-.453.453-.982.68-1.612.68-.605 0-1.134-.252-1.588-.705ZM270.932 14.501c.983 1.133 1.462 2.694 1.462 4.708v12.613c0 .604-.227 1.133-.655 1.586-.454.453-.983.68-1.613.68-.605 0-1.134-.227-1.587-.68-.454-.453-.681-.982-.681-1.586V19.21c0-.705-.201-1.284-.604-1.662-.403-.402-.958-.604-1.663-.604-.706 0-1.285.202-1.663.604-.403.403-.605.957-.605 1.662v12.613c0 .604-.227 1.133-.655 1.586-.454.453-.983.68-1.613.68-.604 0-1.133-.227-1.587-.68-.453-.453-.68-.982-.68-1.586V15.508c0-.63.227-1.183.68-1.611.454-.428.983-.655 1.587-.655.63 0 1.109.151 1.437.428.327.277.504.63.554 1.008h.504c.327-.479.831-.907 1.486-1.285a4.441 4.441 0 0 1 2.243-.579c1.436 0 2.671.554 3.653 1.687ZM280.885 25.427v2.266c0 .831.252 1.486.73 1.964.479.478 1.134.73 1.966.73.529 0 .957-.1 1.335-.277.353-.201.731-.554 1.109-1.082.302-.378.63-.68.957-.856a2.393 2.393 0 0 1 1.159-.277c.554 0 1.008.176 1.336.528.352.353.529.78.529 1.335 0 .503-.152 1.007-.429 1.535-.277.53-.68 1.007-1.184 1.435-.63.554-1.36.982-2.192 1.31a6.978 6.978 0 0 1-2.595.478c-1.361 0-2.57-.302-3.679-.932-1.108-.629-1.965-1.435-2.595-2.492a6.41 6.41 0 0 1-.957-3.399v-8.056c0-1.208.302-2.341.932-3.399a6.715 6.715 0 0 1 2.545-2.492c1.083-.63 2.267-.931 3.552-.931 1.285 0 2.495.302 3.553.931a7.106 7.106 0 0 1 2.545 2.492 6.451 6.451 0 0 1 .932 3.4v3.624c0 .831-.252 1.385-.756 1.687-.504.302-1.159.453-1.99.453h-6.803v.025Zm.68-7.754c-.454.479-.68 1.133-.68 1.964V21.5h4.963v-1.863c0-.83-.226-1.485-.68-1.964-.453-.478-1.058-.73-1.789-.73-.731 0-1.36.252-1.814.73ZM303.259 13.67a6.464 6.464 0 0 1 2.393 2.342c.58.981.857 2.039.857 3.197v12.613c0 .604-.227 1.133-.655 1.586-.454.453-.983.68-1.613.68-.504 0-.932-.126-1.31-.403a2.016 2.016 0 0 1-.756-1.032h-.403c-.327.478-.831.906-1.486 1.284a4.441 4.441 0 0 1-2.243.579c-.907 0-1.764-.277-2.545-.806-.781-.529-1.411-1.31-1.915-2.316-.478-1.007-.73-2.165-.73-3.5 0-1.988.604-3.55 1.789-4.682 1.209-1.133 2.872-1.712 5.014-1.712h2.267v-2.266c0-.705-.176-1.284-.554-1.662-.378-.402-.882-.604-1.512-.604-.378 0-.73.05-1.008.177-.277.125-.629.377-1.058.73-.403.352-.781.604-1.108.755a3.188 3.188 0 0 1-1.159.201c-.53 0-.958-.176-1.336-.528-.353-.353-.529-.806-.529-1.335 0-.503.176-.982.529-1.485.353-.504.832-.957 1.436-1.36a7.556 7.556 0 0 1 4.258-1.284c1.235-.025 2.344.252 3.377.831Zm-1.285 11.556h-2.268c-.63 0-1.184.252-1.612.755-.454.504-.656 1.133-.656 1.939 0 .805.227 1.435.656 1.938.453.504.982.755 1.612.755.378 0 .781-.1 1.209-.276a4.154 4.154 0 0 0 1.084-.756v-4.355h-.025ZM310.742 33.61c-.479-.479-.706-1.058-.706-1.788 0-.705.227-1.31.706-1.787.479-.479 1.058-.705 1.789-.705.705 0 1.31.226 1.789.705.478.478.705 1.057.705 1.787 0 .705-.227 1.31-.705 1.787-.479.479-1.059.705-1.789.705-.731 0-1.31-.251-1.789-.705Z"/></g><defs><clipPath id="clip0_140_1790"><path fill="#fff" d="M0 0h315v43H0z"/></clipPath></defs></svg>