<svg width="202" height="180" fill="none" xmlns="http://www.w3.org/2000/svg"><g clip-path="url('#clip0_140_1753')"><path d="M83.296 155.74v-13.898H12.214c-5.933 0-10.71-3.776-12-9.506a9.728 9.728 0 0 1-.187-1.982C0 90.75 0 51.172 0 11.568 0 5.57 5.288.188 11.355 0c.859-.027 1.691 0 2.55 0h175.962c5.878 0 10.71 3.856 11.945 9.587.134.642.188 1.338.188 1.981V130.06c0 6.453-5.396 11.782-11.919 11.782H118.757v13.898h15.677c10.281.026 19.623 8.729 20.375 18.931.053.697.187 1.42.161 2.116-.108 2.035-1.396 3.213-3.517 3.213H51.594c-3.705 0-4.698-1.151-4.349-4.9.698-7.444 4.403-12.987 10.791-16.736a19.03 19.03 0 0 1 9.718-2.624c5.1-.027 10.227 0 15.542 0ZM6.281 108.932H195.72V13.014c.026-4.579-3.249-6.667-6.685-6.64-12.67.133-25.313.053-37.984.053-46.171 0-92.343 0-138.514.027-1.1 0-2.335.294-3.302.83-2.496 1.312-2.953 3.722-2.953 6.292v95.356Zm189.438 6.507H6.416c-.054.241-.108.428-.108.589 0 4.338-.027 8.649 0 12.987 0 .83.161 1.687.403 2.491.913 2.785 3.087 4.043 6.818 4.043h174.834c.752 0 1.53-.027 2.282-.134 2.684-.401 4.725-2.356 4.886-5.088.214-4.097.161-8.194.214-12.291-.026-.856-.026-1.687-.026-2.597ZM53.956 173.493h94.007c-.027-.268-.027-.428-.08-.616-1.503-5.944-7.543-10.711-13.691-10.711-21.824 0-43.648 0-65.472-.027-2.657 0-5.154.509-7.462 1.795-3.759 2.115-6.174 5.275-7.302 9.559Zm35.89-17.887h22.281v-13.63h-22.28v13.63Z" fill="#000"/></g><defs><clipPath id="clip0_140_1753"><path fill="#fff" d="M0 0h202v180H0z"/></clipPath></defs></svg>