<svg width="54" height="54" fill="none" xmlns="http://www.w3.org/2000/svg"><circle cx="27" cy="27" r="27" fill="#595656"/><g clip-path="url('#clip0_140_3293')"><path d="M37.902 39.375v1.242c0 .221-.1.324-.32.32-.21-.002-.29-.077-.29-.289-.004-.784 0-1.568 0-2.353 0-.174.074-.29.193-.317.185-.044.364.022.436.18.113.237.21.48.313.722.085.206.17.411.25.617.013.034.032.04.08.034v-.408c0-.299-.004-.6.002-.9.003-.177.085-.245.27-.245.197-.003.313.087.326.252.003.031.003.065.003.096v2.241c0 .274-.116.383-.389.37-.106-.002-.175-.049-.225-.145-.126-.23-.207-.477-.31-.716-.104-.237-.204-.474-.304-.71a.082.082 0 0 1-.035.01ZM34.966 39.537v-1.235c0-.072-.012-.15.029-.215.056-.094.216-.143.36-.106a.27.27 0 0 1 .207.23c.006.038.003.075.003.112 0 .754-.007 1.504.003 2.257.003.28-.176.408-.454.355-.072-.013-.123-.066-.163-.13-.126-.222-.198-.465-.307-.692-.116-.24-.204-.495-.304-.75-.057.04-.035.09-.035.13-.003.38 0 .757 0 1.137 0 .158-.066.267-.188.305a.39.39 0 0 1-.398-.119c-.037-.05-.025-.105-.025-.155-.003-.526-.003-1.052-.003-1.578v-.788c0-.165.075-.28.188-.308.175-.047.36.013.432.162.116.24.22.486.323.731.088.209.17.42.254.63.013.021.031.027.078.027ZM6.335 39.403c.247.097.391.255.429.486.072.445-.034.731-.436.952a.708.708 0 0 1-.303.063c-.254.009-.511 0-.765.006-.144.003-.26-.131-.26-.268.003-.787 0-1.578.003-2.366 0-.149.07-.248.22-.258.335-.019.676-.056 1.005.044.285.087.46.345.473.641.01.296-.069.541-.366.7Zm-.711.296v.675c.423.044.557-.04.557-.333 0-.283-.088-.383-.557-.342Zm-.004-1.167v.647c.15-.028.323.066.426-.102a.406.406 0 0 0 .004-.436c-.098-.168-.27-.087-.43-.11ZM31.99 39.53c-.02.206.028.48-.028.751a.862.862 0 0 1-.768.703c-.338.044-.664-.006-.902-.283a.876.876 0 0 1-.214-.604c.004-.448 0-.893-.012-1.341-.006-.286.247-.66.567-.769.307-.103.617-.1.909.06.297.161.423.435.445.753.015.224.003.448.003.73Zm-.614-.068v-.61c-.007-.24-.126-.376-.33-.382-.212-.004-.34.118-.344.36-.01.42-.01.841 0 1.258.006.24.135.358.35.352.198-.006.317-.143.32-.374.007-.199.004-.401.004-.604ZM8.985 39.833v.775c0 .174-.059.28-.181.324-.126.046-.289 0-.389-.103-.062-.062-.037-.137-.037-.206-.004-.46-.004-.924-.004-1.385v-.955c0-.153.066-.252.217-.262.326-.018.658-.053.98.035.323.087.473.333.527.638.028.158.025.32-.01.479-.04.193-.128.361-.304.473l.383.81c.053.114.084.227.022.351-.082.162-.417.215-.527.003-.116-.224-.21-.46-.31-.69-.034-.082-.072-.163-.103-.247-.016-.04-.044-.04-.076-.04h-.188Zm.01-1.298v.766c.157-.038.341.065.448-.119a.51.51 0 0 0 .003-.529c-.103-.183-.285-.1-.451-.118ZM12.94 40.222c-.173 0-.342.006-.508-.003-.085-.003-.113.037-.128.106-.029.124-.05.249-.085.37-.056.202-.244.299-.445.24-.113-.035-.194-.259-.153-.408.15-.55.297-1.099.441-1.65.063-.236.1-.485.213-.71.091-.183.195-.251.386-.242a.39.39 0 0 1 .366.286c.079.256.141.514.21.772.138.52.267 1.043.417 1.56.056.193-.025.358-.182.398-.22.056-.404-.056-.429-.274-.025-.156-.088-.29-.103-.445Zm-.088-.551c-.075-.286-.11-.566-.232-.831l-.179.831h.41ZM24.244 38.554v.644c.173 0 .345-.003.52.003.11.003.204.04.257.153a.24.24 0 0 1-.022.258c-.06.084-.153.115-.253.115h-.495v.638h.755c.084 0 .163.016.238.06.113.068.131.177.106.289a.237.237 0 0 1-.232.196c-.422.006-.845.003-1.265-.003a.227.227 0 0 1-.22-.227c-.003-.813-.003-1.625 0-2.434 0-.138.1-.228.267-.23.379-.007.761-.01 1.143 0 .16.002.292.145.285.28-.006.118-.131.264-.316.26-.254-.005-.505-.002-.768-.002ZM41.474 38.553v.645c.175 0 .348-.006.523.003.11.003.204.044.257.152a.234.234 0 0 1-.025.259c-.06.084-.154.112-.254.112h-.495v.638c.26 0 .523-.003.787 0 .213.003.329.118.32.308-.007.118-.114.237-.239.237-.417.003-.837.003-1.253-.003a.23.23 0 0 1-.232-.23 318.54 318.54 0 0 1 0-2.435c0-.14.11-.227.282-.23.373-.006.742-.006 1.115 0 .166.003.304.146.298.283-.006.121-.138.261-.316.261-.254-.003-.505 0-.768 0ZM44.037 39.497c0-.259-.01-.517.003-.772.013-.33.285-.654.633-.753.382-.11.727-.04 1.009.249.097.1.178.218.14.38-.027.124-.106.186-.218.214-.107.028-.204.019-.282-.075a3.339 3.339 0 0 1-.085-.109.324.324 0 0 0-.373-.127c-.131.043-.191.152-.191.286-.003.448-.003.894 0 1.342.003.155.106.261.266.299.11.024.254-.05.33-.162.078-.115.175-.212.335-.187.115.019.203.068.247.187.053.146-.003.267-.094.376a.924.924 0 0 1-.576.33c-.342.053-.661.006-.906-.261a.84.84 0 0 1-.229-.626c.01-.2.004-.395.004-.594-.004.003-.01.003-.013.003ZM27.415 39.462c0 .221-.003.442 0 .663.003.16.104.262.263.302.113.028.257-.043.332-.155.079-.115.17-.215.333-.193.125.015.216.074.253.196.047.14-.006.261-.094.367a.92.92 0 0 1-.589.336c-.344.05-.673 0-.915-.28a.87.87 0 0 1-.213-.604c.003-.445 0-.893-.012-1.338-.006-.262.244-.623.532-.747.405-.178.865-.056 1.103.196.05.053.094.112.126.18.072.153.04.315-.088.39-.129.074-.291.096-.41-.056-.035-.044-.07-.084-.1-.128-.092-.118-.22-.109-.34-.078-.121.031-.178.14-.18.262-.004.227 0 .457 0 .687ZM47.775 38.55c-.132 0-.241.004-.354 0-.129-.003-.245-.093-.254-.196-.016-.162.013-.283.182-.326a.62.62 0 0 1 .15-.02h1.156c.082 0 .157.013.22.063.087.069.15.156.112.274a.298.298 0 0 1-.272.212c-.107.009-.21.003-.33.003v2.054c0 .174-.055.293-.18.32-.142.032-.283.038-.39-.099-.056-.072-.037-.146-.037-.221-.003-.635-.003-1.273-.003-1.908v-.156ZM21.199 40.359c.21 0 .404.003.598 0 .075 0 .148.012.21.05.107.065.163.165.135.29a.267.267 0 0 1-.26.21c-.36.007-.724.004-1.084-.002-.113-.003-.204-.119-.204-.243-.003-.28-.003-.564-.003-.844v-1.522c0-.246.075-.32.32-.317.197 0 .294.109.294.333-.006.672-.006 1.35-.006 2.045ZM18.131 40.359c.21 0 .405.003.596 0 .075 0 .15.012.21.05.106.062.162.165.134.29a.267.267 0 0 1-.26.21c-.36.007-.724.004-1.084-.002-.113-.003-.204-.115-.204-.243-.003-.262-.003-.526-.003-.788v-1.578c0-.245.079-.32.317-.32.197 0 .294.109.294.33v2.05ZM15.211 39.462v-1.257c0-.078.044-.14.1-.18.104-.072.226-.069.339-.025.116.04.17.133.17.255v2.403c0 .14-.098.258-.217.28-.185.034-.338-.028-.389-.171-.015-.047 0-.106 0-.16v-1.145h-.003ZM27.24 20.473c.332 0 .598.261.595.582-.003.302-.31.616-.602.604a.628.628 0 0 1-.589-.61c-.006-.32.26-.573.596-.576ZM32.673 21.628c-.364.027-.605-.324-.593-.583a.584.584 0 0 1 .618-.575c.335.003.576.305.576.582 0 .283-.254.594-.601.576ZM31.78 29.932c.003.349-.348.6-.59.604-.331.003-.588-.274-.613-.601-.022-.317.275-.566.673-.579.254-.006.527.293.53.576ZM31.206 21.058c-.003.308-.288.616-.585.6a.612.612 0 0 1-.593-.616.577.577 0 0 1 .611-.57.57.57 0 0 1 .567.586ZM20.356 24.429c.345-.003.61.233.608.573-.003.345-.248.594-.683.597-.232 0-.527-.32-.514-.582.012-.32.26-.594.589-.588ZM26.196 23.034c.063.284-.338.601-.557.601-.373 0-.63-.345-.62-.613.009-.283.219-.57.61-.573.326 0 .608.262.567.585ZM18.532 21.634c-.29.062-.589-.265-.592-.56 0-.287.173-.551.549-.58.416-.03.633.25.645.573.01.259-.222.607-.602.567ZM38.109 20.467c.35 0 .589.233.601.57.013.323-.219.594-.657.6-.248.003-.524-.311-.524-.595-.003-.29.273-.603.58-.575ZM15.665 28.348c.004-.324.267-.557.611-.56.358-.004.58.332.57.584-.012.3-.284.58-.573.576-.363-.006-.607-.249-.607-.6ZM38.707 23.016c.029.264-.206.591-.592.582a.582.582 0 0 1-.586-.576.59.59 0 0 1 .608-.585c.3.012.59.224.57.579ZM19.798 28.117c-.044-.336.26-.57.57-.579.305-.009.602.237.599.57-.003.327-.247.604-.69.594-.244-.003-.479-.289-.479-.585ZM36.921 21.052c.038.255-.25.591-.56.585-.364-.01-.624-.236-.618-.576.006-.311.22-.591.586-.588.323.006.602.243.592.579ZM25.613 25.568a.58.58 0 0 1-.595-.579c.006-.305.288-.573.617-.56.342.012.58.227.577.6 0 .306-.26.54-.599.54ZM29.298 30.508a.576.576 0 0 1-.58-.551.583.583 0 0 1 .549-.589c.379-.021.63.209.645.551a.582.582 0 0 1-.614.589ZM34.468 23.598c-.345.021-.586-.336-.558-.595.038-.364.257-.56.611-.557a.583.583 0 0 1 .58.613.59.59 0 0 1-.633.539ZM29.289 28.671a.567.567 0 0 1-.57-.588c.006-.314.288-.567.63-.551.328.015.567.22.55.622-.012.309-.265.526-.61.517ZM22.527 28.69c-.285.01-.573-.283-.573-.576 0-.305.276-.579.589-.579.338 0 .599.221.611.576.012.33-.257.57-.627.579ZM25.645 28.687c-.335.003-.624-.252-.62-.564a.593.593 0 0 1 .598-.588.584.584 0 0 1 .595.567c.003.264-.188.588-.573.585ZM32.657 24.426a.578.578 0 0 1 .62.57.583.583 0 0 1-.57.575c-.423.01-.608-.258-.62-.57a.555.555 0 0 1 .57-.575ZM18.517 23.601c-.323-.006-.608-.274-.577-.576.035-.323.235-.579.646-.566a.58.58 0 0 1 .551.57c0 .342-.266.578-.62.572ZM18.31 30.51c-.313-.002-.57-.223-.567-.497.003-.417.22-.654.605-.641.354.009.56.23.567.572a.548.548 0 0 1-.605.567ZM16.242 32.285a.568.568 0 0 1-.577-.6c.007-.318.276-.555.637-.54.347.016.535.225.551.577.013.289-.276.603-.611.563ZM22.885 21.061c-.01-.34.222-.582.563-.579.358.003.58.218.605.564.019.264-.232.591-.56.591-.37-.003-.599-.212-.608-.576ZM36.448 25.565a.556.556 0 0 1-.58-.55c-.003-.346.232-.586.58-.59a.576.576 0 0 1 .605.552c.019.267-.263.632-.605.588ZM16.847 25.039c.003.333-.335.579-.596.576-.322-.003-.564-.215-.564-.62 0-.336.236-.582.583-.563.332.016.583.24.577.607ZM20.362 30.51c-.347-.005-.586-.254-.58-.606.007-.314.28-.542.64-.532a.578.578 0 0 1 .545.594.575.575 0 0 1-.605.545ZM18.485 25.59c-.194.037-.513-.206-.551-.567-.028-.274.266-.572.57-.594a.592.592 0 0 1 .63.541c.035.346-.232.589-.649.62ZM16.223 21.634c-.247.003-.548-.24-.554-.448-.013-.433.188-.676.551-.695a.578.578 0 0 1 .624.564c0 .265-.188.598-.62.579ZM17.752 31.693c-.028-.326.289-.566.586-.56.31.006.573.259.58.567a.574.574 0 0 1-.57.585c-.376.006-.59-.206-.596-.592ZM27.832 28.099c.019.273-.229.582-.542.588-.392.006-.611-.224-.64-.557a.575.575 0 0 1 .577-.595.57.57 0 0 1 .605.564ZM24.01 30.51c-.38.038-.574-.304-.587-.569-.015-.333.264-.566.627-.572.263-.007.576.286.555.588a.576.576 0 0 1-.596.554ZM22.95 23.025a.59.59 0 0 1-.582.585c-.389 0-.586-.283-.602-.566-.019-.33.248-.58.589-.582a.572.572 0 0 1 .595.563ZM29.286 23.6a.555.555 0 0 1-.552-.578c.003-.37.267-.6.658-.563a.57.57 0 0 1 .508.6c-.01.277-.282.585-.614.542ZM34.155 28.195c-.173-.361-.37-.716-.53-1.083-.207-.473-.717-.62-1.128-.458-.266.106-.532.224-.63.536a.808.808 0 0 0 .05.61l.23.482c-.01.006.093.168.084.171l.135.287c.398.85.802 1.696 1.203 2.546l.279.597c-.16-.043-.289-.084-.42-.115-.448-.106-.846-.028-1.166.32a.735.735 0 0 0-.185.654c.057.315.239.558.492.732 1.031.703 2.068 1.397 3.102 2.095.326.22.577.513.74.871.156.349.445.47.805.324 1.024-.417 2.046-.838 3.07-1.255.36-.146.564-.445.549-.83-.022-.595-.057-1.187-.082-1.781a3.832 3.832 0 0 0-.35-1.479c-.223-.473-.427-.955-.643-1.431-.113-.246-.197-.508-.357-.735-.232-.333-.627-.482-1.018-.286-.138.068-.285.124-.426.193-.082.04-.142.043-.223-.022-.238-.19-.504-.233-.79-.093-.147.071-.303.127-.448.202-.1.053-.166.044-.256-.028-.273-.221-.577-.277-.91-.128-.197.09-.397.175-.604.265-.138-.277-.27-.542-.407-.822.016 0-.032-.043-.019-.043a.92.92 0 0 1-.066-.143s-.06-.103-.081-.153Z" fill="#050606"/><path d="M44.153 20.317a18.425 18.425 0 0 0-3.998-5.889 18.573 18.573 0 0 0-5.931-3.971A18.592 18.592 0 0 0 26.964 9c-2.52 0-4.96.489-7.263 1.457a18.559 18.559 0 0 0-5.928 3.971 18.508 18.508 0 0 0-3.998 5.89 18.286 18.286 0 0 0-1.466 7.214 18.297 18.297 0 0 0 2.312 8.945c.12.215.351.35.598.35.524 0 .85-.558.599-1.012a17.003 17.003 0 0 1-2.146-8.283c0-9.471 7.758-17.178 17.292-17.178 9.534 0 17.292 7.707 17.292 17.178 0 3-.78 5.824-2.146 8.283a.68.68 0 0 0 .599 1.011c.247 0 .479-.134.598-.349a18.287 18.287 0 0 0 2.312-8.945c0-2.502-.492-4.927-1.466-7.215Z" fill="#0EB2D3"/></g><defs><clipPath id="clip0_140_3293"><path fill="#fff" transform="translate(5 9)" d="M0 0h44v32H0z"/></clipPath></defs></svg>