<svg width="417" height="30" fill="none" xmlns="http://www.w3.org/2000/svg"><path d="M311.502 14.094v11.884c0 2.114-.947 3.097-3.018 3.067-1.982-.03-2.752-.744-2.752-2.77-.029-7.505 0-15.01 0-22.516 0-1.668.71-2.77 1.835-3.038 1.745-.417 3.432.209 4.112 1.727 1.065 2.264 1.983 4.587 2.959 6.91a483.393 483.393 0 0 1 2.367 5.897c.118.328.296.388.74.328v-3.902c0-2.859-.03-5.748.029-8.607.03-1.698.799-2.353 2.545-2.353 1.864-.03 2.958.834 3.077 2.413.029.297.029.625.029.923V25.5c0 2.621-1.094 3.663-3.669 3.544-1.005-.03-1.656-.476-2.13-1.4-1.183-2.203-1.952-4.556-2.929-6.85-.976-2.263-1.923-4.527-2.87-6.79-.118.06-.236.06-.325.089ZM283.779 15.643V3.819c0-.685-.118-1.43.266-2.055.533-.894 2.042-1.37 3.403-1.013 1.065.298 1.775 1.043 1.953 2.204.059.358.029.715.029 1.072 0 7.208-.059 14.386.03 21.594.029 2.68-1.657 3.901-4.29 3.395-.681-.12-1.154-.625-1.539-1.251-1.183-2.115-1.864-4.438-2.899-6.612-1.095-2.293-1.923-4.736-2.87-7.178-.533.387-.326.864-.326 1.251-.029 3.634 0 7.237 0 10.871 0 1.52-.621 2.561-1.775 2.919-1.243.417-2.959-.09-3.757-1.132-.355-.476-.237-1.012-.237-1.489-.03-5.034-.03-10.067-.03-15.1V3.759c0-1.578.71-2.68 1.776-2.948 1.656-.447 3.402.119 4.082 1.549 1.095 2.293 2.072 4.646 3.048 6.999.828 1.995 1.598 4.02 2.396 6.016.119.209.296.238.74.268ZM13.416 14.363c2.337.923 3.698 2.442 4.053 4.646.68 4.259-.325 6.999-4.112 9.114-.829.446-1.894.566-2.87.595-2.397.09-4.823 0-7.22.06-1.36 0-2.455-1.251-2.455-2.561.03-7.536 0-15.1.03-22.636 0-1.43.65-2.383 2.07-2.472C6.079.93 9.304.573 12.41 1.526c2.692.834 4.35 3.306 4.468 6.135.088 2.83-.651 5.153-3.462 6.702ZM6.7 17.192v6.463c3.994.417 5.266-.387 5.266-3.187 0-2.74-.828-3.663-5.266-3.276ZM6.67 6.023v6.195c1.42-.268 3.048.626 4.024-.983.828-1.34.799-2.83.03-4.17-.918-1.608-2.545-.863-4.054-1.042ZM255.672 15.583c-.178 1.966.266 4.587-.267 7.178-.798 3.783-3.491 6.255-7.248 6.731-3.196.417-6.273-.06-8.521-2.71-1.391-1.638-2.042-3.574-2.012-5.778.029-4.289 0-8.548-.119-12.837-.059-2.74 2.338-6.314 5.356-7.356 2.899-.983 5.828-.953 8.58.566 2.811 1.548 3.994 4.17 4.201 7.207.148 2.145.03 4.26.03 7Zm-5.799-.685V9.061c-.059-2.294-1.184-3.604-3.107-3.664-2.012-.03-3.225 1.132-3.254 3.455-.089 4.021-.089 8.042 0 12.033.059 2.293 1.272 3.425 3.313 3.365 1.864-.06 2.989-1.37 3.018-3.573.059-1.877.03-3.843.03-5.779ZM38.446 18.443v7.416c0 1.668-.562 2.68-1.716 3.097-1.183.447-2.722 0-3.668-.983-.592-.595-.356-1.31-.356-1.965-.03-4.408-.03-8.846-.03-13.254V3.61c0-1.46.622-2.412 2.042-2.501 3.077-.18 6.213-.507 9.26.327 3.078.864 4.468 3.187 4.971 6.136a11.97 11.97 0 0 1-.088 4.586c-.385 1.847-1.213 3.455-2.87 4.527 1.242 2.651 2.426 5.183 3.61 7.744.502 1.102.798 2.174.206 3.366-.769 1.548-3.934 2.055-4.97.03-1.095-2.145-1.982-4.409-2.93-6.613-.325-.774-.68-1.548-.975-2.352-.148-.388-.415-.388-.71-.388-.533-.03-1.095-.03-1.776-.03Zm.089-12.42v7.327c1.48-.358 3.225.625 4.23-1.132.948-1.638.948-3.396.03-5.063-.976-1.758-2.692-.924-4.26-1.132ZM75.785 22.195c-1.628 0-3.225.06-4.793-.03-.8-.03-1.066.358-1.214 1.013-.266 1.192-.473 2.383-.798 3.544-.533 1.936-2.308 2.86-4.202 2.294-1.065-.328-1.834-2.472-1.45-3.902C64.749 19.843 66.14 14.6 67.5 9.33c.592-2.264.947-4.646 2.012-6.79C70.37.78 71.347.125 73.152.214c1.567.06 2.958 1.072 3.461 2.74.74 2.442 1.332 4.914 1.982 7.386 1.302 4.974 2.515 9.978 3.935 14.922.533 1.847-.236 3.425-1.716 3.812-2.07.537-3.816-.536-4.053-2.62-.237-1.49-.828-2.8-.976-4.26Zm-.829-5.301c-.71-2.74-1.035-5.42-2.19-7.952-.561 2.62-1.124 5.242-1.686 7.952h3.876ZM182.533 6.202v6.165c1.628 0 3.255-.03 4.912.03 1.035.03 1.923.387 2.426 1.46.414.893.325 1.727-.207 2.471-.562.804-1.45 1.102-2.397 1.102h-4.674v6.106h7.13c.799 0 1.538.149 2.249.566 1.065.655 1.242 1.697 1.006 2.77-.237 1.102-1.095 1.876-2.19 1.876-3.994.06-7.988.03-11.953-.03-1.154-.03-2.071-1.012-2.071-2.174-.03-7.774-.03-15.547 0-23.29 0-1.311.947-2.175 2.515-2.205 3.58-.06 7.189-.09 10.799 0 1.509.03 2.752 1.4 2.692 2.68-.059 1.132-1.242 2.532-2.988 2.502-2.396-.03-4.763-.03-7.249-.03ZM345.231 6.202v6.165c1.656 0 3.284-.06 4.941.03 1.035.03 1.923.417 2.426 1.46.414.893.325 1.727-.237 2.471-.562.804-1.45 1.072-2.397 1.072h-4.674v6.106c2.455 0 4.941-.03 7.426 0 2.012.03 3.107 1.132 3.018 2.949-.059 1.131-1.065 2.263-2.249 2.263-3.935.03-7.899.03-11.834-.03-1.243 0-2.16-.982-2.19-2.204-.029-7.773-.029-15.547 0-23.29 0-1.34 1.036-2.175 2.663-2.204 3.521-.06 7.012-.06 10.533 0 1.568.03 2.87 1.4 2.811 2.71-.06 1.161-1.302 2.502-2.989 2.502h-7.248ZM369.432 15.255c0-2.472-.088-4.944.03-7.386.118-3.157 2.692-6.254 5.977-7.207 3.609-1.043 6.864-.388 9.526 2.382.918.953 1.687 2.085 1.332 3.634-.266 1.191-1.006 1.787-2.071 2.055-1.006.268-1.923.179-2.663-.715a31.727 31.727 0 0 1-.799-1.042 3.036 3.036 0 0 0-3.521-1.221c-1.242.416-1.804 1.459-1.804 2.74-.03 4.289-.03 8.548 0 12.836.029 1.49 1.005 2.502 2.514 2.86 1.036.238 2.397-.477 3.107-1.55.74-1.101 1.657-2.024 3.166-1.786 1.095.179 1.923.655 2.337 1.787.503 1.4-.029 2.561-.887 3.604-1.421 1.727-3.255 2.8-5.444 3.157-3.225.506-6.243.06-8.551-2.502-1.509-1.638-2.249-3.663-2.16-5.987.089-1.906.03-3.782.03-5.688-.03.03-.089.03-.119.03ZM212.475 14.928c0 2.115-.029 4.23 0 6.344.03 1.52.977 2.502 2.485 2.89 1.066.267 2.427-.418 3.137-1.49.739-1.102 1.597-2.055 3.136-1.846 1.183.148 2.041.714 2.396 1.876.444 1.34-.059 2.502-.887 3.514-1.45 1.787-3.344 2.89-5.563 3.217-3.254.477-6.361 0-8.639-2.68-1.39-1.609-2.041-3.575-2.012-5.779.03-4.259 0-8.548-.118-12.807-.059-2.501 2.308-5.956 5.03-7.148 3.816-1.697 8.166-.536 10.414 1.877.474.506.888 1.072 1.184 1.727.68 1.46.384 3.008-.829 3.723-1.213.715-2.751.923-3.876-.536-.325-.417-.651-.804-.946-1.221-.858-1.132-2.072-1.043-3.196-.745-1.154.298-1.686 1.34-1.716 2.502-.029 2.174 0 4.378 0 6.582ZM404.729 6.172c-1.242 0-2.278.03-3.343 0-1.213-.03-2.308-.894-2.396-1.877-.148-1.548.118-2.71 1.716-3.127.473-.12.946-.179 1.42-.179h10.917c.77 0 1.48.12 2.071.596.829.655 1.421 1.49 1.065 2.62-.384 1.222-1.331 1.907-2.574 2.026-1.006.09-1.982.03-3.106.03v19.657c0 1.668-.533 2.8-1.716 3.068-1.332.298-2.663.357-3.669-.953-.533-.685-.355-1.4-.355-2.115-.03-6.076-.03-12.181-.03-18.257V6.17ZM153.775 23.506c1.982 0 3.817.03 5.651 0 .71 0 1.391.12 1.983.477 1.005.625 1.538 1.578 1.272 2.77-.296 1.22-1.243 1.995-2.456 2.025-3.402.06-6.834.03-10.237-.03-1.065-.03-1.923-1.132-1.923-2.323-.03-2.68-.03-5.39-.03-8.072V3.79c0-2.353.71-3.067 3.018-3.038 1.864 0 2.781 1.043 2.781 3.187-.059 6.433-.059 12.897-.059 19.568ZM124.81 23.506c1.982 0 3.816.03 5.621 0 .71 0 1.42.119 1.983.476 1.006.596 1.538 1.579 1.272 2.77-.296 1.221-1.243 1.996-2.456 2.025-3.402.06-6.834.03-10.237-.03-1.065-.03-1.923-1.101-1.923-2.323-.03-2.501-.03-5.033-.03-7.535V3.79c0-2.353.74-3.068 2.989-3.068 1.864 0 2.781 1.043 2.781 3.157v19.628ZM97.235 14.898V2.866c0-.745.414-1.34.947-1.728.976-.685 2.13-.655 3.195-.238 1.095.387 1.598 1.28 1.598 2.442v22.993c0 1.34-.917 2.472-2.042 2.68-1.745.328-3.195-.267-3.668-1.637-.148-.447 0-1.013 0-1.52v-10.96h-.03Z" fill="#050606"/></svg>