<svg width="417" height="18" fill="none" xmlns="http://www.w3.org/2000/svg"><path d="M116.274 3.95c0 3.495.07 6.815-.034 10.1-.07 1.818-1.041 3.321-2.774 3.705-1.7.385-3.642.525-4.821-1.433.382-.384.798-.734 1.283-1.223.833 1.049 1.873 1.608 3.017.874.971-.594 1.908-1.433 1.249-2.866-.728.035-1.075.734-1.838.769-2.462.14-3.815-.77-4.057-3.216-.174-1.747-.174-3.53.45-5.242.521-1.399 1.838-1.853 2.948-1.608 1.526.42 2.948.524 4.577.14Zm-1.907 5.033V7.794c.035-1.293-.416-2.237-1.803-2.307-1.456-.104-2.046.84-2.219 2.167-.035.385-.035.77-.035 1.189 0 2.516.555 3.495 2.115 3.495 1.491-.035 1.942-.839 1.942-3.355ZM170.892 3.985V17.16c0 .21-.035.42-.069.63-.59.174-1.145.14-1.838 0v-4.58c-.867-.174-1.145.595-1.804.665-2.496.35-4.057-.77-4.334-3.32-.174-1.713-.139-3.426.451-5.069.52-1.433 1.941-1.992 3.051-1.642 1.526.489 2.913.244 4.543.14Zm-1.942 4.893V7.55c0-1.189-.52-1.958-1.699-2.063-1.145-.104-1.942.42-2.185 1.573-.277 1.328-.312 2.657.069 3.985.313 1.013 1.145 1.328 2.116 1.258 1.04-.07 1.63-.664 1.699-1.713.035-.594 0-1.153 0-1.712ZM135.833 5.313c1.318-1.503 3.329-1.958 5.375-1.154 1.664.63 2.011 2.097 2.046 3.635.069 1.957 0 3.915 0 6.117-2.081-.385-4.057.21-6.034-.07-2.011-.28-1.769-1.992-1.803-3.46 0-1.329.659-2.028 1.907-2.167.936-.105 1.907-.035 2.843-.035.59 0 1.249-.105 1.214-.77 0-.698-.277-1.502-1.144-1.607-.763-.105-1.665-.245-2.324.035-.901.42-1.456 0-2.08-.524Zm5.618 4.229c-1.145 0-2.081-.035-3.017 0-.694.035-1.145.489-1.249 1.153-.104.734.208 1.328.902 1.608.971.384 2.011.42 2.878-.14.971-.63.451-1.643.486-2.621ZM268.059 5.347c1.387-1.502 3.433-1.957 5.444-1.153 1.734.7 2.012 2.202 2.046 3.81.035 1.782 0 3.6 0 5.382 0 .105-.069.21-.173.49-1.942-.49-3.918.244-5.86-.07-2.012-.315-1.769-2.027-1.769-3.495 0-1.329.694-2.028 1.942-2.132.867-.105 1.769-.035 2.67-.035.624 0 1.387 0 1.353-.804-.035-.734-.278-1.573-1.318-1.608-.728 0-1.561-.21-2.15.07-.902.454-1.422.035-2.185-.455Zm5.653 4.195c-1.075 0-2.046-.035-3.052 0-.694.035-1.144.489-1.248 1.153-.105.734.208 1.328.936 1.573.971.384 2.011.42 2.878-.14.971-.594.451-1.608.486-2.586ZM67.656 13.876c-2.774 0-4.092-1.643-3.884-5.348.209-3.88 1.11-4.474 4.266-4.718 2.774-.21 4.057 1.677 4.057 5.417-.035 3.25-1.387 4.649-4.439 4.649Zm2.532-4.474V7.794c-.07-1.293-.763-2.167-2.011-2.237-1.388-.07-2.185.804-2.324 2.132-.104.944-.139 1.888.104 2.831.312 1.154 1.04 1.713 2.185 1.643 1.179-.035 1.838-.699 2.011-1.852.035-.42.035-.874.035-.91ZM100.184 8.808c0 4.089-2.046 5.837-5.826 4.998-1.664-.385-2.22-2.027-2.462-3.53a8.528 8.528 0 0 1 .486-4.544c.693-1.748 2.323-1.922 3.849-1.957 1.63-.035 3.017.664 3.606 2.376.312.944.451 1.888.347 2.657Zm-1.838-.07c-.035 0-.035 0 0 0-.035-.35 0-.664-.035-1.014-.069-1.328-.832-2.132-2.08-2.167-1.283-.035-2.08.804-2.22 2.062a11.02 11.02 0 0 0 .07 2.831c.208 1.224 1.005 1.818 2.254 1.748 1.179-.07 1.803-.769 1.942-1.922.034-.525.034-1.014.07-1.538ZM244.166 9.017c0 3.915-2.081 5.628-5.86 4.859-.763-.175-1.18-.804-1.596-1.363-1.179-1.573-1.213-5.558-.138-7.2.693-1.084 2.878-1.748 4.473-1.398 1.907.454 2.913 1.642 3.121 3.774.035.42 0 .874 0 1.328Zm-1.803-.104c-.07-.595-.07-1.224-.208-1.818-.208-1.048-1.041-1.468-1.942-1.538-.867-.035-1.699.35-2.011 1.224-.486 1.398-.521 2.866.034 4.264.347.908 1.145 1.153 2.046 1.118.936-.035 1.595-.524 1.838-1.433.173-.56.173-1.188.243-1.817ZM416.965 8.808c0 4.089-1.976 5.837-5.791 4.998-1.699-.35-2.254-1.992-2.497-3.495-.242-1.503-.138-3.076.486-4.544.693-1.713 2.323-1.957 3.849-1.957 1.63-.035 3.017.664 3.641 2.376.278.874.416 1.818.312 2.622Zm-1.872.21h-.035c0-.455.035-.91 0-1.364-.069-1.258-.798-2.027-1.977-2.097-1.283-.105-2.15.7-2.288 1.957-.104.944-.104 1.923.034 2.831.174 1.189.937 1.888 2.22 1.818 1.283-.035 1.907-.804 2.046-2.027V9.017ZM22.887 12.617c-2.67 1.958-5.895 1.678-7.04-.629-1.178-2.376-.97-4.753.452-6.92.797-1.223 2.219-1.363 3.537-1.258 1.526.14 2.6 1.048 3.086 2.586.277.944.485 1.922.45 3.146H17.27c.242 2.446 1.456 3.215 3.467 2.341 1.145-.489 1.145-.489 2.15.734Zm-1.283-4.543c-.07-1.433-.52-2.552-2.08-2.587-1.56-.035-2.185 1.049-2.324 2.587h4.404ZM303.292 9.577h-6.069c.173 2.376 1.457 3.215 3.398 2.272 1.006-.49 1.63-.385 2.116.629-1.387 1.398-4.508 1.957-5.965.873-1.526-1.153-2.393-4.229-1.144-7.27.693-1.677 2.705-2.656 4.439-2.236 2.254.524 3.294 2.306 3.225 5.732Zm-1.769-1.468c-.069-1.573-.624-2.657-2.15-2.622-1.526.035-2.15 1.084-2.185 2.622h4.335ZM204.183 9.577h-6.069c.139 2.376 1.387 3.18 3.398 2.341 1.179-.489 1.179-.489 2.116.595-1.318 1.433-4.439 1.887-5.965.908-1.526-.978-2.185-4.718-1.283-7.2.59-1.572 2.67-2.69 4.404-2.376 2.324.384 3.433 2.167 3.399 5.732Zm-1.873-1.468c-.069-1.783-.832-2.692-2.115-2.622-1.318.07-2.012.944-2.046 2.622h4.161ZM378.508 4.09h1.664v5.172c0 2.132.555 2.97 1.873 2.936 1.491-.035 2.219-.979 2.219-2.936V4.264c.624-.42 1.179-.175 1.804-.28v9.857c-.659-.175-1.388.454-1.908-.525-.173-.35-.555-.035-.867.105-2.288.979-5.063.63-4.924-2.936.069-1.957 0-3.914 0-5.906.035-.105.104-.245.139-.49ZM187.537 13.876c-.832-.105-1.734.419-2.115-.734-2.046 1.153-3.78 1.013-4.924-.175-.416-.455-.555-.909-.555-1.468V4.194c.451-.35.971-.175 1.664-.07 0 1.783-.034 3.565 0 5.348.035 1.957.625 2.76 1.908 2.726 1.421-.07 2.184-1.014 2.184-2.831V4.229c.659-.315 1.214-.21 1.838-.14v9.787ZM357.32 13.84c-.833 0-1.665.315-2.081-.628-2.185 1.013-3.815.943-4.89-.14-.416-.42-.659-.804-.659-1.433.035-2.447 0-4.928 0-7.445.451-.35 1.006-.07 1.63-.174 0 1.887-.034 3.634 0 5.347.035 1.293.035 2.691 1.804 2.831 1.525.105 2.288-.944 2.323-2.866V4.09h1.838c.035 3.216.035 6.431.035 9.752ZM3.745 13.945V1.817H.277C-.139 1.188 0 .7.14.105h9.19c.38.454.207.978.103 1.642H5.826v11.919c-.694.384-1.318.07-2.08.28ZM49.346 13.806h-1.699V4.159c1.457-.14 1.457-.14 1.873.909 1.144-1.258 2.462-1.678 3.988-.874 1.49.804 1.872 2.202 1.838 3.775-.035 1.887 0 3.81 0 5.697-.59.315-1.11.245-1.769.07 0-1.783-.035-3.565 0-5.348 0-.838-.243-1.468-.832-2.097-.728-.804-1.56-.734-2.428-.489-.867.245-.936 1.083-.97 1.783-.035 1.992 0 4.019 0 6.22ZM39.498 5.243c-.728 1.083-1.387 1.398-2.636.664-1.387-.84-2.704-.14-3.155 1.468-.312 1.083-.312 2.202.104 3.285.59 1.538 1.907 2.062 3.26 1.153 1.005-.699 1.664-.454 2.288.49-1.179 1.643-4.716 2.167-6.276.909-1.734-1.399-2.116-6.222-.625-8.074 1.422-1.818 4.89-1.748 7.04.105ZM260.153 5.243c-.694 1.013-1.353 1.468-2.601.699-1.457-.874-2.879-.14-3.225 1.538-.208.978-.243 1.992.104 2.97.624 1.748 1.872 2.307 3.433 1.294 1.144-.77 1.664-.14 2.254.664-1.457 1.643-4.994 2.027-6.45.734-1.699-1.538-1.977-6.326-.451-8.109 1.456-1.678 4.786-1.608 6.936.21ZM340.015 13.806h-1.768v-7.83c-1.11-.419-2.081-.873-.624-1.992.242-.174.312-.384.346-.664.451-3.46.486-3.46 3.85-3.145.173.454.138.943 0 1.398-2.012.35-2.012.35-1.804 2.446h1.526c.555.42.312.874.278 1.398-.59.035-1.145.07-1.873.14.069 2.796.069 5.453.069 8.249ZM226.099 5.907c0 1.468-.035 3.006 0 4.508 0 .77-.312 1.678 1.04 1.853.624.07.208.944.243 1.433-2.705.35-3.156-.035-3.156-2.656 0-1.329.035-2.692 0-4.02 0-.524.312-1.223-.693-1.433-.59-.14-.382-1.188-.243-1.258 1.595-.664.555-2.167 1.075-3.18.555-.175 1.075-.14 1.665-.036v2.447c.277.874 1.421 0 1.456 1.223 0 1.154-.936.7-1.387 1.119ZM369.838 13.84c-3.051.07-3.294-.174-3.294-2.935 0-1.293.035-2.587 0-3.88 0-.56.277-1.223-.694-1.398-.555-.105-.346-1.048-.242-1.118 1.421-.77.762-2.202 1.075-3.356h1.699v2.831c.832.175 1.942.175 1.214 1.608-.313.07-.694.14-1.18.245 0 1.608-.034 3.11 0 4.613 0 .77-.312 1.678 1.041 1.853.624.07.104.909.381 1.538ZM84.37 12.233v1.538c-3.155.314-3.328.14-3.328-2.901V.28c.555-.42 1.11-.14 1.768-.245 0 3.6.035 7.06 0 10.52-.034 1.084.174 1.888 1.56 1.678ZM313.868 0c0 3.6.035 7.025 0 10.415 0 1.154.104 2.063 1.596 1.783v1.538c-.798.175-1.665.245-2.428 0-.555-.175-.902-.734-.867-1.468.035-4.02 0-8.074 0-12.198.52 0 .971-.035 1.699-.07ZM396.922 13.806h-1.7V4.089c.763.035 1.665-.559 1.769 1.049 1.422-1.433 2.913-1.887 4.543-.524-.208.664-.694 1.048-1.145 1.433-2.566-.979-3.467-.35-3.502 2.411 0 1.713.035 3.46.035 5.348ZM125.36 4.16c.52-.21 1.006-.14 1.561-.07V13.7c-.417.35-.937.14-1.561.105V4.159Z" fill="#050606"/></svg>