<svg width="681" height="49" fill="none" xmlns="http://www.w3.org/2000/svg"><path d="M509.497 22.836v19.451c0 3.461-1.55 5.07-4.94 5.021-3.244-.049-4.504-1.219-4.504-4.534-.048-12.284 0-24.569 0-36.853 0-2.73 1.163-4.534 3.003-4.973 2.857-.682 5.617.341 6.731 2.828 1.743 3.705 3.245 7.507 4.843 11.31 1.307 3.217 2.615 6.434 3.874 9.652.193.536.484.633 1.21.536v-6.386c0-4.68-.048-9.409.049-14.089.048-2.778 1.307-3.85 4.165-3.85 3.05-.05 4.842 1.364 5.036 3.948.048.487.048 1.024.048 1.511v35.099c0 4.29-1.792 5.996-6.005 5.801-1.646-.049-2.711-.78-3.486-2.291-1.937-3.608-3.196-7.459-4.794-11.212-1.598-3.705-3.148-7.41-4.698-11.115-.194.098-.387.098-.532.146ZM464.121 25.371V6.018c0-1.121-.193-2.34.436-3.363.872-1.463 3.341-2.243 5.569-1.658 1.743.488 2.906 1.706 3.196 3.607.097.585.049 1.17.049 1.755 0 11.798-.097 23.546.048 35.343.048 4.388-2.712 6.386-7.022 5.558-1.114-.195-1.888-1.024-2.518-2.048-1.937-3.461-3.051-7.264-4.746-10.822-1.791-3.754-3.147-7.751-4.697-11.748-.872.633-.533 1.413-.533 2.047-.048 5.947 0 11.846 0 17.793 0 2.486-1.017 4.193-2.905 4.778-2.034.682-4.843-.147-6.15-1.853-.581-.78-.388-1.657-.388-2.437-.048-8.239-.048-16.477-.048-24.716V5.921c0-2.584 1.162-4.388 2.905-4.826 2.712-.732 5.569.195 6.683 2.535 1.792 3.753 3.39 7.604 4.988 11.455 1.356 3.267 2.615 6.581 3.923 9.848.193.34.484.39 1.21.438ZM21.604 23.275c3.826 1.511 6.053 3.997 6.634 7.605 1.114 6.97-.532 11.456-6.731 14.917-1.356.731-3.1.926-4.697.975-3.923.146-7.894 0-11.816.097-2.228 0-4.02-2.047-4.02-4.192.049-12.333 0-24.715.049-37.049 0-2.34 1.065-3.9 3.39-4.046 5.181-.293 10.46-.878 15.544.682 4.407 1.365 7.119 5.412 7.313 10.043.145 4.63-1.066 8.433-5.666 10.968ZM10.61 27.906v10.579c6.538.682 8.62-.634 8.62-5.216 0-4.485-1.356-5.997-8.62-5.363Zm-.048-18.28v10.14c2.324-.44 4.988 1.023 6.586-1.61 1.356-2.193 1.307-4.63.048-6.824-1.501-2.633-4.164-1.414-6.634-1.707ZM418.117 25.274c-.291 3.217.435 7.507-.436 11.748-1.308 6.191-5.715 10.237-11.865 11.017-5.23.683-10.266-.097-13.946-4.436-2.276-2.681-3.342-5.85-3.293-9.457.048-7.02 0-13.99-.194-21.01-.097-4.486 3.826-10.335 8.765-12.042 4.746-1.608 9.54-1.56 14.044.927 4.6 2.535 6.537 6.824 6.876 11.797.242 3.51.049 6.97.049 11.456Zm-9.492-1.122v-9.554c-.097-3.754-1.937-5.899-5.085-5.996-3.293-.05-5.278 1.852-5.327 5.655a445.88 445.88 0 0 0 0 19.694c.097 3.754 2.083 5.606 5.424 5.508 3.051-.097 4.891-2.242 4.94-5.85.097-3.07.048-6.288.048-9.457ZM62.572 29.954v12.138c0 2.73-.92 4.387-2.809 5.07-1.936.731-4.455 0-6.004-1.609-.969-.975-.581-2.145-.581-3.217-.049-7.215-.049-14.479-.049-21.693V5.677c0-2.389 1.017-3.949 3.342-4.095 5.036-.293 10.169-.829 15.157.536 5.036 1.414 7.312 5.216 8.135 10.042a19.59 19.59 0 0 1-.145 7.508c-.63 3.022-1.985 5.655-4.697 7.41a2513.88 2513.88 0 0 1 5.908 12.674c.823 1.804 1.307 3.559.339 5.509-1.26 2.535-6.44 3.363-8.136.048-1.791-3.51-3.244-7.214-4.794-10.822-.533-1.267-1.114-2.535-1.598-3.85-.242-.635-.678-.635-1.162-.635-.872-.048-1.792-.048-2.906-.048Zm.145-20.329v11.993c2.422-.585 5.279 1.023 6.925-1.853 1.55-2.681 1.55-5.557.049-8.287-1.598-2.876-4.407-1.511-6.974-1.853ZM123.686 36.096c-2.663 0-5.278.097-7.845-.049-1.308-.049-1.743.585-1.986 1.658-.435 1.95-.774 3.9-1.307 5.8-.872 3.17-3.777 4.68-6.877 3.754-1.743-.536-3.002-4.046-2.372-6.386 2.324-8.628 4.6-17.208 6.828-25.836.968-3.705 1.549-7.605 3.293-11.115 1.404-2.876 3.002-3.949 5.956-3.803 2.567.098 4.843 1.755 5.666 4.485 1.211 3.998 2.179 8.044 3.244 12.09 2.131 8.141 4.117 16.33 6.441 24.423.872 3.022-.387 5.606-2.809 6.24-3.389.877-6.247-.878-6.634-4.29-.387-2.438-1.356-4.582-1.598-6.971Zm-1.356-8.677c-1.162-4.485-1.695-8.873-3.583-13.016-.921 4.29-1.841 8.58-2.761 13.016h6.344ZM298.407 9.918v10.09c2.664 0 5.327-.048 8.039.05 1.695.048 3.148.633 3.971 2.388.678 1.463.533 2.828-.339 4.046-.92 1.317-2.373 1.804-3.923 1.804h-7.651v9.993h11.671c1.307 0 2.518.244 3.68.927 1.743 1.072 2.034 2.778 1.647 4.533-.388 1.804-1.792 3.072-3.584 3.072-6.537.097-13.075.048-19.564-.05-1.889-.048-3.39-1.657-3.39-3.558a5045.968 5045.968 0 0 1 0-38.121c0-2.145 1.55-3.559 4.116-3.608 5.86-.097 11.768-.146 17.676 0 2.47.05 4.504 2.292 4.407 4.388-.097 1.852-2.034 4.143-4.891 4.095-3.923-.05-7.797-.05-11.865-.05ZM564.702 9.918v10.09c2.712 0 5.376-.097 8.087.05 1.695.048 3.148.682 3.971 2.388.678 1.463.533 2.828-.387 4.046-.92 1.317-2.373 1.755-3.923 1.755h-7.651v9.994c4.019 0 8.087-.049 12.155 0 3.293.048 5.085 1.852 4.939 4.826-.096 1.852-1.743 3.705-3.68 3.705-6.441.049-12.93.049-19.37-.049-2.034 0-3.535-1.609-3.584-3.607a5045.979 5045.979 0 0 1 0-38.122c0-2.193 1.695-3.558 4.359-3.607a508.094 508.094 0 0 1 17.239 0c2.567.049 4.698 2.291 4.601 4.436-.097 1.901-2.131 4.095-4.891 4.095h-11.865ZM604.315 24.738c0-4.047-.146-8.093.048-12.09.194-5.167 4.407-10.237 9.782-11.797 5.908-1.706 11.235-.634 15.593 3.9 1.502 1.56 2.761 3.412 2.18 5.947-.436 1.95-1.647 2.925-3.39 3.364-1.647.438-3.148.292-4.359-1.17a53.42 53.42 0 0 1-1.307-1.707c-1.259-1.9-3.584-2.73-5.763-1.998-2.034.682-2.954 2.389-2.954 4.485-.048 7.02-.048 13.99 0 21.01.049 2.438 1.647 4.095 4.116 4.68 1.695.39 3.923-.78 5.085-2.535 1.211-1.803 2.712-3.315 5.182-2.925 1.792.293 3.148 1.073 3.825 2.925.824 2.291-.048 4.193-1.452 5.899-2.325 2.827-5.327 4.582-8.911 5.167-5.278.829-10.218.098-13.995-4.095-2.47-2.68-3.68-5.996-3.535-9.798.145-3.12.048-6.191.048-9.311-.048.049-.145.049-.193.049ZM347.414 24.201c0 3.461-.048 6.922 0 10.384.049 2.486 1.599 4.094 4.068 4.728 1.744.439 3.971-.682 5.133-2.437 1.211-1.804 2.615-3.364 5.134-3.023 1.937.244 3.341 1.17 3.922 3.072.726 2.193-.097 4.094-1.453 5.752-2.373 2.925-5.472 4.728-9.104 5.265-5.327.78-10.411 0-14.14-4.388-2.276-2.632-3.342-5.85-3.293-9.457.048-6.97 0-13.99-.194-20.962-.097-4.095 3.777-9.75 8.233-11.7 6.247-2.778 13.365-.877 17.046 3.072.774.828 1.452 1.755 1.937 2.827 1.113 2.389.629 4.924-1.356 6.094-1.986 1.17-4.504 1.51-6.344-.878-.533-.682-1.066-1.316-1.55-1.998-1.404-1.853-3.39-1.707-5.23-1.22-1.888.488-2.76 2.194-2.809 4.096-.048 3.558 0 7.166 0 10.773ZM662.087 9.87c-2.034 0-3.729.048-5.472 0-1.986-.05-3.777-1.463-3.923-3.072-.242-2.535.194-4.436 2.809-5.119a9.497 9.497 0 0 1 2.325-.292h17.869c1.259 0 2.421.195 3.39.975 1.356 1.072 2.324 2.437 1.743 4.29-.63 1.998-2.179 3.12-4.213 3.315-1.647.146-3.245.048-5.085.048V42.19c0 2.73-.872 4.582-2.809 5.02-2.179.488-4.358.586-6.004-1.56-.872-1.12-.581-2.29-.581-3.46-.049-9.945-.049-19.939-.049-29.883V9.869ZM251.337 38.24c3.245 0 6.247.05 9.25 0 1.162 0 2.276.196 3.244.78 1.647 1.025 2.518 2.585 2.082 4.534-.484 2-2.033 3.267-4.019 3.315-5.569.098-11.186.05-16.755-.048-1.744-.05-3.148-1.853-3.148-3.803-.048-4.387-.048-8.823-.048-13.21V5.968c0-3.85 1.162-5.02 4.939-4.972 3.051 0 4.552 1.706 4.552 5.216-.097 10.53-.097 21.108-.097 32.028ZM203.928 38.24c3.244 0 6.247.05 9.201 0 1.162 0 2.324.196 3.244.78 1.647.976 2.519 2.584 2.083 4.534-.484 2-2.034 3.267-4.02 3.315-5.569.098-11.186.05-16.755-.048-1.743-.05-3.148-1.804-3.148-3.803-.048-4.095-.048-8.238-.048-12.333V5.969c0-3.85 1.211-5.02 4.891-5.02 3.051 0 4.552 1.705 4.552 5.167V38.24ZM158.795 24.152V4.459c0-1.219.678-2.194 1.55-2.827 1.598-1.122 3.486-1.073 5.23-.39 1.791.633 2.615 2.096 2.615 3.997v37.634c0 2.194-1.502 4.046-3.342 4.387-2.857.536-5.23-.438-6.005-2.68-.242-.732 0-1.658 0-2.487v-17.94h-.048Z" fill="#050606"/></svg>