<svg width="74" height="74" fill="none" xmlns="http://www.w3.org/2000/svg"><g clip-path="url('#clip0_140_3162')" filter="url('#filter0_i_140_3162')" fill="#000"><path d="M19.3 11.7c.5-.1 1 .2 1.5.5 1.7 1.2 3.5 2.5 5.2 3.7.3.3.6.3 1 .1.7-.3 1.5-.6 2.2-.9.4-.1.5-.3.6-.7.4-2 .7-4 1.1-6 .4-1.8 1.1-2.4 3-2.4h6.2c1.5 0 2.4.7 2.7 2.3.3 2 .7 4.1 1 6.1.1.5.2.8.7.9.6.2 1.2.4 1.7.7.6.4 1.1.2 1.6-.2 1.6-1.2 3.2-2.3 4.8-3.4 1.2-.9 2.4-.8 3.4.3l4.6 4.6c1.1 1.1 1.2 2.2.3 3.4-1.2 1.7-2.4 3.5-3.7 5.2-.3.4-.3.6-.1 1L58 29c.1.4.4.6.7.6 2.1.3 4.2.7 6.3 1.1 1.5.2 2.2 1.1 2.2 2.6V40c0 1.3-.8 2.2-2.1 2.5-2.2.4-4.4.8-6.6 1.1-.4.1-.5.2-.6.5-.3.8-.6 1.5-.9 2.2-.2.3-.1.5.1.8 1.2 1.7 2.5 3.4 3.7 5.2 1 1.4.9 2.5-.3 3.7-1.6 1.5-3.1 3.1-4.7 4.6-1 .9-2.1 1-3.2.3l-5.1-3.6c-.5-.3-.9-.4-1.5-.1-.5.3-1.1.5-1.7.7-.6.2-.8.5-.9 1.1-.3 2.1-.7 4.1-1.1 6.2-.3 1.4-1.1 2.1-2.6 2.1h-6.6c-1.5 0-2.3-.8-2.6-2.2-.4-2.1-.7-4.2-1.1-6.4-.1-.4-.2-.6-.6-.7-.7-.2-1.4-.5-2.1-.9-.4-.2-.7-.2-1.1.1-1.7 1.2-3.5 2.4-5.3 3.6-1.3.9-2.3.7-3.4-.3-1.5-1.6-3.1-3.1-4.6-4.7-1-1.1-1.1-2.2-.3-3.4 1.2-1.7 2.5-3.4 3.7-5.1.3-.4.3-.6.1-1.1-.3-.7-.6-1.5-.9-2.2-.1-.3-.3-.5-.6-.5-2.1-.4-4.1-.8-6.2-1.1-1.4-.3-2.1-1.2-2.1-2.8 0-2.2 0-4.5.1-6.7 0-1.3.8-2.1 2-2.3 2.1-.4 4.3-.7 6.4-1 .4-.1.7-.2.8-.7.2-.7.6-1.4.9-2.1.2-.4.2-.6-.1-1-1.2-1.7-2.3-3.4-3.5-5-1-1.5-.9-2.5.4-3.8 1.5-1.5 3-3 4.5-4.4.5-.6 1.1-.9 1.8-.9ZM38 62.5c.2-.2.2-.4.2-.6.3-1.9.7-3.9 1-5.8.2-1 .8-1.6 1.7-1.8 1.8-.5 3.4-1.1 5-2 .9-.5 1.8-.5 2.7.1.6.4 1.3.9 1.9 1.3 1.1.8 2.2 1.6 3.4 2.4.7-.8 1.4-1.5 2.1-2.2-.1-.1-.2-.3-.3-.4-1.1-1.6-2.2-3.1-3.3-4.7-.7-.9-.8-1.9-.2-2.9.8-1.4 1.5-2.8 1.9-4.4.3-1.4 1.2-2.1 2.6-2.3 1.9-.3 3.7-.6 5.5-.9.3 0 .4-.1.4-.4v-2.7c-.2 0-.4-.1-.5-.1-1.9-.3-3.8-.6-5.6-.9-1.2-.2-1.9-.9-2.2-2-.4-1.7-1.1-3.3-1.9-4.7-.5-.9-.5-1.8.1-2.7.4-.6.9-1.3 1.3-1.9.8-1.1 1.6-2.2 2.4-3.4-.8-.7-1.5-1.4-2.2-2.1-.1.1-.3.2-.5.3-1.5 1.1-3.1 2.2-4.6 3.3-.9.7-1.8.8-2.8.2-1.5-.9-3.2-1.6-4.9-2.1-1-.3-1.6-1-1.8-2-.1-.7-.2-1.3-.3-2-.2-1.4-.5-2.8-.7-4.4h-2.5c-.5 0-.6.2-.7.6-.3 1.8-.7 3.7-1 5.5-.2 1.2-.8 1.9-2 2.2-1.7.4-3.2 1-4.7 1.9-1 .6-1.9.5-2.8-.1-.3-.2-.6-.4-.9-.7-1.4-1-2.8-2-4.1-3l-2.2 2.2c1.1 1.6 2.2 3.3 3.4 4.9.7 1 .8 2 .1 3.1-.9 1.4-1.5 3-1.9 4.6-.3 1.1-1 1.7-2.1 1.9l-5.7.9c-.3 0-.5 0-.5.4v2.7c.2.2.5.3.7.3 1.9.3 3.7.7 5.6 1 1 .2 1.6.8 1.9 1.8.4 1.7 1.1 3.4 2 4.9.5.9.5 1.8-.1 2.7-.7 1-1.5 2-2.2 3-.5.7-1 1.4-1.6 2.2.6.6 1.2 1.1 1.8 1.7.3.3.5.3.9.1 1.6-1.1 3.2-2.2 4.7-3.3.9-.6 1.8-.7 2.8-.2 1.5.9 3.2 1.6 4.9 2 1 .3 1.6 1 1.8 2 .1.8.3 1.6.4 2.4.2 1.3.4 2.6.7 3.9.9.2 1.9.2 2.9.2Z"/><path d="M36.6 48.5c-6.6 0-11.8-5.2-11.9-11.8 0-6.5 5.3-11.8 11.8-11.8 6.6 0 11.8 5.2 11.8 11.8.1 6.6-5.2 11.8-11.7 11.8Zm-7.2-11.8c0 3.9 3.2 7.1 7.1 7.1 3.9 0 7.2-3.2 7.2-7.1 0-3.9-3.2-7.1-7.1-7.1-3.9 0-7.1 3.2-7.2 7.1Z"/></g><rect x="2" y="2" width="70" height="70" rx="11" stroke="#050606" stroke-width="4"/><defs><clipPath id="clip0_140_3162"><path fill="#fff" transform="translate(6 6)" d="M0 0h61.3v61.3H0z"/></clipPath><filter id="filter0_i_140_3162" x="6" y="6" width="61.3" height="61.3" filterUnits="userSpaceOnUse" color-interpolation-filters="sRGB"><feFlood flood-opacity="0" result="BackgroundImageFix"/><feBlend in="SourceGraphic" in2="BackgroundImageFix" result="shape"/><feColorMatrix in="SourceAlpha" values="0 0 0 0 0 0 0 0 0 0 0 0 0 0 0 0 0 0 127 0" result="hardAlpha"/><feOffset dy="-89"/><feGaussianBlur stdDeviation="2"/><feComposite in2="hardAlpha" operator="arithmetic" k2="-1" k3="1"/><feColorMatrix values="0 0 0 0 0.054902 0 0 0 0 0.698039 0 0 0 0 0.827451 0 0 0 1 0"/><feBlend in2="shape" result="effect1_innerShadow_140_3162"/></filter></defs></svg>