<svg width="59" height="58" fill="none" xmlns="http://www.w3.org/2000/svg"><g clip-path="url('#clip0_140_3420')" fill="#000"><path d="M15.397 9.17c.392-.078.784.157 1.176.392 1.332.94 2.743 1.96 4.076 2.9.235.235.47.235.784.079.548-.236 1.175-.47 1.724-.706.313-.078.392-.235.47-.549.314-1.567.549-3.135.862-4.702.314-1.411.862-1.881 2.352-1.881H31.7c1.176 0 1.881.548 2.116 1.802.235 1.568.549 3.214.784 4.781.078.392.157.627.549.706.47.157.94.313 1.332.548.47.314.862.157 1.254-.156 1.254-.94 2.508-1.803 3.762-2.665.94-.706 1.881-.627 2.665.235l3.606 3.605c.862.863.94 1.725.235 2.665-.94 1.333-1.881 2.744-2.9 4.076-.235.313-.235.47-.079.784l.706 1.646c.078.313.313.47.548.47 1.646.235 3.292.549 4.938.862 1.176.157 1.725.862 1.725 2.038v5.251c0 1.02-.627 1.725-1.646 1.96-1.725.313-3.449.627-5.173.862-.314.078-.392.157-.47.392-.236.627-.47 1.175-.706 1.724-.157.235-.078.392.078.627.94 1.333 1.96 2.665 2.9 4.076.784 1.097.706 1.96-.235 2.9-1.254 1.175-2.43 2.43-3.684 3.605-.783.706-1.646.784-2.508.235L37.5 44.911c-.392-.235-.705-.314-1.176-.079-.392.236-.862.392-1.332.549-.47.157-.627.392-.706.862-.235 1.646-.548 3.214-.862 4.86-.235 1.097-.862 1.646-2.037 1.646h-5.173c-1.176 0-1.803-.627-2.038-1.725-.314-1.646-.549-3.292-.862-5.016-.079-.314-.157-.47-.47-.549a7.444 7.444 0 0 1-1.647-.705c-.313-.157-.548-.157-.862.078-1.332.94-2.743 1.881-4.154 2.822-1.019.705-1.803.549-2.665-.235-1.175-1.254-2.43-2.43-3.605-3.684-.784-.862-.862-1.724-.235-2.665.94-1.332 1.96-2.665 2.9-3.997.235-.314.235-.47.078-.862-.235-.549-.47-1.176-.705-1.725-.079-.235-.235-.392-.47-.392-1.647-.313-3.214-.627-4.86-.862-1.097-.235-1.646-.94-1.646-2.194 0-1.725 0-3.527.078-5.252 0-1.019.627-1.646 1.568-1.802 1.646-.314 3.37-.549 5.016-.784.314-.078.549-.157.627-.549.157-.548.47-1.097.706-1.646.156-.313.156-.47-.079-.783-.94-1.333-1.803-2.665-2.743-3.92-.784-1.175-.705-1.959.313-2.978 1.176-1.175 2.352-2.351 3.527-3.448.392-.47.863-.706 1.411-.706Zm14.657 39.816c.157-.156.157-.313.157-.47.235-1.489.549-3.057.784-4.546.156-.784.627-1.254 1.332-1.41 1.41-.393 2.665-.863 3.919-1.568.705-.392 1.41-.392 2.116.078.47.314 1.02.706 1.49 1.02a78.297 78.297 0 0 0 2.664 1.88 34.988 34.988 0 0 1 1.646-1.724c-.078-.079-.157-.235-.235-.314-.862-1.254-1.724-2.43-2.586-3.683-.55-.706-.627-1.49-.157-2.273.627-1.098 1.175-2.195 1.489-3.449.235-1.097.94-1.646 2.038-1.803 1.49-.235 2.9-.47 4.31-.705.236 0 .314-.078.314-.314V27.59c-.157 0-.313-.078-.392-.078a525.28 525.28 0 0 1-4.389-.706c-.94-.156-1.49-.705-1.724-1.567-.314-1.333-.862-2.587-1.49-3.684-.391-.705-.391-1.41.079-2.116.314-.47.705-1.02 1.019-1.49.627-.862 1.254-1.724 1.881-2.664-.627-.549-1.176-1.098-1.724-1.646-.079.078-.236.156-.392.235-1.176.862-2.43 1.724-3.606 2.586-.705.549-1.41.627-2.194.157-1.176-.705-2.508-1.254-3.84-1.646-.785-.235-1.255-.784-1.412-1.567-.078-.549-.156-1.02-.235-1.568-.157-1.097-.392-2.195-.548-3.449h-1.96c-.392 0-.47.157-.549.47-.235 1.412-.548 2.9-.783 4.312-.157.94-.627 1.489-1.568 1.724a12.546 12.546 0 0 0-3.684 1.489c-.783.47-1.489.392-2.194-.078a4.302 4.302 0 0 1-.706-.549c-1.097-.784-2.194-1.568-3.213-2.351l-1.725 1.724c.863 1.254 1.725 2.586 2.665 3.84.549.784.627 1.568.079 2.43-.706 1.098-1.176 2.352-1.49 3.606-.235.862-.783 1.332-1.645 1.489l-4.468.705c-.235 0-.392 0-.392.314v2.116a.847.847 0 0 0 .549.235c1.489.235 2.9.549 4.389.784.784.157 1.254.627 1.49 1.41a13.668 13.668 0 0 0 1.567 3.841c.392.706.392 1.411-.079 2.116-.548.784-1.175 1.568-1.724 2.352-.392.548-.784 1.097-1.254 1.724.47.47.94.862 1.41 1.333.236.235.393.235.706.078a149.626 149.626 0 0 0 3.684-2.587c.705-.47 1.41-.548 2.195-.156a13.671 13.671 0 0 0 3.84 1.567c.784.235 1.254.784 1.411 1.568.078.627.235 1.254.314 1.88.156 1.02.313 2.039.548 3.058.706.156 1.49.156 2.273.156Z"/><path d="M28.957 38.013c-5.173 0-9.249-4.075-9.327-9.248 0-5.095 4.154-9.249 9.248-9.249 5.173 0 9.25 4.076 9.25 9.249.077 5.173-4.077 9.248-9.171 9.248Zm-5.643-9.248c0 3.056 2.508 5.565 5.564 5.565 3.057 0 5.644-2.508 5.644-5.565 0-3.057-2.508-5.565-5.565-5.565-3.057 0-5.565 2.508-5.643 5.565Z"/></g><rect x="2.27" y="2" width="54" height="54" rx="11" stroke="#0EB2D3" stroke-width="4"/><defs><clipPath id="clip0_140_3420"><path fill="#fff" transform="translate(4.973 4.703)" d="M0 0h48.046v48.046H0z"/></clipPath></defs></svg>