<svg width="74" height="74" fill="none" xmlns="http://www.w3.org/2000/svg"><rect x="2" y="2" width="70" height="70" rx="11" stroke="#050606" stroke-width="4"/><g clip-path="url('#clip0_140_2930')" filter="url('#filter0_i_140_2930')" fill="#000"><path d="M67 18.238C67 14.377 64.533 12 60.633 12h-21.1l-24.1.066c-.433.066-.9.066-1.433 0H13.067c-2.767.231-4.8 2.542-5 5.413v15.48c0 6.041.166 12.114-.034 18.155-.166 4.918 2.967 7.195 7.234 7.13 10.166-.1 20.3-.034 30.466-.067 1.234 0 2.2.297 3.067 1.221a93.621 93.621 0 0 0 5.767 5.71c.566.529 1.633 1.057 2.233.826.533-.198.933-1.353 1-2.112.133-1.849.033-3.697.033-5.645h2.6c4.1-.066 6.567-2.41 6.567-6.47V18.239Zm-3.233 33.239c0 2.607-.867 3.433-3.5 3.466H56.6c-1.3 0-1.933.627-1.933 1.947.033 1.122 0 2.277 0 3.4-.167.066-.334.165-.5.23-1.434-1.518-2.834-3.102-4.367-4.488-.667-.594-1.733-1.056-2.6-1.056-10.833-.066-21.667-.033-32.467-.033-2.566 0-3.4-.76-3.4-3.334a5398.494 5398.494 0 0 1 0-32.843c0-2.904.7-3.63 3.634-3.63 15.1-.033 30.2-.033 45.3-.033 2.6 0 3.5.924 3.5 3.499v32.875Z"/><path d="M37.467 29.923c-3.133-.033-5.7 2.575-5.667 5.677.034 3.004 2.6 5.48 5.7 5.48 3.1.033 5.567-2.41 5.567-5.513 0-3.267-2.334-5.644-5.6-5.644Zm.033 7.955c-1.367-.033-2.4-1.056-2.4-2.377 0-1.32 1.1-2.376 2.433-2.343 1.334.033 2.467 1.122 2.434 2.376-.033 1.288-1.133 2.344-2.467 2.344ZM23.8 29.923c-3.2 0-5.7 2.476-5.7 5.644 0 2.971 2.633 5.546 5.667 5.513 3.2-.033 5.733-2.542 5.7-5.645-.067-3.102-2.567-5.545-5.667-5.512Zm0 7.955c-1.4.033-2.4-.924-2.4-2.344-.033-1.386.933-2.376 2.333-2.41 1.4-.032 2.367.925 2.4 2.311 0 1.42-.933 2.41-2.333 2.443ZM51.233 29.89c-3.2 0-5.633 2.443-5.633 5.677 0 3.037 2.533 5.513 5.6 5.513 3.133 0 5.633-2.443 5.633-5.48.067-3.201-2.4-5.677-5.6-5.71Zm-.066 7.955c-1.4-.033-2.4-1.056-2.367-2.41.033-1.287 1.133-2.343 2.467-2.343 1.333.033 2.433 1.122 2.4 2.41-.034 1.353-1.134 2.376-2.5 2.343Z"/></g><defs><clipPath id="clip0_140_2930"><path fill="#fff" transform="translate(8 12)" d="M0 0h59v54H0z"/></clipPath><filter id="filter0_i_140_2930" x="8" y="12" width="59" height="54" filterUnits="userSpaceOnUse" color-interpolation-filters="sRGB"><feFlood flood-opacity="0" result="BackgroundImageFix"/><feBlend in="SourceGraphic" in2="BackgroundImageFix" result="shape"/><feColorMatrix in="SourceAlpha" values="0 0 0 0 0 0 0 0 0 0 0 0 0 0 0 0 0 0 127 0" result="hardAlpha"/><feOffset dy="-131"/><feGaussianBlur stdDeviation="2"/><feComposite in2="hardAlpha" operator="arithmetic" k2="-1" k3="1"/><feColorMatrix values="0 0 0 0 0.054902 0 0 0 0 0.698039 0 0 0 0 0.827451 0 0 0 1 0"/><feBlend in2="shape" result="effect1_innerShadow_140_2930"/></filter></defs></svg>