<svg width="59" height="58" fill="none" xmlns="http://www.w3.org/2000/svg"><rect x="2.297" y="2" width="54" height="54" rx="11" stroke="#0EB2D3" stroke-width="4"/><g clip-path="url('#clip0_140_3411')" fill="#000"><path d="M52.81 14.295c0-3.027-1.933-4.89-4.99-4.89H31.284l-18.89.052c-.339.052-.705.052-1.123 0H10.54c-2.169.181-3.763 1.992-3.92 4.243v12.133c0 4.734.131 9.495-.025 14.229-.131 3.855 2.325 5.64 5.669 5.588 7.968-.078 15.91-.026 23.88-.052.966 0 1.724.233 2.403.958a73.394 73.394 0 0 0 4.52 4.475c.444.414 1.28.828 1.75.647.418-.155.732-1.06.784-1.656.104-1.449.026-2.897.026-4.424h2.038c3.213-.051 5.147-1.888 5.147-5.07V14.295Zm-2.534 26.051c0 2.044-.679 2.691-2.743 2.717H44.66c-1.019 0-1.515.491-1.515 1.526.026.88 0 1.785 0 2.665-.13.052-.261.13-.392.181-1.123-1.19-2.22-2.432-3.422-3.518-.523-.466-1.359-.828-2.038-.828-8.491-.052-16.982-.026-25.447-.026-2.012 0-2.665-.595-2.665-2.613-.026-8.589-.026-17.152 0-25.741 0-2.277.549-2.846 2.848-2.846 11.835-.026 23.67-.026 35.505-.026 2.038 0 2.743.725 2.743 2.742v25.767Z"/><path d="M29.663 23.453c-2.456-.026-4.468 2.018-4.441 4.45.026 2.354 2.037 4.294 4.467 4.294a4.284 4.284 0 0 0 4.363-4.32c0-2.561-1.829-4.424-4.389-4.424Zm.026 6.235c-1.071-.026-1.88-.828-1.88-1.863 0-1.035.861-1.863 1.906-1.837 1.045.026 1.934.88 1.907 1.863-.026 1.009-.888 1.837-1.933 1.837ZM18.951 23.453c-2.508 0-4.467 1.94-4.467 4.424 0 2.328 2.064 4.346 4.441 4.32 2.508-.026 4.494-1.992 4.468-4.424a4.384 4.384 0 0 0-4.442-4.32Zm0 6.235c-1.097.026-1.88-.725-1.88-1.837-.027-1.087.73-1.863 1.828-1.889 1.097-.026 1.855.725 1.881 1.811 0 1.113-.732 1.889-1.829 1.915ZM40.453 23.427c-2.508 0-4.415 1.915-4.415 4.45 0 2.38 1.985 4.32 4.389 4.32 2.456 0 4.415-1.914 4.415-4.294.053-2.51-1.88-4.45-4.389-4.476Zm-.052 6.235c-1.098-.026-1.881-.828-1.855-1.889.026-1.008.888-1.836 1.933-1.836 1.045.026 1.907.88 1.881 1.888-.026 1.06-.888 1.863-1.96 1.837Z"/></g><defs><clipPath id="clip0_140_3411"><path fill="#fff" transform="translate(6.567 9.405)" d="M0 0h46.243v42.324H0z"/></clipPath></defs></svg>